<?xml version="1.0" encoding="utf-8"?>
<!-- Generator: Adobe Illustrator 27.9.0, SVG Export Plug-In . SVG Version: 6.00 Build 0)  -->
<svg version="1.1" id="svg" xmlns="http://www.w3.org/2000/svg" xmlns:xlink="http://www.w3.org/1999/xlink" x="0px" y="0px"
	 viewBox="0 0 9219.9 2000" style="enable-background:new 0 0 9219.9 2000;" xml:space="preserve">
<style type="text/css">
	.st0{fill:#FFFFFF;}
</style>
<g>
	<g>
		<g>
			<path class="st0" d="M1786.2,341.7c144.4,0.6,285.5-1.6,431,0.1c-48.9,161-124.5,357.7-182.2,520.1l277.8-1.2
				c-130.5,90.2-261.8,179.1-394,266.8c-82.4,56.9-165.1,113.4-248.2,169.4c-92.6-143.4-204.6-287.5-294.7-432
				c88.1-4.7,180.4-1.3,269.3-3.3c7.4-34.1,16.3-67.3,26.1-100.8C1712.1,621.5,1745.7,480.8,1786.2,341.7L1786.2,341.7z"/>
		</g>
		<g>
			<path class="st0" d="M2287.3,378.6c139,10.8,278.3,45.7,398.5,114.6c157.9,90.6,199.9,295.8,90.6,444
				c-244.7,331.8-761.6,477.6-1151,561.7c-266.2,57.5-688,121.5-933.4-20.6c-48.9-32.3-91.6-83.4-101.1-143
				c-16.2-101.3,21.1-175.7,75.1-255.8c-102.7,258.2,77.7,354.7,301.3,391.2l21.3,2.6c403.2,47.9,1043.3-114.9,1363.4-369.5
				c97.6-77.7,213.3-197.1,227.7-327c6.5-55-9.8-110.2-45-152.9c-64.4-78.4-195.8-100.2-292.1-109.7l19.4-54.4
				c68.3,11.3,150.1,29.4,208.9,71c233.3,165.2,203.6,291.6,50.9,510.2c227.4-216.3,218.4-469-110.6-562.1
				c-50.9-14.4-94.4-21.3-147.1-29.4C2272.3,426.6,2279.8,401.8,2287.3,378.6z"/>
		</g>
		<g>
			<path class="st0" d="M645.9,751.8c256.8-43.2,520.5-72.7,778.4-110.1c42.8-6.2,90.9-12.5,133.8-15.9
				c-87.9,84.9-175.8,190.3-256.6,265.4l14.4,44.5c-148.5,12.3-297.1,21.6-446,27.9c-44.3,1.6-129.5,6.4-170.1,3
				c-36,4.9-124.3,3.6-162.9,3.8c-94.5,1.2-188.9,0.6-283.4-1.8c28.1-5.6,56.6-9,85.3-10.3c139.8-19.2,279.7-37,419.8-53.3
				c64.4-7.5,258.6-28.5,315.1-47c-138.1-1.8-222.2,14.4-364-21.3c225.6-16.6,358.2-27.7,576.4-104.6
				c-154.5,12-407.8,29.4-559.7,27.6c-23.9,4.2-151.4,11.1-170.2,2.5C581.6,756.7,620.1,753,645.9,751.8L645.9,751.8z"/>
		</g>
		<g>
			<path class="st0" d="M866.3,1624.2c473,35.7,1428.1-215.3,1803-521.1c49.3-40.2,82.4-79.8,119.3-131.1
				c-123.6,296.5-364.4,439.2-650.9,565.2c-34.4,15.1-304,112.5-330.1,104.3c-2.9,2.6,117.3-43.2,126-46.5
				c177.3-68,342.3-159.4,490.5-278.2c-61.7,33.2-124.2,70.7-187.4,100c-412.1,190.7-913.2,291.8-1363.6,218L866.3,1624.2z"/>
		</g>
		<g>
			<path class="st0" d="M1168.3,1011.8l17.4-0.2c3.5-8-355,111.8-272.1,261.4c101.9,183.8,439.2,135.5,613.2,107.6
				c-157.7,58.6-306.1,87.5-475.5,71c-84.8-9.5-199.9-25.9-254.7-100.7c-83.8-114.5,9.5-227.3,109.8-289.2c-2,2-4.1,4-6.1,6.1
				c-94.5,95.6-122,175.7-18.6,272.7c-17.8-32.3-35.5-45-38.1-86.2C833.4,1089.5,1041.1,1024.8,1168.3,1011.8L1168.3,1011.8z"/>
		</g>
		<g>
			<path class="st0" d="M1048.5,609.4c155-72.2,462.1-165.3,632.1-183c-5,18.7-7.7,28.5-15.2,46.5l-1.4,7.3
				c-23.4,2.9-46.7,6.1-70.1,9.4l-3.2-10.1c-99.6,15.8-208.6,34-305.3,59.6C1206,560.1,1129.4,590,1048.5,609.4L1048.5,609.4z"/>
		</g>
		<g>
			<path class="st0" d="M1593.8,489.6c23.3-3.4,46.7-6.5,70.1-9.4c-2.6,14-5.3,31.4-8.4,45.1c-75,8.2-149.9,17.6-224.6,28.2
				c-45.1,6.8-119.9,22.4-162.2,23.2C1353.7,547.1,1504.5,508,1593.8,489.6z"/>
		</g>
	</g>
	<g>
		<path class="st0" d="M3732.8,408.9c0,2.9-0.4,7.6-1.1,14.2c-0.7,6.5-1.7,13.9-2.9,22.1c-1.2,8.2-2.8,16.7-4.7,25.4
			c-1.9,8.7-4.2,16.8-6.9,24.3c-2.7,7.5-5.7,13.5-9.1,18.1c-3.4,4.6-7,6.9-10.9,6.9c-2.9,0-6.7-0.7-11.3-2.2
			c-4.6-1.5-9.8-3-15.6-4.7c-5.8-1.7-12.5-3.3-20-4.7c-7.5-1.4-15.6-2.2-24.3-2.2c-15.5,0-28.9,2.2-40.3,6.5
			c-11.3,4.3-21.2,11.2-29.4,20.7c-8.2,9.4-15.2,21.7-21.1,36.7c-5.8,15-10.6,32.9-14.5,53.7l-10.9,55.2h117.6
			c7.2,0,12.3,2.3,15.2,6.9c2.9,4.6,4.4,12,4.4,22.1c0,4.8-0.4,11.1-1.1,18.9c-0.7,7.7-2.1,16.1-4,25c-2,8.9-4.4,17.8-7.3,26.5
			c-2.9,8.7-6,16.7-9.4,24c-3.4,7.3-7.4,13.2-12,17.8c-4.6,4.6-9.6,6.9-14.9,6.9h-119l-113.9,568.9c-8.2,40.1-19.5,75.5-33.7,106
			c-14.3,30.5-32.3,56-54.1,76.6c-21.8,20.6-47.5,36-77.3,46.4c-29.8,10.4-63.5,15.6-101.2,15.6c-25.2,0-46.2-1.9-63.1-5.8
			c-16.9-3.9-27.8-7.7-32.7-11.6c-2.4-2.9-4.1-6.1-5.1-9.4c-1-3.4-1.5-8.2-1.5-14.5c0-2.9,0.4-7.7,1.1-14.5
			c0.7-6.8,1.8-14.1,3.3-22.1c1.4-8,3.3-16.3,5.5-25c2.2-8.7,4.6-16.7,7.2-23.9c2.7-7.3,5.7-13.2,9.1-17.8c3.4-4.6,7.3-6.9,11.6-6.9
			c2.9,0,5.8,0.2,8.7,0.7c2.9,0.5,6.1,1.1,9.4,1.8c3.4,0.7,7.4,1.3,12,1.8c4.6,0.5,10.5,0.7,17.8,0.7c15.5,0,28.9-2.3,40.3-6.9
			c11.3-4.6,21.1-11.7,29.4-21.4c8.2-9.7,15.2-22.1,21.1-37.4c5.8-15.2,10.9-33.7,15.2-55.5l109.6-545.7h-81.3
			c-5.8,0-10.3-2.1-13.4-6.2c-3.2-4.1-4.7-12-4.7-23.6c0-4.8,0.4-11.1,1.1-18.9c0.7-7.7,1.9-16,3.6-24.7c1.7-8.7,3.8-17.5,6.2-26.5
			c2.4-8.9,5.6-16.9,9.4-23.9s8.1-12.8,12.7-17.4c4.6-4.6,10-6.9,16.3-6.9h79.8l13.8-71.9c7.7-40.6,19.1-76.4,34.1-107.4
			c15-31,33.5-56.8,55.5-77.6c22-20.8,47.9-36.4,77.6-46.8c29.8-10.4,63.5-15.6,101.2-15.6c12.5,0,25.1,0.6,37.7,1.8
			c12.5,1.2,23.9,2.9,34.1,5.1c10.1,2.2,19.1,4.7,26.9,7.6c7.7,2.9,13,5.8,16,8.7c2.9,2.4,5,5.8,6.2,10.2
			C3732.2,397.3,3732.8,402.6,3732.8,408.9z"/>
		<path class="st0" d="M4195,693.4c0,3.4-0.5,9.4-1.4,18.1c-1,8.7-2.4,18.9-4.4,30.5c-1.9,11.6-4.3,23.6-7.2,35.9
			c-2.9,12.3-6.2,23.8-9.8,34.5c-3.6,10.6-7.7,19.4-12.3,26.1s-9.6,10.1-14.9,10.1c-4.4,0-8.7-0.8-13.1-2.5
			c-4.3-1.7-9.2-3.4-14.5-5.1c-5.3-1.7-11.1-3.4-17.4-5.1c-6.3-1.7-13.5-2.6-21.8-2.6c-16.5,0-34,6.3-52.6,18.9
			c-18.6,12.6-36.4,29.1-53.3,49.7c-16.9,20.6-32,44.5-45.4,71.9c-13.3,27.3-22.9,56-28.7,86l-58.1,291c-1,4.9-3.3,9.1-6.9,12.7
			c-3.6,3.6-9.2,6.7-16.7,9.1c-7.5,2.4-17.3,4.2-29.4,5.5c-12.1,1.2-26.9,1.8-44.3,1.8c-17.9,0-32.5-0.6-43.9-1.8
			c-11.3-1.2-20.3-3-26.8-5.5c-6.5-2.4-10.8-5.5-12.7-9.1c-2-3.6-2.4-7.9-1.5-12.7l129.2-648.1c0.9-4.8,3.1-9.1,6.5-12.7
			c3.4-3.6,8.4-6.5,14.9-8.7c6.5-2.2,15-3.9,25.4-5.1s22.9-1.8,37.4-1.8c15,0,27.2,0.6,36.7,1.8c9.4,1.2,16.8,2.9,22.1,5.1
			c5.3,2.2,8.8,5.1,10.5,8.7c1.7,3.6,2.1,7.9,1.1,12.7l-20.3,103.1c11.6-20.8,25-39.9,40.3-57.3c15.2-17.4,31.4-32.5,48.6-45.4
			c17.2-12.8,35-22.9,53.4-30.1c18.4-7.3,36.5-10.9,54.4-10.9c7.2,0,14.6,0.5,22.1,1.5c7.5,1,14.5,2.2,21,3.6
			c6.5,1.4,12.3,3.3,17.4,5.4c5.1,2.2,9.1,4.5,12,6.9C4193.6,682.5,4195,687.1,4195,693.4z"/>
		<path class="st0" d="M4885.1,845.8c0,34.8-7.9,66.2-23.6,94c-15.7,27.8-40.2,51.8-73.3,71.9c-33.1,20.1-75.2,35.4-126.3,46.1
			c-51,10.6-111.9,16-182.5,16h-66.8c-1.9,11.1-3.4,22.1-4.4,33s-1.4,20.9-1.4,30.1c0,39.2,10.1,68.7,30.5,88.5
			c20.3,19.8,53,29.7,98,29.7c32,0,60.6-2.3,86-6.9c25.4-4.6,47.6-9.7,66.8-15.2c19.1-5.6,35-10.6,47.6-15.2
			c12.5-4.6,21.8-6.9,27.6-6.9s9.9,1.7,12.3,5.1c2.4,3.4,3.6,8.7,3.6,16c0,8.2-0.7,17.7-2.2,28.3c-1.4,10.6-3.5,21.2-6.2,31.5
			c-2.7,10.4-6,20.2-10.1,29.4c-4.1,9.2-8.9,16.2-14.2,21c-5.8,5.8-16.4,11.6-31.9,17.4c-15.5,5.8-34.1,11.1-55.9,16
			c-21.8,4.8-46.2,8.8-73.3,12c-27.1,3.2-54.7,4.7-82.7,4.7c-46.4,0-87-4.8-121.6-14.5s-63.5-24.4-86.7-44.3
			c-23.2-19.8-40.6-45.1-52.2-75.8c-11.6-30.7-17.4-67.1-17.4-109.2c0-32.4,3-67.1,9.1-104.1c6-37,15.8-73.5,29.4-109.6
			c13.5-36,31-70.5,52.2-103.4c21.3-32.9,47.1-61.8,77.3-86.7c30.2-24.9,65.2-44.9,104.9-59.8c39.7-15,84.9-22.5,135.7-22.5
			c44,0,81.9,5.2,113.6,15.6c31.7,10.4,57.7,24.2,78,41.4c20.3,17.2,35.4,36.8,45.4,58.8C4880.2,800,4885.1,822.6,4885.1,845.8z
			 M4705.9,859.6c0-19.3-7.6-35.4-22.9-48.2c-15.2-12.8-37.4-19.2-66.4-19.2c-24.2,0-45.9,4.3-65,13s-35.9,20.4-50.4,35.2
			c-14.5,14.7-27,32.2-37.4,52.2c-10.4,20.1-18.8,41.5-25,64.2h61c38.7,0,71.1-2.6,97.2-7.6c26.1-5.1,47.2-12,63.2-20.7
			c16-8.7,27.6-19,34.8-30.8C4702.3,885.8,4705.9,873.1,4705.9,859.6z"/>
		<path class="st0" d="M5652.9,698.5c0,5.3-0.7,11.8-2.2,19.6c-1.5,7.7-3.6,16-6.5,24.7c-17.9,52.2-37.7,104.6-59.5,157.1
			c-21.8,52.5-45.7,104.4-71.9,155.7c-26.1,51.3-54.3,101.6-84.5,150.9c-30.2,49.3-63,97-98.3,143c-4.8,6.8-10.6,12.2-17.4,16.3
			c-6.8,4.1-15,7.2-24.7,9.4c-9.7,2.2-21.1,3.5-34.1,4c-13,0.5-28.3,0.7-45.7,0.7c-26.6,0-47.6-0.6-63.1-1.8
			c-15.5-1.2-27.4-3.3-35.6-6.2c-8.2-2.9-13.8-6.9-16.7-12c-2.9-5.1-4.6-11.5-5.1-19.2l-76.2-582c-0.5-7.7-1-15-1.5-21.8
			c-0.5-6.8-0.7-13.1-0.7-18.9c0-9.7,1.1-17.1,3.3-22.1c2.2-5.1,6.5-9.2,13-12.3c6.5-3.1,16-5.4,28.3-6.9
			c12.3-1.4,28.9-2.2,49.7-2.2c19.4,0,34.6,0.5,45.7,1.5c11.1,1,19.7,2.6,25.8,5.1s10,5.7,12,9.8c1.9,4.1,3.2,9.1,3.6,14.9
			l55.2,475.4v18.1l3.6-6.5c24.7-37.3,47-74.7,67.1-112.5s38.7-76.4,55.9-116.1c17.2-39.6,33.2-80.8,48.3-123.4
			c15-42.6,29.8-87.6,44.3-135c1.4-6.3,4.1-11.3,8-15.2c3.9-3.9,9.8-7,17.8-9.4c8-2.4,18.1-4.1,30.5-5.1s27.7-1.5,46.1-1.5
			c17.9,0,32.5,0.5,43.9,1.5s20.1,2.4,26.1,4.3s10.2,4.4,12.3,7.3C5651.8,690.5,5652.9,694.1,5652.9,698.5z"/>
		<path class="st0" d="M6359.7,845.8c0,34.8-7.9,66.2-23.6,94c-15.7,27.8-40.2,51.8-73.3,71.9c-33.1,20.1-75.2,35.4-126.3,46.1
			c-51,10.6-111.9,16-182.5,16h-66.8c-1.9,11.1-3.4,22.1-4.4,33c-1,10.9-1.4,20.9-1.4,30.1c0,39.2,10.1,68.7,30.5,88.5
			c20.3,19.8,53,29.7,98,29.7c32,0,60.6-2.3,86-6.9c25.4-4.6,47.6-9.7,66.8-15.2c19.1-5.6,35-10.6,47.6-15.2
			c12.5-4.6,21.8-6.9,27.6-6.9s9.9,1.7,12.3,5.1c2.4,3.4,3.6,8.7,3.6,16c0,8.2-0.7,17.7-2.2,28.3c-1.4,10.6-3.5,21.2-6.2,31.5
			c-2.7,10.4-6,20.2-10.1,29.4c-4.1,9.2-8.9,16.2-14.2,21c-5.8,5.8-16.4,11.6-31.9,17.4s-34.1,11.1-55.9,16
			c-21.8,4.8-46.2,8.8-73.3,12c-27.1,3.2-54.7,4.7-82.7,4.7c-46.4,0-87-4.8-121.6-14.5s-63.5-24.4-86.7-44.3
			c-23.2-19.8-40.6-45.1-52.2-75.8c-11.6-30.7-17.4-67.1-17.4-109.2c0-32.4,3-67.1,9.1-104.1c6-37,15.8-73.5,29.4-109.6
			c13.5-36,31-70.5,52.2-103.4c21.3-32.9,47.1-61.8,77.3-86.7c30.2-24.9,65.2-44.9,104.9-59.8c39.7-15,84.9-22.5,135.7-22.5
			c44,0,81.9,5.2,113.6,15.6c31.7,10.4,57.7,24.2,78,41.4c20.3,17.2,35.4,36.8,45.4,58.8C6354.8,800,6359.7,822.6,6359.7,845.8z
			 M6180.5,859.6c0-19.3-7.6-35.4-22.9-48.2c-15.2-12.8-37.4-19.2-66.4-19.2c-24.2,0-45.9,4.3-65,13s-35.9,20.4-50.4,35.2
			c-14.5,14.7-27,32.2-37.4,52.2c-10.4,20.1-18.8,41.5-25,64.2h61c38.7,0,71.1-2.6,97.2-7.6c26.1-5.1,47.2-12,63.2-20.7
			c16-8.7,27.6-19,34.8-30.8C6176.9,885.8,6180.5,873.1,6180.5,859.6z"/>
		<path class="st0" d="M7039,746.4c0,11.1-1.3,23.7-4,37.7c-2.7,14-6.2,27.4-10.5,39.9c-4.4,12.6-9.8,23.1-16.3,31.5
			c-6.5,8.5-13.7,12.7-21.4,12.7c-7.3,0-14.3-2.9-21.1-8.7c-6.8-5.8-15.1-12.3-25-19.6c-9.9-7.2-22.4-13.9-37.4-19.9
			c-15-6.1-34.4-9.1-58.1-9.1c-25.2,0-47.7,5.6-67.5,16.7c-19.9,11.1-37.1,25.5-51.9,43.2c-14.7,17.7-27,37.7-36.7,60.2
			c-9.7,22.5-17.7,45.2-24,68.2c-6.3,23-10.8,45-13.4,66c-2.7,21.1-4,39.3-4,54.8c0,39.2,8.6,68.9,25.8,89.3
			c17.2,20.3,44.2,30.5,80.9,30.5c27.1,0,50.3-3.5,69.7-10.5c19.4-7,35.9-14.7,49.7-23.2c13.8-8.5,25.7-16.1,35.6-22.9
			c9.9-6.8,19-10.1,27.2-10.1c4.8,0,8.4,2.2,10.5,6.5c2.2,4.4,3.3,10.7,3.3,18.9c0,8.2-1,18.5-2.9,30.8c-1.9,12.3-4.5,24.8-7.6,37.4
			c-3.1,12.6-6.8,24.3-10.9,35.2s-9.4,19.5-16,25.7c-6.5,6.3-16.8,13.4-30.8,21.4c-14,8-30.3,15.1-48.6,21.4
			c-18.4,6.3-38.4,11.3-59.9,15.2c-21.6,3.8-43.9,5.8-67.1,5.8c-82.7,0-144.7-20.9-185.8-62.8c-41.1-41.8-61.7-103.6-61.7-185.4
			c0-29.5,2.8-61.9,8.4-97.3c5.5-35.3,14.6-70.8,27.2-106.3c12.6-35.5,28.9-70,49-103.4c20.1-33.4,44.6-62.9,73.7-88.5
			c29-25.7,62.7-46.2,100.9-61.7c38.2-15.5,82.2-23.2,132.1-23.2c19.4,0,38.2,1.5,56.6,4.4s35.3,6.9,50.8,12s29.1,11,41,17.8
			c11.8,6.8,20.7,13,26.5,18.5c5.8,5.6,9.5,10.5,11.2,14.9C7038.1,734.7,7039,740.1,7039,746.4z"/>
		<path class="st0" d="M7595.5,710.1c0,4.8-0.5,11-1.4,18.5c-1,7.5-2.3,15.6-4,24.3s-4,17.4-6.9,26.1s-6.2,16.6-9.8,23.6
			c-3.6,7-7.7,12.8-12.3,17.4c-4.6,4.6-9.6,6.9-14.9,6.9h-141.5l-61,304.1c-1.5,7.3-2.8,15.9-4,25.8c-1.2,9.9-1.8,18-1.8,24.3
			c0,19.4,4.6,33.5,13.8,42.5c9.2,8.9,23.7,13.4,43.5,13.4c11.6,0,21.5-0.9,29.8-2.6c8.2-1.7,15.3-3.6,21.4-5.8
			c6-2.2,11.3-4.1,15.6-5.8c4.4-1.7,8.5-2.6,12.3-2.6c3.9,0,7.1,1.8,9.8,5.5c2.6,3.6,4,9.6,4,17.8c0,9.2-1,19.6-2.9,31.2
			s-4.5,22.8-7.6,33.7c-3.1,10.9-6.7,20.8-10.5,29.7c-3.9,9-8,15.6-12.3,20c-4.4,4.3-10.9,8.5-19.6,12.3s-19,7.2-30.8,10.1
			c-11.8,2.9-24.5,5.2-38.1,6.9c-13.5,1.7-27.1,2.6-40.6,2.6c-29,0-54.6-3-76.6-9.1c-22-6-40.5-15.6-55.5-28.7
			c-15-13.1-26.2-29.8-33.7-50.1c-7.5-20.3-11.2-45-11.2-74c0-5.3,0.2-11.5,0.7-18.5c0.5-7,1.3-14.4,2.5-22.1
			c1.2-7.7,2.4-15.6,3.6-23.6c1.2-8,2.6-15.1,4-21.4l63.1-315.7h-78.4c-6.3,0-10.9-2.1-13.8-6.2c-2.9-4.1-4.3-12-4.3-23.6
			c0-8.2,0.8-19,2.5-32.3c1.7-13.3,4.5-26.4,8.4-39.2c3.9-12.8,8.9-23.8,15.2-33c6.3-9.2,13.8-13.8,22.5-13.8h77.6l29-144.4
			c1-4.8,3.3-9.2,6.9-13c3.6-3.9,9.2-7.2,16.7-9.8c7.5-2.7,17.2-4.6,29-5.8c11.8-1.2,26.7-1.8,44.6-1.8c17.4,0,31.9,0.6,43.5,1.8
			c11.6,1.2,20.6,3.1,26.9,5.8c6.3,2.6,10.5,5.9,12.7,9.8c2.2,3.9,2.8,8.2,1.8,13l-29.1,144.4h140.1c8.2,0,13.8,2.6,16.7,8
			C7594.1,692.2,7595.5,699.9,7595.5,710.1z"/>
		<path class="st0" d="M8329.9,921.3c0,34.8-3.3,70.7-9.8,107.4c-6.5,36.8-16.8,72.7-30.8,107.8c-14,35.1-32,68-54,98.7
			c-22,30.7-48.4,57.8-79.1,81.3c-30.7,23.5-65.9,42-105.6,55.5c-39.7,13.5-84.4,20.3-134.3,20.3c-48.9,0-91.1-5.7-126.6-17
			c-35.6-11.4-65.2-28.1-88.9-50.1c-23.7-22-41.4-49.1-53-81.3c-11.6-32.2-17.4-69.1-17.4-110.7c0-34.8,3.3-70.6,9.8-107.4
			c6.5-36.7,16.8-72.6,30.8-107.4c14-34.8,32-67.8,54.1-99c22-31.2,48.4-58.4,79.1-81.7c30.7-23.2,65.9-41.6,105.6-55.2
			c39.7-13.5,84.4-20.3,134.3-20.3c48.8,0,91.1,5.7,126.6,17.1c35.6,11.4,65.2,28.1,88.9,50.1c23.7,22,41.3,49.1,53,81.3
			S8329.9,879.7,8329.9,921.3z M8141.2,933.6c0-20.3-2.1-38.4-6.2-54.1s-10.9-29-20.3-39.9c-9.4-10.9-21.5-19.2-36.3-25
			c-14.7-5.8-32.8-8.7-54-8.7c-24.2,0-46,4.7-65.3,14.2c-19.4,9.4-36.7,22.1-51.9,38.1c-15.2,16-28.4,34.5-39.6,55.5
			c-11.1,21.1-20.3,43.2-27.6,66.4c-7.3,23.2-12.6,46.8-16,70.8c-3.4,24-5.1,46.8-5.1,68.6c0,20.3,2.1,38.5,6.2,54.4
			c4.1,16,10.9,29.4,20.3,40.3c9.4,10.9,21.5,19.2,36.3,25s32.8,8.7,54.1,8.7c24.2,0,45.9-4.7,65.3-14.2
			c19.3-9.4,36.6-22.2,51.9-38.4c15.2-16.2,28.4-34.9,39.6-55.9c11.1-21.1,20.3-43.3,27.6-66.8c7.2-23.5,12.5-47.1,16-70.8
			C8139.5,978.1,8141.2,955.4,8141.2,933.6z"/>
		<path class="st0" d="M8966.4,693.4c0,3.4-0.5,9.4-1.4,18.1s-2.4,18.9-4.4,30.5c-1.9,11.6-4.3,23.6-7.2,35.9
			c-2.9,12.3-6.2,23.8-9.8,34.5c-3.6,10.6-7.7,19.4-12.3,26.1s-9.6,10.1-14.9,10.1c-4.4,0-8.7-0.8-13.1-2.5
			c-4.3-1.7-9.2-3.4-14.5-5.1c-5.3-1.7-11.1-3.4-17.4-5.1c-6.3-1.7-13.5-2.6-21.8-2.6c-16.5,0-34,6.3-52.6,18.9
			c-18.6,12.6-36.4,29.1-53.3,49.7c-16.9,20.6-32,44.5-45.4,71.9c-13.3,27.3-22.9,56-28.7,86l-58.1,291c-1,4.9-3.3,9.1-6.9,12.7
			c-3.6,3.6-9.2,6.7-16.7,9.1c-7.5,2.4-17.3,4.2-29.4,5.5c-12.1,1.2-26.9,1.8-44.3,1.8c-17.9,0-32.5-0.6-43.9-1.8
			c-11.3-1.2-20.3-3-26.8-5.5c-6.5-2.4-10.8-5.5-12.7-9.1c-2-3.6-2.4-7.9-1.5-12.7l129.2-648.1c0.9-4.8,3.1-9.1,6.5-12.7
			c3.4-3.6,8.4-6.5,14.9-8.7c6.5-2.2,15-3.9,25.4-5.1c10.4-1.2,22.9-1.8,37.4-1.8c15,0,27.2,0.6,36.7,1.8c9.4,1.2,16.8,2.9,22.1,5.1
			c5.3,2.2,8.8,5.1,10.5,8.7c1.7,3.6,2.1,7.9,1.1,12.7l-20.3,103.1c11.6-20.8,25-39.9,40.3-57.3c15.2-17.4,31.4-32.5,48.6-45.4
			c17.2-12.8,35-22.9,53.4-30.1c18.4-7.3,36.5-10.9,54.4-10.9c7.2,0,14.6,0.5,22.1,1.5c7.5,1,14.5,2.2,21,3.6
			c6.5,1.4,12.3,3.3,17.4,5.4c5.1,2.2,9.1,4.5,12,6.9C8964.9,682.5,8966.4,687.1,8966.4,693.4z"/>
	</g>
</g>
</svg>
