<?xml version="1.0" encoding="utf-8"?>
<!-- Generator: Adobe Illustrator 27.9.0, SVG Export Plug-In . SVG Version: 6.00 Build 0)  -->
<svg version="1.1" id="svg" xmlns="http://www.w3.org/2000/svg" xmlns:xlink="http://www.w3.org/1999/xlink" x="0px" y="0px"
	 viewBox="0 0 3000 3000" enable-background="new 0 0 3000 3000" xml:space="preserve">
<g>
	<g>
		<defs>
			<rect id="SVGID_1_" x="0" width="3000" height="3000"/>
		</defs>
		<clipPath id="SVGID_00000172418300450407759500000003904271009265133469_">
			<use xlink:href="#SVGID_1_"  overflow="visible"/>
		</clipPath>
		<g clip-path="url(#SVGID_00000172418300450407759500000003904271009265133469_)">
			<path fill="#191919" d="M0,0h3000v1513v99v422v316v650h-155h-150H317H110H0v-721v-143v-383V0z"/>
			<path fill="#191919" d="M535,1501c-28,60,37,52,29,100c-1,8-27,17-27,31c-5,24,17,62-1,81c-12,4-22,3-28,12c-6,33,33,20,31,44
				c-1,9-13,23-8,32c1,0,2,1,4,1c19-9,44-24,63-32c21-8,47-13,68-12h8c17,3,29,9,44,16l6,1v-1c-7-4-30-14-38-17c10-4,61,12,73,17
				c33,15,65,38,87,67c4,6,11,24,14,31c1,3,2,6,3,9c3,9,11,17,18,24c0,18,0,29-2,47c-3-4-3-6-5-11h-1v3c2,19,7,19,6,45
				c-8,51-8,54-27,100c6,7,8,8,15,13c10-2,27-6,35-1c6,10,4,16,12,30c12,7,13,7,27,7c9-3,42-20,50-25c22-15,25-16,52-22
				c22-4,19-2,41,2c31,5,38-11,41-38c33-10,26-7,55-25c6,2,12,4,17,5c-1,4-7,17-4,21c6,8,21,6,30,4c43-11,50-1,59-46
				c23-37,53-10,66-44c4-12,8-28,12-41c-3-13-9-18-18-26c14-1,23-4,32-14c3-5,5-8,8-14c9-1,15-1,24-2c11,8,23,17,37,15
				c8-1,14-7,22-5c7,4,7,10,9,18c3,12,19,32,29,38c7,4,21-3,29-5c7,3,15,5,22,8c9,12,16,21,30,28l3,2c6,15,29,37,45,23
				c9-8,11-19,15-29c9,2,14,3,21,9c7,22,8,14,24,23c20,12,28,32,52,9c54-20,16,75,97,22c11,5,25,18,34,21c28,9,73,17,102,12
				c15-3,10-33,10-45c9,8,15,13,25,21c5,3,13,8,19,10c22,6,54-6,63,23c3,10,1,25,10,31c5,3,18,3,22,1c15-7,5-27,31-24h1
				c-2-11-5-20-8-31c-4-27-3-48,5-74c9-12,16-44,31-48l2-4l8-2c2-3,5-6,7-9c14-13,29-25,44-37c17-10,28-19,47-28c34-15,71-34,108-18
				l-1-6l1-2c47-12,123,9,164,34c18,11,35,24,52,38c4-1,4-2,7-4c6-5,12-9,19-15c13-12,11-30,11-47c12-7,22-9,36-19
				c20,14,51,42,72,58c59,47,121,92,185,133c13,8,40,27,52,33v316V3000h-155h-150H317H110H0v-721v-143v-383c8-2,26-10,34-13l73-29
				c72-28,143-58,213-90c29-13,56-29,84-45L535,1501z"/>
			<path fill="#FEAE77" d="M535,1501c-28,60,37,52,29,100c-1,8-27,17-27,31c-5,24,17,62-1,81c-12,4-22,3-28,12c-6,33,33,20,31,44
				c-1,9-13,23-8,32c1,0,2,1,4,1c19-9,44-24,63-32c21-8,47-13,68-12h8c17,3,29,9,44,16l6,1v-1c-7-4-30-14-38-17c10-4,61,12,73,17
				c33,15,65,38,87,67c4,6,11,24,14,31c1,3,2,6,3,9c3,9,11,17,18,24c0,18,0,29-2,47c-3-4-3-6-5-11h-1v3c2,19,7,19,6,45
				c-8,51-8,54-27,100c-8,16-20,36-26,50c-3,2-1,0-3,3c-12,22-36,46-52,65c-98,117-201,230-311,336c-32,31-80,65-107,95
				c41,48,76,100,50,166c-22,54-46,106-72,159c-5,11-11,23-17,33H110H0v-721v-143v-383c8-2,26-10,34-13l73-29c72-28,143-58,213-90
				c29-13,56-29,84-45L535,1501z"/>
			<path fill="#FEAE77" d="M780,1806c47,24,100,84,90,141c0,2-1,5-1,7c-24,63-158,196-222,224c-23,10-46,13-70,3c-37-14-72-49-94-81
				c7-9,9-26,24-41c28-28,57-46,90-68C674,1942,738,1887,780,1806z"/>
			<path fill="#E4733A" d="M357,2642c41,48,76,100,50,166c-22,54-46,106-72,159c-5,11-11,23-17,33H110c17-42,44-91,62-134
				c7-16,30-67,39-79c13-18,48-51,64-67C302,2694,329,2668,357,2642z"/>
			<path fill="#FEB599" d="M484,2101c-5-10-10-19-14-30c-21-59,40-120,74-161c31-35,62-72,99-102c47-39,89-27,137-2
				c-42,81-107,136-182,185c-33,22-62,40-90,68C494,2074,491,2092,484,2101z"/>
			<path fill="#E4733A" d="M0,2136c67-32,133-65,200-97c21-10,72-38,91-45c-74,77-146,155-223,228c-13,12-51,49-63,58c-1,0-3,0-4,0
				L0,2136z"/>
			<path fill="#E4733A" d="M720,1775l6,1v-1c-7-4-30-14-38-17c10-4,61,12,73,17c33,15,65,38,87,67c4,6,11,24,14,31c1,3,2,6,3,9
				c3,9,11,17,18,24c0,18,0,29-2,47c-3-4-3-6-5-11h-1v3h-7c9-57-43-116-90-141c-49-25-90-37-137,2c-37,30-67,67-99,102
				c-34,42-96,102-74,161c4,11,9,20,14,30c22,32,56,67,94,81c24,9,47,7,70-3c64-28,197-161,222-224c2,1,1,0,2,2c-8,46-63,116-95,150
				c-36,39-103,95-157,102c-76,9-163-80-174-150c-7-60,49-121,87-162c40-42,88-89,139-116c9-5,35-4,46-6L720,1775z"/>
			<path fill="#FEB327" d="M309,1823c1-6,4-19,8-23c16-14,35-24,51-37c5-4,9-2,14-1c14,4,28,8,42,13c-5,21-12,24-9,44
				c10,8,23,16,31,26c-7,4-14,7-21,10c2,26-3,50-27,64c-6,0-13,0-19,0c-13,1-20,6-33,3c-27,13-29,9-47-13c-5,0-14,0-17-3
				c2-17-1-9-6-24c-1-2,1-9,3-11c10-14,25-20,40-24C323,1837,315,1834,309,1823z"/>
			<path fill="#EE7D0C" d="M300,1911c-5,0-14,0-17-3c2-17-1-9-6-24c-1-2,1-9,3-11c10-14,25-20,40-24c-1,7-5,32,2,35
				c26,9,24,10,25,40C320,1937,318,1933,300,1911z"/>
			<path fill="#E16213" d="M234,2165c7,4,10,28,13,39c15,50,47,88,93,114c17,9,34,16,49,24v4c-3,0-6,1-8,0
				C302,2333,224,2248,234,2165z"/>
			<path fill="#E16213" d="M335,2224c10,3,21,19,30,26c24,19,55,25,85,26c7,0,17,0,22,4v3l-3,3c-22,4-38,5-60,2
				C380,2283,329,2258,335,2224z"/>
			<path fill="#FEAE77" d="M2655,1830c12-7,22-9,36-19c20,14,51,42,72,58c59,47,121,92,185,133c13,8,40,27,52,33v316v649h-155h-150
				c-30-62-75-163-82-230c-4-39,11-60,35-87c-107-101-214-185-312-296c6-3,20-7,21-14c2-23-17-61-40-66c-20-5-19,17-31,21
				c-1-3-28-43-32-49c-22-36-40-74-60-111c-4-13-12-30-18-43c-6-15-10-26-15-42c-2-11-5-20-8-31c-4-27-3-48,5-74c9-12,16-44,31-48
				l2-4l8-2c2-3,5-6,7-9c14-13,29-25,44-37c17-10,28-19,47-28c34-15,71-34,108-18l-1-6l1-2c47-12,123,9,164,34c18,11,35,24,52,38
				c4-1,4-2,7-4c6-5,12-9,19-15C2657,1865,2655,1847,2655,1830z"/>
			<path fill="#E4733A" d="M2655,1830c12-7,22-9,36-19c20,14,51,42,72,58c59,47,121,92,185,133c13,8,40,27,52,33v316
				c-13-20-32-44-47-63l-74-99c-14-19-33-43-46-63c-30-33-57-76-88-109c-5-6-25-28-26-33c-6-2-90-79-100-89c4-1,4-2,7-4
				c6-5,12-9,19-15C2657,1865,2655,1847,2655,1830z"/>
			<path fill="#191919" d="M2719,1984c33,6,91,15,121,26c17,6,66,44,82,55c20,14,42,35,63,48c-30,3-61,7-91,10c-21,2-41,2-61,4
				c-30-33-57-76-88-109C2740,2012,2720,1989,2719,1984z"/>
			<path fill="#FEB599" d="M2296,1849c14,14,23,27,34,44c39,57,75,117,112,175l43,66c6,10,23,35,27,44c-35,29-103,68-152,55
				c-32-9-56-44-74-70c-8-12-20-27-27-40c-7-8-21-33-28-43c-11-19-23-39-33-58c1-7-11-22-12-29c-3-11,1-17-4-29c3-17,6-23,14-39
				c2-3,5-6,7-9c14-13,29-25,44-37C2266,1867,2277,1858,2296,1849z"/>
			<path fill="#FEAE77" d="M2232,2080c19,2,24,28,28,43C2253,2114,2238,2090,2232,2080z"/>
			<path fill="#E4733A" d="M2648,2682c45,41,77,79,112,128c14,19,28,36,37,58c12,26,21,52,30,79c6,17,11,37,17,53h-150
				c-30-62-75-163-82-230C2609,2730,2624,2710,2648,2682z"/>
			<path fill="#FEAE77" d="M2296,1849c34-15,71-34,108-18c52,30,138,184,158,244c14,42-20,77-50,102c-4-10-21-34-27-44l-43-66
				c-38-58-73-118-112-175C2319,1876,2310,1862,2296,1849z"/>
			<path fill="#E4733A" d="M2403,1826c72,45,158,162,181,244c26,88-107,165-177,182c-23,6-52,5-72-10c-59-47-97-121-132-187
				c-11-22-19-39-20-63c3,6,13,27,16,31c10,20,22,39,33,58c6,10,21,34,28,43c7,13,19,28,27,40c18,26,42,61,74,70
				c48,13,116-26,152-55c29-25,64-60,50-102c-21-60-107-214-158-244L2403,1826z"/>
			<path fill="#E4733A" d="M2190,1926l8-2c-8,16-11,22-14,39c0,4,0,8-2,11c-3-13,3-33,8-45V1926z"/>
			<path fill="#E4733A" d="M2776,2316c8,5,10,9,7,18c-17,54-83,128-146,111c-5-2-4-2-8-6v-3c6-4,24-1,34-3c42-10,70-46,92-81
				c7-12,13-24,20-36H2776z"/>
			<path fill="#E4733A" d="M2713,2266c6,0,8,2,10,7c-4,7-22,11-26,17c-26,44-48,77-103,89c-4,0-3,0-7,0l-2-3l1-3c15-12,32-10,58-34
				C2674,2311,2677,2279,2713,2266z"/>
			<path fill="#EE7D0C" d="M2014,2042c5,3,13,8,19,10c22,6,54-6,63,23c3,10,1,25,10,31c5,3,18,3,22,1c15-7,5-27,31-24h1
				c5,15,9,27,15,42c5,13,14,30,18,43c-24,13-38,19-60-1c-1-5,0-14-6-20c-8-9-17-10-26-20c-10-11-16-25-25-34c-8-9-41-7-53-6
				C2008,2071,2011,2061,2014,2042z"/>
			<path fill="#FEB327" d="M2285,2327c12-4,11-26,31-21c23,5,43,43,40,66c-1,7-14,11-21,14c-20,10-30,17-41-8c-7,0-14,0-21,0l-20-13
				c-8,0-20,1-26-3c-5-9-3-20,0-30c9-28,31-2,55-6L2285,2327z"/>
			<path fill="#EE7D0C" d="M856,2093c6,7,8,8,15,13c10-2,27-6,35-1c6,10,4,16,12,30c12,7,13,7,27,7c-7,9-5,16-10,22
				c-20,28-41,8-61-3c-14-8-31-2-44-17C836,2129,848,2109,856,2093z"/>
			<path fill="#FEB327" d="M2023,2086c12-1,44-3,53,6s15,23,25,34c9,10,18,11,26,20c6,7,5,16,6,20c-6,5-7,6-14,10c-54-7-61-14-56-71
				C2048,2098,2036,2095,2023,2086z"/>
			<path fill="#FEB327" d="M1270,2332c16-23,13-11,34-17c7-13-2-32,26-39c7-2,10-3,17-1c13,13-10,19,22,32c4-10,8-22,19-25
				c24-7,42,22,55,38c6,6,13,11,18,17s7,26,13,29c27,10,6,21,5,38c-8,23-23,29-46,34c-19,4-30,5-46-8c-9-4-14-7-24-9
				c-22-5-13-18-13-34c-3,0-3,1-6,5c-14,16-13,16-32,24c-38,20-32-7-54-26c-2-1-14-1-19-5c-10-21-28-12-4-40c-5-7-6-5-6-12
				C1235,2319,1259,2328,1270,2332L1270,2332z"/>
			<path fill="#EE7D0C" d="M1372,2378c-5-9-14-20-5-29c15-6,33,6,48,6c17,0,39-15,50,4c-2,10-18,10-17,24c1,23,24,13,31,20
				c-8,23-23,29-46,34c-19,4-30,5-46-8c-2-10-3-20-7-30c-4-9-10-6-17-11L1372,2378z"/>
			<path fill="#EE7D0C" d="M1239,2385c21-13,37,3,41-32l2,1c7,3,15,6,23,8c44,11,1,32,1,49c3,3,3,3,6,5c-38,20-32-7-54-26
				C1256,2388,1244,2388,1239,2385z"/>
			<path fill="#FEB327" d="M1992,2516c1-2,2-4,2-6c7-16,57-70,78-59c20,11-7,41-2,59c3,4,47,27,50,27c27,2,35,3,39,33
				c2,13,16,16,27,21c9,4,5,22,0,29c-6,8-17,9-26,10c-4,4-4,5-9,7c-18-10-15,15-33-5l-10-17c-36,5-57-1-74-33c-34,0-49-8-38-44
				C1995,2530,1994,2526,1992,2516z"/>
			<path fill="#EE7D0C" d="M2120,2632c24-6,11-32,21-41c16,0,4,26,20,39c-4,4-4,5-9,7C2135,2627,2138,2652,2120,2632z"/>
			<path fill="#FEB327" d="M1819,2166c12-1,35,4,42,14c12,18-7,30-19,37c-2,6-5,11-7,17c-8,8-15,9-25,13c-6-16-9-28-11-44
				C1802,2198,1816,2170,1819,2166z"/>
			<path fill="#FEB327" d="M1492,2057c7-1,15,1,23,1c22-1,40,18,31,41c-12-1-24-1-36-2C1493,2085,1478,2076,1492,2057z"/>
			<path fill="#FEB327" d="M1640,2260c7,0,14,2,20,5c5,3,5,5,6,9c-1,5-4,7-8,10c-6,5-8,7-15,6C1634,2285,1637,2269,1640,2260z"/>
			<path fill="#EE7D0C" d="M2158,1228c7,1,16,4,23,2c7-11-1-12,0-24c7-12,30-21,43-16c11,4,9,18,14,25c12,19,40,1,58,8
				c7,7,4,12,3,21c-3,28,32,18,47,13c11,1,17,3,27,7c11,14,19,30,14,45c-14,45-10,37,27,57c6,3,7,25,19,30c10-1,9-14,24-19
				c5-6,10-11,15-16c25-6,81-10,56,33c1,21,22,31,33,11c20-32,37,9,50,23c17,5,37,13,29,35c-8,21-29,29-17,53c52-4,39,37,30,70
				c-7,25,4,64,15,87c34-24,44,14,35,41c1,17,4,36-17,41c17,15,29,30,11,50c-2,2-4,4-5,6c-14,10-24,12-36,19c0,17,2,35-11,47
				c-6,6-13,9-19,15c-3,2-3,2-7,4c-16-14-33-26-52-38c-40-25-117-46-164-34l-1,2l1,6c-37-16-74,3-108,18c-18,9-30,18-47,28
				c-15,12-30,25-44,37c-2,3-5,6-7,9l-8,2l-2,4c-15,4-23,36-31,48c-8,26-9,47-5,74c3,11,5,20,8,31h-1c-26-2-16,17-31,24
				c-4,2-17,2-22-1c-10-7-7-21-10-31c-10-29-41-18-63-23c-6-1-14-7-19-10c-10-7-16-13-25-21c0,12,5,43-10,45c-29,5-74-3-102-12
				c-9-3-23-16-34-21c-81,52-43-42-97-22c-24,23-31,3-52-9c-17-9-17-1-24-23c-7-6-12-7-21-9c-4,11-6,22-15,29c-16,14-39-8-45-23
				l-3-2c-14-7-20-17-30-28c-7-3-15-5-22-8c-7,3-22,9-29,5c-11-6-26-26-29-38c-2-8-2-13-9-18c-7-2-14,4-22,5c-15,3-26-7-37-15
				c-9,0-15,1-24,2c-3,5-5,9-8,14c-9,10-18,13-32,14c9,8,15,13,18,26c-4,13-8,29-12,41c-13,34-43,7-66,44c-9,45-16,35-59,46
				c-9,2-23,4-30-4c-3-4,3-17,4-21c-6-2-11-4-17-5c-29,18-21,16-55,25c-4,26-10,42-41,38c-22-3-19-6-41-2c-27,5-30,6-52,22
				c-7,5-41,22-50,25c-14,0-15,0-27-7c-8-13-6-19-12-30c-7-5-25,0-35,1c-8-5-9-6-15-13c19-47,19-50,27-100c1-27-4-27-6-45v-3h1
				c2,5,2,6,5,11c2-18,2-29,2-47c-7-7-15-15-18-24c-1-3-2-6-3-9c-2-7-9-26-14-31c-22-29-55-51-87-67c-12-6-63-21-73-17
				c8,3,31,13,38,17v1l-6-1c-15-7-27-13-44-16h-8c-22-1-47,4-68,12c-19,7-44,23-63,32c-1,0-2-1-4-1c-5-9,7-23,8-32c1-24-38-11-31-44
				c6-9,16-8,28-12c18-19-4-56,1-81c0-14,25-23,27-31c8-48-57-40-29-100l10-11c13-4,18-35,36-23c5,17-34,46-25,72c9,25,44,35,35,64
				c-4,11-28,19-24,31c3,10,14,15,19,24c-4,11-10,23-4,33c8,14,23,13,34,22c5,4,11,17,17,21c8,5,20,8,30,11c30-44-33-38-35-64
				c9-12,30-12,26-36c-2-14-13-24-17-36c-2-9,0-17-4-25c-6-13-40-29-30-46c10-17,37-4,51-9c15-5,22-23,38-26c15-2,24,15,39,16
				c13,1,25-22,36-15c3,2,9,13,9,15c-2,16-20,34-24,49c-2,9,0,20,0,29c0,5-1,9-5,12c-7,5-22,3-25-7c-8-30-9-51-47-35
				c-13,6-19,14-12,29c6,13,23,20,30,29c12,16,35,27,44,43c7,12,0,39,27,25c6-3,12-16,20-18c9,4,10,16,11,25c3,21,12,47,32,57
				c21,12,34-8,57-12c32-6,94,26,114-7c8-13-17-41,6-50c10-5,22-6,33-2c31,11-8,53,16,66c12,6,36-4,49-5c16,9,35,28,54,20
				c30-12-16-46-14-66c10-20,31-10,42-29c7-13-5-33,4-43c3,0,5,0,8,1c24,15,17,16,31,39c7,12,24,14,31,30c15-17,46-7,38-37
				c4-19,29-15,45-15c2-13,4-22,9-34c6-10,11-21,19-29c6,2,11,6,17,9c17,9,29,7,47,4c11-1,17,4,27,9c1-21,4-27,18-43c2-2,1-3,0-5h3
				c2,7,3,10,7,17c42-14,74-22,116-38c3-1,5-1,8-2c3-15,7-19,19-28c6-1,16-1,21-3c19-7,28-16,48-18c23-5,44-21,64-22
				c22-27,35-23,69-36c28-7,42-17,67-29c11-15,13-19,28-31c4-15,7-19,17-31c0-11,0-16,3-26h-2c11-11,48-37,65-22c9,8-1,20,10,26
				c6-2,13-5,19-7c13-4,22-8,30,6l2-3c4,2,6,4,10,7c12-63,65,6,54-65C2142,1245,2151,1239,2158,1228L2158,1228z"/>
			<path fill="#FEB327" d="M2158,1228c7,1,16,4,23,2c7-11-1-12,0-24c7-12,30-21,43-16c11,4,9,18,14,25c12,19,40,1,58,8
				c7,7,4,12,3,21c-3,28,32,18,47,13c11,1,17,3,27,7c11,14,19,30,14,45c-14,45-10,37,27,57c6,3,7,25,19,30c10-1,9-14,24-19
				c5-6,10-11,15-16c25-6,81-10,56,33c1,21,22,31,33,11c20-32,37,9,50,23c17,5,37,13,29,35c-8,21-29,29-17,53c-3,39-38,83-59,33
				c2-18,8-42-17-42c-2,0-3,0-5,1c-6,9-9,18-21,20c-19,3-35-20-45-32c-18,18-16,53-44,60c-9,2-26-12-25-22c1-7,3-14,5-21
				c-9-17-14-28-31-40c-29,8-32,9-45-19c-26,9-28,8-44-14c-14,6-35,18-50,12c-16-6-17-24-36-17c-11,4-19,11-17,24c6,7,16,3,26,8
				c19,8,32,41,30,60c-1,10-6,23-10,33l3,4c10,8,33,6,40,18c15,25,10,62,34,83c7,6,27-6,35-7c11-1,25,6,34-1c9-8,11-20,25-23
				c21-4,32,9,49,13c19,5,41-2,60,9c17,11,27,43,35,62c1,5,1,11-2,15c-4,5-10,8-16,10c-24,6-43-38-62-34c-20,4-25,22-50,28
				c-10-3-16-5-26-10c-7,7-11,11-20,16c-8-1-24-4-30-3c-10,10,9,39-3,51c-8,8-26,6-33-3c-7-9-10-24-22-26c-5-1-12,2-16,6
				c-21,24-33,46-70,47c-12,0-22-3-31-12c-15-14-14-45-39-45c-13,0-40,14-50-1c-13-21-29-38-57-20c-10,7-8,41-29,41c-8,1-25-10-32-8
				c-23,5-34,32-60,7c-11-11-22-33-7-45c11-9,29-6,35-19c0-4-1-8-4-11c-28-21-62-53,0-59c38-4,79,52,114,15c12-12,19-19,38-20
				c23-1,33,35,46,36c16,2,31-29,52-7c15,13,14,53,36,55c8,1,25-17,34-20c7-3,13,0,20-5c16-23-60-52-69-75c-6-18-7-26-8-44
				c-7-6-15-14-23-20c-33,7-67,8-48-36c-5-9-10-18-21-22c-21-7-39,16-60,8c-14-6-24-19-37-27c-28-16-36,9-41,31l-10,10
				c-34,7-50-14-71-11c-33,5-34,36-80,6c-1-1-2-1-3-2c-24,41-24,18-57,32c-2,4-1,2,0,6c13,13,22,10,38,15c8,3,13,10,22,13
				c14-3,23-25,46-29c18-3,43,13,53,14c14,1,60,5,74,2c18-5,27-35,49-20c8,5,32,22,32,32c4,49-55-3-72,23c-12,17-9,28-32,32
				c-21,6-45-16-63-16c-29,1-40,22-74,11c-22-7-20,26-40,29c-28,4-38-11-57-24c-10,6-21,13-32,10c-6-2-17-6-22-6c-45,12-63-5-104-5
				c-10,1-35,3-42,1c-33-10-18-24-58-30c1-21,4-27,18-43c2-2,1-3,0-5h3c2,7,3,10,7,17c42-14,74-22,116-38c3-1,5-1,8-2
				c3-15,7-19,19-28c6-1,16-1,21-3c19-7,28-16,48-18c23-5,44-21,64-22c22-27,35-23,69-36c28-7,42-17,67-29c11-15,13-19,28-31
				c4-15,7-19,17-31c0-11,0-16,3-26h-2c11-11,48-37,65-22c9,8-1,20,10,26c6-2,13-5,19-7c13-4,22-8,30,6l2-3c4,2,6,4,10,7
				c12-63,65,6,54-65C2142,1245,2151,1239,2158,1228L2158,1228z"/>
			<path fill="#EE7D0C" d="M2158,1228c7,1,16,4,23,2c7-11-1-12,0-24c7-12,30-21,43-16c11,4,9,18,14,25c12,19,40,1,58,8
				c7,7,4,12,3,21c-3,28,32,18,47,13c11,1,17,3,27,7c11,14,19,30,14,45c-14,45-10,37,27,57c6,3,7,25,19,30c10-1,9-14,24-19
				c23,5,8,33,25,54c14,17,54,30,52,51c-19,15-26-24-58,9c-1-3-1-5-2-8c-7-37-28-20-52-48c2-22,5-41-23-47c-20-4-31,18-46,27
				c-22,14-24-10-41-13c-15-3-28,15-43,10c-6-2-5-12-10-17c-11-9-28-7-41-6c-14-10-36-46-62-23c-6,6-3,21-3,29c1,25-32,29-47,14
				c-10-10,5-24,6-41v-2c18-13,43-41,7-53c-21-7-35,32-53,27l2-4c7-6,9-9,11-18c12-63,65,6,54-65C2142,1245,2151,1239,2158,1228z"/>
			<path fill="#FEB327" d="M2186,1248c12,3,16,10,24,19c4-1,8-2,12-2c43-7,44,36,18,35c-12-5-18-5-30-4c-22,2-58-11-40-39
				C2174,1251,2180,1250,2186,1248z"/>
			<path fill="#FEB327" d="M2331,1360c13-2,33,5,30,21c-1,4-3,8-7,10c-8,5-15,4-24,2c-10-4-36-10-38-22
				C2297,1365,2320,1363,2331,1360L2331,1360z"/>
			<path fill="#FEB327" d="M2265,1335c17,1,24,12,15,28C2265,1360,2255,1350,2265,1335z"/>
			<path fill="#FBE6BF" d="M1601,1537c-3,11-13,22-4,35c-17,12-10,42,11,44c7,1,19-2,26-3c8,8,19,19,28,27c-45,12-63-5-104-5
				c-10,1-35,3-42,1c-33-10-18-24-58-30c1-21,4-27,18-43c2-2,1-3,0-5h3c2,7,3,10,7,17C1526,1562,1559,1554,1601,1537L1601,1537z"/>
			<path fill="#F4D4A5" d="M2038,1309c13-4,22-8,30,6l2-3c4,2,6,4,10,7c-2,9-4,12-11,18l-2,4l-3,4c-4,2-37,1-49,3c9-7,12-10,17-20
				c-5-7-6-8-14-12l1-1C2025,1313,2031,1311,2038,1309z"/>
			<path fill="#FEFEFE" d="M2019,1315c6-2,13-5,19-7c2,7-2,13-6,20c-5-7-6-8-14-12L2019,1315z"/>
			<path fill="#E0995A" d="M2068,1315l2-3c4,2,6,4,10,7c-2,9-4,12-11,18C2071,1329,2069,1324,2068,1315L2068,1315z"/>
			<path fill="#FEC235" d="M1943,1311c11-11,48-37,65-22c9,8-1,20,10,26l-1,1c-12,4-17,8-29,4c-6-9,11-16,18-20c-12,3-26,9-38,12
				c-12,2-9-6-23,0L1943,1311z"/>
			<path fill="#FBE6BF" d="M1830,1428c28-7,42-17,67-29c-10,19-17,30-35,42C1851,1437,1841,1433,1830,1428z"/>
			<path fill="#FEC235" d="M2561,1405c6,8,10,24,2,31c-17,3-16-17-33-9c-16-2-13-24-3-33C2529,1415,2550,1425,2561,1405z"/>
			<path fill="#FBE6BF" d="M1697,1486c23-5,44-21,64-22l-8,16c-19,7-27,6-42,20C1707,1496,1702,1490,1697,1486L1697,1486z"/>
			<path fill="#FEFEFE" d="M1601,1537c3-1,5-1,8-2c0,12,1,16,5,28c-5,3-11,7-17,10C1588,1559,1598,1549,1601,1537z"/>
			<path fill="#FEC235" d="M1649,1523c22,1,30,49,15,61c-6,1-4,1-10-4C1630,1562,1607,1538,1649,1523z"/>
			<path fill="#FEB327" d="M1367,1584c6,2,11,6,17,9c17,9,29,7,47,4c11-1,17,4,27,9c40,6,25,20,58,30c7,2,33,0,42-1c5,16,9,41,15,55
				c13,34,56,54,5,86c-10,27-21,39-47,52c-42,22-77-20-111-35c-24-11-45,16-59-27c-34,14-38,15-66-11c-19,19-37,33-65,35
				c-15,1-40-10-22-26c16-15,73-10,39-43l-7-7c5-5,11-10,15-15c15-17,46-7,38-37c4-19,29-15,45-15c2-13,4-22,9-34
				C1354,1603,1360,1593,1367,1584L1367,1584z"/>
			<path fill="#EE7D0C" d="M1414,1684c23,1,7,32,71,16c14,15,14,21,34,31c9-1,27-6,33-3c20,9,3,41-13,44c-8,1-11-2-16-5
				c-7-5-11-7-19-11c-10,1-18,5-28,7c-18,4-18-12-30-20c-13-9-32-5-47-3c-3-5-5-10-8-14c-11-2-17-1-25-9
				C1362,1700,1401,1690,1414,1684z"/>
			<path fill="#FEB327" d="M1016,1948c-5-24-24-53,21-58c25-3,23,36,34,46c13,5,27-6,39-9c9-2,22-1,27-9c-3-12-29-18-34-32
				c-4-12,11-23,22-26c22-5,33,20,48,29c13,6,27-5,39-8c11-4,15,0,24,3c26,10,7,46,31,53c12,4,27-14,38-19c22-12,36,9,56,14
				c-4,13-8,29-12,41c-4-4-9-2-15-3c-28-7-58,10-83,11c-27,1-29-35-39-50c-7-11-41-1-55-1h-2c2,20,6,26-9,39c-11,3-22,4-33,8
				c-19,7-18,41-34,49c-39,22-36-16-64-22c-18-4-24,17-36,25c-6,4-25,5-28-4c-3-8,2-22,4-30c-10-19-25-36-3-55c6-4,13-7,20-6
				c11,8,2,24,7,29C999,1981,1012,1958,1016,1948L1016,1948z"/>
			<path fill="#FEB327" d="M883,1992l2,1c53,32-5,70,14,84c15,2,38-18,53-4c7,6,6,23,11,29c13,0,21-14,31-21c8-5,23-5,31-9
				c11-5,16-13,28-15c18-4,40,16,52,11c14-15-33-42,38-42c32-43,40-24,72,3l2-1c23-12,40-34,65-11c-9,45-16,35-59,46c-9,2-23,4-30-4
				c-3-4,3-17,4-21c-6-2-11-4-17-5c-29,18-21,16-55,25c-4,26-10,42-41,38c-22-3-19-6-41-2c-27,5-30,6-52,22c-7,5-41,22-50,25
				c-14,0-15,0-27-7c-8-13-6-19-12-30c-7-5-25,0-35,1c-8-5-9-6-15-13C875,2046,875,2043,883,1992z"/>
			<path fill="#FEB327" d="M2186,1875c-31,23-46,53-89,12c-35-33-39-5-69-6c-40-2-29-42-5-59c17-12,26,0,44,3c27,4,27-36,55-33
				c35,1,35,35,62,46c19,7,69-18,59,25c-6,6-12,13-20,16C2212,1880,2196,1876,2186,1875z"/>
			<path fill="#FEB327" d="M1989,2021c-5-9-14-20-10-30c6-18,13-21,30-13c15,7,28,38,44,32c16-5,26-13,42-17c27,11,24,25,26,51
				c11,14,15,16,31,9c3,11,5,20,8,31h-1c-26-2-16,17-31,24c-4,2-17,2-22-1c-10-7-7-21-10-31c-10-29-41-18-63-23c-6-1-14-7-19-10
				C2004,2034,1998,2029,1989,2021z"/>
			<path fill="#FEB327" d="M1344,1907c-7-9-19-20-28-31c-10-4-24,9-37,10c-25,3-23-33-38-41c-21-11-36,12-54,17c-19,5-27-18-14-30
				c7-6,21-11,30-15c10-5,23-8,34-7c33-1,18,47,58,24c11-6,24-11,37-11c32,0,42,42,42,67c1,1,2,2,2,2C1367,1903,1358,1906,1344,1907
				L1344,1907z"/>
			<path fill="#FEB327" d="M1586,1973c3-34,21-20,30-32c0-3,1-6-2-8c-14-13-69-44-64-65c3-3,2-2,6-4c9-4,31,13,40,17
				c8,6,13,14,22,19c22,12,51,7,64,33c9,18-16,22-27,27c-4,2-5,6-7,10c-4,11-6,22-15,29c-16,14-39-8-45-23L1586,1973z"/>
			<path fill="#E16213" d="M2243,1863c11-3,26-13,36-20c72-47,172-42,252-21c30,8,81,41,95,69c-3,2-3,2-7,4c-16-14-33-26-52-38
				c-40-25-117-46-164-34l-1,2l1,6c-37-16-74,3-108,18c-18,9-30,18-47,28c-15,12-30,25-44,37c-2,3-5,6-7,9l-8,2c3-6,6-11,9-17
				c3-10,15-23,23-30C2231,1876,2236,1869,2243,1863z"/>
			<path fill="#E4733A" d="M2205,1915c2-14,20-31,33-35l11-3C2234,1889,2219,1902,2205,1915z"/>
			<path fill="#FEB327" d="M2656,1776c10-10,16-19,30-21c17,15,29,30,11,50c-2,2-4,4-5,6c-14,10-24,12-36,19c-7,3-15,8-22,8
				c-32,1-28-34-11-50C2635,1776,2640,1776,2656,1776z"/>
			<path fill="#FEB327" d="M1745,1943c8-3,21-8,29-7c6,3,12,11,7,17c-19,21-46,19-34,58c-24,23-31,3-52-9c-17-9-17-1-24-23
				c15-13,35,5,49,2C1726,1970,1696,1929,1745,1943z"/>
			<path fill="#FEB327" d="M2668,1673c34-24,44,14,35,41c-31,5-31,44-65,34c-5-1-17-10-18-15c-3-32,36-24,47-58L2668,1673z"/>
			<path fill="#FEB327" d="M1476,1904c7-4,19-13,28-9c15,6,62,22,60,42c-3,5-3,5-7,8c-7-3-15-5-22-8c-7,3-22,9-29,5
				C1495,1936,1480,1916,1476,1904z"/>
			<path fill="#FEB327" d="M2157,1978c-57-26,3-72,42-69c-3,6-6,11-9,17l-2,4C2173,1934,2166,1966,2157,1978z"/>
			<path fill="#FEB327" d="M667,1758c-2-7-3-7-1-12c8-6,23,0,26,7c-6,5-9,2-17,5H667z"/>
			<path fill="#FEB327" d="M1840,1832c30,2,49,14,59,43c-3,9-6,18-9,28c24,32,37,13,66,25c4,2,8,10,8,14c0,38-6,60-43,67
				c-20,1-64-9-75-29c-8-16,18-23,8-41c-12-24-45-2-57-25c-5-12,20-35,21-48C1821,1843,1814,1836,1840,1832z"/>
			<path fill="#FEB327" d="M1688,1715c34,1,42,46,38,73c-1,17-27,22-29,37c-3,18,17,18,27,20c13,2,18,19,15,30c-2,7-7,13-13,17
				c-13,7-35,4-49-1c-15-6-20-10-27-24c-15-32-31-23-50-2c-9-4-21-9-27-17c-4-5-6-12-5-19c4-25,47-22,64-29c14-7,28-17,41-26
				C1705,1752,1653,1737,1688,1715z"/>
			<path fill="#FEB327" d="M2491,1535c27-1,29,12,44,29c5,1,22,4,25,6c37,19,50,66,5,84c-22,4-42-8-54-26v-23l-2-2
				c-9-13-17-11-31-17C2443,1571,2460,1542,2491,1535z"/>
			<path fill="#FEB327" d="M1040,1777c15,2,21,9,37,16c12,6,53-3,51,20c-1,11-28,13-38,21c-3,5-3,16-3,23c-12,32-51,17-64-7
				c-9-17,1-22,3-37C1029,1796,1018,1787,1040,1777z"/>
			<path fill="#FEB327" d="M1828,1723c8,0,18,4,21,12c5,17-21,53-36,60c-4,2-19-7-24-9c-2,1-4,2-7,2c-8,3-10,5-17,1
				c-9-9-28-23-22-36c6-17,32-5,44-1C1818,1764,1804,1734,1828,1723z"/>
			<path fill="#FEB327" d="M914,1773c20-1,43,7,66,6c20-1,36,29,10,45c-24-1-40-3-68-3C907,1810,884,1783,914,1773z"/>
			<path fill="#FEB327" d="M890,1852c17,1,18,10,23,24c13,2,29,3,38,15c2,10-8,12-16,14c-2,0-3,0-5,0c-18,0-36-1-50-15
				C865,1875,876,1861,890,1852L890,1852z"/>
			<path fill="#FEB327" d="M1599,1657c20-1,49,14,63,29c8,8,5,16-3,22c-21,4-39-5-54-19C1594,1678,1588,1669,1599,1657z"/>
			<path fill="#FEB327" d="M1896,1806c32-1,86,40,50,56c-15-2-62-30-60-47C1888,1810,1891,1809,1896,1806z"/>
			<path fill="#FEB327" d="M2469,1774c11,2,34,10,35,23c-2,5-3,5-7,9c-11-4-38-9-37-24C2463,1777,2464,1777,2469,1774z"/>
			<path fill="#FEB327" d="M2581,1770c16,11,9,30-12,31c-5-2-9-6-11-11C2560,1781,2572,1776,2581,1770z"/>
			<path fill="#FEB327" d="M702,1693c15,1,28,17,16,31C703,1722,692,1707,702,1693z"/>
			<path fill="#FEB327" d="M2343,1597c12,13-1,23-12,29C2319,1612,2332,1606,2343,1597z"/>
			<path fill="#FEB327" d="M2328,1524c15,1,22,9,14,23c-8-2-15-5-18-13C2325,1527,2324,1530,2328,1524z"/>
			<path fill="#FEB327" d="M1068,892c4,5,8,10,11,15c13,0,31-2,42,3c10,12,15,66,16,82c15,10,38,28,14,44c5,10,9,8,20,8
				c19-5,32-10,51-4c15-9,18-10,36-10c14-21,12-28,37-34c43,14,70,2,84,55c3,10,10,21,15,30c-4,30-6,33,7,60c-7,6-22,16-22,25
				c-1,23,11,49-7,69c-3,3-6,8-9,9c-2,5-1,9-3,11c-10-10-38-52-46-64c-16-28-22-50-29-81c7-21,13-33,0-53l-1,2c-5,10-4,21-16,26
				c-3,1-6,2-9,2c-13,2-28,12-35,12c-12-6-19-8-31-9c-29,17-33,31-26,64c5,7,12,22,13,31c5,11,12,25,15,37c4,16,5,36,9,53
				c-9,51,3,104,33,147c22,31,67,63,105,75c13,4,40-16,52-23l9,9c6,13,29,30,40,39c12,6,22,13,35,15l1,1c-7,5-9,10-6,19l3,2
				c1,3,2,3,0,5c-13,16-17,22-18,43c-10-6-15-11-27-9c-18,3-30,5-47-4c-5-3-11-7-17-9c-8,9-13,19-19,29c-5,12-7,21-9,34
				c-16,0-41-4-45,15c8,30-22,20-38,37c-7-17-24-19-31-30c-14-23-7-24-31-39c-3-1-4-1-8-1c-9,10,3,30-4,43c-10,18-32,9-42,29
				c-2,19,44,53,14,66c-19,8-38-11-54-20c-14,1-37,11-49,5c-24-12,15-54-16-66c-11-4-23-3-33,2c-22,9,2,37-6,50c-20,34-82,2-114,7
				c-23,4-35,23-57,12c-19-10-29-37-32-57c-1-9-3-21-11-25c-8,2-14,15-20,18c-27,14-20-14-27-25c-9-15-32-27-44-43
				c-7-10-24-17-30-29c-7-14-1-23,12-29c39-15,40,6,47,35c2,9,17,12,25,7c4-3,5-7,5-12c0-9-2-20,0-29c4-15,22-33,24-49
				c0-3-5-13-9-15c-11-7-23,15-36,15c-14-1-24-19-39-16c-16,3-23,21-38,26s-42-8-51,9c-9,16,25,33,30,46c4,9,2,16,4,25
				c4,12,15,23,17,36c4,24-17,24-26,36c1,26,65,19,35,64c-9-3-21-6-30-11c-7-4-12-16-17-21c-11-9-26-8-34-22c-5-10,1-22,4-33
				c-5-8-16-14-19-24c-4-12,20-20,24-31c9-29-27-39-35-64c-9-26,30-55,25-72c-17-12-23,20-36,23c-21-12-16-16-15-39c1-11,1-24,3-34
				c6-7,42-31,51-33c17-6,20,24,28,25c26,4,27-15,29-30c25-17,38-3,62-6c14-5,14-33,20-46c16-36,70-4,82-31c-1-9-7-24-11-32
				c-29-12-36-16-36-49c0-24,1-33,20-51c11-11,12-20,16-34c7-19,28-28,46-35c1-36,12-41,45-51l1-25c20-31,41-28,71-43
				c6-3,16-14,23-19s25-12,31-17C1035,919,1038,906,1068,892L1068,892z"/>
			<path fill="#FBE6BF" d="M1167,1156c5,7,12,22,13,31c5,11,12,25,15,37c4,16,5,36,9,53c-9,51,3,104,33,147c22,31,67,63,105,75
				c13,4,40-16,52-23l9,9c6,13,29,30,40,39c12,6,22,13,35,15l1,1c-7,5-9,10-6,19l3,2c1,3,2,3,0,5c-13,16-17,22-18,43
				c-10-6-15-11-27-9c-18,3-30,5-47-4c-5-3-11-7-17-9c-8,9-13,19-19,29c-5,12-7,21-9,34c-16,0-41-4-45,15c8,30-22,20-38,37
				c-7-17-24-19-31-30c-14-23-7-24-31-39c-36-42-3-48-64-84c-4-16-11-34-16-50c-2-6-3-12-4-18c-6-15-10-38-13-54c4-26,3-44-12-67
				l-2-9c9,3,11,18,33,25c7,0,26-3,30-9c11-17-15-36-24-48c-5-7-10-13-15-21c-16-22-3-44-4-67c0-15-14-28,1-46c6-7,12-4,19-1
				c19,10,28,3,40-12C1163,1167,1166,1158,1167,1156L1167,1156z"/>
			<path fill="#F4D4A5" d="M1167,1156c5,7,12,22,13,31c5,11,12,25,15,37c4,16,5,36,9,53c-9,51,3,104,33,147c22,31,67,63,105,75
				c13,4,40-16,52-23l9,9c6,13,29,30,40,39c-2,2-6,6-9,8c-50,44-132,7-181-21c-9-5-27-19-33-20c-10-10-22-34-28-47
				c-18-41-30-88-27-133c1-18,6-39,6-57c0-15-3-34-4-49c-3-12,0-25-4-33C1163,1167,1166,1158,1167,1156L1167,1156z"/>
			<path fill="#E9BD8F" d="M1219,1489c6,0,24,15,33,20c49,29,131,66,181,21c2-2,6-6,9-8c12,6,22,13,35,15l1,1c-7,5-9,10-6,19l3,2
				c1,3,2,3,0,5c-13,16-17,22-18,43c-10-6-15-11-27-9l1-3c-3-14-53-17-67-20C1309,1560,1257,1532,1219,1489z"/>
			<path fill="#E9BD8F" d="M1294,1663c-1-2-1-5-3-7c-23-27-48-50-69-78c-19-26-34-54-46-83c50,65,96,94,173,119c-5,12-7,21-9,34
				C1323,1648,1298,1644,1294,1663z"/>
			<path fill="#FEFEFE" d="M1083,1348c9,3,11,18,33,25c2,17,2,33,4,49c2,21,22,67,17,86c-4,3-2,2-6,2c-8-6-4-13-8-22c-2,7,4,13,2,21
				l-2,1c-4-9-5-25-12-31c-6-15-10-38-13-54c4-26,3-44-12-67L1083,1348z"/>
			<path fill="#EE7D0C" d="M1046,1517c-9-10-18-25-26-35c-11-15-4-37,13-45c16-8,24,9,38,14c17-1,14-22,24-29l2,2c3,16,7,39,13,54
				c1,6,3,13,4,18c-2,11-3,18-4,30C1084,1515,1074,1517,1046,1517z"/>
			<path fill="#EE7D0C" d="M1284,1059c-4-9-15-13-17-21c10-8,26,5,32,13c12,16,8,34,14,51c4,10,33,3,30,22c-4,16-19,29-8,46
				c7,12,11,13,16,27c7,17-6,42,9,49l1-1l1,1c-2,5-1,9-3,11c-10-10-38-52-46-64c-16-28-22-50-29-81C1291,1091,1297,1079,1284,1059z"
				/>
			<path fill="#EE7D0C" d="M1085,1357c-13-2-38-33-51-12c-15,25,41,38-25,40c-6,0-36,18-45,15c-23-7-14-31,3-38c15-7,24-7,36-12
				c17-8-1-28,3-39c19-18,76,6,76,37L1085,1357z"/>
			<path fill="#EE7D0C" d="M1171,1044c-2,9-29,30-40,29c-14-10-1-49,21-37C1156,1047,1160,1045,1171,1044z"/>
			<path fill="#EE7D0C" d="M1098,1105c8,1,10,4,12,11c13,36-24,44-46,60c-12,9-23,27-30,40c-10,20-7,28,0,48c-4,3-10,5-15,7
				c-18-6-61-37-56,9c1,9,9,21,8,29c-5,12-13,7-24,13c-14,6-21,40-36,43c-16,2-82,9-88-9c4-16,24-18,37-20c27-5,72-26,33-52
				c-14,0-46,1-53-18c-6-18,27-23,39-25l1,1l2,2c2,3,4,6,6,8c6,5,17,6,25,4c52-8,31-43,40-49c15-10,48-2,63-25c12-18,0-33-2-51
				c-1-5,1-10,4-14c12-14,32,16,47,15c16-1,21-18,30-28C1097,1106,1098,1106,1098,1105L1098,1105z"/>
			<path fill="#EE7D0C" d="M991,1018c29-2,25,7,53,12c9,2,14-4,21-1c1,5-3,12-6,17c-7,3-22,0-25,2c-15,13-65,36-74,48
				c-19,27-8,32-49,33c-7,0-16,11-21,18c-4,24,9,30,6,45c-6,9-18,22-30,14c-9-6-9-20-12-29c-4-9-9-18-11-28c2-9,21-23,29-30
				c14-13,23-5,40-5c23,0,20-25,30-36c7-8,40-10,40-27c-1-6-11-11-15-14l1-3C979,1030,982,1027,991,1018L991,1018z"/>
			<path fill="#EE7D0C" d="M900,1484c23-2,28,1,39,23c16,33,52,0,64,17c19,26-12,41-31,53c-6,4-13,10-20,7c-2-8,10-24,7-35
				c-8-17-37-32-53-40c-10-5-24-1-26-12C883,1490,892,1487,900,1484z"/>
			<path fill="#EE7D0C" d="M765,1388c6,0,4-1,8,2c0,5-5,15-7,20c17,27,53,13,58,35c-2,19-27,24-42,26c-19-8-11-19-24-28
				c-9-6-37,2-42-13c3-16,19-17,32-19C754,1400,757,1395,765,1388L765,1388z"/>
			<path fill="#EE7D0C" d="M1071,930c11-1,19,3,23,13c2,4,2,9-1,14c-6,12-21,14-33,18c-5,14-6,23-23,21c-8-2-23-6-29-10v-3
				c5-9,22-11,29-17C1052,956,1054,940,1071,930L1071,930z"/>
			<path fill="#FEC235" d="M630,1426c10-1,21-3,29,5c3,3,4,8,4,12c-2,17-21,17-34,14c-9-3-31-10-35-17l1-3
				C602,1433,620,1428,630,1426z"/>
			<path fill="#FEC235" d="M925,1573c1,0,5,1,5,2c3,17,6,32,11,48c-2,6-3,13-8,16l-2-2C911,1616,895,1593,925,1573z"/>
			<path fill="#FEC235" d="M918,1648c23,3,15,25,3,36C902,1677,902,1657,918,1648z"/>
			<path fill="#FEAE77" d="M2373,1265c45,17,91,36,135,55c95,40,189,84,277,139c48,31,96,68,143,102c-2-15-4-34,6-46c6-3,3-2,9-1
				c7,4,9,6,14,12c10-10,21-16,36-11h7v99v422c-12-6-39-25-52-33c-64-41-126-85-185-133c-21-16-52-44-72-58c2-2,4-4,5-6
				c18-21,6-35-11-50c21-5,18-24,17-41c9-27,0-65-35-41c-11-23-23-62-15-87c9-33,22-74-30-70c-12-25,9-33,17-53c8-22-12-29-29-35
				c-13-14-30-55-50-23c-12,20-33,10-33-11c25-43-31-39-56-33c-5,5-10,11-15,16c-15,5-14,17-24,19c-12-5-13-27-19-30
				c-37-19-41-11-27-57C2391,1294,2383,1279,2373,1265z"/>
			<path fill="#FEB327" d="M2928,1560c-2-15-4-34,6-46c6-3,3-2,9-1c7,4,9,6,14,12c10-10,21-16,36-11h7v99c-14,21-16,19-40,14
				c-11,5-19,11-31,17c-23,11-42-16-67-14c-7,0-22-12-25-18c-6-10-3-21,8-24c13-4,20,1,31,6c16-21,15-25,41-18
				C2922,1569,2924,1566,2928,1560z"/>
			<path fill="#FEC235" d="M2957,1524c10-10,21-16,36-11v1c2,3,4,16,4,20c0,11-21,26-30,26c-16-6-8-30-18-39c-3-3-4-5-6-8
				C2949,1516,2951,1518,2957,1524z"/>
			<path fill="#FEFEFE" d="M1284,1059c13,19,7,32,0,53c7,30,13,53,29,81c-6-1-11-4-15-3c0,5,3,11,5,16c18,51,69,79,96,126
				c11,19,24,43,29,65c3,9-2,12,2,22c4,4,2,3,6,4c15-8,27-20,41-29c56-35,126-52,191-63c52-9,86-13,127-51c7-6,23-14,22-23l4-2
				c0-7-1-14-2-21c-7-2-11-4-18-7c8-15,16-21,31-28c5,5,6,6,12,9h22c5,7,12,17,19,21l12,5c3-2,47,1,54,1c3,1,2,1,4,3l2,3
				c10,1,12-1,16,9c-21,21-41,29-62,49c-17,15-33,37-49,54l1,2l3,1h1c7-12,53-34,67-41l7-4h2c-4,11-3,15-3,26c-9,12-13,16-17,31
				c-14,12-17,15-28,31c-26,11-40,22-67,29c-34,13-47,9-69,36c-20,2-42,18-64,22c-21,2-30,11-48,18c-5,2-15,2-21,3
				c-12,9-16,13-19,28c-3,1-5,1-8,2c-42,16-75,24-116,38c-3-7-4-10-7-17h-3l-3-2c-3-8-1-14,6-19l-1-1c-13-2-23-8-35-15
				c-11-9-34-26-40-39l-9-9c-12,8-39,27-52,23c-38-12-83-44-105-75c-30-43-42-95-33-147c-4-16-4-36-9-53c-3-11-10-25-15-37
				c-1-9-8-24-13-31c-7-33-3-47,26-64c13,1,20,4,31,9c7,0,22-10,35-12c3-1,6-1,9-2c12-5,11-16,16-26L1284,1059z"/>
			
				<linearGradient id="SVGID_00000065771996048307230300000010537778442893994126_" gradientUnits="userSpaceOnUse" x1="1214.7249" y1="2089.6709" x2="1435.7197" y2="2060.2178" gradientTransform="matrix(1 0 0 1 0 -778)">
				<stop  offset="0" style="stop-color:#FDE7C7"/>
				<stop  offset="1" style="stop-color:#FFFFFF"/>
			</linearGradient>
			<path fill="url(#SVGID_00000065771996048307230300000010537778442893994126_)" d="M1224,1101c7,0,22-10,35-12l-1,4
				c1,50,21,98,48,140c28,44,76,91,96,140c17,15,8,22,11,40c2,9,12,20,18,27c9,12,60,64,19,66c-15,1-36-18-49-24l-9-9
				c-12,8-39,27-52,23c-38-12-83-44-105-75c-30-43-42-95-33-147c-4-16-4-36-9-53c-3-11-10-25-15-37c-1-9-8-24-13-31
				c-7-33-3-47,26-64C1205,1093,1213,1096,1224,1101z"/>
			<path fill="#E0995A" d="M1203,1276c4-15,10-33,18-47c13,24,28,49,45,69c18,22,36,38,53,61c25,39,39,86,74,115c-12,8-39,27-52,23
				c-38-12-83-44-105-75C1206,1380,1194,1327,1203,1276z"/>
			<path fill="#E0995A" d="M1224,1101c7,0,22-10,35-12l-1,4c1,50,21,98,48,140c28,44,76,91,96,140l-8,4c-5,0-5-1-8-5
				c-30-37-62-82-98-114c-20-22-36-47-48-74c-5-7-7-14-10-21C1229,1143,1220,1124,1224,1101L1224,1101z"/>
			<path fill="#F4D4A5" d="M1224,1101c7,0,22-10,35-12l-1,4c-15,13-4,40-7,57c-2,11-8,22-10,33c-5-7-7-14-10-21
				C1229,1143,1220,1124,1224,1101L1224,1101z"/>
			<path fill="#E9BD8F" d="M1167,1156c-7-33-3-47,26-64c-3,33-5,76,13,106c4,11,9,20,15,31c-7,14-14,32-18,47c-4-16-4-36-9-53
				c-3-11-10-25-15-37C1179,1178,1172,1163,1167,1156z"/>
			<path fill="#FBE6BF" d="M1206,1198c5,5,5,5,8,11c3,1,5,2,9,2c4,5,2,20,8,31c11,22,56,80,75,95c-3-9-14-23-19-32
				c-25-43-42-63-59-110c6,12,17,34,22,46c11,21,67,102,69,119c-17-23-34-40-53-61c-17-21-32-46-45-69
				C1215,1218,1210,1209,1206,1198L1206,1198z"/>
			<path fill="#FEFEFE" d="M1289,1258c-23-5-53-51-54-73c-1-8-4-15-3-22c3,8,5,15,10,21C1253,1211,1269,1236,1289,1258z"/>
			<path fill="#FBE6BF" d="M1284,1059c13,19,7,32,0,53c7,30,13,53,29,81c-6-1-11-4-15-3c0,5,3,11,5,16c18,51,69,79,96,126
				c11,19,24,43,29,65c3,9-2,12,2,22c4,4,2,3,6,4c15-8,27-20,41-29c56-35,126-52,191-63c52-9,86-13,127-51c7-6,23-14,22-23l4-2
				c0-7-1-14-2-21c-7-2-11-4-18-7c8-15,16-21,31-28c5,5,6,6,12,9h22c5,7,12,17,19,21l12,5c3-2,47,1,54,1c3,1,2,1,4,3l2,3
				c10,1,12-1,16,9c-21,21-41,29-62,49c-17,15-33,37-49,54l1,2l3,1c-9,5-53,12-68,16c32-25,62-51,93-78c5-4,13-6,17-11l-1-2
				c-10,1-18,7-27,10c-43,14-75,46-116,62c-26,10-55,14-83,15c-59,2-118,13-164,54c-12,11-45,32-46,49c2,5,2,5,6,8c16,3,73-36,90-46
				c48-28,91-35,147-36c-17,6-34,12-50,20c-57,30-114,61-171,90c-7,4-17,9-23,15c-1,5,1,12,4,15c-13-2-23-8-35-15c-11-9-34-26-40-39
				c13,6,33,25,49,24c41-2-10-55-19-66c-6-8-16-19-18-27c-4-18,5-25-11-40c-20-49-68-96-96-140c-27-42-47-90-48-140l1-4c3-1,6-1,9-2
				c12-5,11-16,16-26L1284,1059z"/>
			<path fill="#EE7D0C" d="M1833,1199c5,5,6,6,12,9h22c5,7,12,17,19,21c-22,10-44,16-66,25c0-7-1-14-2-21c-7-2-11-4-18-7
				C1810,1212,1817,1206,1833,1199z"/>
			<path fill="#FEB327" d="M1909,1265c-23,12-44,24-66,37l-1-2c2-15,39-43,54-56C1898,1257,1904,1256,1909,1265z"/>
			<path fill="#EE7D0C" d="M1899,1235c3-2,47,1,54,1c3,1,2,1,4,3c-15,9-32,17-48,25c-5-9-11-8-14-20C1896,1242,1898,1238,1899,1235
				L1899,1235z"/>
			<path fill="#FBE6BF" d="M1869,1356c7-12,53-34,67-41c-3,8-4,9-8,16C1914,1338,1881,1355,1869,1356z"/>
			<path fill="#FEB327" d="M1922,1137c7-17,10-22,28-32c33-16,54,1,86,10c5-3,11-6,16-9c19,6,27,14,36,32c-2,5-5,11-8,16
				c12,7,20,10,33,15c3-2,11-9,14-11c20-9,29-4,47-19c6-21,11-33,35-26c8-9,12-14,24-15c28-1,45,12,61,33c3,3,20,8,23,13
				c5,7,9,20,13,28c7,15,23,38,27,54c3,11-5,23-13,31c-15,5-50,15-47-13c1-10,4-14-3-21c-18-7-46,12-58-8c-5-7-3-21-14-25
				c-13-5-37,5-43,16c-2,12,7,13,0,24c-6,2-16-1-23-2c-6,11-16,17-25,27c11,72-41,2-54,65c-3-3-6-6-10-7l-2,3c-7-15-17-10-30-6
				c-6,2-13,4-19,7c-11-6-1-19-10-26c-17-15-54,11-65,22l-7,4c-14,6-60,28-67,41h-1l-3-1l-1-2c16-17,33-39,49-54c21-19,41-27,62-49
				c-4-9-6-8-16-9l-2-3c-2-2-2-2-4-3c-7,0-51-3-54-1l-12-5c-8-4-14-14-19-21h-22c-6-4-7-5-12-9c8-30-23-18-28-41c-2-13,20-16,20-16
				c9-18,20-22,40-14c9,4,14,14,18,26C1894,1149,1913,1142,1922,1137L1922,1137z"/>
			<path fill="#FEFEFE" d="M1957,1239c9-5,17-10,26-7c3,7-3,14-8,19c-4-9-6-8-16-9L1957,1239z"/>
			<path fill="#EE7D0C" d="M1967,1161c16,0,25,16,43,18c16,2,36-14,51-8c9,4,25,25,27,34c1,5,1,5-2,8c-9,4-21-4-32-8
				c-16-4-32,1-48-2c-12-2-26-12-38-11c-17,1-29,20-44,2c6-6,17-6,23-10C1956,1178,1958,1170,1967,1161z"/>
			<path fill="#FEB327" d="M1520,1206c4-6,8-14,13-18c14-12,56-8,68,6c2,9-6,28-11,36c-7,14-11,28-16,43c-9,4-22,8-32,10
				c-32,8-28,15-51,31c-33-1-57-9-55,36l-8,3c-2-1-29-42-33-48c-10-11-28-33-36-45c20-9,39-9,60-9c5-31,26-36,52-48
				C1490,1194,1504,1198,1520,1206L1520,1206z"/>
			<path fill="#EE7D0C" d="M1457,1272c23-38,29-4,59-2c31,1,33-18,48-37c5-6,19-4,27-4c-7,14-11,28-16,43c-9,4-22,8-32,10
				c-32,8-28,15-51,31c-33-1-57-9-55,36l-8,3c-2-1-29-42-33-48c4-1,16-2,18-4C1441,1280,1422,1280,1457,1272L1457,1272z"/>
			<path fill="#FEB327" d="M1595,1268c22-30,70-25,93-1c15-17,22-16,43-12c-3,5-5,10-9,14c-16,5-30,10-45,16c-36,17-87,29-125,42
				c-27,10-47,21-72,33c-2-1-2-2-3-4c-1-6,0-8,2-13l2-4l-1-2c-11-2-31,8-42,13c-2-45,22-37,55-36c23-16,19-23,51-31c9-3,23-7,32-10
				C1582,1272,1590,1273,1595,1268L1595,1268z"/>
			<path fill="#FEC235" d="M1575,1273c7,0,15,0,20-5c7,8,14,3,17,14c-4,13-22,15-34,17c-13,2-29,6-42,4c-5-5,3-15,6-20
				C1553,1280,1566,1277,1575,1273L1575,1273z"/>
			<path fill="#FEB327" d="M1732,1255c1,0,13-12,15-13c18-17,31-17,55-15c6,4,11,5,18,7c1,7,2,14,2,21l-4,2c-38,13-68,52-114,50
				c-8,0-15,1-22-3v-2c4-3,5-3,10-5l-1-7c-4-5-5-4-12-6c15-6,30-11,45-16C1727,1265,1729,1260,1732,1255z"/>
			<path fill="#FEC235" d="M1722,1269c6,3,5,3,9,8c2,13-32,20-41,22l-1-7c-4-5-5-4-12-6C1692,1279,1706,1274,1722,1269z"/>
			<path fill="#FEB327" d="M1451,1375c8-12,18-22,28-32c-2,6-3,8-2,13c2,2,1,3,3,4C1472,1366,1459,1372,1451,1375L1451,1375z"/>
			<path fill="#FEB327" d="M1384,434c23-2,16,13,17,26c12,10,51,11,67,15c18,4,25,13,33,27c0,7-1,15-2,22c15,12,46,35,30,59
				c-8,12-26,14-40,16c-14,26-21,19-48,18c-10,0-16-4-24-9c-9,7-30,22-36,4c-8-21-21,4-39-4c-18-9-26-27-34-44c4-9,10-19,15-28
				C1306,475,1333,452,1384,434L1384,434z"/>
			<path fill="#FEC235" d="M1380,509c14,3,38,31,9,39C1355,544,1353,528,1380,509z"/>
			<path fill="#FEB327" d="M2431,931c-33,2-32-6-51-30c-8-10-28-26-30-39c7-11,31-5,28-23c-2-14-13-26-3-39c21-29,53-81,88-34
				c15,21,26,19,27,50l11,13l1,16c22,10,34,14,33,41v5c15-6,39-19,45,6c2,7-11,13-14,21c1,5,2,6,4,10c-1,9-9,12-16,15
				c-8-1-17-2-25-4c-10,11-13,15-26,21c-28-2-43,30-56-10C2440,942,2436,937,2431,931z"/>
			<path fill="#EE7D0C" d="M2489,934c8-6,20-16,27-20c11,4,18,6,27,13c-5,3-12,7-16,11c-10,11-13,15-26,21c-28-2-43,30-56-10
				c-4-8-8-12-14-18c5-3,8-5,14-7C2464,933,2468,936,2489,934z"/>
			<path fill="#FEB327" d="M2444,950h2c14-2,32-10,44-1c5,4,4,9,11,11C2473,958,2457,990,2444,950z"/>
			<path fill="#FEB327" d="M2437,864c11,0,21,4,23,16c-2,6-3,6-8,11C2434,899,2426,879,2437,864z"/>
			<path fill="#FEB327" d="M533,731c2-4,3-7,5-11c37-69,57,2,49,22c5,6,11,10,17,15c11,9,26,29,39,33c25,7,32-4,35,28
				c12,12,21,18,12,35v2c7,6,19,15,22,21c0,10-19,10-28,15c-8,0-15-3-21,4c2,30-24,21-42,16c-8,3-17,6-24,1c-9-6-10-20-18-27
				c-7-6-19-9-26-14c-8-5-15-20-22-25c-18-12-35-8-40-34c-4-20,14-23,19-39c2-7-8-29,0-37C516,731,525,732,533,731L533,731z"/>
			<path fill="#EE7D0C" d="M616,874c-9,2-25,13-30,7c3-20,30-27,41-35c6-5,9-12,10-20c1-17-17-46-31-57c-4-4-18-2-24-9
				c-1-6,3-12,7-16c5,6,11,10,17,15c11,9,26,29,39,33c25,7,32-4,35,28c12,12,21,18,12,35v2c7,6,19,15,22,21c0,10-19,10-28,15
				c-8,0-15-3-21,4l-3,2C649,898,632,880,616,874L616,874z"/>
			<path fill="#FEB327" d="M686,893c-9-11-28-21-26-36c7-13,20-8,31-3v2c7,6,19,15,22,21C713,888,694,888,686,893z"/>
			<path fill="#FEC235" d="M548,754c14,5,50,36,31,53C562,804,521,770,548,754z"/>
			<path fill="#FEB327" d="M1939,405c22-2,36,10,54,21c7-2,26-6,29-2c8,9,47,41,50,48c-2,9-25,43-32,51c-18,13-40,5-47-12
				c-14-35-30-23-60-35c-8-3-20-11-22-20C1904,429,1914,413,1939,405z"/>
			<path fill="#FEB327" d="M99,1506c6,0,17,2,21,7c12,14-3,32-5,47c3,13,16,10,24,18c13,14-1,35-12,44c-12,10-17,18-33,18
				c-22-11-39-22-36-49c-27-20-29-30-2-50C74,1526,74,1515,99,1506z"/>
			<path fill="#FEB327" d="M1486,943c20,4,27,4,38,21l5,7l18,3c21,21,31,12,47,37c0,11,0,19-1,30c-20-6-40-10-61-13c-12-2-22-3-33-9
				c-13-11-13-20-23-33c-9-6-15-19-12-30C1468,952,1479,948,1486,943L1486,943z"/>
			<path fill="#EE7D0C" d="M1475,987c10-1,32,8,36,17c-4,8-9,9-13,16C1485,1010,1485,1000,1475,987L1475,987z"/>
			<path fill="#FEB327" d="M952,751c30-2,44,27,52,52c2,6,2,10-1,15c-7,6-27,4-37,4c-5-3-11-8-16-11c-7-3-13-5-20-7c-6-2-32-1-35-3
				c0-13,5-28,18-34c9-4,17,0,26,3C943,761,944,758,952,751z"/>
			<path fill="#FEB327" d="M848,317c35-2,58,17,44,52c5,5,8,8,8,14c-3,11-15,17-25,23c-8,5-17,9-24,0c-2-6,1-9,2-15
				c2-10-13-17-18-25c-2-4-2-7,0-11c6-10-5-17-7-27C826,317,840,317,848,317L848,317z"/>
			<path fill="#FEB327" d="M1835,876c11-1,24,2,35,3c11,1,27-1,35,5c3,5,3,3,2,9c-3,24,17,21-6,42c-14,9-19,2-30-8c-25,3-30-6-46-24
				c0-2,0-4,0-6C1827,886,1827,883,1835,876z"/>
			<path fill="#FEB327" d="M1693,1099c26,2,37,43,20,52c-6-1-3,0-9-3c-13-11-21-2-32-11C1664,1130,1687,1102,1693,1099z"/>
			<path fill="#FEB327" d="M1696,750c16,3,69,5,33,31c-1,0-6,2-7,2c-13,0-32-13-34-25C1691,752,1690,754,1696,750z"/>
			<path fill="#FEB327" d="M1289,865c8,1,29,13,32,21l-3,2c-10,3-19,7-28,1C1285,881,1287,874,1289,865L1289,865z"/>
		</g>
	</g>
</g>
</svg>
