<?xml version="1.0" encoding="utf-8"?>
<!-- Generator: Adobe Illustrator 27.9.0, SVG Export Plug-In . SVG Version: 6.00 Build 0)  -->
<svg version="1.1" id="svg" xmlns="http://www.w3.org/2000/svg" xmlns:xlink="http://www.w3.org/1999/xlink" x="0px" y="0px"
	 viewBox="0 0 5910 3000" enable-background="new 0 0 5910 3000" xml:space="preserve">
<g>
	<g>
		<defs>
			<rect id="SVGID_1_" width="5910" height="3000"/>
		</defs>
		<clipPath id="SVGID_00000161625503187091593670000006437291515199763102_">
			<use xlink:href="#SVGID_1_"  overflow="visible"/>
		</clipPath>
		<g clip-path="url(#SVGID_00000161625503187091593670000006437291515199763102_)">
			<path fill="#C62A2B" d="M0,0h5910v3000H0V0z"/>
			<path fill="#272629" d="M5611.5,145.5c12-3,24-6,34.5-4.5c33-3,72,7.5,97.5,30c64.5,58.5,55.5,141,34.5,216
				c-3,13.5-7.5,34.5-12,48c-10.5,54-25.5,112.5-39,166.5l-57,249L5493,1644c-48,220.5-94.5,441-141,661.5c-19.5,93-39,204-61.5,294
				c-3,12-7.5,42-12,52.5c-9,76.5-31.5,148.5-94.5,198c-37.5,30-87,43.5-135,39c-27-3-82.5-21-111-30c-6-3-79.5-19.5-91.5-22.5
				c-58.5-13.5-118.5-27-177-40.5c-28.5-6-58.5-9-88.5-16.5c-69-16.5-138-34.5-207-52.5c-27-6-54-13.5-79.5-22.5
				c-18-7.5-34.5-21-46.5-36c-3-4.5-18-24-22.5-31.5c-42-67.5-16.5-156,1.5-225l37.5-157.5c-102,6-175.5,12-277.5,30
				c-55.5,10.5-111,21-166.5,33c-33,6-66,15-99,18c-21,1.5-48-4.5-66-3c-84,3-120-7.5-192-46.5c-12-7.5-24-13.5-36-19.5
				c-21,6-123,9-150,4.5c-7.5-1.5-22.5-7.5-30-10.5c6-4.5,43.5-1.5,54-1.5c0-24-3-126,1.5-145.5c-13.5-6-33-12-46.5-18
				c36-9,48-13.5,79.5-30c78-25.5,133.5-90,183-151.5h58.5c13.5,12,25.5,25.5,37.5,40.5c31.5-24,64.5-46.5,100.5-66
				c-55.5-27-114-54-162-91.5c-28.5-22.5-51-70.5-37.5-106.5v-3c-15-27,12-118.5,55.5-99c37.5,6,75,16.5,111,25.5
				c139.5,31.5,271.5,84,409.5,123c12,3,24,6,34.5,10.5c0-12-10.5-64.5-13.5-79.5c64.5,9,208.5,19.5,276,19.5
				c25.5-7.5,52.5-15,78-22.5c3-22.5,21-90,28.5-117l58.5-237l178.5-732c27-100.5,30-192,127.5-250.5c58.5-54,351-82.5,439.5-115.5
				C5388,181.5,5515.5,166.5,5611.5,145.5L5611.5,145.5z"/>
			<path fill="#F5A478" d="M5101.5,1425c105,10.5,154.5,60,226.5,126c4.5,6,7.5,6,6,13.5c-3,25.5-10.5,55.5-16.5,79.5l-37.5,156
				c-4.5,19.5-15,57-16.5,76.5c-25.5,106.5-51,213-75,319.5c-193.5,9-394.5,28.5-589.5,40.5l-187.5,12c-9,0-70.5,3-75,4.5
				c-21,1.5-49.5,3-70.5,3c-102,6-175.5,12-277.5,30c-55.5,10.5-111,21-166.5,33c-33,6-66,15-99,18c-21,1.5-48-4.5-66-3
				c-84,3-120-7.5-192-46.5c-12-7.5-24-13.5-36-19.5c-21,6-123,9-150,4.5c-7.5-1.5-22.5-7.5-30-10.5c6-4.5,43.5-1.5,54-1.5
				c0-24-3-126,1.5-145.5c-13.5-6-33-12-46.5-18c36-9,48-13.5,79.5-30c78-25.5,133.5-90,183-151.5h58.5c13.5,12,25.5,25.5,37.5,40.5
				c31.5-24,64.5-46.5,100.5-66c-55.5-27-114-54-162-91.5c-28.5-22.5-51-70.5-37.5-106.5v-3c-15-27,12-118.5,55.5-99
				c37.5,6,75,16.5,111,25.5c139.5,31.5,271.5,84,409.5,123c12,3,24,6,34.5,10.5c0-12-10.5-64.5-13.5-79.5
				c64.5,9,208.5,19.5,276,19.5c25.5-7.5,52.5-15,78-22.5C4674,1605,4915.5,1531.5,5101.5,1425L5101.5,1425z"/>
			<path fill="#E08058" d="M5101.5,1425c105,10.5,154.5,60,226.5,126c4.5,6,7.5,6,6,13.5c-3,25.5-10.5,55.5-16.5,79.5l-37.5,156
				c-4.5,19.5-15,57-16.5,76.5c-57-1.5-157.5,9-219,12c-129,7.5-256.5,10.5-385.5,10.5c-112.5,0-229.5-3-340.5-25.5
				c-61.5-12-60-61.5-114-94.5c-31.5-19.5-45-22.5-81-31.5c0-12-10.5-64.5-13.5-79.5c64.5,9,208.5,19.5,276,19.5
				c25.5-7.5,52.5-15,78-22.5C4674,1605,4915.5,1531.5,5101.5,1425z"/>
			<path fill="#F5A478" d="M5101.5,1425c105,10.5,154.5,60,226.5,126c-105,118.5-642,276-807,271.5c-42-67.5-66-94.5-133.5-136.5
				c25.5-7.5,52.5-15,78-22.5C4674,1605,4915.5,1531.5,5101.5,1425L5101.5,1425z"/>
			<path fill="#6D3B23" d="M3516,1692c40.5,70.5,201,105,276,142.5c21,13.5,42,25.5,63,39c-31.5,37.5-36,36-48,84
				c-15,4.5-79.5,21-88.5,30c-31.5,31.5-52.5,25.5-88.5,42c-64.5,27-114,45-184.5,55.5c-42,6-99,19.5-139.5,31.5
				c-13.5-6-33-12-46.5-18c36-9,48-13.5,79.5-30c78-25.5,133.5-90,183-151.5h58.5c13.5,12,25.5,25.5,37.5,40.5
				c31.5-24,64.5-46.5,100.5-66c-55.5-27-114-54-162-91.5C3525,1776,3501,1728,3516,1692z"/>
			<path fill="#E08058" d="M3514.5,1687.5c-15-27,12-118.5,55.5-99c21,19.5,49.5,34.5,78,40.5l3-4.5c27,4.5,82.5,22.5,109.5,31.5
				c-1.5,48-12,108,9,147c6,12,16.5,21,22.5,31.5c-76.5-37.5-235.5-72-276-142.5L3514.5,1687.5z"/>
			<path fill="#F5A478" d="M3514.5,1687.5c-15-27,12-118.5,55.5-99c21,19.5,49.5,34.5,78,40.5c4.5,19.5-19.5,84-45,85.5
				C3576,1717.5,3541.5,1699.5,3514.5,1687.5z"/>
			<path fill="#E08058" d="M3429,2268c12-4.5,25.5-7.5,37.5-9c79.5-18,159-36,237-57c21-6,69-27,84-4.5c1.5,6,1.5,4.5-3,10.5
				c-16.5,13.5-217.5,52.5-247.5,63c-13.5,4.5-58.5,10.5-72,18C3453,2280,3442.5,2274,3429,2268z"/>
			<path fill="#E08058" d="M3853.5,1873.5c21,9,64.5,40.5,85.5,52.5l-133.5,30C3817.5,1909.5,3823.5,1909.5,3853.5,1873.5z"/>
			<path fill="#FFFFFF" d="M4860,328.5c58.5-54,351-82.5,439.5-115.5c88.5-33,216-48,312-69v4.5c-9,3-18,4.5-25.5,7.5
				c7.5,9,19.5,16.5,24,21c42,52.5-3,187.5-16.5,246L5430,1134c-49.5,45-91.5,75-142.5,115.5c-36,28.5-76.5,76.5-114,108
				c-15,13.5-63,54-73.5,66c-186,108-427.5,180-634.5,240c3-22.5,21-90,28.5-117l58.5-237l178.5-732C4758,480,4761,388.5,4860,328.5
				L4860,328.5z"/>
			<path fill="#373739" d="M4860,328.5c58.5-54,351-82.5,439.5-115.5c88.5-33,216-48,312-69v4.5c-9,3-18,4.5-25.5,7.5
				c7.5,9,19.5,16.5,24,21c42,52.5-3,187.5-16.5,246c-285,51-579,100.5-862.5,156C4758,480,4761,388.5,4860,328.5z"/>
			<path fill="#9F9E9F" d="M4860,328.5c58.5-54,351-82.5,439.5-115.5c88.5-33,216-48,312-69v4.5c-9,3-18,4.5-25.5,7.5
				c-187.5,37.5-372,88.5-556.5,130.5C4975.5,300,4909.5,312,4860,328.5z"/>
			<path fill="#272629" d="M5229,342c3,0,9,0,12,0c6,4.5,6,6,10.5,12c3,37.5-130.5,51-162,57c-3,0-12,0-12-1.5
				c-42-43.5,90-52.5,109.5-60C5193,348,5220,343.5,5229,342z"/>
			<path fill="#373739" d="M5613,717c13.5-58.5,30-120,43.5-178.5c6-30,22.5-102,33-127.5c25.5,9,52.5,16.5,78,25.5
				c-10.5,54-25.5,112.5-39,166.5l-57,249l-177,793.5c-48,220.5-94.5,441-141,661.5c-19.5,93-39,204-61.5,294c-3,12-7.5,42-12,52.5
				c-28.5-6-57-12-85.5-18l-3-1.5c-1.5-9,7.5-42,10.5-54c6-43.5,24-117,33-163.5l81-393c51-246,106.5-493.5,163.5-738
				c24-108,49.5-214.5,75-322.5c-1.5-3-1.5-6-3-9c-4.5-25.5,34.5-186,46.5-214.5C5602.5,732,5607,724.5,5613,717L5613,717z"/>
			<path fill="#9F9E9F" d="M5613,717c12-4.5,19.5-6,31.5,0c1.5,1.5,4.5,1.5,6,3c9,4.5,15,10.5,18,19.5c6,21-36,201-48,222
				c-3,6-9,12-16.5,13.5c-4.5,1.5-10.5,0-15,0c-16.5,1.5-19.5-3-31.5-12c-1.5-3-1.5-6-3-9c-4.5-25.5,34.5-186,46.5-214.5
				C5602.5,732,5607,724.5,5613,717z"/>
			<path fill="#272629" d="M5613,717c12-4.5,19.5-6,31.5,0c1.5,1.5,4.5,1.5,6,3c-27,10.5-30,21-36,48c-13.5,58.5-28.5,117-39,175.5
				c-1.5,10.5,6,24,12,31.5c-16.5,1.5-19.5-3-31.5-12c-1.5-3-1.5-6-3-9c-4.5-25.5,34.5-186,46.5-214.5
				C5602.5,732,5607,724.5,5613,717z"/>
			<path fill="#D3D2D2" d="M5203.5,2580c27,6,63,12,88.5,21c-3,12-7.5,42-12,52.5c-28.5-6-57-12-85.5-18l-3-1.5
				C5191.5,2625,5200.5,2590.5,5203.5,2580z"/>
			<path fill="#FFFFFF" d="M4336.5,2253c4.5-1.5,66-4.5,75-4.5l187.5-12c193.5-12,396-31.5,589.5-40.5c-21,87-43.5,180-63,268.5
				l-510-84c-91.5-15-195-34.5-285-45c4.5-18,18-66,15-81C4341,2253,4341,2253,4336.5,2253L4336.5,2253z"/>
			<path fill="#9F9E9F" d="M5157,2571c1.5-15,30-136.5,34.5-160.5l108-486l345-1531.5c7.5,7.5,28.5,13.5,39,16.5l4.5,1.5
				c-9,25.5-25.5,97.5-33,127.5c-13.5,58.5-30,120-43.5,178.5c-4.5,7.5-10.5,13.5-13.5,22.5c-10.5,28.5-49.5,189-46.5,214.5
				c0,3,1.5,6,3,9c-25.5,106.5-51,214.5-75,322.5c-57,246-111,492-163.5,738l-81,393c-9,46.5-27,120-33,163.5
				C5187,2575.5,5173.5,2574,5157,2571z"/>
			<path fill="#9F9E9F" d="M5145,2625c16.5,4.5,30,7.5,48,9l3,1.5c28.5,6,57,12,85.5,18c-9,76.5-31.5,148.5-94.5,198
				c-37.5,30-87,43.5-135,39c-27-3-82.5-21-111-30c-6-3-79.5-19.5-91.5-22.5c-58.5-13.5-118.5-27-177-40.5c-28.5-6-58.5-9-88.5-16.5
				c-69-16.5-138-34.5-207-52.5c-27-6-54-13.5-79.5-22.5c-18-7.5-34.5-21-46.5-36c27,13.5,88.5,25.5,120,33l168,39
				c130.5,30,259.5,61.5,390,90c60,13.5,115.5-12,154.5-57C5124,2727,5133,2683.5,5145,2625L5145,2625z"/>
			<path fill="#373739" d="M5196,2634c28.5,6,57,12,85.5,18c-9,76.5-31.5,148.5-94.5,198c-37.5,30-87,43.5-135,39
				c-27-3-82.5-21-111-30c6,1.5,13.5,3,18,3c91.5,4.5,174-67.5,208.5-148.5c10.5-24,16.5-49.5,22.5-76.5
				C5193,2637,5194.5,2635.5,5196,2634z"/>
			<path fill="#373739" d="M5611.5,145.5c12-3,24-6,34.5-4.5c33-3,72,7.5,97.5,30c64.5,58.5,55.5,141,34.5,216
				c-3,13.5-7.5,34.5-12,48c-27-7.5-52.5-16.5-78-25.5l-4.5-1.5c-10.5-3-31.5-10.5-39-16.5L5655,345c13.5-52.5,30-133.5-10.5-181.5
				c-7.5-9-21-16.5-33-16.5L5611.5,145.5z"/>
			<path fill="#D3D2D2" d="M5611.5,145.5c12-3,24-6,34.5-4.5c88.5,45,70.5,138,51,219c27,10.5,54,19.5,81,28.5
				c-3,13.5-7.5,34.5-12,48c-27-7.5-52.5-16.5-78-25.5l-4.5-1.5c-10.5-3-31.5-10.5-39-16.5l10.5-46.5c13.5-52.5,30-133.5-10.5-181.5
				c-7.5-9-21-16.5-33-16.5L5611.5,145.5z"/>
			<path fill="#F9F9F9" d="M5655,346.5c15,4.5,30,10.5,43.5,15c-3,10.5-9,42-15,48c-10.5-3-31.5-10.5-39-16.5L5655,346.5z"/>
			<path fill="#F9F9F9" d="M5157,2571c16.5,3,28.5,4.5,45,9c-3,10.5-10.5,45-10.5,54c-18-1.5-31.5-4.5-48-9
				C5149.5,2608.5,5154,2587.5,5157,2571L5157,2571z"/>
			<path fill="#9F9E9F" d="M4648.5,2434.5c79.5-3,90,90,73.5,148.5c-6,22.5-15,37.5-28.5,57c10.5-37.5,25.5-61.5,22.5-105
				c-1.5-25.5-7.5-51-28.5-69c-13.5-12-30-16.5-46.5-16.5c-73.5,4.5-91.5,88.5-87,148.5c3,19.5,10.5,39,25.5,54c12,12,27,18,43.5,18
				c34.5,0,57-24,79.5-46.5c-1.5,3-3,6-4.5,9c-15,24-40.5,49.5-69,57c-16.5,4.5-33,1.5-46.5-7.5
				C4497,2629.5,4543.5,2458.5,4648.5,2434.5L4648.5,2434.5z"/>
			<path fill="#F5A478" d="M3363,201c10.5-6,18-4.5,30,1.5c22.5,9,96,31.5,112.5,43.5l6,3c9,3,18,4.5,27,10.5c18,9,55.5,33,64.5,51
				l9,15c6,27,9,66,13.5,84C3645,447,3699,558,3706.5,594c18,24,31.5,52.5,48,78c61.5,99,79.5,214.5,156,304.5
				c31.5,39,61.5,94.5,81,141c22.5,76.5,37.5,153,54,231c9,39,24,79.5,31.5,118.5c13.5,66,24,135,36,201c3,15,13.5,67.5,13.5,79.5
				c-10.5-4.5-24-7.5-34.5-10.5c-138-37.5-270-91.5-409.5-123c-37.5-9-73.5-19.5-111-25.5c-43.5-19.5-70.5,72-55.5,99v3
				c-13.5,36,9,84,37.5,106.5c48,37.5,108,66,162,91.5c-34.5,19.5-67.5,42-100.5,66c-10.5-15-24-28.5-37.5-40.5H3519
				c-49.5,61.5-105,126-183,151.5l-1.5-1.5c-13.5-1.5-21-7.5-31.5-13.5c-60-34.5-94.5-91.5-133.5-145.5c-10.5,16.5-25.5,33-39,48
				c-72,54-138,27-222,94.5c-48,34.5-67.5,18-111,28.5c-24-1.5-43.5-7.5-64.5-18c-22.5-40.5-43.5-156-52.5-207
				c-33-181.5-37.5-396-48-582c-4.5-87-7.5-195,1.5-282c3-34.5,36-108,49.5-144c10.5-28.5,24-97.5,37.5-118.5c0-1.5-1.5-4.5-1.5-6
				c-22.5-4.5-66,6-87-3c-15-1.5-19.5-1.5-33-6c7.5-82.5,10.5-162,30-243c45-36,124.5-60,178.5-78c64.5-22.5,132-58.5,195-78
				c55.5-18,127.5-25.5,184.5-42c48-13.5,91.5-36,135-57C3337.5,207,3352.5,204,3363,201L3363,201z"/>
			<path fill="#985432" d="M3627,408c19.5,37.5,73.5,148.5,81,184.5c18,24,31.5,52.5,48,78c61.5,99,79.5,214.5,156,304.5
				c31.5,39,61.5,94.5,81,141c22.5,76.5,37.5,153,54,231c9,39,24,79.5,31.5,118.5c13.5,66,24,135,36,201c3,15,13.5,67.5,13.5,79.5
				c-10.5-4.5-24-7.5-34.5-10.5c-138-37.5-270-91.5-409.5-123c-37.5-9-73.5-19.5-111-25.5c-43.5-19.5-70.5,72-55.5,99v3
				c-13.5,36,9,84,37.5,106.5c48,37.5,108,66,162,91.5c-34.5,19.5-67.5,42-100.5,66c-10.5-15-24-28.5-37.5-40.5h-58.5
				c-49.5,61.5-105,126-183,151.5l-1.5-1.5c-1.5-57-12-148.5-18-208.5c-4.5-54-10.5-112.5-15-166.5l-39-409.5c-3-37.5-7.5-75-12-111
				c-3-21-7.5-52.5-7.5-72c3-15,0-54,0-72c-1.5-43.5-4.5-84-3-127.5c-12-3-33-6-46.5-10.5c49.5-57,96-75,150-121.5
				c16.5-13.5,82.5-82.5,94.5-85.5c4.5-9,13.5-15,22.5-21h1.5c4.5-6,13.5-13.5,19.5-19.5c37.5-45,51-81,46.5-139.5l3-19.5l1.5-9
				c13.5-10.5,72-55.5,84-61.5l4.5,3L3627,408z"/>
			<path fill="#B96E45" d="M3627,408c19.5,37.5,73.5,148.5,81,184.5c18,24,31.5,52.5,48,78c61.5,99,79.5,214.5,156,304.5
				c31.5,39,61.5,94.5,81,141c-46.5,30-99,60-142.5,91.5c-27,19.5-67.5,63-93,87c6,24,40.5,177,12,189c-18-19.5-54-189-70.5-219
				c-9-16.5-57-72-70.5-88.5l-165-198c12,37.5,37.5,93,52.5,130.5c31.5,78,64.5,154.5,97.5,231c-49.5,45-105,100.5-151.5,148.5
				c-25.5-46.5-52.5-84-75-127.5c-25.5-46.5-33-87-63-136.5c0-27-3-126-9-148.5c-13.5-49.5-42-120-63-168c-1.5-3,0-6,0-9l-4.5-1.5
				c-12-3-33-6-46.5-10.5c49.5-57,96-75,150-121.5c16.5-13.5,82.5-82.5,94.5-85.5c4.5-9,13.5-15,22.5-21h1.5
				c4.5-6,13.5-13.5,19.5-19.5c37.5-45,51-81,46.5-139.5l3-19.5l1.5-9c13.5-10.5,72-55.5,84-61.5l4.5,3L3627,408z"/>
			<path fill="#6D3B23" d="M3627,408c19.5,37.5,73.5,148.5,81,184.5c-19.5-15-40.5-28.5-63-39c13.5,60,24,151.5,12,211.5
				c-3,16.5-52.5-25.5-58.5-30c-22.5,9-66,22.5-75,45c-12,30,18,64.5,4.5,96c-13.5,31.5-51,36-76.5,57c-21,16.5-30,31.5-45,54
				c-51-21-100.5-63-157.5-85.5l-4.5-1.5c-12-3-33-6-46.5-10.5c49.5-57,96-75,150-121.5c16.5-13.5,82.5-82.5,94.5-85.5
				c4.5-9,13.5-15,22.5-21h1.5c4.5-6,13.5-13.5,19.5-19.5c37.5-45,51-81,46.5-139.5l3-19.5l1.5-9c13.5-10.5,72-55.5,84-61.5l4.5,3
				L3627,408z"/>
			<path fill="#B96E45" d="M3535.5,484.5l1.5-9c13.5-10.5,72-55.5,84-61.5l4.5,3c-4.5,34.5-18,69-27,102c-33,120-40.5,130.5-156,165
				c4.5-9,13.5-15,22.5-21h1.5c4.5-6,13.5-13.5,19.5-19.5c37.5-45,51-81,46.5-139.5L3535.5,484.5z"/>
			<path fill="#6D3B23" d="M3532.5,504l3-19.5c10.5,76.5,27,157.5-69,178.5c4.5-6,13.5-13.5,19.5-19.5
				C3523.5,598.5,3537,562.5,3532.5,504L3532.5,504z"/>
			<path fill="#6D3B23" d="M3589.5,861c54-4.5,109.5-7.5,163.5-13.5c12-1.5,12-10.5,15-22.5c10.5,9,19.5,45,21,58.5
				c-75,30-129,9-202.5,9L3585,861H3589.5z"/>
			<path fill="#AC633D" d="M3583.5,861c-1.5-7.5-3-22.5,0-30c3,9,1.5,18,4.5,28.5L3583.5,861z"/>
			<path fill="#F5A478" d="M3363,201c10.5-6,18-4.5,30,1.5c22.5,9,96,31.5,112.5,43.5l6,3c9,3,18,4.5,27,10.5c18,9,55.5,33,64.5,51
				l9,15c6,27,9,66,13.5,84l-3,10.5l-4.5-3c-12,6-70.5,51-84,61.5l-1.5,9l-3,19.5c-7.5-15,0-33-10.5-55.5l-3,1.5
				c-49.5,33-61.5,120-123,151.5c-130.5,70.5-286.5,33-427.5,52.5c-37.5,4.5-70.5,34.5-105,49.5c-43.5,19.5-91.5,21-138,22.5
				c0-1.5-1.5-4.5-1.5-6c-22.5-4.5-66,6-87-3c-15-1.5-19.5-1.5-33-6c7.5-82.5,10.5-162,30-243c45-36,124.5-60,178.5-78
				c64.5-22.5,132-58.5,195-78c55.5-18,127.5-25.5,184.5-42c48-13.5,91.5-36,135-57C3337.5,207,3352.5,204,3363,201L3363,201z"/>
			<path fill="#6D3B23" d="M3363,201c10.5-6,18-4.5,30,1.5c22.5,9,96,31.5,112.5,43.5l6,3c9,3,18,4.5,27,10.5c18,9,55.5,33,64.5,51
				l9,15c6,27,9,66,13.5,84l-3,10.5l-4.5-3c-12,6-70.5,51-84,61.5l-1.5,9l-3,19.5c-7.5-15,0-33-10.5-55.5l-3,1.5
				c-49.5,33-61.5,120-123,151.5c-130.5,70.5-286.5,33-427.5,52.5c-37.5,4.5-70.5,34.5-105,49.5c-43.5,19.5-91.5,21-138,22.5
				c0-1.5-1.5-4.5-1.5-6c-22.5-4.5-66,6-87-3c37.5-10.5,75-21,111-34.5l6-1.5c15-6,30-9,46.5-18c25.5-7.5,58.5-25.5,85.5-31.5
				c36-9,76.5-16.5,114-24c60-12,118.5-25.5,178.5-37.5c33-7.5,90-19.5,123-30c3-1.5,3-3,3-6c-3,0-10.5,0-13.5-3
				c-22.5-24-18-111-18-144c1.5-28.5-3-66,0-99c6-30,36-54,58.5-73.5C3337.5,207,3352.5,204,3363,201z"/>
			<path fill="#B96E45" d="M3507,246l6,3c9,3,18,4.5,27,10.5c18,9,55.5,33,64.5,51c-18-10.5-30-13.5-49.5-19.5
				c-6-10.5-12-19.5-16.5-30c-7.5,7.5-15,16.5-21,21c-28.5,79.5-147,159-223.5,186c0-61.5,0-99-6-159c27-10.5,70.5-22.5,99-31.5
				C3424.5,267,3469.5,252,3507,246z"/>
			<path fill="#E08058" d="M3513,249c9,3,18,4.5,27,10.5c18,9,55.5,33,64.5,51c-18-10.5-30-13.5-49.5-19.5c-6-10.5-12-19.5-16.5-30
				c-7.5,7.5-15,16.5-21,21c-25.5,12-48,10.5-78,12C3471,280.5,3484.5,268.5,3513,249L3513,249z"/>
			<path fill="#AC633D" d="M3522,447c52.5-45,63-61.5,91.5-123c6,27,9,66,13.5,84l-3,10.5l-4.5-3c-12,6-70.5,51-84,61.5l-1.5,9
				l-3,19.5C3525,489,3532.5,469.5,3522,447L3522,447z"/>
			<path fill="#985432" d="M3328.5,213c9-6,24-9,34.5-12c-34.5,36-51,31.5-93,85.5C3276,256.5,3306,232.5,3328.5,213z"/>
			<path fill="#B96E45" d="M3414,436.5L3414,436.5c1.5,4.5-15,55.5-18,64.5c-22.5-4.5-49.5-6-72-7.5c-6,0-3,0-7.5-3
				C3322.5,483,3399,444,3414,436.5L3414,436.5z"/>
			<path fill="#B96E45" d="M2940,592.5c19.5-43.5,42-204,75-229.5l4.5,1.5C3057,405,3036,492,3037.5,546c31.5-4.5,115.5-9,135-34.5
				c33-43.5,60-87,97.5-127.5c0,33-3,120,18,144c1.5,3,10.5,3,13.5,3c0,3,0,6-3,6c-33,10.5-91.5,22.5-123,30
				c-58.5,13.5-118.5,25.5-178.5,37.5c-37.5,7.5-78,15-114,24c-25.5,6-58.5,24-85.5,31.5c-16.5,9-31.5,12-46.5,18l-6,1.5
				c-36,13.5-73.5,24-111,34.5c-15-1.5-19.5-1.5-33-6c49.5-9,85.5-54,121.5-90c40.5-30,162-180,156-43.5c0,12,1.5,28.5,3,42
				C2910,612,2917.5,610.5,2940,592.5L2940,592.5z"/>
			<path fill="#AC633D" d="M2748,682.5c3-24,3-28.5,0-54l3-3h4.5c3,10.5,0,40.5-1.5,54L2748,682.5z"/>
			<path fill="#E08058" d="M3210,1122c1.5,42-1.5,69,4.5,114c16.5,99,58.5,183,34.5,283.5c-46.5,19.5-99,24-150,24l13.5,76.5
				c81-19.5,75-15,112.5,60l60,117c9,18,22.5,48,34.5,64.5c4.5,60,16.5,151.5,18,208.5c-13.5-1.5-21-7.5-31.5-13.5
				c-60-34.5-94.5-91.5-133.5-145.5c-10.5,16.5-25.5,33-39,48c-9-12-28.5-33-39-46.5c-33-43.5-78-93-109.5-138
				c-37.5,19.5-55.5,40.5-82.5,72c-10.5,12-25.5,21-40.5,16.5c-39-30,25.5-165,37.5-207c9-31.5,4.5-60-3-91.5
				c-31.5,3-145.5,24-165,7.5c0-12,13.5-33,16.5-51c15-91.5,34.5-184.5,48-274.5c37.5,85.5,84,214.5,117,304.5
				c46.5-7.5,105-12,153-18c-10.5-22.5-24-46.5-36-69C3088.5,1348.5,3148.5,1227,3210,1122L3210,1122z"/>
			<path fill="#B96E45" d="M3522,447c10.5,22.5,3,42,10.5,55.5c4.5,58.5-9,94.5-46.5,139.5c-6,7.5-15,15-19.5,19.5h-1.5
				c-22.5-3-376.5,82.5-423,93c-28.5-13.5-52.5-25.5-79.5-40.5c-9,54-69,246-127.5,262.5c-28.5-6-15-61.5-9-81
				c10.5-40.5,22.5-75,25.5-118.5c-36,15-73.5,28.5-109.5,43.5c-9,4.5-45,19.5-54,21c10.5-28.5,24-97.5,37.5-118.5
				c46.5-1.5,94.5-3,138-22.5c34.5-15,67.5-45,105-49.5c141-19.5,297,18,427.5-52.5c60-33,73.5-118.5,123-151.5H3522z"/>
			<path fill="#E08058" d="M2700,1713c79.5,58.5,105,148.5,139.5,235.5c16.5,42,40.5,69,72,100.5c-48,34.5-67.5,18-111,28.5
				c-24-1.5-43.5-7.5-64.5-18c-22.5-40.5-43.5-156-52.5-207C2694,1815,2694,1753.5,2700,1713L2700,1713z"/>
			<path fill="#AC633D" d="M3246,1098c-15-22.5-58.5-187.5-49.5-208.5c13.5,3,34.5,6,46.5,10.5c-1.5,43.5,1.5,84,3,127.5
				C3247.5,1044,3249,1083,3246,1098z"/>
			<path fill="#E08058" d="M2668.5,1011c66,24,70.5,97.5,69,156c-12,18-22.5,31.5-34.5,49.5c-6,9-10.5,21-24,19.5
				c-24-24-4.5-124.5-6-162C2673,1045.5,2673,1039.5,2668.5,1011z"/>
			<path fill="#E08058" d="M3172.5,1906.5c39,54,73.5,111,133.5,145.5c10.5,6,18,12,31.5,13.5l1.5,1.5c-31.5,18-43.5,21-79.5,30
				c13.5,4.5,33,12,46.5,18c-4.5,19.5-1.5,120-1.5,145.5c-12,0-48-3-54,1.5c-82.5-24-222-93-283.5-156c-6-3-18-13.5-22.5-18
				c-27,0-115.5-6-141-13.5c42-10.5,61.5,6,111-28.5c84-66,150-39,222-94.5C3147,1938,3160.5,1923,3172.5,1906.5z"/>
			<path fill="#AC633D" d="M3172.5,1906.5c39,54,73.5,111,133.5,145.5c10.5,6,18,12,31.5,13.5l1.5,1.5c-31.5,18-43.5,21-79.5,30
				c-22.5-10.5-63-10.5-87-19.5c-69-27-156-115.5-211.5-22.5c-6,10.5-13.5,21-18,31.5c-27,0-115.5-6-141-13.5
				c42-10.5,61.5,6,111-28.5c84-66,150-39,222-94.5C3147,1938,3160.5,1923,3172.5,1906.5z"/>
			<path fill="#F5A478" d="M2961,2056.5c15-10.5,28.5-25.5,46.5-25.5c21,6,63,42,78,58.5c-12,25.5-19.5,39-39,58.5
				c-21-7.5-72-39-81-40.5c-6-3-18-13.5-22.5-18C2947.5,2077.5,2953.5,2067,2961,2056.5L2961,2056.5z"/>
		</g>
	</g>
</g>
</svg>
