<?xml version="1.0" encoding="utf-8"?>
<!-- Generator: Adobe Illustrator 27.9.0, SVG Export Plug-In . SVG Version: 6.00 Build 0)  -->
<svg version="1.1" id="svg" xmlns="http://www.w3.org/2000/svg" xmlns:xlink="http://www.w3.org/1999/xlink" x="0px" y="0px"
	 viewBox="0 0 2000 3000" enable-background="new 0 0 2000 3000" xml:space="preserve">
<g>
	<g>
		<defs>
			<rect id="SVGID_1_" width="2000" height="3000"/>
		</defs>
		<clipPath id="SVGID_00000067916234234927654860000010848842974116314506_">
			<use xlink:href="#SVGID_1_"  overflow="visible"/>
		</clipPath>
		<g clip-path="url(#SVGID_00000067916234234927654860000010848842974116314506_)">
			<path fill="#FE9C20" d="M0,0h2000v3000H0V0z"/>
			<path fill="#FE9C20" d="M307,686c71,6,110,27,177,45c74,21,149,39,224,57c90,21,181,38,271,59c57,13,114,26,172,37
				c161,31,322,64,487,54c34-2,72-4,106-3c2,6,3,12,4,18c6,4,14,10,17,16c1,9-3,14-9,21c-17,19-41,38-54,60c-9,15-20,39-27,56
				c-22,48-45,96-66,145c-39,82-82,163-128,241c29,40,46,67,39,121c-2,13-6,23-13,34c-12,13-28,18-45,21c4,10,7,18,11,28
				c37,13,23,29,2,50l2,1c24,8,40-14,50,1c1,5,0,8-1,13c-6,19-14,20-32,20c8,18,21,33-6,42c2,16-1,33-11,46c-4,30-22,52-36,76
				c-10,12-23,25-34,34c-19,14-36,24-58,33c-3,1-9,4-10,6c-25,11-49,25-76,31c-145,30-310,18-454-9c-23-34-63-48-102-54
				c-20-3-36,1-51,13c-6-1-12-3-17-5c-9-20-23-34-40-46l-14-7c-18-15-56-26-66-51c-4-12-5-26-12-38c-4-6-29-24-35-20l1,2
				c30,2,39,30,45,54c5,21,36,35,54,45c-6,2-12-3-20-1c-4,0-19,4-20,4c-35-6-34-59-41-81c-5-17-29-9-26-43c11,2,12,8,26,4
				c-31-7-33-8-27-40c-22-9-17-13-18-33c-45-41-93-77-144-110c58-56,113-136,167-199c39-46,81-93,116-141c15-19,31-55,43-77
				c5-18-26-67-38-82c-6-3-24-18-30-22c-51-42-104-90-143-144c-21-29-36-62-60-89c-21-24-51-29-71-43c-1-10,8-50,12-62
				c5-15,9-59,15-70C309,700,308,693,307,686L307,686z"/>
			
				<linearGradient id="SVGID_00000178196495514116043250000002955316658858231735_" gradientUnits="userSpaceOnUse" x1="989.0444" y1="2732.8516" x2="991.8605" y2="2512.7437" gradientTransform="matrix(1 0 0 1 0 -778)">
				<stop  offset="0" style="stop-color:#E14E01"/>
				<stop  offset="1" style="stop-color:#FD6501"/>
			</linearGradient>
			<path fill="url(#SVGID_00000178196495514116043250000002955316658858231735_)" d="M522,1605c7-11,15-20,25-28c27-21,63-23,96-24
				c54-2,108,0,161,2c134,4,267,12,401,26c43,5,85,12,128,18c37,11,144,20,171,48c-12,13-28,18-45,21c4,10,7,18,11,28
				c37,13,23,29,2,50l2,1c24,8,40-14,50,1c1,5,0,8-1,13c-6,19-14,20-32,20c8,18,21,33-6,42c2,16-1,33-11,46c-4,30-22,52-36,76
				c-10,12-23,25-34,34c-19,14-36,24-58,33c-3,1-9,4-10,6c-25,11-49,25-76,31c-145,30-310,18-454-9c-23-34-63-48-102-54
				c-20-3-36,1-51,13c-6-1-12-3-17-5c-9-20-23-34-40-46l-14-7c-18-15-56-26-66-51c-4-12-5-26-12-38c-4-6-29-24-35-20l1,2
				c30,2,39,30,45,54c5,21,36,35,54,45c-6,2-12-3-20-1c-4,0-19,4-20,4c-35-6-34-59-41-81c-5-17-29-9-26-43c11,2,12,8,26,4
				c-31-7-33-8-27-40c5-15,9-23,18-36c0-3,1-6,2-9c-2-3-13-13-16-17c14-1,24,0,28-15l3-3c-2-2-4-4-5-6c-6-9-3-18-2-27l1-10
				c4-3,30-41,35-48L522,1605z"/>
			<path fill="#722B12" d="M522,1605c7-11,15-20,25-28c27-21,63-23,96-24c54-2,108,0,161,2c134,4,267,12,401,26c43,5,85,12,128,18
				c37,11,144,20,171,48c-12,13-28,18-45,21c4,10,7,18,11,28c37,13,23,29,2,50c-5,0-17,2-21,3v-2l-1,1c-15,7-23,20-38,25
				c-19,6-41-6-60-4c-16,1-33,6-50,7c-27,2-55,1-81,2c-54,3-108,3-162,3c-27,0-54-3-82-6c-13-1-41-6-52-5c-29-3-56-6-86-6
				c-25,2-53,3-78,1c-22-1-44-5-66-6c-19-5-47-9-67-13c-7,5-84-8-93,15c-4,0-4,0-7,1c3,1,18,3,19,4c-15,1-18-2-29-1
				c-12-13,5-68-40-22c0-3,1-6,2-9c-2-3-13-13-16-17c14-1,24,0,28-15l3-3c-2-2-4-4-5-6c-6-9-3-18-2-27l1-10c4-3,30-41,35-48
				L522,1605z"/>
			<path fill="#541E16" d="M522,1605c7-11,15-20,25-28c27-21,63-23,96-24c54-2,108,0,161,2c134,4,267,12,401,26c43,5,85,12,128,18
				c37,11,144,20,171,48c-12,13-28,18-45,21c4,10,7,18,11,28c37,13,23,29,2,50c-5,0-17,2-21,3v-2l-1,1c-15,7-23,20-38,25
				c-19,6-41-6-60-4c-16,1-33,6-50,7c-27,2-55,1-81,2c-54,3-108,3-162,3c-27,0-54-3-82-6c-13-1-41-6-52-5c-29-3-56-6-86-6
				c-25,2-53,3-78,1c-22-1-44-5-66-6c-19-5-47-9-67-13c-7,5-84-8-93,15c-4,0-4,0-7,1c3,1,18,3,19,4c-15,1-18-2-29-1
				c-12-13,5-68-40-22c0-3,1-6,2-9c-2-3-13-13-16-17c14-1,24,0,28-15l3-3c-2-2-4-4-5-6c-6-9-3-18-2-27c10,29,25,21,49,29
				c13,5,27,15,41,19c69,18,142,28,213,32c22,1,54-13,75-10c50,8,99,16,149,20c27,2,51,0,78,1c57,1,113,0,170-5c40-3,66-8,90-42
				c20-29,65,35,88,6c10-12,4-50,2-66c-11-3-21-5-32-8c-162-36-329-44-494-54c-51-3-102-6-153-7c-49-2-97-4-146,1c-35,4-61,13-93,25
				L522,1605z"/>
			<path fill="#237E2B" d="M495,1699c31,20,98,36,134,46c-7,5-84-8-93,15c-4,0-4,0-7,1c3,1,18,3,19,4c-15,1-18-2-29-1
				c-12-13,5-68-40-22c0-3,1-6,2-9c-2-3-13-13-16-17c14-1,24,0,28-15L495,1699z"/>
			<path fill="#237E2B" d="M1470,1697c37,13,23,29,2,50c-5,0-17,2-21,3v-2C1472,1731,1476,1723,1470,1697z"/>
			<path fill="#9A4224" d="M647,1720c-27-10-75-14-90-38c-4-7,3-20,12-22c19-5,35,12,55,9c29-3,55-21,84-8c15,8,5,24,20,32
				c12,7,29,2,40,6c20,7,32,23,57,16c3-1,7-3,8-6c6-10-19-37-1-42c30-8,57,23,92,22c31-1,52-43,82-25c24,18,39,33,71,22
				c18-6,36-18,55-8c22,12-1,52-18,57c-9,2-27-12-38-10c-35,2-53,22-91,13c-11-3-25-6-36-7c-22,0-66-16-83-13c-42,8-60,32-107,7
				c-28-15-59-9-90-3C660,1723,655,1723,647,1720L647,1720z"/>
			<path fill="#CC420E" d="M647,1720c-4-5-5-5-6-10c7-10,24-5,29,5c-1,3-1,5-2,7C660,1723,655,1723,647,1720z"/>
			<path fill="#CC420E" d="M983,1726c3,4,5,5,5,9l-3,3c-11-3-25-6-36-7c5-2,4-1,7-5C965,1731,974,1732,983,1726z"/>
			<path fill="#E66735" d="M955,1726c7-11,20-11,28,0C974,1732,965,1731,955,1726z"/>
			<path fill="#9A4224" d="M1277,1685c1,0,6,0,6,1c27,26-6,36-27,42c-19,6-26,17-49,14c-15-2-35-4-50-3c-5,0-7,0-10-1v-2
				c5-5,9-5,14-7c25-8,39,12,57,8c14-3,13-31,18-40c6-11,23-5,40-11L1277,1685z"/>
			<path fill="#9A4224" d="M1132,1608c25-4,100,10,119,27c1,3,2,4,0,7c-8,13-33-3-41-8c-7-2-16-3-23-5c-36-9-72-2-108-5l-1-2
				C1084,1611,1120,1609,1132,1608z"/>
			<path fill="#9A4224" d="M772,1598c2,0,17,2,19,3c28,10,108-9,127,0l1,2l-5,3c-9,2-18,4-27,5c-25,4-89,15-110,0
				C772,1608,772,1603,772,1598z"/>
			<path fill="#9A4224" d="M643,1584c10,0,34-1,40,9c-6,8-26,6-36,8c-6,1-12,3-18,5c-9,2-28,10-36,4v-3C603,1593,628,1587,643,1584z
				"/>
			<path fill="#D8CAC7" d="M668,1614c18-1,28,3,45,5c12,1,25,0,37,2c5,1,6,3,9,6l-1,2l-4,1c-10-3-16-3-26-2c-12,1-61,3-64-10
				L668,1614z"/>
			<path fill="#9A4224" d="M755,1657c20-3,49,12,25,28C763,1685,730,1673,755,1657z"/>
			<path fill="#D8CAC7" d="M1005,1627c4,0,7-1,10,0c9,1,28,31,33,39l-2,4c-10-3-41-22-44-32C1001,1633,1002,1632,1005,1627
				L1005,1627z"/>
			<path fill="#D8CAC7" d="M876,1625c7,0,17,0,17,9c-8,10-24,4-34,2c-6,0-22,1-22-7C845,1624,867,1625,876,1625z"/>
			<path fill="#9A4224" d="M1172,1679c20-2,33,10,12,22c-10,0-21-1-21-13C1165,1683,1167,1682,1172,1679z"/>
			<path fill="#D8CAC7" d="M1072,1637c5-1,10-2,14,2c0,9-12,16-20,19c-7-2-15-5-15-13C1056,1636,1063,1637,1072,1637L1072,1637z"/>
			<path fill="#D8CAC7" d="M1138,1636c1,0,3,0,4,0h2c10,0,45,8,48,16l-3,5c-8,1-50-14-53-18L1138,1636z"/>
			<path fill="#D8CAC7" d="M1198,1637c5,1,6,0,10,4c1,5,1,3-1,9c-5-1-7-1-11-4C1195,1641,1195,1642,1198,1637z"/>
			<path fill="#FEC858" d="M581,1942c-18-15-56-26-66-51c-4-12-5-26-12-38c-4-6-29-24-35-20l1,2c30,2,39,30,45,54c5,21,36,35,54,45
				c-6,2-12-3-20-1c-4,0-19,4-20,4c-35-6-34-59-41-81c-5-17-29-9-26-43c11,2,12,8,26,4c38,5,29,16,60,33c7,4,30,5,39,5
				c14,1,54,22,60,32c15,22,1,52,42,57c8,1,19,0,25-6c19-18,18-38,51-34c21,2,42,13,64,12c24,0,45-12,68-16c22-4,33,7,54,9
				c12,1,28-6,41-4c16,2,27,13,42,17c15,4,35-4,50,0c13,4,25,16,38,22c47,24,77,8,120,3c20-3,48,5,70,1c18-2,30-18,47-24
				c17-6,35-5,52-14c13-7,16-10,23-24c8-14,29-18,42-21c-4,30-22,52-36,76c-10,12-23,25-34,34c-19,14-36,24-58,33c-3,1-9,4-10,6
				c-25,11-49,25-76,31c-145,30-310,18-454-9c-23-34-63-48-102-54c-20-3-36,1-51,13c-6-1-12-3-17-5c-9-20-23-34-40-46L581,1942z"/>
			<path fill="#FE9C20" d="M1474,1868c-4,30-22,52-36,76c-10,12-23,25-34,34c-19,14-36,24-58,33c-3,1-9,4-10,6c-25,11-49,25-76,31
				c-145,30-310,18-454-9c-23-34-63-48-102-54c-20-3-36,1-51,13c-6-1-12-3-17-5c-9-20-23-34-40-46h1c20,5,52,20,70,23
				c57,9,89,16,139,46c26,15,90,20,120,25c53,6,101-14,154-12c62,3,133,8,190-20c8-4,11-10,7-18c-9-6-43,3-56,6c-17,3-33,5-50,6
				c-23,1-77-1-91-19v-2c3-1,17,1,19,3c22,13,154-2,147-30l-5-5c20-3,48,5,70,1c18-2,30-18,47-24c17-6,35-5,52-14c13-7,16-10,23-24
				C1439,1875,1461,1872,1474,1868L1474,1868z"/>
			<path fill="#FEDD90" d="M926,1997c-33,40-43-8-65-19c-20-9-85,9-96-18c1-5,0-3,4-6c8-1,16-2,21-9c5-8,10-13,21-10
				c20,5,26,37,52,19c11-7,16-22,29-27c33-10,40,14,67,26c30,14,46-52,75,1c3,5-3,15-5,20c-14,11-45,17-51,24c-6,0-11,1-17,1
				C947,1999,940,1997,926,1997L926,1997z"/>
			<path fill="#FE9C20" d="M977,1998h1c49-3,65-42,70-43c3,3,4,8,4,12c-3,42-97,58-121,38l-1-2c6-4,22-2,30-4
				C965,2000,971,1999,977,1998z"/>
			<path fill="#15732C" d="M1472,1746l2,1c24,8,40-14,50,1c1,5,0,8-1,13c-6,19-14,20-32,20c8,18,21,33-6,42c-18,0-19-4-33-5l-2,2
				c0,7,2,11-1,17c-12,12-42,6-58,4c-1,3-3,6-4,9c-4,0-8,0-12,0c-40,15-72-18-93-12c-1,7,14,16,3,23c-8,6-31,2-37-6
				c-13-24-26,3-39,11c-3,2-8,4-11,6c-55,6-67-33-90-36c-20-2-39,20-66,17c-19-2-31-14-42-28c-34-1-96-14-125-9c-1,0-1,0-2,0
				c-44,13-201,1-248-15c-23-8-42-23-65-31c-13-5-29,0-41-7c11,0,14,3,29,1c-1-1-16-4-19-4c3-2,4-1,7-1c9-23,86-10,93-15
				c20,4,48,8,67,13c22,1,44,5,66,6c25,2,53,0,78-1c29,0,56,3,86,6c11,0,40,4,52,5c27,3,54,6,82,6c54,0,108,0,162-3c26-1,54,0,81-2
				c17-1,33-6,50-7c19-1,41,10,60,4c15-4,23-17,38-25l1-1v2C1455,1748,1468,1747,1472,1746L1472,1746z"/>
			
				<linearGradient id="SVGID_00000150791484658219138740000014131991415627885194_" gradientUnits="userSpaceOnUse" x1="975.8721" y1="2588.2937" x2="990.618" y2="2538.5627" gradientTransform="matrix(1 0 0 1 0 -778)">
				<stop  offset="0" style="stop-color:#6DB31F"/>
				<stop  offset="1" style="stop-color:#86CD5B"/>
			</linearGradient>
			<path fill="url(#SVGID_00000150791484658219138740000014131991415627885194_)" d="M840,1786c-2-1-3-2-4-3v-3c11-9,74-2,91-3
				c56,3,112,7,167,12h6c3,2,3,2,5,4c4,5,21,7,21,13c-7,7-44,16-55,18c-46-2-91-6-137-12c-3-2-4-3-7-4C901,1807,866,1797,840,1786z"
				/>
			<path fill="#68A81F" d="M929,1790c13-8,151,15,168,4l-3-5h6c3,2,3,2,5,4c4,5,21,7,21,13c-7,7-44,16-55,18c-46-2-91-6-137-12
				c-3-2-4-3-7-4c8,0,41,1,44-8C966,1793,940,1791,929,1790z"/>
			<path fill="#86C73C" d="M840,1786c10-12,31-4,45-2c15,2,29,4,45,6c11,1,36,3,43,10c-2,8-36,8-44,8C901,1807,866,1797,840,1786z"
				/>
			<path fill="#419123" d="M536,1760c9-23,86-10,93-15c20,4,48,8,67,13c14,10,47,7,62,24c5,23-99,24-117,15c-9-1-21-6-30-9
				c-12-3-30-12-42-17S548,1763,536,1760z"/>
			<path fill="#68A81F" d="M611,1787c-7-5-19-12-20-20c8-20,85-1,78,19c-7,7-18,8-28,10C632,1795,620,1790,611,1787z"/>
			<path fill="#68A81F" d="M1472,1746l2,1c24,8,40-14,50,1c1,5,0,8-1,13c-6,19-14,20-32,20c8,18,21,33-6,42c-18,0-19-4-33-5l-2,2
				c0,7,2,11-1,17c-12,12-42,6-58,4c-2-5-2-6-7-10c18-8,35,5,50-4c6-3,5-13,0-18c-11-5-29,8-44,9c-14,1-36-12-36-26c9-5,54-8,66-7
				c13,1,56,18,61-9c-5-16-26-17-31-22v-4C1455,1748,1468,1747,1472,1746L1472,1746z"/>
			<path fill="#419123" d="M1100,1789c14,1,121,3,119,17c-18,16-114,20-140,19c-2,0-5,0-7,0c11-2,48-11,55-18c0-7-17-9-21-13
				C1103,1790,1103,1790,1100,1789z"/>
			<path fill="#419123" d="M840,1762c29,0,56,3,86,6l1,2c15,2,29,3,44,5c-16,1-29-3-44,0c-17,1-80-6-91,3v3c1,1,3,2,4,3
				c26,11,61,20,89,22c3,2,4,2,7,4c-38-5-118-14-149-36C800,1764,822,1770,840,1762z"/>
			<path fill="#86C73C" d="M1376,1850c6-8,1-14,9-19c4,4,4,5,7,10c-1,3-3,6-4,9C1384,1850,1380,1850,1376,1850L1376,1850z"/>
			<path fill="#ADD117" d="M1249,1856c6,7,29,11,37,6c10-7-5-16-3-23c21-6,53,27,93,12c4,0,8,0,12,0c6,6,16,13,19,17c0,5,1,3-3,6
				c-23,10-54-4-76-5c-7-1-10,4-17,7c-12,5-39,4-51,0c-6-3-7-2-13,1l-3-2c-2-4-2-9,0-13C1244,1857,1245,1857,1249,1856L1249,1856z"
				/>
			<path fill="#86C73C" d="M1198,1872c4-2,8-4,11-6c13-8,26-35,39-11c-4,2-4,1-6,5c-1,4-1,9,0,13l3,2c6-3,6-4,13-1c-6,1-6,1-11,5
				C1227,1885,1218,1881,1198,1872z"/>
			<path fill="#68A81F" d="M1259,1875c12,4,39,6,51,0c7-3,10-7,17-7c-6,4-7,6-11,11c-19,23-46,7-68,0C1253,1876,1253,1876,1259,1875
				z"/>
			<path fill="#F16D14" d="M1120,1879c12,0,34,18,51,23c20,7,76-15,80,5c-2,5-1,3-7,7c-32,9-67,16-97,0
				C1135,1908,1110,1896,1120,1879z"/>
			<path fill="#FDAA77" d="M836,1853c8-1,33-3,35,10c-8,7-25,3-32,6c-29,10-31,16-60,2c-13-6-16,0-29-2c-3-3-3-1-3-6
				c11-17,45,0,60,0C812,1863,830,1856,836,1853z"/>
			<path fill="#FDAA77" d="M608,1825c7,0,37,8,44,10c20,5,36,30,28,50c-13,3-11-24-20-33C647,1838,612,1847,608,1825L608,1825z"/>
			<path fill="#F16D14" d="M529,1783c16,2,55,18,37,37c-2,0-3-1-5-1c-10-3-31-19-36-28C525,1785,525,1787,529,1783z"/>
			<path fill="#FDAA77" d="M906,1842c9,0,38-1,42,9c-3,4-2,3-7,5c-11,2-34,5-41-6C902,1844,901,1846,906,1842z"/>
			<path fill="#F16D14" d="M700,1838c9,0,16,0,20,10c-1,5-2,6-6,10C698,1860,690,1852,700,1838z"/>
			
				<linearGradient id="SVGID_00000098914377576226970890000003468278438173760655_" gradientUnits="userSpaceOnUse" x1="994.1218" y1="2006.5929" x2="871.9207" y2="2471.5791" gradientTransform="matrix(1 0 0 1 0 -778)">
				<stop  offset="0" style="stop-color:#FB8214"/>
				<stop  offset="1" style="stop-color:#FF9E21"/>
			</linearGradient>
			<path fill="url(#SVGID_00000098914377576226970890000003468278438173760655_)" d="M623,1219c0,33-4,65-6,97c-1,13-4,39-2,51
				c14-13,31-25,47-36c7-4,18-11,24-16c9-8,22-14,34-16c4-1,10-4,14-5c11-6,17-8,29-12c11-4,28-9,40-12c7-2,13-4,21-5c6-1,11-2,17-4
				c12-7,20-8,33-5c4-1,10-1,15-2c13-2,18-2,31-2c33-1,66-1,99,1c13,1,44,4,55,4c13-2,20,0,32,5c15,2,53,9,67,14h1c9,2,34,9,43,12
				c11,2,19,4,28,11c17,7,66,30,80,42c3,5,4,6,9,10c0,3,0,1-2,3c8,3,15,6,13,16c-2,2-3,3-5,4c7,4,4,7,8,10c18,14,38,31,54,46
				c18,16,71,80,73,104l9,19c15,54-13,53-57,52c-22-1-44-2-66-3c-7,0-22-6-26-3c-43-6-85-13-128-18c-133-14-267-22-401-26
				c-54-2-108-4-161-2c-33,1-69,3-96,24c-10,8-19,17-25,28l2,3c-5,7-31,45-35,48l-1,10c-2,9-4,18,2,27c1,2,3,4,5,6l-3,3
				c-4,16-14,15-28,15c3,3,15,13,16,17c-1,3-2,6-2,9c-9,13-13,21-18,36c-22-9-17-13-18-33c-45-41-93-77-144-110
				c58-56,113-136,167-199c39-46,81-93,116-141C595,1277,612,1241,623,1219L623,1219z"/>
			<path fill="#FE9C20" d="M831,1349c7,1,26-1,34-2c24-1,46-2,70,1c5,1,7,1,11,3c5,5,25,8,32,14c31,26,46,67,49,106c4,43-7,56-39,79
				c-135-3-266-27-402-6c-45,7-56,43-91,45c-9-8-8-21-8-31c19-32,39-63,67-87c59-52,130-87,206-106c17-4,40-8,55-14l2-1
				C823,1348,825,1347,831,1349z"/>
			<path fill="#FEDD90" d="M818,1349c6-1,8-2,13-1c2,17-11,36-23,23C806,1362,812,1356,818,1349L818,1349z"/>
			<path fill="#FEDD90" d="M935,1348c5,1,7,1,11,3c-6,10-19,18-28,8C918,1349,928,1349,935,1348L935,1348z"/>
			<path fill="#FEDD90" d="M777,1445c22,1,34,23,30,43C792,1483,775,1461,777,1445z"/>
			<path fill="#FEDD90" d="M577,1471c17,11,1,30-12,36c-4-1-4-1-6-3C556,1492,567,1478,577,1471z"/>
			<path fill="#FEDD90" d="M911,1481c6,0,9,0,11,6c-3,10-15,14-25,15c-6,0-8,0-11-5C890,1488,902,1483,911,1481z"/>
			<path fill="#FEDD90" d="M681,1409c6,0,7,1,10,5c2,11-10,20-20,22c-6-1-5,0-9-3v-4C665,1420,673,1414,681,1409z"/>
			<path fill="#FEDD90" d="M931,1424c17,4,17,21,10,34h-2C920,1452,923,1438,931,1424L931,1424z"/>
			<path fill="#FEDD90" d="M990,1476c5,0,8,1,11,6c-2,9-15,12-23,13c-6,0-9,0-12-6l1-3C975,1477,979,1477,990,1476z"/>
			<path fill="#FEDD90" d="M875,1388c14,3,29,10,22,27C882,1414,869,1405,875,1388z"/>
			<path fill="#FEDD90" d="M964,1371c7,2,9,5,9,12c-5,8-8,9-17,12c-4-1-4-1-8-4c-3-5-2-3-2-8C952,1374,955,1374,964,1371z"/>
			<path fill="#FEDD90" d="M709,1471c9,0,27,4,29,15l-3,3c-10,1-25,2-29-8C706,1475,706,1475,709,1471z"/>
			<path fill="#FEDD90" d="M525,1514c3,1,3,2,5,3c7,13-3,24-12,32h-3l-2-2C511,1537,519,1522,525,1514z"/>
			<path fill="#FEDD90" d="M750,1386c9,0,21,0,27,8c1,6,1,4-2,10C762,1406,746,1402,750,1386L750,1386z"/>
			<path fill="#FEDD90" d="M643,1478c5,0,6,1,9,5c-1,11-10,15-19,19l-6-1c-3-3-2-1-2-6C629,1486,635,1482,643,1478z"/>
			<path fill="#FEDD90" d="M983,1417c18,2,14,20,8,32C977,1447,978,1427,983,1417z"/>
			<path fill="#FEDD90" d="M876,1456c3,0,3,0,6,1c4,10-11,20-18,23c-5-1-3,0-6-3v-4C861,1465,868,1460,876,1456z"/>
			<path fill="#FEDD90" d="M994,1507c1,1,3,2,4,3c2,10-7,20-13,27C970,1524,982,1514,994,1507z"/>
			<path fill="#FEDD90" d="M827,1415c15,5,6,26,2,35C816,1447,822,1424,827,1415z"/>
			<path fill="#F16D14" d="M623,1219c0,33-4,65-6,97c-1,13-4,39-2,51c-18,14-33,30-49,47c-41,44-76,79-78,143c0,11-1,23,8,31
				c10,9,14,13,27,16l2,3c-5,7-31,45-35,48l-1,10c-2,9-4,18,2,27c1,2,3,4,5,6l-3,3c-4,16-14,15-28,15c3,3,15,13,16,17c-1,3-2,6-2,9
				c-9,13-13,21-18,36c-22-9-17-13-18-33c-45-41-93-77-144-110c58-56,113-136,167-199c39-46,81-93,116-141
				C595,1277,612,1241,623,1219L623,1219z"/>
			<path fill="#68A81F" d="M469,1734c6,2,4,2,11,0c-1,3-2,6-2,9c-9,13-13,21-18,36c-22-9-17-13-18-33C447,1734,458,1735,469,1734
				L469,1734z"/>
			<path fill="#68A81F" d="M486,1696c2,2,4,4,6,6c-4,16-14,15-28,15c3,3,15,13,16,17c-7,2-5,3-11,0c-7-9-31-14-20-35c9-6,17,2,30,3
				C484,1700,483,1702,486,1696z"/>
			<path fill="#68A81F" d="M486,1696c-2-16-15-33,4-41l-1,10c-2,9-4,18,2,27c1,2,3,4,5,6l-3,3C490,1700,488,1698,486,1696L486,1696z
				"/>
			<path fill="#FEDD90" d="M1339,1373c-5-1-13-2-17-4c-5-2-9-7-11-12c3-10,13-6,21-4c8,3,15,6,13,16C1342,1371,1341,1372,1339,1373
				L1339,1373z"/>
			<path fill="#FEDD90" d="M1216,1286c11,2,19,4,28,11c-1,5,0,5-3,8c-11,5-21-1-27-11C1213,1289,1213,1292,1216,1286L1216,1286z"/>
			<path fill="#FEDD90" d="M734,1293c11-6,17-8,29-12c5,3,4,2,5,6C764,1299,740,1306,734,1293z"/>
			<path fill="#FEDD90" d="M685,1315c9-8,22-14,34-16c0,5,0,8-5,12C706,1318,695,1323,685,1315z"/>
			<path fill="#FEC858" d="M1482,1552c0,6,1,10-6,13l-3-1c-7-8-14-28,0-31L1482,1552z"/>
			<path fill="#FEDD90" d="M888,1253c13-2,18-2,31-2c0,14-20,15-29,10C887,1257,888,1259,888,1253z"/>
			<path fill="#FEDD90" d="M841,1260c12-7,20-8,33-5C867,1267,850,1270,841,1260z"/>
			<path fill="#FEDD90" d="M1073,1255c13-2,20,0,32,5l-5,5C1090,1268,1077,1267,1073,1255L1073,1255z"/>
			<path fill="#FEDD90" d="M1172,1274h1c5,3,15,5,16,10l-3,2c-9,3-21,2-23-9C1168,1274,1166,1275,1172,1274L1172,1274z"/>
			<path fill="#FEDD90" d="M803,1269c7-2,13-4,21-5c-3,9-6,11-16,10C806,1272,805,1271,803,1269z"/>
			<path fill="#FEDD90" d="M1084,1494c7,0,14,0,20,5c2,11-12,13-20,16c-8,2-14,3-18-4C1066,1500,1074,1497,1084,1494z"/>
			<path fill="#FEDD90" d="M1310,1407c6,1,10,2,14,7c-1,5-2,8-6,11c-5,3-11,4-17,3c-8-2-14-6-12-14C1295,1407,1301,1408,1310,1407
				L1310,1407z"/>
			<path fill="#FEDD90" d="M989,1301c9-1,30-3,34,8c-1,5-2,5-7,8c-10,2-26,2-32-7C985,1304,985,1306,989,1301z"/>
			<path fill="#FEDD90" d="M1182,1476c14,1,36,9,27,27C1193,1505,1177,1491,1182,1476z"/>
			<path fill="#FEDD90" d="M622,1366c4,0,4,0,8,3c6,12-5,24-13,31c-4,0-4,0-8-1C601,1387,614,1374,622,1366z"/>
			<path fill="#FEDD90" d="M1421,1485c2,0,4,0,7,1c14,2,27,7,23,23C1436,1509,1415,1504,1421,1485z"/>
			<path fill="#FEDD90" d="M737,1326c6,0,6,0,11,2c3,4,3,2,2,7c-5,9-8,10-18,12c-8,0-11,1-16-5v-3C722,1330,728,1329,737,1326
				L737,1326z"/>
			<path fill="#FEDD90" d="M1021,1359c-9-1-16-1-20-10c2-13,28-13,35-3c0,6,0,4-4,9L1021,1359z"/>
			<path fill="#FEDD90" d="M1044,1266c11-1,28,0,36,9c1,6,1,3-1,9C1066,1285,1042,1283,1044,1266z"/>
			<path fill="#FE8B1E" d="M1281,1374l1-1c1,6,0,5,6,9c10,7,37,19,40,31l-3,1c-5-5-8-6-14-7c-9-9-31-16-34-26L1281,1374z"/>
			<path fill="#FEDD90" d="M1102,1381c13,5,10,29-1,38C1083,1411,1093,1391,1102,1381z"/>
			<path fill="#FEDD90" d="M1372,1419c16,5,23,18,18,34C1373,1451,1364,1432,1372,1419z"/>
			<path fill="#FEDD90" d="M1071,1448c14,1,31,10,27,27C1080,1475,1071,1467,1071,1448z"/>
			<path fill="#FEDD90" d="M1174,1357c7-1,11-1,16,2c3,5,3,3,1,8c-3,4-6,5-11,8c-7,0-12,1-18-3c-3-4-2-2-1-7
				C1165,1360,1168,1359,1174,1357z"/>
			<path fill="#FEDD90" d="M1398,1528c14,2,25,16,26,29c-2,0-5,0-7,0C1401,1556,1397,1542,1398,1528z"/>
			<path fill="#FEDD90" d="M1254,1450c4,0,4,1,7,2c5,10-12,20-20,23c-5,0-7,0-10-5C1233,1460,1245,1454,1254,1450z"/>
			<path fill="#FEDD90" d="M1043,1382c6,0,9,0,12,6c-2,10-12,13-20,14c-3-1-6-2-9-3c-4-4-3-2-3-7C1028,1384,1034,1383,1043,1382
				L1043,1382z"/>
			<path fill="#FEDD90" d="M1187,1318c10,0,22,0,29,9c1,6,1,3-1,10c-10,1-23,1-29-9C1185,1322,1185,1325,1187,1318z"/>
			<path fill="#FEDD90" d="M1163,1396c15,4,23,20,20,35C1169,1426,1157,1412,1163,1396z"/>
			<path fill="#FEDD90" d="M883,1273c6,0,9-1,13,3c2,4,2,3,0,8c-3,5-6,5-12,7c-7,0-11,1-16-5C867,1276,876,1275,883,1273z"/>
			<path fill="#FEDD90" d="M1124,1442c14,0,31,11,29,26C1138,1468,1125,1457,1124,1442z"/>
			<path fill="#FEDD90" d="M1264,1503c5,1,8,3,9,8c-3,10-15,11-23,12c-5-1-4,0-7-4v-3C1247,1509,1256,1505,1264,1503z"/>
			<path fill="#FEDD90" d="M1118,1272c8,0,25,0,28,10c-2,3-3,3-6,5c-9,1-22,3-27-6C1114,1275,1113,1277,1118,1272z"/>
			<path fill="#FEDD90" d="M1341,1486c17,1,25,10,23,27C1349,1510,1340,1502,1341,1486z"/>
			<path fill="#FEDD90" d="M844,1280c3,0,3,1,6,2c6,11-8,19-17,22c-4,0-6-2-7-6C829,1289,837,1285,844,1280L844,1280z"/>
			<path fill="#FEDD90" d="M578,1423c1,1,2,2,3,3c2,13-9,21-20,26C551,1442,570,1429,578,1423z"/>
			<path fill="#FEDD90" d="M938,1310c3,0,6,0,8,0c4,3,3,1,3,5c-4,8-8,9-15,12c-5,0-7,1-11-2C921,1316,931,1313,938,1310z"/>
			<path fill="#FEDD90" d="M864,1315l6,1c4,4,3,2,3,7c-3,9-6,11-14,16l-4-1c-4-3-3-1-4-6C852,1323,857,1320,864,1315L864,1315z"/>
			<path fill="#FEDD90" d="M1211,1375c13,1,23,15,22,28C1218,1402,1211,1389,1211,1375z"/>
			<path fill="#FEDD90" d="M1324,1446c1,0,3,0,4,0c12,0,25,2,25,16C1340,1462,1325,1462,1324,1446L1324,1446z"/>
			<path fill="#FEDD90" d="M1276,1381c-2,0-4-1-6-1c-7-2-11-4-14-10c0-5-1-3,2-7c10-4,17,5,24,11L1276,1381z"/>
			<path fill="#FEDD90" d="M1086,1319c1,0,3,1,4,2c5,11-6,22-15,26c-4-3-3-1-4-7C1073,1331,1079,1326,1086,1319L1086,1319z"/>
			<path fill="#FEDD90" d="M981,1256c10,0,20-2,29,2c3,4,2,2,2,8C1000,1269,983,1271,981,1256z"/>
			<path fill="#FEDD90" d="M798,1300l3,1c6,11,0,21-9,28C778,1320,790,1309,798,1300L798,1300z"/>
			<path fill="#FEDD90" d="M1247,1314c13,0,26,0,26,16C1260,1332,1248,1329,1247,1314z"/>
			<path fill="#FEDD90" d="M1150,1298c7-1,15-2,16,7c-2,5-3,5-8,9c-7,0-13,0-16-7C1144,1302,1146,1301,1150,1298z"/>
			<path fill="#FEDD90" d="M1135,1518c15,2,23,7,21,23C1144,1539,1133,1530,1135,1518z"/>
			<path fill="#FEDD90" d="M943,1267c5-1,8-2,11,3c-1,7-8,9-14,12c-6,0-7,0-11-4l1-3C934,1270,937,1269,943,1267L943,1267z"/>
			<path fill="#FEDD90" d="M673,1349l3,1c5,8-2,17-8,23c-2-2-2-2-4-5C664,1359,667,1355,673,1349L673,1349z"/>
			<path fill="#FEDD90" d="M1336,1389c10,2,14,5,13,15C1339,1402,1334,1399,1336,1389z"/>
			<path fill="#FE8B1E" d="M1021,1359l10-3l5,3l1,3c-5,3-8,3-14,1L1021,1359z"/>
			<path fill="#392826" d="M309,706c0,35-2,84-8,119c19,7,60,33,70,49c29,23,55,53,83,76c112,92,237,169,381,198c38,8,80,25,119,31
				l234,61c22,5,70,20,90,23l12,4c31-13,59-36,88-51c40-21,84-38,123-62c77-49,146-114,216-172c12-14,18-30,25-47c2,6,3,12,4,18
				c6,4,14,10,17,16c1,9-3,14-9,21c-17,19-41,38-54,60c-9,15-20,39-27,56c-22,48-45,96-66,145c-39,82-82,163-128,241
				c29,40,46,67,39,121c-2,13-6,23-13,34c-26-29-134-37-171-48c4-4,20,3,26,3c22,0,44,2,66,3c44,1,71,2,57-52l-9-19
				c-1-23-55-87-73-104c-17-15-36-33-54-46c-4-3-1-6-8-10c3-1,3-2,5-4c2-10-4-13-13-16c2-2,1-1,2-3c-5-4-6-5-9-10
				c-14-12-63-35-80-42c-9-7-17-8-28-11c-9-3-33-10-43-12h-1c-14-6-52-12-67-14c-12-5-20-6-32-5c-11,0-42-3-55-4c-33-2-66-2-99-1
				c-13,0-18,1-31,2c-4,0-10,1-15,2c-13-3-21-2-33,5c-6,2-11,3-17,4c-7,2-14,3-21,5c-12,3-28,8-40,12c-12,4-18,6-29,12
				c-4,2-10,5-14,5c-12,2-26,8-34,16c-6,5-17,12-24,16c-16,11-33,23-47,36c-1-12,2-38,2-51c2-32,6-65,6-97c5-18-26-67-38-82
				c-6-3-24-18-30-22c-51-42-104-90-143-144c-21-29-36-62-60-89c-21-24-51-29-71-43c-1-10,8-50,12-62C298,761,303,717,309,706
				L309,706z"/>
			<path fill="#F16D14" d="M1743,935c2,6,3,12,4,18c6,4,14,10,17,16c1,9-3,14-9,21c-17,19-41,38-54,60c-9,15-20,39-27,56
				c-22,48-45,96-66,145c-39,82-82,163-128,241c29,40,46,67,39,121c-2,13-6,23-13,34c-26-29-134-37-171-48c4-4,20,3,26,3
				c22,0,44,2,66,3c44,1,71,2,57-52l-9-19c-1-23-55-87-73-104c-17-15-36-33-54-46c-4-3-1-6-8-10c3-1,3-2,5-4c2-10-4-13-13-16
				c2-2,1-1,2-3c-5-4-6-5-9-10c41,25,92,73,122,110c21-34,41-67,57-104c5-10,4-25,8-35c42-91,102-173,157-256c15-23,38-50,50-73
				C1731,968,1736,952,1743,935L1743,935z"/>
			<path fill="#F16D14" d="M309,706c0,35-2,84-8,119c19,7,60,33,70,49c3,6,9,14,13,19c16,19,30,45,46,63c37,41,77,81,112,123
				c12,14,35,41,43,57c-6-3-24-18-30-22c-51-42-104-90-143-144c-21-29-36-62-60-89c-21-24-51-29-71-43c-1-10,8-50,12-62
				C298,761,303,717,309,706L309,706z"/>
			<path fill="#F16D14" d="M954,1180c67-2,107,3,175-15c29,28,54,47,90,67c10,5,54,26,60,31c-20-3-69-17-90-23L954,1180z"/>
			<path fill="#F16D14" d="M496,1913c10,16,15,19,30,32c8,1,21-12,44-4l12,2l14,7c17,12,32,26,40,46c6,2,12,3,17,5
				c16-12,31-17,51-13c39,7,80,20,102,54c143,27,309,39,454,9c27-6,51-20,76-31c2-2,7-4,10-6c22-10,39-19,58-33c12-10,25-22,34-34
				c47,31,234,174,258,215c9,1,54,35,68,38c1,0,1,1,2,2c7,2,38,24,45,30c-33,0-102-1-132,5c-150,34-349,177-457,284
				c-11,11-22,23-33,35c-29-12-49-20-81-21c-11,0-32,0-42-1c-21,20-44,39-69,55c-22-14-48-34-67-52c-2,2-1,1-4-1c-31-22-63-54-94-73
				c-18-6-37-8-54-16c-19-8-39-18-56-29c-106-69-197-164-318-208c-25-9-55-8-82-10c-21-2-42-4-63-6c46-4,63-10,107-24
				c26-9,80-21,102-35c20-13-20-76-19-98c2-26,24-40,33-67C493,1943,493,1938,496,1913L496,1913z"/>
			<path fill="#CC420E" d="M525,1945c8,1,21-12,44-4l12,2l14,7c17,12,32,26,40,46c6,2,12,3,17,5c16-12,31-17,51-13
				c39,7,80,20,102,54c143,27,309,39,454,9c27-6,51-20,76-31c2-2,7-4,10-6c22-10,39-19,58-33c15,8,29,14,35,32c9,29-1,68-14,95
				c-8,16-16,23-30,34c-10,10-47,28-49,30l1,1c-20,1-54,14-77,17c-30,3-62,11-92,15c-18,2-67,3-76,17c-21,30-30,59-73,61
				c-25,2-38-6-57-21c-23-18-20-47-31-55c-7,2-16,18-21,25c-19,24-48,36-78,27c-7-2-16-3-21-7l1-2l6-1c-44-16-52-43-49-87
				c-3,0-11-1-15-1l-9-1c-19,30-38,49-76,39c-31-7-42-18-58-43c-4-10-4-21-5-32c0-20,7-49,14-67c-5,1-9,3-14,6c-15,8-26,9-42,4
				c-8-1-10-3-17-6c-20-12-48-34-47-60c1-13,7-28,12-40C521,1952,522,1950,525,1945L525,1945z"/>
			<path fill="#E66735" d="M1336,2018c2-2,7-4,10-6c22-10,39-19,58-33c15,8,29,14,35,32c9,29-1,68-14,95c-8,16-16,23-30,34
				c-15,7-48,22-64,24c-29,9-63,15-93,21c-12,3-36,7-48,8c-20,2-58,0-74,4c-3,1-2,1-5,0c-1-3,16-44,17-52c1-5,14-57,15-58
				c22-8,51-6,75-12C1254,2065,1309,2044,1336,2018z"/>
			<path fill="#F16D14" d="M1265,2076c18-6,36-15,52-26c23-16,75-79,84-12c8,55-29,94-74,118c-4,2-22,10-24,13c7-1,21-6,27-5
				c-29,9-63,15-93,21c-1-5,4-11,7-17c7-16,9-28,12-45C1286,2116,1273,2097,1265,2076z"/>
			<path fill="#F16D14" d="M1115,2195c13-22,15-51,26-74c6-13,19-14,31-16c18-2,35-6,52-11c13,42-6,69-35,97
				C1170,2194,1132,2192,1115,2195L1115,2195z"/>
			<path fill="#FDAA77" d="M627,2054c7-16,19-35,31-47c7-7,25-12,35-11c33,4,82,18,96,52c7,20-2,47-9,66c-1,3-5,12-5,14c5,1,3,0,7,5
				l-3,9c-1,5-2,12-3,18c-3,0-11-1-15-1l-9-1c-19,30-38,49-76,39c-31-7-42-18-58-43c-4-10-4-21-5-32C612,2101,619,2072,627,2054z"/>
			<path fill="#F16D14" d="M627,2054c7-16,19-35,31-47c7-7,25-12,35-11c33,4,82,18,96,52c7,20-2,47-9,66c-1,3-5,12-5,14
				c-3,2-8,5-11,7c10-28,18-55,2-83c-14-25-74-55-100-38c-27,19-47,76-54,108C612,2101,619,2072,627,2054z"/>
			<path fill="#E66735" d="M775,2127c5,1,3,0,7,5l-3,9c-1,5-2,12-3,18c-3,0-11-1-15-1l-9-1c5-8,8-15,12-23
				C767,2133,772,2129,775,2127z"/>
			<path fill="#392826" d="M771,2141c2,0,6,0,8,0c-1,5-2,12-3,18c-3,0-11-1-15-1C766,2152,768,2148,771,2141L771,2141z"/>
			<path fill="#9A4224" d="M775,2127c5,1,3,0,7,5l-3,9c-2,0-5,0-8,0C772,2138,774,2131,775,2127z"/>
			<path fill="#E66735" d="M653,2084c9,1,28,20,42,23c13,3,26,0,37,3c3,3,2,2,3,7c-27,2-53-2-74-20C655,2093,653,2090,653,2084z"/>
			<path fill="#FDAA77" d="M799,2090c9-11,19-21,33-21c39,0,89,32,90,75c0,31-9,64-28,90c-3,4-11,9-15,14c-22,4-32,4-54-1
				c-44-16-52-43-49-87c1-5,2-12,3-18l3-9C788,2119,795,2103,799,2090L799,2090z"/>
			<path fill="#E66735" d="M809,2144c8,1,28,17,42,20c18,4,20,1,38,0c2,0,3,2,4,4l-1,4c-15,2-30,3-45-1C837,2168,805,2159,809,2144z
				"/>
			<path fill="#FDAA77" d="M525,1945c8,1,21-12,44-4c25,18,50,35,56,67c5,26-16,51-41,55c-4,1-9,1-13,2c-8-1-10-3-17-6
				c-20-12-48-34-47-60c1-13,7-28,12-40C521,1952,522,1950,525,1945z"/>
			<path fill="#F16D14" d="M525,1945c8,1,21-12,44-4c25,18,50,35,56,67c5,26-16,51-41,55c-4,1-9,1-13,2c-8-1-10-3-17-6
				c23,2,43-2,52-26c12-34-20-69-51-79c-14-5-24-2-36,5C521,1952,522,1950,525,1945z"/>
			<path fill="#F16D14" d="M799,2090c15-48,35-34,75-23c46,12,72,14,61,71c-6,34-16,98-55,110c4-4,11-9,15-14c19-25,28-58,28-90
				c-1-43-50-75-90-75C818,2069,808,2079,799,2090L799,2090z"/>
			<path fill="#FDAA77" d="M961,2234c-12-11-16-25-16-42c1-30,10-84,27-107c12-17,70-11,90-11c38-1,58,16,52,55c-7,48-19,124-79,130
				C1005,2262,980,2260,961,2234z"/>
			<path fill="#F16D14" d="M961,2234c-12-11-16-25-16-42c1-30,10-84,27-107c12-17,70-11,90-11c38-1,58,16,52,55c-7,48-19,124-79,130
				c9-5,23-13,29-22c18-31,26-81,24-116c-2-28-72-33-94-30c-14,2-17,34-21,46C962,2174,950,2195,961,2234z"/>
			<path fill="#E66735" d="M986,2144c14,4,23,14,41,16c10,1,37-4,40,2l-2,4c-21,6-65,3-80-14C983,2147,983,2149,986,2144z"/>
			<path fill="#FE9C20" d="M463,2167c85,19,169,50,236,108c41,36,59,9,105,4c35-4,50,33,75,54c46,38,87,9,135,5c12,7,22,18,34,26
				c13,9,26,12,41,12c71-2,262-86,333-119c26-12,51-27,78-38c21-8,44-12,66-16c-8,3-17,7-25,10c-92,41-190,80-271,142
				c-29,23-58,47-86,71c-40,35-79,70-119,106c-21,20-44,39-69,55c-22-14-48-34-67-52c-14-17-33-39-49-54c-11-10-33-26-46-35
				c-19-14-37-29-55-44C680,2317,582,2232,463,2167L463,2167z"/>
			<path fill="#392826" d="M1438,1944c47,31,234,174,258,215c1,13,3,34,11,45l-1,1c-21-1-62-7-84-10c-59-7-119-13-179-18
				c-30-3-67-6-97-7l-1-1c2-2,39-20,49-30c14-11,21-17,30-34c13-27,23-66,14-95c-5-17-19-24-35-32C1416,1969,1429,1956,1438,1944z"
				/>
			<path fill="#392826" d="M496,1913c10,16,15,19,30,32c-3,5-5,8-7,13c-5,12-12,28-12,40c-1,26,27,48,47,60c7,3,10,5,17,6
				c16,5,27,4,42-4c5-3,8-5,14-6c-7,19-15,48-14,67c1,11,1,21,5,32c-45-2-71,0-115,4c-32,3-108,14-135,10c26-9,80-21,102-35
				c20-13-20-76-19-98c2-26,24-40,33-67C493,1943,493,1938,496,1913z"/>
			<path fill="#FE9C20" d="M1696,2160c9,1,54,35,68,38c1,0,1,1,2,2c-2,4-3,10-7,12c-15,0-42-8-53-8C1699,2193,1697,2173,1696,2160z"
				/>
		</g>
	</g>
</g>
</svg>
