<?xml version="1.0" encoding="utf-8"?>
<!-- Generator: Adobe Illustrator 27.9.0, SVG Export Plug-In . SVG Version: 6.00 Build 0)  -->
<svg version="1.1" id="svg" xmlns="http://www.w3.org/2000/svg" xmlns:xlink="http://www.w3.org/1999/xlink" x="0px" y="0px"
	 viewBox="0 0 4659.447 3000" enable-background="new 0 0 4659.447 3000" xml:space="preserve">
<g>
	<g>
		<defs>
			<rect id="SVGID_1_" y="0" width="4658.447" height="2999"/>
		</defs>
		<clipPath id="SVGID_00000047753679340632818880000011028921126976637368_">
			<use xlink:href="#SVGID_1_"  overflow="visible"/>
		</clipPath>
		<g clip-path="url(#SVGID_00000047753679340632818880000011028921126976637368_)">
			<path fill="#FC9103" d="M0,0h4658.447v2963.012V2999h-82.973H4500.5H3285.905H0V0z"/>
			<path fill="#D3946D" d="M4084.638,568.81c17.994,9.997,31.99,17.994,48.984,29.99c59.98,130.956,86.971,239.92,107.964,381.873
				c4.999,33.989,8.997,67.977,13.996,101.966c2.999,24.992,7.997,77.974,16.994,98.967v1.999
				c16.994,58.98,81.973,179.94,16.994,230.923c0-19.993-1-28.99-5.998-48.984v-1c-4.998,58.98-25.991,92.969-78.974,120.96
				l10.997,246.918c2,32.989,5.998,84.972,4.998,117.961c0-3.999,0-7.997-2.999-9.997c-25.992,4.998-60.98,16.994-84.972,20.993
				c-1,6.998-2.999,17.994-1,23.992c7.998,21.993,87.971,233.922,93.969,239.92l-2,2c-29.99,14.995-61.979,30.99-92.969,44.985
				c-42.986,1.999-87.971,0-130.957,0c-222.926,1.999-445.851-1.999-668.777,0c-8.997-1-27.991,0-37.988,0
				c-88.97-1.999-178.94-2.999-267.91-3.999c-91.969-1.999-183.939-2.999-275.908-2.999c2.999-58.98,2.999-121.959,4.999-180.94
				c1-23.992,0-53.982,2.999-75.975c1.999-20.993,1.999-78.974,1.999-101.966l2.999-202.932
				c3.999-253.915,6.998-504.832,6.998-755.748c0-2.999,0-6.998,0-9.997c3.999-4.998,52.982-3.999,62.979-4.998l125.958-3.999
				c7.997,0,40.986-1,47.984-1.999c21.993-23.992,87.971-105.965,110.963-118.96c9.997-5.998,21.993-2.999,32.989-5.998
				c5.998-1.999,11.996-4.998,17.994-7.997c25.991-12.996,34.988-11.996,62.979-3.999c19.993-8.997,22.992-10.996,44.985-11.996
				c38.987-1.999,43.985,30.99,63.979,37.987c27.991,9.997,82.972,17.994,105.965,37.987c9.997,7.997,5.998,44.985,4.998,57.981
				h13.995l21.993-1c1.999-34.988,11.996-99.967,19.993-133.955c8.997-6.998,24.992-22.992,32.989-30.99
				c6.998-16.994,17.994-27.991,30.99-38.987c58.98-25.991,120.96-35.988,184.938-24.992
				c79.973,13.995,142.952,68.977,220.926,83.972c9.997,1.999,17.994,0,27.991,0c13.995-2.999,27.991-13.995,37.988-22.992
				c21.992-26.991,27.991-38.987,43.985-69.977L4084.638,568.81z"/>
			<path fill="#BD815A" d="M4131.623,1883.372c7.998,21.993,87.971,233.922,93.969,239.92l-2,2
				c-29.99,14.995-61.979,30.99-92.969,44.985c-42.986,1.999-87.971,0-130.957,0c-222.926,1.999-445.851-1.999-668.777,0
				c-8.997-1-27.991,0-37.987,0c-88.97-1.999-178.94-2.999-267.911-3.999c-91.969-1.999-183.939-2.999-275.908-2.999
				c2.999-58.98,2.999-121.959,4.998-180.94c1-23.992,0-53.982,2.999-75.975l1371.543-1
				C4128.624,1898.367,4128.624,1888.37,4131.623,1883.372z"/>
			<path fill="#D3946D" d="M4131.623,1883.372c7.998,21.993,87.971,233.922,93.969,239.92l-2,2
				c-29.99,14.995-61.979,30.99-92.969,44.985c-6.998-17.994-2.999-232.922-2.999-265.911
				C4128.624,1898.367,4128.624,1888.37,4131.623,1883.372z"/>
			<path fill="#FABCA4" d="M3568.81,605.798c58.98-25.991,120.96-35.988,184.938-24.992
				c79.973,13.995,142.952,68.977,220.926,83.972c9.997,1.999,17.994,0,27.991,0c13.995-2.999,27.991-13.995,37.987-22.992
				c11.996,45.985,19.993,114.962,19.993,160.946c-157.947,0-322.892,1-480.84,4.998l-43.986,1c-16.994,1-34.988,0-50.983,1
				c2-34.988,11.996-99.967,19.993-133.955c8.997-6.998,24.992-22.992,32.989-30.99
				C3544.818,627.791,3554.815,616.794,3568.81,605.798z"/>
			<path fill="#3F1F13" d="M3568.81,605.798c58.98-25.991,120.96-35.988,184.938-24.992
				c79.973,13.995,142.952,68.977,220.926,83.972c9.997,1.999,17.994,0,27.991,0c-91.969,22.992-178.94-104.965-329.89-55.981
				c-38.987,12.996-74.975,34.988-104.965,62.979l11.996,136.954l-43.985,1c-16.994,1-34.988,0-50.983,1
				c1.999-34.988,11.996-99.967,19.993-133.955c8.997-6.998,24.992-22.992,32.989-30.99
				C3544.818,627.791,3554.815,616.794,3568.81,605.798z"/>
			<path fill="#4F291B" d="M3537.821,644.785c-1,18.994-8.997,150.95-3.999,162.946l2.999,1c-16.994,1-34.988,0-50.983,1
				c2-34.988,11.996-99.967,19.993-133.955C3513.829,669.777,3528.823,652.782,3537.821,644.785L3537.821,644.785z"/>
			<path fill="#FABCA4" d="M3228.924,689.77c19.993-8.997,22.992-10.996,44.985-11.996c38.987-1.999,43.985,30.99,63.979,37.987
				c27.991,9.997,82.972,17.994,105.965,37.987c9.997,7.997,5.998,44.985,4.998,57.981h13.995c1,3.999,1.999,8.997,4.998,12.996
				v2.999c-1,19.993-10.996,36.988-21.993,52.982c-20.993,28.99-46.984,77.974-83.972,86.971
				c-22.992-4.998-24.992-12.996-28.99-34.988c-10.996,6.998-28.99,15.995-37.987,23.992
				c-26.991,23.992-51.983,68.977-93.969,44.985c-7.997,9.997-18.994,20.993-31.989,20.993c-27.991,1-31.989-28.99-34.988-47.984
				c-18.994,0-23.992-1-30.99-19.993l2-1.999v-1.999c-4.998-13.995-4.998-36.988-2.999-51.983l-2.999,1
				c1-7.997,1.999-15.995,1.999-23.992c0-16.994-3.999-25.991-15.995-36.988l-1.999-1l-11.996-10.996c-4.998,1-9.997,1-14.995,1
				l-49.983,1c21.993-23.992,87.971-105.965,110.963-118.96c9.997-5.998,21.992-2.999,32.989-5.998
				c5.998-1.999,11.996-4.998,17.994-7.997C3192.936,680.773,3200.933,681.773,3228.924,689.77L3228.924,689.77z"/>
			<path fill="#A06540" d="M3336.888,738.754c14.995,17.994,15.995,18.994,36.988,29.99c-1,6.998-1,14.995-1.999,21.993
				c0,7.997,1,16.994,1,24.992c11.996,12.996,24.992,18.994,42.986,19.993c10.996,1,21.993-1.999,30.99-5.998l1-6.998
				c0-2.999,1-8.997,1-11.996h13.995c1,3.999,1.999,8.997,4.998,12.996v2.999c-1,19.993-10.996,36.988-21.993,52.982
				c-20.993,28.99-46.984,77.974-83.972,86.971c-22.992-4.998-24.992-12.996-28.99-34.988c-10.996,6.998-28.99,15.995-37.987,23.992
				c-26.991,23.992-51.983,68.977-93.969,44.985c-7.997,9.997-18.994,20.993-31.989,20.993c-27.991,1-31.989-28.99-34.988-47.984
				c-18.994,0-23.992-1-30.99-19.993l2-1.999c8.997,18.994,22.992,12.996,30.99-3.999c4.998-5.998,29.99-52.982,34.988-63.979
				c1,17.994-17.994,46.984-23.992,64.978c-3.999,16.994-8.997,30.99-2.999,47.984c9.997,13.995,23.992,17.994,35.988,2.999
				c8.997-6.998,15.995-18.994,19.993-29.99h2.999c1.999,5.998,1,9.997,1.999,15.995c14.995,19.993,26.991,9.997,41.986-2.999
				c38.987-30.99,98.967-99.967,107.964-148.95l1-5.998c-1-2.999-1-8.997-1-11.996
				C3349.883,809.73,3338.887,748.75,3336.888,738.754L3336.888,738.754z"/>
			<path fill="#D3946D" d="M3336.888,738.754c14.995,17.994,15.995,18.994,36.988,29.99c-1,6.998-1,14.995-1.999,21.993
				c0,7.997,1,16.994,1,24.992c11.996,12.996,24.992,18.994,42.986,19.993c10.996,1,21.993-1.999,30.99-5.998
				c-3.999,22.992-43.985,91.969-60.98,107.964c-14.995,18.994-33.989,20.993-43.985-3.999
				c-2.999-32.989,9.997-61.979,20.993-91.969c2-5.998,3.999-9.997,4.998-16.994c-4.998,0-9.997-1-13.995,1.999
				c-1-2.999-1-8.997-1-11.996C3349.883,809.73,3338.887,748.75,3336.888,738.754L3336.888,738.754z"/>
			<path fill="#FABCA4" d="M3341.886,933.689c3.999-12.996,5.998-20.993,17.994-27.991c8.997-4.998,24.992-6.998,30.99,3.999
				c4.998,9.997-3.999,18.994-4.998,27.991C3370.876,957.681,3351.883,959.68,3341.886,933.689z"/>
			<path fill="#BD815A" d="M3352.882,814.728c2.999-3.999,10.996-2.999,14.995-1l1,10.996c-4.998,0-9.997-1-13.995,1.999
				C3353.882,824.725,3352.882,818.727,3352.882,814.728z"/>
			<path fill="#BD815A" d="M3448.85,811.729h13.995c1,3.999,1.999,8.997,4.998,12.996v2.999l-1.999-1.999
				c-5.998-1.999-11.996-1-17.994-1C3447.851,819.727,3448.85,814.728,3448.85,811.729z"/>
			<path fill="#D3946D" d="M3274.908,827.724c23.992,11.996,52.982,13.995,78.974,4.998c-8.997,48.984-68.977,118.96-107.964,148.95
				c-14.995,11.996-26.991,21.993-41.986,2.999l1-10.996c2.999-11.996,10.996-21.993,17.994-31.989
				C3250.916,907.697,3273.909,874.708,3274.908,827.724z"/>
			<path fill="#FABCA4" d="M3204.932,973.675c4.998-7.997,7.997-12.996,16.994-17.994c8.997-4.998,30.99-9.997,33.989,5.998
				c1,5.998-6.998,13.995-9.997,19.993c-14.995,11.996-26.991,21.993-41.986,2.999L3204.932,973.675z"/>
			<path fill="#D3946D" d="M3189.937,832.722c14.995,18.994,55.981,10.996,75.975,5.998c-4.999,25.991-10.997,31.989-19.993,52.982
				c-7.997,16.994-46.984,67.977-46.984,77.974c-3.999,10.996-10.996,21.993-19.993,29.99
				c-11.996,14.995-25.991,10.996-35.988-2.999c-5.998-16.994-1-29.99,2.999-47.984c1-1,3.999-1.999,4.998-2.999
				C3174.942,910.696,3188.937,874.708,3189.937,832.722L3189.937,832.722z"/>
			<path fill="#FABCA4" d="M3142.952,995.668c7.997-18.994,22.992-45.985,46.984-27.991c2,8.997-7.997,20.993-11.996,30.99
				C3166.944,1013.662,3152.949,1009.663,3142.952,995.668L3142.952,995.668z"/>
			<path fill="#D3946D" d="M3054.982,825.725c11.996-21.993,18.994-22.992,37.987-40.986l3.999-1
				c12.996,8.997,1,78.974,64.978,65.978c6.998-1,13.995-2.999,20.993-6.998c-2.999,14.995-6.998,24.992-12.996,39.987
				c-4.999,9.997-29.99,56.981-34.989,63.979c-6.998,16.994-21.992,23.992-30.99,3.999v-1.999
				c-4.999-13.995-4.999-36.988-2.999-51.983l-2.999,1c1-7.997,1.999-15.995,1.999-23.992c0-16.994-3.999-25.991-15.995-36.988
				l-1.999-1l-11.996-10.996C3063.979,825.725,3059.98,825.725,3054.982,825.725L3054.982,825.725z"/>
			<path fill="#FABCA4" d="M3103.965,949.683c3.999-11.996,11.996-24.992,25.991-25.991c11.996,4.998,6.998,12.996,4.998,22.992
				c-6.998,16.994-21.992,23.992-30.99,3.999V949.683z"/>
			<path fill="#A06540" d="M3083.972,836.721c4.998-1,18.994-1,23.992-1.999c3.999,20.993-5.998,40.986-6.998,61.979l-2.999,1
				c1-7.997,1.999-15.995,1.999-23.992C3099.967,856.714,3095.968,848.717,3083.972,836.721L3083.972,836.721z"/>
			<path fill="#BD815A" d="M3069.977,824.725c17.994-1,28.99-5.998,37.987,10.996c-5.998,0-18.994,1-23.992,1.999l-1.999-1
				L3069.977,824.725z"/>
			
				<linearGradient id="SVGID_00000122680411985194335710000013811651788164027805_" gradientUnits="userSpaceOnUse" x1="3265.9834" y1="1674.6782" x2="3177.2339" y2="1590.8121" gradientTransform="matrix(1 0 0 1 0 -778)">
				<stop  offset="0" style="stop-color:#E17A5C"/>
				<stop  offset="1" style="stop-color:#F09A82"/>
			</linearGradient>
			<path fill="url(#SVGID_00000122680411985194335710000013811651788164027805_)" d="M3265.911,838.72
				c1-32.989-17.994-68.977-19.993-99.967c0-1.999,1-1.999,2.999-3.999l2.999,1c5.998,6.998,20.993,78.974,22.992,91.969
				c-1,46.984-23.992,79.973-51.983,114.962c-7.997,9.997-15.995,19.993-17.994,31.989l-1,10.996c-1-5.998,1-9.997-1.999-15.995
				h-2.999c0-9.997,39.987-60.98,46.984-77.974C3254.915,869.71,3260.913,864.712,3265.911,838.72z"/>
			
				<linearGradient id="SVGID_00000026847058713950701790000014991945622559463837_" gradientUnits="userSpaceOnUse" x1="3188.2471" y1="1640.2914" x2="3130.0215" y2="1615.9694" gradientTransform="matrix(1 0 0 1 0 -778)">
				<stop  offset="0" style="stop-color:#E17A60"/>
				<stop  offset="1" style="stop-color:#F4A17E"/>
			</linearGradient>
			<path fill="url(#SVGID_00000026847058713950701790000014991945622559463837_)" d="M3181.939,842.719
				c1-31.989-19.993-71.976-17.994-88.97l1.999-1.999l2.999,1c6.998,8.997,18.994,64.978,20.993,78.974
				c0,41.986-14.995,77.974-39.987,110.963c-1,1-2.999,2.999-4.998,2.999c5.998-17.994,24.992-46.984,23.992-64.978
				C3174.942,867.711,3178.94,858.714,3181.939,842.719L3181.939,842.719z"/>
			<path fill="#4F291B" d="M4084.638,568.81c17.994,9.997,31.99,17.994,48.984,29.99c59.98,130.956,86.971,239.92,107.964,381.873
				c4.999,33.989,8.997,67.977,13.996,101.966c2.999,24.992,7.997,77.974,16.994,98.967v1.999
				c16.994,58.98,81.973,179.94,16.994,230.923c0-19.993-1-28.99-5.998-48.984v-1c-4.998,58.98-25.991,92.969-78.974,120.96
				c-3.999-47.984-4.998-104.965-6.998-153.949l-15.995-341.886l-4.998-112.962c-1-20.993-1-53.982-4.999-72.976
				c-4.998-2.999-72.976-1-82.972-1.999h-26.991c1-45.985-7.997-115.961-19.993-160.946c21.993-26.991,27.991-38.987,43.985-69.977
				L4084.638,568.81z"/>
			<path fill="#3F1F13" d="M4084.638,570.81c3.999,6.998,27.99,204.932,32.989,228.924c-5.998,0-26.991-1-29.99,1.999h-26.991
				c1-45.985-7.997-115.961-19.993-160.946C4063.646,613.795,4068.644,602.799,4084.638,570.81L4084.638,570.81z"/>
			<path fill="#A06540" d="M4165.611,823.725c1-6.998,2.999-12.996,4.999-19.993c3.999,19.993,3.999,51.983,4.998,72.976
				l4.999,112.962l14.995,340.886c2,48.984,3.999,105.965,6.998,153.949l10.996,246.918c2,32.989,5.998,84.972,4.999,117.961
				c0-3.999,0-7.997-2.999-9.997c-25.991,4.998-60.98,16.994-84.972,20.993C4145.618,1513.495,4156.614,1168.61,4165.611,823.725z"
				/>
			<path fill="#E6B381" d="M4087.637,801.733c9.997,0,77.974-1,82.973,1.999c-2,6.998-3.999,11.996-4.999,19.993l-495.835-1.999
				c-65.978,0-136.954-1-202.932,1.999c-1.999-2.999-2.999-8.997-4.998-12.996l21.993-1c15.995-1,33.989,0,50.983-1l43.985-1
				c157.948-4.998,322.893-4.998,480.84-4.998L4087.637,801.733z"/>
			<path fill="#E6B381" d="M3054.982,825.725c4.998,0,9.997,0,14.995-1l11.996,10.996c-32.989,2.999-76.974,2.999-109.963,3.999
				l-202.932,7.997c0-2.999,0-6.998,0-9.997c3.999-4.998,52.982-3.999,62.979-4.998l125.958-3.999c7.997,0,40.986-1,47.984-1.999
				L3054.982,825.725z"/>
			<path fill="#A06540" d="M3097.967,897.701l2.999-1c-2,15.995-2,37.987,2.999,52.982v1.999l-2,1.999
				C3096.968,932.689,3095.968,918.694,3097.967,897.701z"/>
			<path fill="#DB0E13" d="M4272.576,1181.606c25.991,11.996,52.982,26.991,78.974,39.987
				c45.985,22.992,95.968,41.986,133.955,76.974c14.995,13.995,39.987,41.986,45.985,60.98
				c26.991,84.972,30.99,175.941,36.988,264.912c3.999,61.979,8.997,120.96,14.995,182.939c1,9.997,3.999,19.993,6.998,29.99
				c5.998,19.993,20.993,38.987,9.997,59.98c-2,3.999-4.999,7.997-7.998,10.996c-7.997-5.998-128.957,5.998-146.951,8.997
				c0,1,0,4.998-1,5.998l-2.999,8.997v1c-1,9.997-9.997,86.971-11.996,88.97h1c3.999,67.977,21.993,295.901,2.999,346.884
				c13.995,62.979,30.99,125.958,50.983,187.938c14.995,49.983,32.989,97.967,45.985,147.951
				c26.991,97.967,41.986,191.936,43.985,293.902H4499.5H3285.905c1-20.993,3.999-46.984,5.998-68.977
				c-9.997-2.999-19.993-5.998-19.993-18.993c1-24.992,2.999-49.983,2.999-74.975c1-63.979-2.999-125.958,9.997-188.937
				c0-15.995-3.999-36.988-6.998-52.982c-12.996-83.972,2.999-167.944,7.997-251.916c3.999-57.981,4.998-114.962,6.998-172.942
				c9.997,0,27.99,0,37.987,0c222.926-2.999,445.851,2,668.777,0c42.986,0,87.971,1,130.956,0
				c29.99-13.995,61.979-30.99,92.969-44.985l1.999-1.999c-5.998-5.998-85.971-217.927-93.968-239.92c-2-5.998,0-17.994,1-23.992
				c23.992-3.999,58.98-15.995,84.972-20.993c2,1.999,2,6.998,2.999,9.997c0-31.989-3.999-83.972-4.998-117.961l-10.997-246.918
				c52.982-26.991,73.975-61.979,78.974-120.96v1c4.998,19.993,5.998,28.99,5.998,48.984c65.978-49.983,0-171.943-16.994-230.923
				L4272.576,1181.606z"/>
			<path fill="#D10C17" d="M4223.592,2124.292c0,8.997-4.998,23.992-8.997,32.989c-19.994,50.983-50.983,97.967-88.97,136.954
				c-14.995,14.995-39.987,37.988-56.981,49.983c-77.974,1-157.947,1-235.921,1l-309.897,1.999c-38.987,0-77.974,1-115.961,1.999
				c-9.997,0-45.985,2-53.982,1c3.999-15.995,1.999-156.948-2.999-176.941c-4.998-3.999-8.997,0-17.994-2.999
				c222.926-2.999,445.851,1.999,668.777,0c42.986,0,87.971,1,130.957,0C4160.613,2156.281,4193.602,2139.287,4223.592,2124.292
				L4223.592,2124.292z"/>
			<path fill="#D3946D" d="M4347.551,2016.328c14.995,1,31.989,2.999,46.984,3.999c11.996,1,23.992,1.999,35.988,1.999h1
				c3.999,67.977,21.993,295.902,2.999,346.885c13.995,62.979,30.99,125.958,50.983,187.937
				c14.995,49.983,32.989,97.967,45.985,147.95c26.991,97.967,41.986,191.936,43.985,293.902H4500.5
				c-4.999-17.994-11.996-73.975-14.995-92.969c8.997-3.999,10.997-4.998,17.994-10.996
				c-10.997-95.968-33.989-188.937-55.981-282.906c-3.999-15.995-7.998-33.989-12.996-49.983
				c-7.998-53.982-46.984-86.971-41.986-143.952c5.998-67.977-35.988-128.957-55.981-190.937c-3.999-21.992-1.999-49.983-1-71.976
				C4338.554,2106.298,4333.555,2062.312,4347.551,2016.328L4347.551,2016.328z"/>
			<path fill="#1F3F68" d="M4401.533,2927.024c28.99-4.998,56.981-11.996,83.972-20.993c1.999,18.994,9.997,74.975,14.995,92.969
				H3285.905c1-20.993,3.999-46.985,5.998-68.977c45.985,6.998,92.969,10.996,138.954,13.995
				c93.969,5.998,186.938,17.994,280.906,21.993c52.982,2,106.964,2,159.947,1c152.949-1,304.898-10.996,456.848-28.99
				L4401.533,2927.024z"/>
			<path fill="#D10C17" d="M4477.507,1363.545c19.993,148.95,1,315.895-19.993,463.845c-3.999,28.99-9.997,59.98-11.996,88.97
				c0,1,0,4.998-1,5.998l-2.999,8.997v1c-1,9.997-9.997,86.971-11.996,88.97c-11.996,0-23.992-1-35.988-1.999
				c-14.995-1-31.989-2.999-46.984-3.999c-4.998-7.997,3.999-6.998-1-18.994c1-4.998,7.998-32.989,9.997-36.988
				c-2.999-20.993-14.995-31.989-28.99-47.984c51.982-60.98,56.981-88.97,65.978-166.944c7.998-76.974,1-118.96-15.995-192.936
				c-1-7.997-12.996-43.985-8.997-49.983c20.993-30.99,41.986,54.982,45.985,61.979l1,1c7.998-31.989,10.997-65.978,14.995-98.967
				C4434.522,1424.525,4435.521,1383.539,4477.507,1363.545L4477.507,1363.545z"/>
			<path fill="#A1050A" d="M4356.548,1959.347c11.996-19.993,19.993-72.976,23.992-96.968c1-5.998,2.999-23.992,5.998-27.991
				c0,0,3.999,77.974,3.999,86.971c9.997-1,43.985-4.998,51.982-1.999l1.999,3.999l-2.999,8.997v1
				c-1,9.997-9.997,86.971-11.996,88.97c-11.996,0-23.992-1-35.988-1.999c-14.995-1-31.989-2.999-46.984-3.999
				c-4.998-7.997,3.999-6.998-1-18.994C4347.551,1991.336,4354.548,1964.345,4356.548,1959.347L4356.548,1959.347z"/>
			<path fill="#D10C17" d="M4392.536,1935.355c15.995-1,32.989-1,48.984-2.999v1c-1,9.997-9.997,86.971-11.996,88.97
				c-11.996,0-23.992-1-35.988-1.999C4393.535,1996.334,4391.536,1956.348,4392.536,1935.355z"/>
			<path fill="#D10C17" d="M4329.557,2938.021c0-16.994,2-64.978-4.998-79.973c-2.999-5.998-19.994-1-26.991,0
				c-66.978,9.997-135.955,15.995-203.932,4.998c-6.998-1-16.994-2.999-20.993-8.997c3.999-4.998,39.986-12.996,46.984-14.995
				c98.967-22.992,156.947-93.969,190.936-186.938c3.999-11.996,18.994-52.982,33.989-52.982
				c20.993,16.994,48.983,203.932,51.982,236.921c2,17.994,3,35.988,3,53.982c0,8.997,0,27.99,1.999,36.988L4329.557,2938.021z"/>
			<path fill="#D10C17" d="M4169.61,2485.172c5.999-23.992,20.993-33.989,28.991-53.982
				c24.991-63.979,49.983-127.957,78.974-190.936c6.998-15.995,13.995-48.984,18.993-67.978
				c9.997-37.987,20.993-76.974,31.99-114.962c4.998-17.994,11.996-43.985,17.994-60.98c4.999,11.996-3.999,10.996,1,18.994
				c-13.996,46.984-8.997,90.97-10.997,138.954c-1,21.993-1.999,49.983,1,71.976c18.993,61.979,61.979,122.959,55.981,190.936
				c-4.998,57.981,33.989,89.97,41.986,143.952c0,15.995,18.994,84.972-1,86.971c-19.993-8.997-29.99-79.973-40.986-100.966
				c-3.999-10.997-19.993-31.989-20.993-41.986c-6.998-89.97-3.999-158.947-55.981-238.92
				c-41.986,50.983-65.979,135.955-88.971,196.934c-5.998,12.996-14.995,34.989-28.99,39.987
				C4182.605,2510.163,4174.608,2497.167,4169.61,2485.172L4169.61,2485.172z"/>
			<path fill="#BD815A" d="M4132.622,1859.38c23.992-3.999,58.98-15.995,84.972-20.993c1.999,1.999,1.999,6.998,2.999,9.997
				c1,64.978,2,130.956,3.999,195.935c0,11.996,2.999,69.977,1,77.974c-5.998-5.998-85.971-217.927-93.969-239.92
				C4129.624,1877.374,4131.623,1865.378,4132.622,1859.38z"/>
			<path fill="#D10C17" d="M3810.729,216.928c6.998,4.998,31.99,6.998,42.986,7.997c23.992,3.999,71.976,17.994,91.969,31.989
				c5.998,2.999,11.996,5.998,16.994,9.997c4.998,12.996,18.994,27.991,25.991,40.986c38.987,70.976,47.984,161.946,53.982,241.919
				c8.997,3.999,34.988,13.995,41.986,17.994v1.999c-15.995,30.99-20.993,42.986-43.985,69.977
				c-10.997,8.997-23.992,19.993-37.988,22.992c-8.997,0-17.994,1.999-27.991,0c-77.974-14.995-140.953-69.977-220.926-83.972
				c-63.979-10.996-125.958,0-184.938,24.992c-13.995,11.996-23.992,21.993-30.99,38.987c-7.997,7.997-23.992,24.992-32.989,30.99
				c-12.996,8.997-37.987,25.991-40.986-1c1.999-29.99,26.991-57.981,47.984-78.974c-1-5.998-1.999-11.996-1.999-17.994
				c-5.998-58.98-3.999-171.943,34.988-219.927c1-2.999,5.998-8.997,7.997-11.996c43.985-52.982,138.954-92.969,199.933-121.959
				C3761.746,226.924,3803.732,223.925,3810.729,216.928L3810.729,216.928z"/>
			<path fill="#DB0E13" d="M3944.685,257.914c5.998,2.999,11.996,5.998,16.994,9.997c4.998,12.996,18.994,27.991,25.991,40.986
				c38.987,70.976,47.984,161.946,53.982,241.919c8.997,3.999,34.989,13.995,41.986,17.994v1.999
				c-15.995,30.99-20.993,42.986-43.985,69.977c-10.996,8.997-23.992,19.993-37.987,22.992c-8.997,0-17.994,1.999-27.991,0
				c-77.974-14.995-140.953-69.977-220.926-83.972c-63.979-10.996-125.958,0-184.938,24.992
				c-13.996,11.996-23.992,21.993-30.99,38.987c-7.998,7.997-23.992,24.992-32.989,30.99c-12.996,8.997-37.988,25.991-40.986-1
				c1.999-29.99,26.991-57.981,47.984-78.974c-1-5.998-1.999-11.996-1.999-17.994c-5.998-58.98-3.999-171.943,34.988-219.927
				c1-2.999,5.998-8.997,7.998-11.996c2.999,11.996-1.999,22.992-4.998,34.988c-11.996,60.98-7.998,126.958-2.999,188.937
				c163.946-107.964,314.895-82.972,489.837-19.993c-8.997-91.969-17.994-201.933-79.974-274.908
				C3950.683,268.91,3945.685,263.912,3944.685,257.914L3944.685,257.914z"/>
			<path fill="#D10C17" d="M3510.83,595.801c-1-5.998-1.999-11.996-1.999-17.994c-5.998-58.98-3.999-171.943,34.988-219.927v1.999
				c-1,17.994-6.998,35.988-8.997,53.982c-3.999,53.982-1,105.965,3.999,159.947C3527.824,581.806,3522.826,585.805,3510.83,595.801
				L3510.83,595.801z"/>
			<path fill="#A1050A" d="M3463.845,674.775c27.991-28.99,65.978-55.981,104.965-69.977c-13.995,11.996-23.992,21.993-30.99,38.987
				c-7.998,7.997-23.992,24.992-32.989,30.99C3490.836,684.772,3466.844,702.766,3463.845,674.775z"/>
			<path fill="#FABCA4" d="M4522.492,2020.327c2.999,13.995,5.998,44.985,7.998,59.98c3.999,33.989,9.997,66.978,16.994,100.966
				c6.998,34.988,14.995,68.977,23.992,103.965c4.998,20.993,12.996,42.986,17.994,63.979
				c11.996,54.982,18.993,110.963,24.992,166.944l29.99,316.894l7.998,78.974c1,14.995,2.999,38.987,6.998,51.983V3000h-82.973
				c-1.999-101.966-16.994-195.935-43.985-293.902c-13.995-49.983-30.989-98.967-45.984-147.951
				c-19.994-61.979-36.988-123.958-50.983-187.937c18.994-50.983,1-278.907-2.999-346.884
				C4463.512,2022.326,4490.503,2022.326,4522.492,2020.327z"/>
			<path fill="#DB0E13" d="M4445.518,1916.361c17.994-2.999,138.954-13.995,146.951-8.997v11.996c1,27.991,2.999,60.98,1.999,88.97
				c-18.994,6.998-50.983,9.997-70.977,10.996c-31.989,1.999-58.98,1.999-90.97,1.999h-1c2-1.999,9.997-78.974,11.996-88.97v-1
				l2.999-8.997C4444.519,1921.359,4444.519,1918.36,4445.518,1916.361L4445.518,1916.361z"/>
			<path fill="#D10C17" d="M4445.518,1916.361c17.994-2.999,138.954-13.995,146.951-8.997v11.996l-94.969,6.998
				c-8.997,1-47.984,2.999-53.982,4.998v-1l2.999-8.997C4444.519,1921.359,4444.519,1918.36,4445.518,1916.361L4445.518,1916.361z"
				/>
			<path fill="#D10C17" d="M3961.679,267.911c49.983,33.989,78.974,74.975,109.963,125.958
				c37.987,63.979,41.986,134.955,61.979,204.932c-16.994-11.996-30.99-19.993-48.984-29.99
				c-6.998-3.999-33.989-13.995-41.986-17.994c-6.998-79.973-14.995-169.943-53.982-241.919
				C3980.673,296.901,3966.678,280.906,3961.679,267.911L3961.679,267.911z"/>
			<path fill="#DB0E13" d="M3753.749,222.926c20.993-10.996,35.988-16.994,57.981-5.998
				C3803.732,223.925,3761.746,226.924,3753.749,222.926z"/>
		</g>
	</g>
</g>
</svg>
