<?xml version="1.0" encoding="utf-8"?>
<!-- Generator: Adobe Illustrator 27.9.0, SVG Export Plug-In . SVG Version: 6.00 Build 0)  -->
<svg version="1.1" id="svg" xmlns="http://www.w3.org/2000/svg" xmlns:xlink="http://www.w3.org/1999/xlink" x="0px" y="0px"
	 viewBox="0 0 4250 3000" enable-background="new 0 0 4250 3000" xml:space="preserve">
<g>
	<g>
		<defs>
			<rect id="SVGID_1_" width="4250" height="3000"/>
		</defs>
		<clipPath id="SVGID_00000032627238627381893300000002691213654497530540_">
			<use xlink:href="#SVGID_1_"  overflow="visible"/>
		</clipPath>
		<g clip-path="url(#SVGID_00000032627238627381893300000002691213654497530540_)">
			<path fill="#FA5C16" d="M0,0h4250v2396v604H0v-604V0z"/>
			<path fill="#EB4730" d="M3370,2460l49-4c25,10,40,27,57,46c24,3,60,7,79,22c-86,93-257,130-378,122c-96-6-118-59-25-109
				c47-17,95-24,144-31l-5,36c17,2,39,6,56,4l18-6c2-13,2-27,3-41C3369,2486,3370,2473,3370,2460L3370,2460z"/>
			<path fill="#CFC2BC" d="M3370,2460l49-4c25,10,40,27,57,46c-39-3-69-3-108-2C3369,2486,3370,2473,3370,2460z"/>
			<path fill="#FEB8A9" d="M3143,2587c12-1,45,1,47,16c-3,5-7,6-12,9c-13,2-48,5-47-14C3134,2592,3137,2590,3143,2587z"/>
			<path fill="#FEB8A9" d="M3416,2531c11,1,24,6,20,19c-10,10-48,15-67,21c-8,3-15,3-24,4C3376,2559,3394,2561,3416,2531L3416,2531z
				"/>
			<path fill="#FEB8A9" d="M3252,2566c12-1,28-3,37,7l-1,3c-6,1-35-1-45-1c-12,1-27,5-39,0C3209,2569,3242,2567,3252,2566z"/>
			<path fill="#FEB8A9" d="M3445,2513c22,1,39-3,40,26c0,2-1,3-1,4l-3,1c-2-3-1-2-2-6c-3-17-28-18-41-20L3445,2513z"/>
			<path fill="#FE5F4F" d="M3437,2518c-8,2-32,5-39,1l1-3c12-10,32-10,46-3L3437,2518z"/>
			<path fill="#FEB8A9" d="M3213,2543h6c-2,3-12,5-16,6h-5l-2-2C3201,2545,3206,2544,3213,2543z"/>
			<path fill="#C23331" d="M3581,2502c6,10,6,15,10,22c12,57,8,95-24,145c-1,2-2,3-3,5c-81,105-233,138-354,91c9-4,43-4,56-6
				c93-20,155-62,195-150c15-6,30-14,45-22C3540,2566,3571,2542,3581,2502z"/>
			<path fill="#EB4730" d="M3460,2608c-40,88-102,130-195,150c-12,3-47,2-56,6l-4-1c-6-3-12-5-17-8c-53-27-80-68-97-122
				C3174,2696,3374,2648,3460,2608L3460,2608z"/>
			<path fill="#FBD8B7" d="M3419,2456c33-8,182-1,139,66l-3,2c-19-14-55-18-79-22C3459,2482,3444,2466,3419,2456z"/>
			<path fill="#CFC2BC" d="M3298,2475l-2,30c-49,7-97,14-144,31C3172,2514,3269,2480,3298,2475z"/>
			<path fill="#FBD8B7" d="M2860,2803c12-1,23,7,24,19c1,12-7,23-19,24c-12,1-23-7-24-19C2839,2815,2848,2805,2860,2803L2860,2803z"
				/>
			<path fill="#FA5C16" d="M2785,2685c10-3,21,4,24,14c3,10-3,21-14,24c-7,2-14,0-19-5s-7-12-5-19C2773,2692,2778,2687,2785,2685z"
				/>
			<path fill="#9C2E30" d="M2787,2770c10-5,21-1,26,9c5,9,1,21-9,26s-21,1-26-9C2773,2786,2777,2775,2787,2770z"/>
			<path fill="#848264" d="M3161,2816c9-4,20,1,24,10s-1,20-10,24s-20,0-24-10S3151,2820,3161,2816L3161,2816z"/>
			<path fill="#733D39" d="M2667,2672c6-1,13,1,17,6c4,5,6,12,3,18c-2,6-8,11-14,12c-10,1-19-5-20-15C2652,2683,2657,2674,2667,2672
				z"/>
			<path fill="#FA5C16" d="M2967,2748c5-3,12-3,17,0c5,3,8,9,8,15c0,6-4,12-10,14c-8,4-18,0-22-8C2956,2762,2959,2752,2967,2748z"/>
			<path fill="#733D39" d="M2880,2680c5-3,12-2,17,1s8,9,7,15c-1,6-4,11-10,14c-8,4-18,0-21-8C2869,2693,2872,2684,2880,2680z"/>
			<path fill="#848264" d="M2706,2731c8-3,17,0,20,8c4,8,0,17-7,21c-5,3-11,2-16-1s-7-9-7-14C2697,2738,2701,2733,2706,2731
				L2706,2731z"/>
			<path fill="#FEE359" d="M2915,2856c5-1,11,0,15,4s5,10,3,15c-2,5-6,9-12,10c-8,2-16-4-18-12C2902,2866,2907,2858,2915,2856z"/>
			<path fill="#9C2E30" d="M3054,2813c19,1,32,13,17,30C3050,2844,3040,2832,3054,2813z"/>
			<path fill="#FEE359" d="M2999,2809c5-2,10-2,15,1c4,3,7,8,6,13c0,5-4,10-9,12c-7,3-16,0-19-7S2992,2812,2999,2809z"/>
			<path fill="#FEE359" d="M2844,2735c5-2,10-2,15,2c4,3,6,8,6,13c-1,5-4,10-9,11c-7,3-15-1-18-8C2834,2746,2837,2738,2844,2735z"/>
			<path fill="#9C2E30" d="M3104,2808c5-2,10-2,15,1c4,3,7,8,6,14c-1,5-4,10-9,11c-7,3-15-1-18-8C3094,2820,3097,2811,3104,2808z"/>
			<path fill="#EB4730" d="M3236,2858c7-3,15,0,19,7c3,7,0,15-7,19c-5,2-10,2-14-1s-6-8-6-13S3231,2860,3236,2858z"/>
			<path fill="#FECD1E" d="M3303,2371c10-3,31-1,41,3c27,14,25,46,27,72v14c0,13-1,27-1,40c-1,13-2,28-3,41l-18,6c-17,2-39-2-56-4
				l5-36l2-30l2-15C3302,2437,3302,2396,3303,2371L3303,2371z"/>
			<path fill="#F78E0A" d="M3303,2371c10-3,31-1,41,3c27,14,25,46,27,72v14c0,13-1,27-1,40c-1,13-2,28-3,41l-18,6c6-59,5-79,2-137
				C3333,2396,3318,2384,3303,2371z"/>
			<path fill="#FECD1E" d="M2747,1044c-7-4-13-8-19-13c-16-13-29-29-42-45c-15-19-90-121-91-139c0-5,2-9,5-12s7-4,11-3
				c39,3,77,77,96,106c11,18,37,56,50,70c2-18,0-33,2-50c0-2,1-2,4-4c24,1,57,10,59,37c3,41,10,111,5,150c29-2,66-9,95-14l9-14
				c3-5,5-10,8-15c9-1,18,2,27,5v4c7,6,19,9,28,14c18,0,36,3,57,2c19-1,56-5,72-4c5-3,6-3,12-5c18-6,38-6,57-12c15,19,71,42,96,56
				c-2-5-1-4-6-8l2-3c27,9,33-13,43-33c10,4,41,4,54,4c-5-13-9-21-11-35c-2-8-2-12-2-20c4-11,5-14,12-23c8-4,6-4,14-4
				c7,3,10,12,14,18c24,8,35,9,56,23l4-3l20,9l10-4c12,6,30,15,43,18l-4,8l3,4c4,1,12,4,15,6c9,3,32,12,40,10l6,15l6,13
				c9,14,48,65,52,75c2,6,4,8,7,14c-1,4,0,2-3,5c6,9,21,23,30,31l3-1c4,4,8,7,13,10c12,13,28,33,40,44c0,21,13,29,18,54l1,2
				c-6,0-10-2-16-4c-4,35-8,40-43,47c9,11,15,18,22,31c-14,12-28,21-45,29c-13-19-29-42-42-61c-8,10-18,25-28,32l2,10
				c17,9,37,31,45,33c13-2,28-5,41-7c41-9,48-8,67,29c1,4,2,9,0,11c-9,10-44,20-57,22c15,15,30,29,41,47l-10,25c20-9,44-23,62-30
				c17,15,21,23,28,44c-22,13-45,25-68,35c-27,13-78,38-106,45c7,4,18,7,22,12c5,15-13,33-25,42c-25-7-77-23-99-27l-1,1
				c-2,1-6,6-8,6c-61,9-163,14-223,11v-9c2-7,3-17,4-25c0-6-2-11-3-17c-1-2-1-4-2-6c-3-9-4-11-13-14l5-3c11-11,19-25,13-41
				c-10-7-19-14-28-22c-6-3-22-17-27-22c-16-13-32-27-47-42h-6c-14-8-73-13-92-15c-5-1-8-1-13-2c-40-3-75-4-115-10l-5,1
				c-25-3-63-3-88-3c8-13,12-7,17-17c-10-19-39-50-50-72l-1-2l-7-13c-12,1-26,6-37,3c-6-4-5-4-8-12c-3-17-5-31-6-49
				c44-15,78-26,122-44c-13-5-19-7-31-15c-6,5-10,13-17,14l-6-1c-66-37-119-65-166-126c-14-18-89-122-88-137c9-11,46-23,60-27
				c23,23,46,77,69,103v-37c-1-16,1-49-1-66C2758,1045,2750,1044,2747,1044L2747,1044z"/>
			<path fill="#FA5C16" d="M3331,1528c2,1,13,7,15,7c22,22,62,29,91,39c7,3,16,2,24,6l-1,2c-2-1,146,21,146,21c5-2,26-3,33-3
				c2-8,2-18,2-26c1-2,2-5,2-8v1l2-1c3,2,6,3,10,4c14,2,46-7,61-10c15,15,30,29,41,47l-10,25c20-9,44-23,62-30c17,15,21,23,28,44
				c-22,13-45,25-68,35c-27,13-78,38-106,45c7,4,18,7,22,12c5,15-13,33-25,42c-25-7-77-23-99-27l-1,1c-2,1-6,6-8,6
				c-61,9-163,14-223,11v-9c2-7,3-17,4-25c0-6-2-11-3-17c-1-2-1-4-2-6c-3-9-4-11-13-14l5-3c11-11,19-25,13-41c-10-7-19-14-28-22
				c-6-3-22-17-27-22c-16-13-32-27-47-42c33-1,103,25,102-31l-5-11L3331,1528z"/>
			<path fill="#FB990A" d="M3351,1700c46-5,106-2,153-2c8,0,27,1,34,3l16-2c18,4,86,25,97,25l11,4c7,4,18,7,22,12c5,15-13,33-25,42
				c-25-7-77-23-99-27l-1,1c-2,1-6,6-8,6c-61,9-163,14-223,11v-9c2-7,3-17,4-25c0-6-2-11-3-17C3340,1714,3345,1703,3351,1700
				L3351,1700z"/>
			<path fill="#FECD1E" d="M3351,1700c46-5,106-2,153-2c8,0,27,1,34,3c12,12,16,19,23,35c-64,8-164,6-230,4c0-6-2-11-3-17
				C3340,1714,3345,1703,3351,1700z"/>
			<path fill="#FECD1E" d="M3331,1528c2,1,13,7,15,7c22,22,62,29,91,39c7,3,16,2,24,6l-1,2c-2-1,146,21,146,21c9,12,8,25,9,40
				c0,6,0,6-2,11c-5,1-57-7-65-9c-65-9-133-15-197-28c-20-4-43-15-66-20l-4-5c0,6,1,9,2,16l-1,4h-5c-16-13-32-27-47-42
				c33-1,103,25,102-31l-5-11H3331z"/>
			<path fill="#FA5C16" d="M3331,1528c2,1,13,7,15,7c22,22,62,29,91,39c7,3,16,2,24,6l-1,2c-28-2-56-5-84-6c-27-1-58,2-82,15
				c-6,1-7,1-13,3c0,6,1,9,2,16l-1,4h-5c-16-13-32-27-47-42c33-1,103,25,102-31l-5-11L3331,1528z"/>
			<path fill="#FB990A" d="M3294,1592c24-14,55-16,82-15c-10,7-26,19-37,25C3322,1588,3315,1592,3294,1592z"/>
			<path fill="#FB990A" d="M3276,1614h5l1-4c-1-6-1-9-2-16l4,5c22,5,45,16,66,20c65,13,132,18,197,28c8,1,60,9,65,9c2-5,2-6,2-11
				c29,20,24,75-24,47c-3-2-29-11-33-12c-48-8-97-11-145-19c-30-5-62-8-90-19c-7-2-13-3-21-5C3298,1634,3281,1619,3276,1614z"/>
			<path fill="#F3720F" d="M3276,1614h5l1-4c-1-6-1-9-2-16l4,5c13,17,30,26,39,42c-7-2-13-3-21-5C3298,1634,3281,1619,3276,1614z"/>
			<path fill="#FB990A" d="M3655,1571c14,2,46-7,61-10c15,15,30,29,41,47l-10,25c20-9,44-23,62-30c17,15,21,23,28,44
				c-22,13-45,25-68,35c-7-5-50-16-69-26c3-1,17-8,21-10c-14-9-56-58-67-73L3655,1571z"/>
			<path fill="#FB990A" d="M3651,1724c-30-53,2-52,47-67c19,10,62,21,69,26c-27,13-78,38-106,45L3651,1724z"/>
			<path fill="#F78E0A" d="M3318,1700c8,4,22,0,32,1c-6,3-11,14-22,23c-1-2-1-4-2-6c-3-9-4-11-13-14L3318,1700z"/>
			<path fill="#F78E0A" d="M3487,1685c22,4,45,9,67,14l-16,2c-7-2-26-3-34-3C3498,1693,3493,1690,3487,1685z"/>
			
				<linearGradient id="SVGID_00000031923631453283279860000004255259586249985411_" gradientUnits="userSpaceOnUse" x1="3169.031" y1="2278.2292" x2="2893.396" y2="2105.1594" gradientTransform="matrix(1 0 0 1 0 -778)">
				<stop  offset="0" style="stop-color:#FFB20C"/>
				<stop  offset="1" style="stop-color:#FFD113"/>
			</linearGradient>
			<path fill="url(#SVGID_00000031923631453283279860000004255259586249985411_)" d="M3072,1283l-1-2c-6-17-26-35-26-47
				c7-2,55,14,62,19c22,13-7,57-6,74c4,3,5,3,10,4c-7,4-18,11-24,16c-3,2-12,10-14,10c-2,7-3,9-3,17c3,6,7,15,7,21c5,12,16,22,14,28
				c20,6,43,12,64,16c9,3,15,4,22,11c4,21,5,26,0,46c31,3,62,8,93,14c21,7,37,6,53,21l5,11c1,56-69,30-102,31h-6c-14-8-73-13-92-15
				c-5-1-8-1-13-2c-40-3-75-4-115-10l-5,1c-25-3-63-3-88-3c8-13,12-7,17-17c-10-19-39-50-50-72l-1-2l-7-13c-12,1-26,6-37,3
				c-6-4-5-4-8-12c-3-17-5-31-6-49c44-15,78-26,122-44c-13-5-19-7-31-15c3-4,3-6,5-11c4-12,8-17,16-27c8,0,16,1,24,2
				c12-6,18-8,30-12c7,0,8,0,14-3c18,7,20,22,37,8c10-15,12-15,10-33C3059,1257,3056,1270,3072,1283L3072,1283z"/>
			<path fill="#FECD1E" d="M3015,1485c24,2,50,0,75,1c30,1,59,5,90,9c31,3,62,8,93,14c21,7,37,6,53,21l5,11c1,56-69,30-102,31h-6
				c-14-8-73-13-92-15c-5-1-8-1-13-2c-40-3-75-4-115-10l1-4C3006,1523,3010,1504,3015,1485z"/>
			<path fill="#FB990A" d="M3331,1541c1,56-69,30-102,31h-6c-14-8-73-13-92-15c-5-1-8-1-13-2l4-2l-3-1l2-3c15,0,49,4,66,6
				c36,5,72,9,108,14C3312,1561,3317,1555,3331,1541z"/>
			<path fill="#F3720F" d="M3004,1542c40,2,78,5,117,7l-2,3l3,1l-4,2c-40-3-75-4-115-10L3004,1542z"/>
			<path fill="#FEE359" d="M3044,1249c15,8,12,21,29,34l-1,10c-4,11-8,23-21,25l10,1c-51,43-114,68-176,91c-15,6-50,17-63,23
				c-3-17-5-31-6-49c44-15,78-26,122-44c-13-5-19-7-31-15c3-4,3-6,5-11c4-12,8-17,16-27c8,0,16,1,24,2c12-6,18-8,30-12c7,0,8,0,14-3
				c18,7,20,22,37,8C3044,1267,3046,1267,3044,1249L3044,1249z"/>
			<path fill="#F78E0A" d="M3044,1249c15,8,12,21,29,34l-1,10c-4,11-8,23-21,25c-14-5-20-7-31-17c0-1,1-4,2-6c6-4,9-6,12-12
				C3044,1267,3046,1267,3044,1249L3044,1249z"/>
			<path fill="#FECD1E" d="M2997,1274c18,7,20,22,37,8c-3,7-6,8-12,12c0,1-2,4-2,6c-17,8-49-5-68-12c12-6,18-8,30-12
				C2989,1277,2990,1276,2997,1274z"/>
			<path fill="#FEE359" d="M3049,1370c6,1,17,3,23,3c3,6,7,15,7,21c5,12,16,22,14,28c20,6,43,12,64,16c9,3,15,4,22,11
				c-11,13-37,25-53,34c-48-6-161-37-208-55c21-6,74-34,87-31C3008,1393,3041,1374,3049,1370z"/>
			<path fill="#FA5C16" d="M3049,1370c6,1,17,3,23,3c3,6,7,15,7,21c5,12,16,22,14,28c-29-7-58-15-87-24
				C3008,1393,3041,1374,3049,1370z"/>
			<path fill="#FECD1E" d="M2875,1453c8,0,70,14,73,17c14,0,46,13,66,15c-5,19-9,38-11,57l-1,4l-5,1c-25-3-63-3-88-3
				c8-13,12-7,17-17c-10-19-39-50-50-72L2875,1453z"/>
			<path fill="#FA5C16" d="M2948,1470c14,0,46,13,66,15c-5,19-9,38-11,57l-1,4l-5,1C2989,1526,2963,1487,2948,1470z"/>
			<path fill="#FECD1E" d="M3072,1292l9-1l3,2c0,9-15,20-22,25l-10-1C3064,1315,3068,1304,3072,1292L3072,1292z"/>
			<path fill="#F78E0A" d="M3049,1370c8-7,15-13,26-14c-2,7-3,9-3,17C3066,1373,3055,1371,3049,1370z"/>
			<path fill="#F78E0A" d="M3380,1041c8-4,6-4,14-4c7,3,10,12,14,18c24,8,35,9,56,23l4-3l20,9l10-4c12,6,30,15,43,18l-4,8l3,4
				c4,1,12,4,15,6c9,3,32,12,40,10l6,15l6,13c9,14,48,65,52,75c2,6,4,8,7,14c-1,4,0,2-3,5c6,9,21,23,30,31c-4,8-40,51-49,65l-6-3
				c-36-6-72-14-109-17c-14-2-46,1-54-6v-6c-9-15-45-37-61-48c-7-4-12-8-18-12c-8-3-47-31-58-37c-49-28-149-90-202-103
				c18-6,38-6,57-12c15,19,71,42,96,56c-2-5-1-4-6-8l2-3c27,9,33-13,43-33c10,4,41,4,54,4c-5-13-9-21-11-35c-2-8-2-12-2-20
				C3372,1053,3374,1051,3380,1041L3380,1041z"/>
			<path fill="#FECD1E" d="M3380,1041c8-4,6-4,14-4c7,3,10,12,14,18c24,8,35,9,56,23l4-3l20,9l10-4c12,6,30,15,43,18l-4,8l3,4
				c4,1,12,4,15,6c9,3,32,12,40,10l6,15l-4,1c-8,18-13,24-27,36c-7,4-7,4-12,10l-15,2l-4-6c-49-2-216-7-251-27c-2-5-1-4-6-8l2-3
				c27,9,33-13,43-33c10,4,41,4,54,4c-5-13-9-21-11-35c-2-8-2-12-2-20C3372,1053,3374,1051,3380,1041L3380,1041z"/>
			<path fill="#F78E0A" d="M3469,1075l20,9l10-4c12,6,30,15,43,18l-4,8l3,4c4,1,12,4,15,6c9,3,32,12,40,10l6,15l-4,1
				c-8,18-13,24-27,36c-16-5-3-25-14-42l1-2c-7-6-38-4-49-6c-16-1-31-2-47-3c-5-4-9-10-13-15c12-10,14-12,22-25l-5-7L3469,1075z"/>
			<path fill="#FEB20F" d="M3509,1129l8-2l-5-5l1-2c14-2,30,7,42,8c21,8,34-1,44,15c-8,18-13,24-27,36c-16-5-3-25-14-42l1-2
				C3551,1129,3520,1130,3509,1129L3509,1129z"/>
			<path fill="#FA5C16" d="M3469,1075l20,9l10-4c12,6,30,15,43,18l-4,8l3,4l-2,1c-3,0-65-24-69-26l-5-7L3469,1075z"/>
			<path fill="#FEB20F" d="M3499,1080c12,6,30,15,43,18l-4,8c-16-6-33-15-48-22L3499,1080z"/>
			<path fill="#FB990A" d="M3409,1056c24,8,35,9,56,23l5,7c-8,14-10,15-22,25C3431,1093,3420,1078,3409,1056z"/>
			<path fill="#F3720F" d="M3540,1185c2-13,6-42,17-48c11,17-2,38,14,42c-7,4-7,4-12,10l-15,2L3540,1185z"/>
			<path fill="#FECD1E" d="M3303,1176c14,2,42,9,55,14c43,17,222,54,250,83c3,8,6,16,4,25c-30,15-104-14-136-25c-39-19-75-43-112-64
				C3336,1193,3328,1200,3303,1176z"/>
			<path fill="#FA5C16" d="M3608,1273c5-6,48-25,56-23c6,9,21,23,30,31c-4,8-40,51-49,65l-6-3c-8-13-19-24-32-33l6-12
				C3613,1289,3611,1281,3608,1273L3608,1273z"/>
			<path fill="#FEB20F" d="M3598,1143l4-1l6,13c2,17,16,28,12,33c1,13,18,33,26,45c-12,6-23,11-34,18c-10-8-48-38-50-50
				c-8-3-10-4-17-9l15-2c5-6,5-6,12-10C3586,1167,3591,1160,3598,1143L3598,1143z"/>
			<path fill="#FA5C16" d="M3598,1143l4-1l6,13c2,17,16,28,12,33c-11,3-28,11-35,12c-11,5-12,4-23,0c-8-3-10-4-17-9l15-2
				c5-6,5-6,12-10C3586,1167,3591,1160,3598,1143L3598,1143z"/>
			<path fill="#EB4730" d="M3559,1189c7,2,21,4,25,9v2c-11,5-12,4-23,0c-8-3-10-4-17-9L3559,1189z"/>
			<path fill="#FA5C16" d="M3414,1266c8,0,110,29,121,33c0,4,0,10-1,13c-2,5-4,8-6,14c-14-2-46,1-54-6v-6
				C3466,1299,3430,1277,3414,1266z"/>
			<path fill="#F3720F" d="M3535,1299c8,3,17,6,24,8c-8,1-18,2-26,5C3535,1308,3535,1302,3535,1299z"/>
			<path fill="#FECD1E" d="M3344,1465c31,11,107,31,138,36c7-4,72-6,83-7c15,0,35,0,49-1l4-2c3-6,1-12,1-18c17,9,37,31,45,33
				c13-2,28-5,41-7c41-9,48-8,67,29c1,4,2,9,0,11c-9,10-44,20-57,22c-15,3-48,11-61,10c-4-1-6-3-10-4l-2,1v-1c-1,3-1,6-2,8
				c0,8,0,19-2,26c-7,0-27,0-33,3c0,0-148-21-146-21l1-2c-8-4-16-3-24-6c-29-10-69-17-91-39c-1,0-13-6-15-7c-7-8-41-33-53-43
				C3298,1477,3323,1471,3344,1465z"/>
			<path fill="#FB990A" d="M3346,1535c23,5,48,13,71,18c49,10,101,18,151,24c17,2,52,6,68,5c4,5,3,12,4,19c-7,0-27,0-33,3
				c0,0-148-21-146-21l1-2c-8-4-16-3-24-6C3408,1564,3367,1557,3346,1535z"/>
			<path fill="#F3720F" d="M3772,1527c1,4,2,9,0,11c-9,10-44,20-57,22c-15,3-48,11-61,10c-4-1-6-3-10-4l-2,1v-1c-1,3-1,6-2,8
				c-2-8-4-14-1-21l8-2C3693,1546,3727,1540,3772,1527L3772,1527z"/>
			
				<linearGradient id="SVGID_00000013189824398063850700000012233330279097305483_" gradientUnits="userSpaceOnUse" x1="3562.9358" y1="2305.3042" x2="3546.7358" y2="2258.7522" gradientTransform="matrix(1 0 0 1 0 -778)">
				<stop  offset="0" style="stop-color:#EF810E"/>
				<stop  offset="1" style="stop-color:#E93916"/>
			</linearGradient>
			<path fill="url(#SVGID_00000013189824398063850700000012233330279097305483_)" d="M3565,1494c15,0,35,0,49-1c9,3,10,7,15,16
				c-40,12-105-2-148-9C3489,1496,3554,1495,3565,1494z"/>
			<path fill="#F78E0A" d="M3619,1473c17,9,37,31,45,33c-14,0-22,1-35,3c-5-9-6-13-15-16l4-2C3622,1486,3620,1480,3619,1473
				L3619,1473z"/>
			<path fill="#F78E0A" d="M3631,1526c5,7,11,21,16,26l-8,2c-3,7-1,12,1,21c0,8,0,19-2,26c0-7,0-14-4-19
				C3633,1569,3632,1540,3631,1526z"/>
			<path fill="#F78E0A" d="M3079,1393c55,14,157,20,215,18c13-1,25-2,38-3c10,7,21,15,31,23h1c7,4,19,12,27,16c16,8,29,15,46,22
				c12-20,12-20,13-44c1,4,1,7,2,11c14,0,52-5,62-4c0,21,43,45,52,61c-11,1-76,2-83,7c-31-5-107-24-138-36c-21,6-45,12-66,20
				c12,10,45,35,53,43l-6,2c-16-14-32-14-53-21c-31-6-62-11-93-14c5-21,4-25,0-46c-7-7-13-8-22-11c-21-5-44-10-64-16
				C3094,1416,3083,1405,3079,1393z"/>
			<path fill="#FB990A" d="M3079,1393c55,14,157,20,215,18c13-1,25-2,38-3c10,7,21,15,31,23c-20,9-76,2-88,10v7c-5,5-9,1-16-3
				c-21-12-50-11-74-10c-8,0-21-1-28,3c-21-5-44-10-64-16C3094,1416,3083,1405,3079,1393z"/>
			<path fill="#EB4730" d="M3362,1431h1c7,4,19,12,27,16c-42,11-70,12-112,8c-2-3-1-4-4-7v-7C3286,1433,3342,1440,3362,1431z"/>
			<path fill="#FA5C16" d="M3157,1438c7-4,20-3,28-3c6,66,85,59,88,74c-31-6-62-11-93-14c5-21,4-25,0-46
				C3172,1442,3166,1441,3157,1438z"/>
			<path fill="#FECD1E" d="M2884,1337c-66-37-119-65-166-126c-14-18-89-122-88-137c9-11,46-23,60-27c23,23,46,77,69,103v-37
				c1,9,1,32,3,39l4,2c4,18,41,67,58,71c17,14,33,23,52,35c7,4,24,14,30,19c2,7,6,33,7,35c-2,5-2,7-5,11c-6,5-10,13-17,14L2884,1337
				z"/>
			<path fill="#FB990A" d="M2905,1279c2,7,6,33,7,35c-2,5-2,7-5,11c-6,5-10,13-17,14l-6-1C2890,1330,2901,1290,2905,1279z"/>
			<path fill="#FEE359" d="M2747,1044c-7-4-13-8-19-13c-16-13-29-29-42-45c-15-19-90-121-91-139c0-5,2-9,5-12s7-4,11-3
				c39,3,77,77,96,106c11,18,37,56,50,70c2-18,0-33,2-50c0-2,1-2,4-4c22,21,26,22,54,34c1,10,2,21,2,30c-1,37,2,90-1,125l-28,3
				c-7,2-17,4-24,7l-4-2c-2-7-2-29-3-39c-1-16,1-49-1-66C2758,1045,2750,1044,2747,1044L2747,1044z"/>
			<path fill="#FEE359" d="M3136,1114c52,13,152,74,202,103c11,6,51,35,58,37c6,5,11,8,18,12c16,11,52,32,61,48l-2,4
				c-11,6-57-3-71-9c-26-11-49-27-73-40c-58-32-184-109-245-124c13-12,24-18,39-26C3129,1116,3130,1116,3136,1114L3136,1114z"/>
			<path fill="#FEE359" d="M2766,1153c7-3,16-5,24-7c2,7,5,20,10,24c11,0,37,5,43,5c45,7,80,14,124,27c19,9,38,17,56,28
				c7,4,17,17,21,19c2,18,0,18-10,33c-17,14-19-1-37-8c-6,2-8,3-14,3c-13,4-19,6-30,12c-8-1-16-2-24-2c-8,10-12,15-16,27
				c-1-2-5-27-7-35c-5-5-22-15-30-19c-19-11-34-21-52-35C2807,1220,2770,1171,2766,1153L2766,1153z"/>
			<path fill="#FA5C16" d="M2824,1225c22,3,140,40,158,52c-13,4-19,6-30,12c-8-1-16-2-24-2c-8,10-12,15-16,27c-1-2-5-27-7-35
				c-5-5-22-15-30-19C2856,1248,2841,1238,2824,1225L2824,1225z"/>
			
				<linearGradient id="SVGID_00000085235419989546843750000003996855728778664115_" gradientUnits="userSpaceOnUse" x1="2890.916" y1="1978.7816" x2="2855.5017" y2="2024.7356" gradientTransform="matrix(1 0 0 1 0 -778)">
				<stop  offset="0" style="stop-color:#FFA504"/>
				<stop  offset="1" style="stop-color:#FFC613"/>
			</linearGradient>
			<path fill="url(#SVGID_00000085235419989546843750000003996855728778664115_)" d="M2766,1153c7-3,16-5,24-7c2,7,5,20,10,24
				c41,60,57,55,123,72c21,6,55,20,74,31c-6,2-8,3-14,3c-18-12-136-49-158-52C2807,1220,2770,1171,2766,1153z"/>
			<path fill="#FEE359" d="M3148,1308c6,3,18,7,22,13c3,7,28,28,36,36c9,2,19,4,28,5h1c14,2,47,1,55,9c3,14,12,30,3,41
				c-58,2-160-4-215-18c0-6-4-15-7-21c0-8,1-9,3-17c2-1,10-8,14-10c6-5,17-11,24-16h1C3126,1323,3135,1312,3148,1308L3148,1308z"/>
			<path fill="#FECD1E" d="M3148,1308c6,3,18,7,22,13c3,7,28,28,36,36c-19-3-30-6-48-13c-10-5-33-11-45-14
				C3126,1323,3135,1312,3148,1308z"/>
			<path fill="#F78E0A" d="M3748,1383l5,3c-4,35-8,40-43,47c9,11,15,18,22,31c-14,12-28,21-45,29c-13-19-29-42-42-61
				c-8,10-18,25-28,32l2,10c1,7,2,13-1,18l-4,2c-15,1-34,0-49,1c-8-16-52-40-52-61l29,1c2,0,4,0,6,0c15,0,32-18,31-31
				c43,9,77,15,120,26C3716,1417,3734,1398,3748,1383L3748,1383z"/>
			<path fill="#FEB20F" d="M3514,1433l29,1c21,3,50,4,71,6l4,24l2,10c1,7,2,13-1,18l-4,2c-15,1-34,0-49,1
				C3557,1478,3513,1454,3514,1433L3514,1433z"/>
			<path fill="#F78E0A" d="M3693,1280l3-1c4,4,8,7,13,10c12,13,28,33,40,44c0,21,13,29,18,54l1,2c-6,0-10-2-16-4l-5-3l-2-1
				c-34-14-67-27-103-36C3653,1332,3689,1289,3693,1280L3693,1280z"/>
			<path fill="#F3720F" d="M3746,1382l1-8c3-1,4-2,7-3v-4c3,5,10,17,14,21l1,2c-6,0-10-2-16-4l-5-3L3746,1382z"/>
			<path fill="#FB990A" d="M3003,1197c48,22,97,40,147,54c-10,13-34,35-15,48c4,3,9,6,13,9c-14,3-22,15-35,22h-1c-5-1-6-1-10-4
				c-1-16,28-60,6-74c-7-4-55-20-62-19c-1,11,20,29,26,47l1,2c-16-13-13-25-29-34c-4-2-14-14-21-19c-18-12-37-20-56-28
				C2980,1196,2990,1201,3003,1197L3003,1197z"/>
			<path fill="#FA5C16" d="M3516,1396c21,1,43,4,64,7c1,13-17,31-31,31c-2,0-4,0-6,0l-29-1c-9-1-48,4-62,4c-2-4-2-7-2-11l-1-7
				c21-5,36-10,54-21C3505,1396,3512,1396,3516,1396z"/>
			<path fill="#F3720F" d="M2994,1121c18,0,36,3,57,2c19-1,56-5,72-4c-16,7-26,14-39,26c8,15,55,33,71,44
				C3137,1186,3016,1132,2994,1121z"/>
			<path fill="#F78E0A" d="M2843,1175c39-6,73,3,113-3c16,7,31,16,47,25c-13,4-23-1-36,4C2923,1189,2888,1183,2843,1175z"/>
			<path fill="#F78E0A" d="M3410,1392c24-1,82,0,106,4c-3,0-11,0-13,1c-19,12-33,16-54,21C3440,1411,3421,1399,3410,1392z"/>
			<path fill="#FEB20F" d="M2764,954c24,1,57,10,59,37c3,41,10,111,5,150c-3-20-2-64-4-87l-1,29c-2-16,0-52-3-64c0-10-2-21-2-30
				C2790,976,2785,975,2764,954L2764,954z"/>
			<path fill="#FEB20F" d="M3331,1408c13-2,36-6,47,0c9,14-10,17-15,23h-1C3352,1424,3342,1416,3331,1408z"/>
			<path fill="#F3720F" d="M3206,1357c-8-8-33-28-36-36c14,8,56,30,64,40C3225,1361,3215,1359,3206,1357z"/>
			<path fill="#F78E0A" d="M3186,1262c12-3,35-9,45-16c2-6,1-6,5-8c15,7,38,22,53,31c28,17,55,33,83,50l14,6c5-1,6-2,11-1v2l-9,3
				c-5,15,0,36,7,49c1,3,3,6,4,8c-12-8-24-15-37-22c-41-21-94-55-134-79C3215,1279,3198,1270,3186,1262L3186,1262z"/>
			<path fill="#EB4730" d="M3228,1286c11-1,44,11,57,15c30,9,55,14,87,18l14,6c5-1,6-2,11-1v2l-9,3c-5,15,0,36,7,49c1,3,3,6,4,8
				c-12-8-24-15-37-22C3321,1344,3268,1310,3228,1286L3228,1286z"/>
			<path fill="#F78E0A" d="M3386,1325c5-1,6-2,11-1v2l-9,3c-5,15,0,36,7,49c1,3,3,6,4,8c-12-8-24-15-37-22
				C3367,1343,3368,1339,3386,1325z"/>
			<path fill="#F78E0A" d="M2853,1581c4-45,15-39,56-38c25,0,64,0,88,3l5-1c40,6,75,6,115,10c5,1,8,2,13,2c19,2,78,7,92,15h6
				c15,14,31,28,47,42c5,5,22,20,27,22c9,8,18,15,28,22c6,16-2,30-13,41l-5,3c8,4,9,6,13,14c1,2,1,4,2,6c2,6,3,10,3,17
				c-1,7-2,17-4,25v9c-13,0-24-2-37-1c7,4,9,4,11,10c-2,13-13,22-20,33h-42c-40,2-79,5-118,15c13,19,33,45,57,46c-12,1-23,2-35,2
				c20,30,28,52,64,61c8,2,51,27,54,33c19,11,63,45,79,60c46,3,115,23,164,31l13,2c49,9,46,19,20,57c-15-1-63-9-69-8
				c16,9,102,56,105,68c3,12-3,25-7,36c-6,11-11,16-21,23c-50-19-124-67-171-96c-1,4-1,10-2,13c17,23,68,103,77,127
				c-6,21-12,33-31,44c-1,1-2,1-3,2l9,18c-11,22-25,28-47,36c-13-13-39-54-51-71c-10,19,0,34-36,36c-2,0-3,0-5,1c-3,7-10,39-13,51
				c-43-3-52-10-44-55c3-17,6-39,8-57c-7-14-17-32-25-45l-4-1c-6,28-24,30-49,32c-6-14-13-38-18-54c-10-33-20-65-29-98l-2-6
				c-5-5-6-3-14-4c-12-5-99-201-107-225c4-14,9-21,18-33c-13-18-46-64-50-85l5-15c-35-9-65-14-99-27c3-18,11-47,16-65
				c31,9,76,17,108,23l1-5c-9-3-12-5-20-9c-2-1-3-2-5-2c-12-6-14-11-18-23l-1-2c-6-8-50-18-65-24l-3-3c0-4,0-5,0-8c-6-4-12-7-18-10
				C2854,1594,2854,1589,2853,1581z"/>
			<path fill="#FECD1E" d="M2853,1581c4-45,15-39,56-38c25,0,64,0,88,3l5-1c40,6,75,6,115,10c5,1,8,2,13,2c19,2,78,7,92,15h6
				c15,14,31,28,47,42c5,5,22,20,27,22c9,8,18,15,28,22c6,16-2,30-13,41l-5,3c8,4,9,6,13,14c1,2,1,4,2,6c2,6,3,10,3,17
				c-1,7-2,17-4,25h-8c-6-4-6-10-9-18v-2c-25,12-165,21-199,20c-13,0-86-4-92-1c-12,0-46-5-58-8c-35-9-65-14-99-27c3-18,11-47,16-65
				c31,9,76,17,108,23l1-5c-9-3-12-5-20-9c-2-1-3-2-5-2c-12-6-14-11-18-23l-1-2c-6-8-50-18-65-24l-3-3c0-4,0-5,0-8c-6-4-12-7-18-10
				C2854,1594,2854,1589,2853,1581z"/>
			<path fill="#FEB20F" d="M2853,1581c4-45,15-39,56-38c25,0,64,0,88,3l5-1c40,6,75,6,115,10c5,1,8,2,13,2c8,15,7,18,13,32v9
				c1,11,1,15,1,25c-21,1-43,1-64,0c15,4,28,8,44,12c-24,11-49,22-74,29c-10,3-21,3-31,6c-19,2-33,0-52,3c-2-1-3-2-5-2
				c-12-6-14-11-18-23l-1-2c-6-8-50-18-65-24l-3-3c0-4,0-5,0-8c-6-4-12-7-18-10C2854,1594,2854,1589,2853,1581L2853,1581z"/>
			<path fill="#FEE359" d="M2853,1581c4-45,15-39,56-38c25,0,64,0,88,3l5-1c40,6,75,6,115,10c5,1,8,2,13,2c8,15,7,18,13,32v9
				c-39,5-105-4-146-5C2973,1592,2870,1589,2853,1581z"/>
			<path fill="#FEE359" d="M2957,1613c16-7,75,5,85,17c2,16-35,19-47,21c-21,2-42,1-48-23C2949,1623,2953,1618,2957,1613z"/>
			<path fill="#F78E0A" d="M2878,1621c24-3,56-11,79-8c-3,5-7,10-10,15c0,9-1,12-3,20l-1-2C2937,1638,2893,1628,2878,1621z"/>
			<path fill="#FEE359" d="M3131,1557c19,2,78,7,92,15h6c15,14,31,28,47,42c5,5,22,20,27,22c9,8,18,15,28,22c-18,7-27,10-42,23
				c-3,3-13,11-16,13l-1,2c-8,2-15,2-23,2c-12-19-41-50-57-66c-10-10-38-42-48-44C3138,1575,3138,1573,3131,1557z"/>
			<path fill="#F3720F" d="M3131,1557c19,2,78,7,92,15c-21,0-37,1-58,6c7,13,19,33,27,46v8c-10-10-38-42-48-44
				C3138,1575,3138,1573,3131,1557z"/>
			<path fill="#F3720F" d="M3192,1625c27,28,48,47,81,69l-1,2c-8,2-15,2-23,2c-12-19-41-50-57-66V1625z"/>
			<path fill="#FA5C16" d="M3144,1589c11,2,39,34,48,44c16,16,45,47,57,66c-12,2-42,3-56,3c-10-48-26-54-70-67c-15-3-29-7-44-12
				c21,1,43,2,64,0c0-11,0-15-1-25L3144,1589z"/>
			<path fill="#F78E0A" d="M3019,1670c42,7,106,18,145,33c-24,0-142-6-161-14c-5,0-12-2-17-2l1-5c-9-3-12-5-20-9
				C2986,1670,3000,1672,3019,1670z"/>
			<path fill="#F78E0A" d="M2987,1683c6,1,12,0,16,4l1,3c-5,0-12-2-17-2V1683z"/>
			<path fill="#F3720F" d="M3314,1703c8,4,9,6,13,14c1,2,1,4,2,6c2,6,3,10,3,17c-1,7-2,17-4,25h-8c-6-4-6-10-9-18v-2c-2-8-8-33-7-40
				C3307,1705,3309,1705,3314,1703z"/>
			<path fill="#F78E0A" d="M3268,2108c5,7,10,14,15,21c9,13,42,54,45,66c1,1,3,2,5,3c17-5,24-32,40-39c17,23,68,103,77,127
				c-6,21-12,33-31,44c-1,1-2,1-3,2l9,18c-11,22-25,28-47,36c-13-13-39-54-51-71c-10,19,0,34-36,36c-2,0-3,0-5,1c-3,7-10,39-13,51
				c-43-3-52-10-44-55c3-17,6-39,8-57c-7-14-17-32-25-45l-4-1c-6,28-24,30-49,32c-6-14-13-38-18-54c-10-33-20-65-29-98
				c11-3,59,17,70,23l1,2h4c6-2,9-6,14-11c-5-10-10-17-14-27c8,7,19,18,27,25C3233,2130,3251,2119,3268,2108z"/>
			<path fill="#FECD1E" d="M3211,2246c3-24,23-25,43-30c21,32,47,84,67,118c-9,5-22,11-30,16c-2,0-3,0-5,1c-3,7-10,39-13,51
				c-43-3-52-10-44-55c3-17,6-39,8-57C3229,2277,3219,2259,3211,2246z"/>
			<path fill="#FECD1E" d="M3283,2241c24,0,50,1,74-1c13,20,47,76,59,92l9,18c-11,22-25,28-47,36c-13-13-39-54-51-71
				C3315,2296,3288,2258,3283,2241z"/>
			<path fill="#FECD1E" d="M3111,2125c11-3,59,17,70,23l1,2c8,26,24,70,25,95c-6,28-24,30-49,32c-6-14-13-38-18-54
				C3130,2190,3120,2158,3111,2125z"/>
			<path fill="#FECD1E" d="M3283,2129c9,13,42,54,45,66c-20,14-18,23-49,37c-20-29-39-52-62-79C3247,2152,3261,2148,3283,2129z"/>
			<path fill="#FECD1E" d="M3006,1856c28,44,62,85,97,125c19,21,50,42,78,28c25,21,49,57,74,82c4,5,10,12,13,18c-18,11-36,22-55,30
				c-8-7-19-19-27-25c4,10,9,17,14,27c-4,5-8,9-14,11h-4l-1-2c-11-6-58-26-70-23l-2-6c-5-5-6-3-14-4c-12-5-99-201-107-225
				C2992,1875,2997,1868,3006,1856L3006,1856z"/>
			<path fill="#F78E0A" d="M3101,1995c22,29,38,60,64,89l22,27c4,10,9,17,14,27c-4,5-8,9-14,11h-4l-1-2c-11-6-58-26-70-23l-2-6
				c-5-5-6-3-14-4c14-12,26-34,32-52C3124,2046,3108,2012,3101,1995z"/>
			<path fill="#FA5C16" d="M3181,2147c-2-17-20-53-16-63l22,27c4,10,9,17,14,27c-4,5-8,9-14,11h-4L3181,2147z"/>
			<path fill="#FB990A" d="M3310,1745v2c3,8,3,14,9,18h8v9c-13,0-24-2-37-1c7,4,9,4,11,10c-2,13-13,22-20,33h-42c-40,2-79,5-118,15
				c13,19,33,45,57,46c-12,1-23,2-35,2c20,30,28,52,64,61c8,2,51,27,54,33c-10,1-62-31-76-38c-4,12-6,17-14,25c-4-7-150-194-152-196
				c6-3,79,1,92,1C3145,1766,3285,1757,3310,1745z"/>
			<path fill="#FA5C16" d="M3074,1785c29,14,73,44,101,17c3-6,2-8,1-14v-2l2-2c13,0,48,25,61,33c-40,2-79,5-118,15c-5,1-6,2-10,2
				C3098,1826,3083,1798,3074,1785z"/>
			<path fill="#F78E0A" d="M3311,1747c3,8,3,14,9,18h8v9c-13,0-24-2-37-1v-1l1-2l18-4C3312,1762,3309,1754,3311,1747z"/>
			<path fill="#FECD1E" d="M3397,2088l2-7c18-5,54,29,71,33c16,9,102,56,105,68c3,12-3,25-7,36c-6,11-11,16-21,23
				c-50-19-124-67-171-96l-16-11c7-6,15-12,22-18C3392,2107,3393,2103,3397,2088L3397,2088z"/>
			<path fill="#FB990A" d="M3359,2135c7-6,15-12,22-18c33,24,147,89,186,101c-6,11-11,16-21,23c-50-19-124-67-171-96L3359,2135z"/>
			<path fill="#FEE359" d="M2961,1756c12,3,46,8,58,8c2,2,148,188,152,196v2c-14,9-35,14-51,17c-40-42-76-96-112-142
				c-17-22-33-46-52-66L2961,1756z"/>
			<path fill="#FECD1E" d="M3171,1960c9-9,11-13,14-25c14,7,65,39,76,38c19,11,63,45,79,60c15,14,29,23,44,38c-17,10-29,23-43,37
				c-13-13-26-26-38-39c7-12,14-30,3-42c-11-2-23,17-39,27c-24-15-81-69-97-93L3171,1960z"/>
			<path fill="#EB4730" d="M3298,2067c16,17,30,33,46,51c7-3,12-6,18-9c8-4,24-24,32-23l2,2c-3,15-4,19-16,29c-8,6-15,12-22,18
				l16,11c-1,4-1,10-2,13c-16,8-23,35-40,39c-2-1-3-2-5-3c-4-13-36-53-45-66c-4-7-10-14-15-21c-4-5-9-12-13-18c1-2,2-4,4-7
				c13-5,22-5,34-13l2-1C3296,2069,3297,2068,3298,2067L3298,2067z"/>
			<path fill="#FECD1E" d="M3596,1125c0-5,0-17,1-22c2-7,6-12,12-16c13-7,31-2,44,2c4,4,7,8,11,13c13,18,25,36,37,54
				c43-14,64-22,83,30c8-3,27-11,34-13c15-4,22-6,38-8c14,14,20,24,22,44l-5,27c-40,14-50,16-83,42c10,13,19,24,30,36
				c26-8,49-16,73-29c25-12,50-30,76-38c17-5,49,30,57,42c5,12,10,24,15,36c-45,28-91,46-141,63c-10,3-45,11-49,13
				c-1,15-13,33-27,21c-1-4-3-6-2-10c-15-16-30,24-54-21l-1-2c-5-25-18-33-18-54c-11-11-28-31-40-44c-5-2-9-6-13-10l-3,1
				c-9-8-24-22-30-31c3-3,3-1,3-5c-3-6-5-8-7-14c-4-10-43-61-52-75l-6-13l-6-15L3596,1125z"/>
			<path fill="#FB990A" d="M3702,1156c43-14,64-22,83,30c8-3,27-11,34-13c15-4,22-6,38-8c14,14,20,24,22,44l-5,27
				c-40,14-50,16-83,42C3759,1239,3729,1199,3702,1156L3702,1156z"/>
			<path fill="#FEB20F" d="M3819,1173c15-4,22-6,38-8c14,14,20,24,22,44c-7,6-16,13-23,20C3847,1217,3823,1184,3819,1173z"/>
			<path fill="#FB990A" d="M3806,1390c10-4,47-27,49-27l5,6c6,1,19-5,26-7c53-18,95-42,141-73c5,12,10,24,15,36c-45,28-91,46-141,63
				c-10,3-45,11-49,13c-1,15-13,33-27,21c-1-4-3-6-2-10c-15-16-30,24-54-21l-1-2c-5-25-18-33-18-54C3770,1354,3785,1370,3806,1390
				L3806,1390z"/>
			<path fill="#FEE359" d="M3823,1411c10-8,16-12,29-11c-1,15-13,33-27,21C3823,1418,3822,1415,3823,1411z"/>
			<path fill="#F78E0A" d="M3596,1125c0-5,0-17,1-22c2-7,6-12,12-16c13-7,31-2,44,2c4,4,7,8,11,13C3644,1106,3615,1116,3596,1125z"
				/>
			<path fill="#FB990A" d="M3659,1231c17,19,34,39,50,59c-5-2-9-6-13-10l-3,1c-9-8-24-22-30-31c3-3,3-1,3-5
				C3663,1239,3662,1237,3659,1231L3659,1231z"/>
			<path fill="#FECD1E" d="M3322,1816c18-5,84-29,96-24c10,10,15,27,18,41c52-3,99-16,100,48c0,2,0,4-1,6c15,4,36,10,49,19l2,5
				c11,25,14,22,7,53c-4,8-4,8-12,7c-20-4-44-13-63-17c-30-6-104-23-133-17c26,12,53,25,79,36c26,20-19,74-51,60
				c-42-17-162-80-188-113c-1-17,0-28,3-45c-16,1-33,2-49,3c-24-1-44-27-57-46c39-10,78-13,118-15h42C3290,1816,3313,1816,3322,1816
				z"/>
			<path fill="#FEB20F" d="M3322,1816c18-5,84-29,96-24c10,10,15,27,18,41c52-3,99-16,100,48c0,2,0,4-1,6c15,4,36,10,49,19l2,5
				c11,25,14,22,7,53c-4,8-4,8-12,7c-20-4-44-13-63-17c-30-6-104-23-133-17l-23-11c-8-2-42-22-50-27c-8-5-31-17-36-23l1-2h10
				c27-2,92,6,110-5l4-15c0-2,0-3,0-5c0-22-6-32-30-33C3355,1816,3338,1816,3322,1816L3322,1816z"/>
			<path fill="#F78E0A" d="M3322,1816c18-5,84-29,96-24c10,10,15,27,18,41c52-3,99-16,100,48c0,2,0,4-1,6c-18-5-33-8-52-10
				c-9-1-33-3-40-5c-15-2-33-1-47-4l4-15c0-2,0-3,0-5c0-22-6-32-30-33C3355,1816,3338,1816,3322,1816L3322,1816z"/>
			<path fill="#EB4730" d="M3435,1847c4,6,9,15,11,22l-2,3c-15-2-33-1-47-4l4-15C3415,1852,3422,1851,3435,1847L3435,1847z"/>
			<path fill="#F78E0A" d="M3362,1926c50-9,147,13,197,25c18,5,25,12,27-8c1,10,2,12,8,21c-4,8-4,8-12,7c-20-4-44-13-63-17
				c-30-6-104-23-133-17L3362,1926z"/>
			<path fill="#F3720F" d="M3287,1873c34,3,68,0,100,2c-28,7-47,12-74,23c-8-5-31-17-36-23l1-2H3287z"/>
			<path fill="#F78E0A" d="M3587,1911c11,25,14,22,7,53c-6-9-6-10-8-21C3587,1934,3587,1921,3587,1911z"/>
			<path fill="#FB990A" d="M3464,1973c26,20-19,74-51,60C3430,2016,3436,1990,3464,1973z"/>
			<path fill="#FECD1E" d="M3737,886c10-6,27-8,38-1c5,0,11-2,14,2c16,19,29,55,40,78c20-16,41-12,64-6c19,20,72,115,87,143
				c8,12,35,54,41,66c2,4,2,6,2,10c-2,7-6,11-13,14c-59,25-63-33-89-43c-5,3-10,5-14,8c-53-14-100-31-152-49c-74-25-148-53-221-82
				c-10-4-25-9-29-19c0-13,9-28,15-39c5-6,6-6,13-4c58,21,113,44,170,67c30,12,70,24,101,34c-5-9-10-17-15-26
				C3778,1019,3710,899,3737,886L3737,886z"/>
			<path fill="#FB990A" d="M3829,964c20-16,41-12,64-6c19,20,72,115,87,143c8,12,35,54,41,66c2,4,2,6,2,10c-2,7-6,11-13,14
				c-59,25-63-33-89-43c-5,3-10,5-14,8c9-21,13-33,20-55l-21-7C3888,1075,3841,990,3829,964L3829,964z"/>
			<path fill="#FECD1E" d="M3980,1101c8,12,35,54,41,66c-10,9-46,14-60,16c-11-11-18-21-26-33C3951,1133,3965,1118,3980,1101
				L3980,1101z"/>
			<path fill="#9C2E30" d="M3737,886c10-6,27-8,38-1C3758,890,3754,890,3737,886z"/>
			<path fill="#FEE359" d="M2862,895c15,11,33,36,41,40l23,27c16,14,28,29,42,46l9-17c4-5,6-10,12-12c61,10,128,30,191,40
				c10,2,26,52,27,63l2,2c28,3,59-3,87,8c14,3,27,8,32,23c-10,20-16,41-43,33l-2,3c5,4,4,3,6,8c-25-14-81-38-96-56c-19,6-39,6-57,12
				c-6,2-7,2-12,5c-16-1-53,3-72,4c-21,1-39-2-57-2c-9-5-21-8-28-14v-4c-9-2-18-5-27-5c-3,5-5,10-8,15c-20-3-33-3-40-24
				c0-11-1-29,4-40c1-3,5-3,9-5c3-11-81-91-84-110c2-7,7-11,12-16C2843,908,2849,904,2862,895z"/>
			<path fill="#FEB20F" d="M3193,1074l15,8l2,2c28,3,59-3,87,8c14,3,27,8,32,23c-10,20-16,41-43,33l-2,3c5,4,4,3,6,8
				c-25-14-81-38-96-56c-19,6-39,6-57,12c-6,2-7,2-12,5c-16-1-53,3-72,4c-21,1-39-2-57-2c-9-5-21-8-28-14v-4c70,8,131,7,200-16
				C3173,1084,3187,1078,3193,1074z"/>
			<path fill="#FEE359" d="M3296,1092c14,3,27,8,32,23c-10,20-16,41-43,33c-20-9-33-19-48-35C3254,1102,3276,1097,3296,1092z"/>
			<path fill="#FEB20F" d="M2978,991c4-5,6-10,12-12c61,10,128,30,191,40c10,2,26,52,27,63l-15-8c-9-16-13-23-28-32c-35-2-67,7-97,6
				c-6-4-18-4-26-7C3023,1034,2991,1006,2978,991z"/>
			<path fill="#F78E0A" d="M2927,962c16,14,28,29,42,46l9-17c14,15,45,43,65,50c7,3,19,3,26,7l-23,2c-14,1-34,0-49,0c-2-4-5-8-7-11
				c-4-1-4-2-8-6C2970,1020,2933,975,2927,962z"/>
			<path fill="#EB4730" d="M2989,1039l3-3c9,0,46,9,53,14c-14,1-34,0-49,0C2994,1047,2991,1043,2989,1039L2989,1039z"/>
			<path fill="#FEB20F" d="M2981,1033c4,4,3,6,8,6c2,3,5,7,7,11c-13,0-71-3-81-6c2-3,43-4,50-6C2970,1037,2975,1035,2981,1033
				L2981,1033z"/>
			<path fill="#FEB20F" d="M2891,1090c17,5,31,6,48,9c-3,5-5,10-8,15C2912,1111,2898,1111,2891,1090z"/>
			<path fill="#FECD1E" d="M3385,861c37-1,72-4,109-4c2,14,4,22,2,36l2,8c6,2,118-34,132-39c9,9,12,12,20,22c16,11,17,14,26,31
				c-30,15-73,25-106,35c-9,3-29,8-37,12c-7-2-8-2-13,4c-27,4-79,20-103,21c-34,7-82,16-117,16c-1-17,1-42,2-59c10-2,18-3,28-5
				c-1-8-3-15,5-19c7,3,5,2,10,9c-1,4-1,2,1,6c12,2,85-16,103-20c-21-3-46-6-64-18c-5-3-9-6-11-12C3372,875,3378,869,3385,861
				L3385,861z"/>
			<path fill="#FEE359" d="M3385,861c37-1,72-4,109-4c2,14,4,22,2,36c-5,6-7,7-15,8c-31,3-66-1-96-4c-5-3-9-6-11-12
				C3372,875,3378,869,3385,861z"/>
			<path fill="#FB990A" d="M3650,885c16,11,17,14,26,31c-30,15-73,25-106,35c-9,3-29,8-37,12c-7-2-8-2-13,4c-27,4-79,20-103,21
				c15-6,49-13,66-18c54-16,130-36,179-62C3659,901,3654,892,3650,885z"/>
			<path fill="#FEE359" d="M3329,940c-1-8-3-15,5-19c7,3,5,2,10,9C3340,939,3340,938,3329,940L3329,940z"/>
			<path fill="#FECD1E" d="M3110,363c26,3,36,6,58,20c7,7,14,14,21,22c-42,69-104,155-121,236c-10,1-20,3-30,2c-56-15-60-16-42-72
				C3020,492,3062,430,3110,363z"/>
			<path fill="#FB990A" d="M3168,384c7,7,14,14,21,22c-42,69-104,155-121,236c-10,1-20,3-30,2c3-2,26-83,32-96
				C3093,486,3130,437,3168,384z"/>
			<path fill="#FECD1E" d="M3632,786c-8-13-50-80-52-87c1-6,3-8,7-12c42-35,64,26,81,53c11,19,24,36,38,53c17,1,36,2,53,6
				c40,27-14,50-43,49c-26,8-250-12-266-30c-1-12,7-31,11-42C3524,767,3571,780,3632,786z"/>
			<path fill="#FB990A" d="M3760,799c40,27-14,50-43,49C3742,834,3750,825,3760,799z"/>
			<path fill="#FECD1E" d="M2577,727c-23-2-55,0-58-29c-7-53-1-106,8-158c7-41,33-40,68-40c13,7,23,14,32,27c-11,71-16,122-22,193
				C2592,724,2588,726,2577,727L2577,727z"/>
			<path fill="#FB990A" d="M2593,500c13,7,23,14,32,27c-11,71-16,122-22,193c-11,4-15,5-27,7c-1-33,1-67,4-100
				C2583,604,2596,516,2593,500L2593,500z"/>
			<path fill="#FECD1E" d="M2669,659c60-1,95,22,149,42c51,19,102,38,153,55c20,18,16,71-9,64c-21-8-307-117-311-122
				C2650,686,2663,669,2669,659z"/>
			<path fill="#F78E0A" d="M2971,756c20,18,16,71-9,64C2966,816,2970,766,2971,756z"/>
			<path fill="#FECD1E" d="M3818,505c15-21,49-12,44,17l6,2c3,7-4,21-7,28c-22,53-51,103-80,153c-7,11-34,54-38,62c-10,8-24,0-31-8
				c-13-14-17-21-17-40c6-14,39-66,49-85c27-49,40-86,60-137L3818,505z"/>
			<path fill="#F78E0A" d="M3696,720c16,16,30,32,48,47c-10,8-24,0-31-8C3700,746,3696,739,3696,720L3696,720z"/>
			<path fill="#FB990A" d="M3818,505c15-21,49-12,44,17C3846,517,3833,513,3818,505z"/>
			<path fill="#FECD1E" d="M2376,830c8,2,18,6,24,11c29,23,129,120,144,144c7,23,1,52-25,59l-2,1c-4,0-5-1-9-4c-41-44-80-89-122-132
				c-13-14-26-27-38-42C2356,851,2363,843,2376,830L2376,830z"/>
			<path fill="#FB990A" d="M2544,985c7,23,1,52-25,59l-2,1C2526,1025,2536,1007,2544,985L2544,985z"/>
			<path fill="#FECD1E" d="M2886,626c60,10,117,83,164,121c18,14,39,27,55,41c-6,14-8,17-16,30c-9-2-32-7-40-11
				c-51-32-93-79-141-117c-14-11-29-22-43-33C2872,645,2878,637,2886,626z"/>
			<path fill="#FECD1E" d="M2665,1199c3,0,8,2,11,4c38,37,75,75,112,112c4,4,1,18-3,22c-10,10-15,11-28,12c-3,0-6,0-9,0
				c-18-9-103-97-115-113C2641,1224,2654,1209,2665,1199L2665,1199z"/>
			<path fill="#FEB20F" d="M3242,990c19,7,37,15,55,22c27,10,55,20,83,29c-7,9-9,12-12,23c0,8,0,13,2,20c-36-7-74,1-108-12
				c-27-11-62-19-43-55C3225,1008,3233,998,3242,990z"/>
			<path fill="#F78E0A" d="M3370,1085c-36-7-74,1-108-12c-27-11-62-19-43-55c33,27,107,44,149,48C3368,1072,3368,1077,3370,1085z"/>
			<path fill="#FECD1E" d="M2962,876c34,7,134,49,155,72l1,12c1,6,1,7-2,13c-9,7-18,6-30,7c-15,7-76-39-97-43c-10-2-38-16-50-19
				C2924,914,2957,881,2962,876z"/>
			<path fill="#F78E0A" d="M3116,949l1,12c1,6,1,7-2,13c-9,7-18,6-30,7C3100,972,3112,967,3116,949z"/>
			<path fill="#FECD1E" d="M3863,1706c10,2,19,19,23,28c-6,23-17,76-35,89c-5,4-17,3-23,3c-37-16-51-18-34-59
				C3815,1715,3807,1706,3863,1706L3863,1706z"/>
			<path fill="#FB990A" d="M3863,1706c10,2,19,19,23,28c-6,23-17,76-35,89c-5,4-17,3-23,3c14-30,36-81,39-115
				C3867,1708,3865,1708,3863,1706z"/>
			<path fill="#FECD1E" d="M3427,509c29,4,121,21,134,47c7,12,10,21,6,35c-3,10-8,13-17,10c-46-26-96-32-144-50
				C3394,546,3422,514,3427,509z"/>
			<path fill="#FB990A" d="M3561,556c7,12,10,21,6,35c-3,10-8,13-17,10C3549,579,3552,575,3561,556z"/>
			<path fill="#FB990A" d="M3523,1978c4-1,7-2,10,0c14,11,108,57,114,66c2,11-7,27-12,37c-50-13-107-34-142-74
				C3485,1990,3510,1983,3523,1978z"/>
			<path fill="#F78E0A" d="M3493,2008c-8-18,16-25,29-30C3514,1992,3504,1997,3493,2008z"/>
			<path fill="#FECD1E" d="M2773,775c6,2,18,6,23,10c30,24,90,113,106,146c1,1,1,3,2,4c-8-5-26-29-41-40c-14,9-19,13-31,25
				c-11-19-20-35-33-54c-11-16-33-42-41-57C2762,794,2765,788,2773,775L2773,775z"/>
			<path fill="#FECD1E" d="M3148,744c7-10,23-29,32-39c33-36,64-42,109-44c7,6,18,14,22,23c-12,17-49,25-68,36c-23,13-45,44-71,41
				C3161,754,3157,752,3148,744L3148,744z"/>
			<path fill="#FB990A" d="M3171,761c12-9,26-24,37-35c29-26,64-37,102-42c-12,17-49,25-68,36C3220,733,3198,764,3171,761z"/>
			<path fill="#FECD1E" d="M3962,912c9-20,15-38,21-59c12-44,10-48,54-47c20,28,2,103-25,125c-3,3-11,2-16,2
				C3982,927,3973,921,3962,912L3962,912z"/>
			<path fill="#FB990A" d="M4036,806c20,28,2,103-25,125c-3,3-11,2-16,2c1,0,2-1,3-2C4026,899,4036,844,4036,806z"/>
			<path fill="#FEE359" d="M3434,1003c13-1,99,43,114,52c10,6-2,33-6,43c-12-3-30-13-43-18l-10,4l-20-9c-21-13-49-23-63-43
				C3416,1021,3422,1013,3434,1003z"/>
			<path fill="#FEB20F" d="M3434,1003c-2,14-12,22-22,32c26,15,60,32,87,45l-10,4l-20-9c-21-13-49-23-63-43
				C3416,1021,3422,1013,3434,1003z"/>
			<path fill="#FB990A" d="M3571,1838l-1,1h-4c-21-10-45-21-65-34c-8-5-11-10-9-19c10-12,22-12,37-15c30,11,51,22,79,37
				c-8,13-14,21-23,32c-1,3-4,4-7,4C3575,1846,3571,1842,3571,1838z"/>
			<path fill="#5F605E" d="M3571,1838c0-3,2-7,5-8c3-1,7-1,9,2c2,2,3,6,1,9c-1,3-4,4-7,4C3575,1846,3571,1842,3571,1838L3571,1838z"
				/>
			<path fill="#FECD1E" d="M3158,825c18,4,61,37,79,47c23,12,19,26,11,47C3211,916,3135,872,3158,825z"/>
			<path fill="#FECD1E" d="M2903,241c18-19,23-28,50-12c19,11,37,24,54,39c3,14-10,31-23,29C2958,277,2928,263,2903,241z"/>
			<path fill="#F78E0A" d="M3007,267c3,14-10,31-23,29C2990,286,2999,276,3007,267z"/>
			<path fill="#FECD1E" d="M3487,2313c1,0,5,2,7,3c15,17,22,53,24,76c-3,6-4,9-8,15c-6,4-4,3-12,1c-4,0-17-1-18-5c-8-21-14-47-21-69
				C3469,2321,3472,2318,3487,2313z"/>
			<path fill="#FECD1E" d="M3686,2110c8,0,13,2,20,5l-4,22c-23,16-37,21-64,31c-4,1-4,1-8-1c-5-7-10-26-13-36
				C3629,2127,3671,2115,3686,2110L3686,2110z"/>
			<path fill="#FECD1E" d="M3276,335c14,3,21,4,31,15c14,13,30,37,30,56c-2,6-1,4-9,7l-25,9c-8-26-22-42-31-66
				C3269,345,3272,342,3276,335L3276,335z"/>
			<path fill="#FEB20F" d="M3609,1809c10,6,39,18,39,30c1,12-5,36-18,40c-17-15-35-21-51-34c3,0,6-2,7-4
				C3595,1829,3601,1822,3609,1809z"/>
			<path fill="#F78E0A" d="M3648,1839c1,12-5,36-18,40C3634,1861,3638,1855,3648,1839z"/>
			<path fill="#FECD1E" d="M3356,813c-9-6-53-18-39-36c13-4,43,8,57,13c3,10,2,20-8,26C3359,816,3362,817,3356,813z"/>
			<path fill="#F78E0A" d="M3374,790c3,10,2,20-8,26c-7,0-4,0-10-3C3361,806,3368,797,3374,790z"/>
			<path fill="#FECD1E" d="M3100,2275c21,2,27,41,19,54C3101,2324,3091,2291,3100,2275z"/>
			<path fill="#FECD1E" d="M3321,524c5,0,8-1,11,2c4,12,1,42-10,49c-4,0-8,0-13,1C3307,567,3317,532,3321,524z"/>
			<path fill="#FECD1E" d="M3422,691c-3-7-4-5-3-11c12-6,31,10,39,19c2,5,3,8,1,13C3447,718,3428,701,3422,691L3422,691z"/>
			<path fill="#F78E0A" d="M3422,691c11,6,26,19,36,8c2,5,3,8,1,13C3447,718,3428,701,3422,691z"/>
			<path fill="#FECD1E" d="M3616,498c12,10,22,14,36,21c11,6,10,8,6,18c-16-5-39-12-46-27C3611,503,3611,505,3616,498z"/>
			<path fill="#FFE589" d="M2933,1929c17,1,28,21,22,37C2938,1964,2927,1945,2933,1929z"/>
			<path fill="#FB990A" d="M3845,847c12,0,21,12,26,23c3,6,1,8-2,13C3855,882,3840,862,3845,847z"/>
			<path fill="#FECD1E" d="M3608,2356c6,4,5,2,8,8c-1,12-14,23-22,32c-4-2-4-3-7-5C3586,2380,3600,2366,3608,2356z"/>
			<path fill="#FECD1E" d="M2880,1818c7,1,21,11,26,16s4,7,3,13C2890,1848,2876,1839,2880,1818z"/>
			<path fill="#FEE359" d="M2759,1713c7-1,13,3,15,10c1,7-3,13-10,15c-4,1-9-1-12-4c-3-3-4-8-2-13C2750,1717,2754,1714,2759,1713z"
				/>
			<path fill="#97CDDB" d="M3872,1491c4-2,9-1,13,1c4,3,6,7,5,12s-4,8-8,10c-6,3-14,0-16-7C3863,1501,3866,1494,3872,1491L3872,1491
				z"/>
			<path fill="#97CDDB" d="M2707,1471c4-2,9-2,13,1c4,3,6,7,5,12s-4,8-8,10c-6,2-13,0-16-6C2699,1481,2701,1474,2707,1471L2707,1471
				z"/>
			<path fill="#FFE589" d="M3679,1982c4-2,9-2,13,0c4,3,6,7,6,11c0,5-3,9-8,10c-6,2-13,0-16-6C3671,1993,3673,1986,3679,1982z"/>
			<path fill="#FEE359" d="M3624,2242c6-2,13,1,15,7c2,6,0,13-6,16c-4,2-9,2-13-1s-5-7-5-12C3616,2247,3619,2243,3624,2242
				L3624,2242z"/>
			<path fill="#FECD1E" d="M2497,1439c4-2,8-2,12,0c4,2,6,6,6,11c0,4-3,8-7,10c-6,3-13,1-16-5S2491,1442,2497,1439z"/>
			<path fill="#FFE589" d="M2952,2091c6-3,13-1,16,5c3,6,1,13-4,16c-4,2-8,2-12,0c-4-2-6-6-6-11C2946,2097,2948,2093,2952,2091z"/>
			<path fill="#FB990A" d="M3488,424c5-4,13-2,16,3c4,5,2,13-3,16c-5,4-13,2-16-3C3481,435,3483,427,3488,424z"/>
			<path fill="#C23331" d="M3505,2063c-2-8-7-20,0-27c10,5,13,19,14,29L3505,2063z"/>
			<path fill="#FEE359" d="M3044,2199c7,0,17-1,22,4c-1,5-1,4-6,8c-9,0-17,1-24-5v-3C3038,2201,3041,2201,3044,2199z"/>
			<path fill="#FEE359" d="M3084,875c7,0,14-1,19,3c2,7,2,4-1,13c-7,0-13,0-18-4C3082,880,3083,883,3084,875z"/>
			<path fill="#F78E0A" d="M3928,2024c6,2,7,3,8,9c-1,7-5,12-10,18c-6-2-6-2-8-7C3920,2036,3924,2030,3928,2024L3928,2024z"/>
			<path fill="#FECD1E" d="M3546,2305c15-1,23,7,22,22h-5C3554,2323,3551,2314,3546,2305z"/>
			<path fill="#97CDDB" d="M4001,1572c5-1,10,1,11,6c2,5-1,10-6,12c-3,1-7,1-9-2c-3-2-4-6-3-9C3996,1576,3998,1573,4001,1572
				L4001,1572z"/>
			<path fill="#FEE359" d="M2946,2192c16,1,13,14,10,26c-7-2-5,0-10-5C2944,2205,2945,2200,2946,2192z"/>
			<path fill="#FEE359" d="M2584,1637c13,4,21,4,18,19c-7-2-14-3-19-8C2582,1641,2582,1644,2584,1637z"/>
			<path fill="#FECD1E" d="M4149,1333c3-2,7-1,9,1c3,2,4,5,4,8c0,3-3,6-6,7c-4,2-9-1-11-5C4144,1340,4145,1335,4149,1333L4149,1333z
				"/>
			<path fill="#97CDDB" d="M2494,1202c4-2,9,0,11,4s1,9-3,11c-3,2-6,2-9,0c-3-2-5-5-4-8C2488,1206,2491,1203,2494,1202L2494,1202z"
				/>
			<path fill="#FFE589" d="M2860,1998c4-3,9-2,12,2c3,4,2,9-1,12c-2,2-6,3-9,1c-3-1-5-4-5-7C2856,2003,2857,2000,2860,1998
				L2860,1998z"/>
			<path fill="#FECD1E" d="M3959,719c11,3,25,5,27,17C3976,735,3958,733,3959,719z"/>
			<path fill="#FECD1E" d="M3991,1781c8,2,8,2,12,7c1,7-1,9-4,15c-5-1-6-2-9-6C3987,1791,3989,1788,3991,1781z"/>
			<path fill="#FEE359" d="M2653,1361c11,4,19,9,14,21c-8-3-15-7-18-16L2653,1361z"/>
			<path fill="#FFE589" d="M2794,1858c7,0,11-1,17,1c4,6,3,3,2,12c-7,0-10,1-16-1C2793,1864,2794,1866,2794,1858z"/>
			<path fill="#F78E0A" d="M4044,1840c5,2,5,2,7,6c0,6-5,10-9,15c-6-2-6-1-8-6C4035,1849,4040,1845,4044,1840z"/>
			<path fill="#FFE589" d="M4092,759c3-2,6-1,9,0c3,2,4,5,4,8c0,3-2,6-5,7c-4,2-9,0-10-4C4087,766,4089,761,4092,759z"/>
			<path fill="#FFE589" d="M3928,1918c7,1,9,0,14,5c2,7,2,4,1,12c-7-1-8-1-14-5C3925,1923,3926,1926,3928,1918z"/>
			<path fill="#FECD1E" d="M3896,1581c7,1,8,1,13,5c2,6,1,4-2,10c-7-1-10,0-16-4C3893,1586,3893,1588,3896,1581L3896,1581z"/>
			<path fill="#F78E0A" d="M4023,1417c7,1,6,0,10,4c0,6-2,8-6,14c-5-1-5-1-9-4C4018,1424,4019,1424,4023,1417L4023,1417z"/>
			<path fill="#FFE589" d="M3717,1901c2-2,5-2,8-1s4,4,5,7c0,3-1,6-4,7c-4,2-8,1-11-2C3713,1909,3713,1904,3717,1901z"/>
			<path fill="#FEE359" d="M2538,803c4-1,8,0,10,4c2,4,0,8-3,10c-3,1-6,1-8,0c-2-2-4-4-4-7C2533,806,2535,804,2538,803z"/>
			<path fill="#FB990A" d="M2925,873c2-1,5-1,7,1c2,2,3,4,3,7s-2,5-5,6c-4,2-8,0-10-4C2919,879,2921,875,2925,873z"/>
			<path fill="#FEE359" d="M4052,1050c3-1,7,0,9,4c1,3,0,7-3,9c-2,1-5,1-7-1c-2-2-3-4-3-6C4048,1053,4049,1051,4052,1050L4052,1050z
				"/>
			<path fill="#FEE359" d="M3866,652c3-2,7-1,9,2c2,3,1,7-2,9c-2,1-5,2-7,1c-2-1-4-3-4-6C3862,656,3864,654,3866,652z"/>
			<path fill="#F78E0A" d="M3394,353c7-1,12-2,18,3v5c-4,0-8,0-12,0C3394,358,3396,360,3394,353L3394,353z"/>
			<path fill="#FECD1E" d="M3881,1982c3,1,2,1,5,3c2,7,1,13-1,20l-4-2C3880,1996,3881,1990,3881,1982L3881,1982z"/>
			<path fill="#F78E0A" d="M2694,1569c10,3,13,9,17,18C2700,1585,2697,1578,2694,1569z"/>
			<path fill="#FEB20F" d="M3828,1906c9,1,14,2,19,9C3837,1915,3830,1917,3828,1906z"/>
			<path fill="#FEB20F" d="M3695,2183c1,1,3,2,4,3c0,5-3,9-6,14l-4-3C3689,2190,3691,2189,3695,2183L3695,2183z"/>
		</g>
	</g>
</g>
</svg>
