<?xml version="1.0" encoding="utf-8"?>
<!-- Generator: Adobe Illustrator 27.9.0, SVG Export Plug-In . SVG Version: 6.00 Build 0)  -->
<svg version="1.1" id="svg" xmlns="http://www.w3.org/2000/svg" xmlns:xlink="http://www.w3.org/1999/xlink" x="0px" y="0px"
	 viewBox="0 0 7222.5 3000" enable-background="new 0 0 7222.5 3000" xml:space="preserve">
<g>
	<g>
		<defs>
			<rect id="SVGID_1_" width="7222.5" height="3000"/>
		</defs>
		<clipPath id="SVGID_00000012455134189654362130000002766373911621929093_">
			<use xlink:href="#SVGID_1_"  overflow="visible"/>
		</clipPath>
		<g clip-path="url(#SVGID_00000012455134189654362130000002766373911621929093_)">
			<path fill="#FFFFFE" d="M0,0h7222.5v3000H0V0z"/>
			<path fill="#FFFFFE" d="M889.5,529.5c57,7.5,91.5,58.5,127.5,102l3,4.5c7.5,12,15,22.5,24,34.5c10.5,3,13.5,3,25.5,3
				c10.5-6,6-3,12-13.5l-6-18c-6-12-6-31.5-4.5-45c16.5,18,63,61.5,75,76.5c45,55.5,84,93,139.5,139.5c34.5,28.5,90,24,114,58.5
				c10.5,16.5,73.5,34.5,97.5,42c6,1.5,18,3,22.5,7.5l33-12c4.5-4.5,13.5-24,16.5-30c30-54,49.5-84,102-118.5
				c75-40.5,94.5,30,111,88.5c10.5,39,34.5,105,0,136.5c-24,10.5-69,9-97.5,10.5c-1.5,6-6,13.5-1.5,18c22.5,27,55.5,58.5,81,82.5
				c72,70.5,142.5,142.5,213,216c24,25.5,81,84,97.5,111c12,10.5,24,10.5,36,18c18,10.5,34.5,24,49.5,37.5
				c37.5,31.5,42,61.5,1.5,94.5c-24,10.5-52.5,42-79.5,58.5c-7.5,9-6,3-6,15l3,3l18,19.5c-16.5,25.5-25.5,51-36,79.5l-9-3
				c-1.5,12-3,24-4.5,36l4.5,3c-4.5,18-18,163.5-19.5,165c-10.5,19.5-21,73.5-31.5,99c-43.5,118.5-139.5,184.5-255,220.5
				c-160.5,51-325.5,94.5-489,142.5c18,27,58.5,91.5,10.5,112.5c-60,27-127.5,54-190.5,72c-10.5,3-57-6-75-4.5
				c0,99-33,186-103.5,258c-69,69-162,108-259.5,106.5c-114,0-222-52.5-291-144c-51-58.5-69-133.5-76.5-210
				c-28.5,9-112.5,39-138,37.5C84,2613,144,2367,159,2317.5c-7.5-1.5-24-3-33-4.5c-3,0-6,0-9,0c-36-3-46.5-48-19.5-64.5
				c6-10.5,4.5-39,3-52.5c4.5-39,34.5-43.5,66-54c22.5-7.5,67.5-25.5,90-28.5c18-15,82.5-102,99-124.5c-10.5-34.5-22.5-34.5-36-66
				c-13.5-1.5-21-3-27-16.5c4.5-12,3-9,15-18c-9-30-21-61.5-31.5-90c-27-84-28.5-84,55.5-91.5c130.5-12,261-48,385.5-87
				c-24-25.5-27-58.5-19.5-91.5c-1.5-3,0-1.5-3-4.5c-33-43.5-42-66-51-117c0-16.5,0-33-1.5-49.5c-7.5-3-25.5-10.5-24-21
				c12-207,51-418.5,96-619.5c6-30,51-85.5,69-109.5l12-22.5C816,559.5,858,541.5,889.5,529.5L889.5,529.5z"/>
			<path fill="#FB2007" d="M256.5,2130c99-109.5,178.5-154.5,325.5-187.5c112.5-25.5,265.5-27,357,58.5c61.5,64.5,123,204,124.5,297
				c3,84-49.5,64.5-108,88.5c25.5,12,66,31.5,84,54c37.5,31.5,168-18,217.5-28.5c18,27,58.5,91.5,10.5,112.5
				c-60,27-127.5,54-190.5,72c-10.5,3-57-6-75-4.5c0,99-33,186-103.5,258c-69,69-162,108-259.5,106.5c-114,0-222-52.5-291-144
				c-51-58.5-69-133.5-76.5-210c-28.5,9-112.5,39-138,37.5C84,2613,144,2367,159,2317.5c-7.5-1.5-24-3-33-4.5c-3,0-6,0-9,0
				c-36-3-46.5-48-19.5-64.5c6-10.5,4.5-39,3-52.5c4.5-39,34.5-43.5,66-54c22.5-7.5,67.5-25.5,90-28.5V2130z"/>
			<path fill="#1F272A" d="M955.5,2385c25.5,12,66,31.5,84,54c37.5,31.5,168-18,217.5-28.5c18,27,58.5,91.5,10.5,112.5
				c-60,27-127.5,54-190.5,72c-10.5,3-57-6-75-4.5c0,99-33,186-103.5,258c-69,69-162,108-259.5,106.5c-114,0-222-52.5-291-144
				c-51-58.5-69-133.5-76.5-210c16.5-7.5,61.5-21,81-27c67.5-22.5,136.5-45,204-66C688.5,2466,819,2419.5,955.5,2385L955.5,2385z"/>
			<path fill="#374044" d="M927,2596.5c22.5-4.5,51-4.5,73.5-4.5c0,99-33,186-103.5,258c-69,69-162,108-259.5,106.5
				c-114,0-222-52.5-291-144c6-16.5-4.5-22.5-1.5-42c9-10.5,27-18,39-24c12,12,24,30,36,43.5c42,46.5,97.5,76.5,159,88.5
				c78,15,160.5-1.5,226.5-46.5C900,2764.5,909,2695.5,927,2596.5L927,2596.5z"/>
			<path fill="#E71800" d="M757.5,2539.5c25.5-3,73.5-19.5,94.5-16.5c15,4.5,22.5,6,37.5,7.5c16.5,58.5,19.5,124.5-12,180
				c-25.5,61.5-72,108-135,135c-69,28.5-147,28.5-214.5,0c-45-19.5-85.5-51-115.5-90c9-4.5,21-10.5,30-15v-1.5l-10.5-16.5l-4.5-3
				c-10.5,1.5-22.5,4.5-33,6c-18-33-24-54-34.5-88.5c16.5,3,22.5,3,39,1.5c33-3,52.5-6,84-16.5l18-6c13.5-3,28.5-6,42-10.5
				c3,10.5,6,24,9,34.5c4.5,7.5,22.5,33,25.5,39c6,4.5,15,12,21,15c36,3,49.5,6,84-6c21-18,27-24,37.5-49.5l3-22.5
				c0-25.5-3-36-7.5-60L757.5,2539.5z"/>
			<path fill="#CC0A00" d="M757.5,2539.5c25.5-3,73.5-19.5,94.5-16.5c15,4.5,22.5,6,37.5,7.5c16.5,58.5,19.5,124.5-12,180
				c-15,4.5-28.5,10.5-43.5,16.5c-4.5,4.5-12,12-15,18c-67.5,18-91.5,31.5-162,9c10.5-1.5,19.5-3,27-9c-9,1.5-10.5,0-19.5,1.5
				c6-3,6-3,10.5-7.5c-13.5,0-18,0-31.5-3l-4.5-1.5c-13.5-10.5-30-27-43.5-39l1.5-3c36,3,49.5,6,84-6c21-18,27-24,37.5-49.5l3-22.5
				c0-25.5-3-36-7.5-60L757.5,2539.5z"/>
			<path fill="#990400" d="M757.5,2539.5c25.5-3,73.5-19.5,94.5-16.5l4.5,19.5c-33,18-69,39-73.5,79.5v4.5c-9,0-9,0-18-3v-3
				c-13.5,6-31.5,12-45,13.5l3-22.5c0-25.5-3-36-7.5-60L757.5,2539.5z"/>
			<path fill="#796762" d="M715.5,2554.5l42-15c6,22.5,9,31.5,10.5,55.5c0,9-1.5,19.5-4.5,27c-13.5,6-31.5,12-45,13.5l3-22.5
				C723,2589,720,2578.5,715.5,2554.5L715.5,2554.5z"/>
			<path fill="#374044" d="M723,2614.5c10.5-3,24-13.5,46.5-19.5c0,9-1.5,19.5-4.5,27c-13.5,6-31.5,12-45,13.5L723,2614.5z"/>
			<path fill="#F69164" d="M853.5,2523c15,4.5,22.5,6,37.5,7.5c16.5,58.5,19.5,124.5-12,180c-15,4.5-28.5,10.5-43.5,16.5
				c30-70.5,40.5-108,22.5-183L853.5,2523z"/>
			<path fill="#F69164" d="M720,2635.5c15-1.5,31.5-9,45-13.5v3c-4.5,34.5-21,60-48,81c-1.5,1.5-4.5,3-6,4.5
				c-10.5-12-16.5-16.5-30-25.5C703.5,2667,709.5,2661,720,2635.5L720,2635.5z"/>
			<path fill="#796762" d="M598.5,2691c36,3,49.5,6,84-6c12,9,19.5,13.5,30,25.5c-25.5,15-37.5,18-66,24l-4.5-1.5
				c-13.5-10.5-30-27-43.5-39V2691z"/>
			<path fill="#990400" d="M765,2625c9,3,7.5,3,18,3c-6,37.5-25.5,72-57,96c-12,9-27,16.5-40.5,21c-9,1.5-10.5,0-19.5,1.5
				c6-3,6-3,10.5-7.5c-13.5,0-18,0-31.5-3c28.5-6,40.5-9,66-24c3-1.5,4.5-3,6-4.5C745.5,2685,762,2659.5,765,2625L765,2625z"/>
			<path fill="#AF0600" d="M543,2602.5c3,10.5,6,24,9,34.5c4.5,7.5,22.5,33,25.5,39c6,4.5,15,12,21,15l-1.5,3c13.5,12,30,27,43.5,39
				l4.5,1.5c15,3,18,3,31.5,3c-4.5,4.5-4.5,4.5-10.5,7.5c9-3,10.5,0,19.5-1.5c-7.5,7.5-16.5,7.5-27,9c-45,0-82.5-9-118.5-34.5
				c-18,3-81,13.5-97.5,19.5L432,2721l-4.5-3c-10.5,1.5-22.5,4.5-33,6c-18-33-24-54-34.5-88.5c16.5,3,22.5,3,39,1.5
				c33-3,52.5-6,84-16.5l18-6C514.5,2610,529.5,2607,543,2602.5L543,2602.5z"/>
			<path fill="#374044" d="M543,2602.5c3,10.5,6,24,9,34.5c4.5,7.5,22.5,33,25.5,39c6,4.5,15,12,21,15l-1.5,3c-10.5,6-24,12-34.5,18
				c-4.5-4.5-6-4.5-12-7.5L534,2688c-12-10.5-15-18-24-33l-10.5-43.5C514.5,2610,529.5,2607,543,2602.5L543,2602.5z"/>
			<path fill="#796762" d="M543,2602.5c3,10.5,6,24,9,34.5c-13.5,7.5-25.5,15-40.5,18l-10.5-43.5C514.5,2610,529.5,2607,543,2602.5
				L543,2602.5z"/>
			<path fill="#F69164" d="M577.5,2676c6,4.5,15,12,21,15l-1.5,3c-10.5,6-24,12-34.5,18c-4.5-4.5-6-4.5-12-7.5L534,2688
				C552,2685,559.5,2683.5,577.5,2676L577.5,2676z"/>
			<path fill="#FA7A48" d="M360,2634c16.5,3,22.5,3,39,1.5c6,33,13.5,51,28.5,81c-10.5,1.5-22.5,4.5-33,6
				C375,2691,369,2668.5,360,2634L360,2634z"/>
			<path fill="#CC0A00" d="M432,2719.5c27-9,85.5-25.5,108-1.5c-18,3-81,13.5-97.5,19.5L432,2719.5z"/>
			<path fill="#990400" d="M483,2619l18-6l10.5,43.5c7.5,15,12,21,24,33L552,2706l-9,1.5C495,2698.5,499.5,2635.5,483,2619z"/>
			<path fill="#FEDFC0" d="M597,2694c13.5,12,30,27,43.5,39c-34.5,1.5-49.5-1.5-78-19.5C573,2707.5,586.5,2700,597,2694L597,2694z"
				/>
			<path fill="#FEB872" d="M835.5,2727c15-6,28.5-13.5,43.5-16.5c-25.5,61.5-72,108-135,135c-69,28.5-147,28.5-214.5,0
				c-45-19.5-85.5-51-115.5-90c9-4.5,21-10.5,30-15c115.5,117,262.5,133.5,376.5,6C823.5,2739,831,2731.5,835.5,2727z"/>
			<path fill="#374044" d="M781.5,2460c90-4.5,214.5,58.5,307.5,54c33-1.5,115.5-40.5,139.5-27c10.5,16.5-1.5,27-15,36
				c-147,99-225,3-378-28.5c-97.5-9-171,36-262.5,61.5c-61.5,18-139.5,43.5-202.5,57c63-33,148.5-63,214.5-87
				C643.5,2503.5,724.5,2473.5,781.5,2460z"/>
			<path fill="#F69164" d="M426,2716.5l4.5,3L441,2736v1.5c-9,4.5-21,9-30,15c-7.5-9-13.5-21-19.5-30
				C403.5,2721,415.5,2718,426,2716.5z"/>
			<path fill="#E71800" d="M165,2142c22.5-7.5,67.5-25.5,90-28.5l1.5,16.5c-19.5,22.5-34.5,51-49.5,69l-6,7.5
				c-10.5,19.5-42,88.5-43.5,111c-7.5-1.5-24-3-33-4.5c-3,0-6,0-9,0c-36-3-46.5-48-19.5-64.5c6-10.5,4.5-39,3-52.5
				C103.5,2157,133.5,2154,165,2142L165,2142z"/>
			<path fill="#E71800" d="M165,2142c22.5-7.5,67.5-25.5,90-28.5l1.5,16.5c-19.5,22.5-34.5,51-49.5,69l-6,7.5h-15h-31.5
				c-22.5,1.5-42,10.5-55.5-9C103.5,2157,133.5,2154,165,2142L165,2142z"/>
			<path fill="#FB2007" d="M99,2196c4.5-39,34.5-43.5,66-54c-4.5,16.5-13.5,45-10.5,61.5v1.5C133.5,2208,112.5,2215.5,99,2196z"/>
			<path fill="#CC0A00" d="M165,2142c22.5-7.5,67.5-25.5,90-28.5l1.5,16.5c-19.5,22.5-34.5,51-49.5,69c4.5-19.5,10.5-43.5,16.5-61.5
				c-58.5,15-49.5,19.5-67.5,66C153,2187,162,2160,165,2142z"/>
			<path fill="#FA7A48" d="M99,2196c13.5,19.5,33,12,55.5,9H186c-15,45-39,31.5-75,42H96C102,2238,100.5,2209.5,99,2196z"/>
			<path fill="#CC0A00" d="M124.5,2313c-3,0-6,0-9,0c-36-3-46.5-48-19.5-64.5h15C118.5,2272.5,123,2287.5,124.5,2313z"/>
			<path fill="#540200" d="M709.5,2218.5c4.5,0,9,1.5,13.5,4.5v6c-19.5,19.5-201,73.5-241.5,85.5c-6,0-7.5,0-13.5-1.5l-3-4.5
				C478.5,2292,672,2235,709.5,2218.5z"/>
			<path fill="#230101" d="M709.5,2298c9,0,9,0,16.5,3l1.5,6c-9,9-213,75-240,84c-10.5,3-6,3-16.5,0l-1.5-4.5
				C484.5,2368.5,672,2311.5,709.5,2298z"/>
			
				<linearGradient id="SVGID_00000010999640649591795850000004704267863960775340_" gradientUnits="userSpaceOnUse" x1="601.4257" y1="3238.9351" x2="616.6177" y2="3271.5093" gradientTransform="matrix(1 0 0 1 0 -878)">
				<stop  offset="0" style="stop-color:#1F0302"/>
				<stop  offset="1" style="stop-color:#3A0403"/>
			</linearGradient>
			<path fill="url(#SVGID_00000010999640649591795850000004704267863960775340_)" d="M726,2331c7.5,4.5,4.5,1.5,10.5,9l-1.5,4.5
				c-19.5,10.5-63,22.5-87,31.5c-51,18-102,34.5-153,51l-9-3l-1.5-4.5C493.5,2403,693,2341.5,726,2331L726,2331z"/>
			<path fill="#540200" d="M735,2368.5c10.5-1.5,16.5-1.5,24,4.5c-10.5,13.5-192,66-225,76.5c-10.5,3-13.5,3-21-4.5l1.5-4.5
				C534,2430,706.5,2376,735,2368.5L735,2368.5z"/>
			<path fill="#230101" d="M715.5,2259c4.5,4.5,3,1.5,4.5,10.5c-15,15-211.5,75-247.5,87l-6-4.5v-6
				C484.5,2331,678,2272.5,715.5,2259z"/>
			<path fill="#FE391E" d="M738,1990.5c283.5-6,313.5,370.5,213,376.5l-1.5-1.5c31.5-13.5,37.5-18,43.5-55.5
				c10.5-55.5,0-114-22.5-165c-3-6-36-28.5-39-36c-7.5-12-27-52.5-34.5-60C858,2007,792,1998,738,1990.5L738,1990.5z"/>
			<path fill="#E71800" d="M889.5,529.5c57,7.5,91.5,58.5,127.5,102l3,4.5c7.5,12,15,22.5,24,34.5c10.5,3,13.5,3,25.5,3
				c10.5-6,6-3,12-13.5l-6-18c-6-12-6-31.5-4.5-45c16.5,18,63,61.5,75,76.5c45,55.5,84,93,139.5,139.5c34.5,28.5,90,24,114,58.5
				c10.5,16.5,73.5,34.5,97.5,42c6,1.5,18,3,22.5,7.5c10.5,6,19.5,9,28.5,16.5l16.5,19.5l9,37.5c-10.5,40.5-24,43.5-61.5,58.5
				c-21,6-25.5,7.5-48,3c-34.5,7.5-48,1.5-64.5-27c-34.5-3-163.5,19.5-202.5,27c-1.5,1.5-4.5,4.5-6,6c-9-9-67.5,0-82.5,1.5
				c-13.5,0-28.5-1.5-42-1.5c-6,1.5-16.5,3-18,7.5c-9,25.5-10.5,87-9,112.5c-7.5,39-13.5,57-48,79.5l-1.5,6c43.5,3,241.5,6,267,16.5
				l4.5,6c-6,12-9,18-13.5,30l-4.5,6c-6,24-13.5,48-18,72c-1.5,13.5-3,27-6,40.5c-1.5,31.5,1.5,87-1.5,114l-13.5,3
				c-18,3-37.5,6-54,10.5c-88.5,13.5-156,19.5-246,21c-63,15-124.5,22.5-189,34.5c-24-25.5-27-58.5-19.5-91.5c-1.5-3,0-1.5-3-4.5
				c-33-43.5-42-66-51-117c0-16.5,0-33-1.5-49.5c-7.5-3-25.5-10.5-24-21c12-207,51-418.5,96-619.5c6-30,51-85.5,69-109.5l13.5-24
				C816,559.5,858,541.5,889.5,529.5L889.5,529.5z"/>
			
				<linearGradient id="SVGID_00000072281186225533311580000005459145628923253431_" gradientUnits="userSpaceOnUse" x1="1569.6674" y1="1852.7648" x2="1111.0408" y2="1721.9943" gradientTransform="matrix(1 0 0 1 0 -878)">
				<stop  offset="0" style="stop-color:#FF9F60"/>
				<stop  offset="1" style="stop-color:#FFBC81"/>
			</linearGradient>
			<path fill="url(#SVGID_00000072281186225533311580000005459145628923253431_)" d="M1069.5,597c16.5,18,63,61.5,75,76.5
				c45,55.5,84,93,139.5,139.5c34.5,28.5,90,24,114,58.5c10.5,16.5,73.5,34.5,97.5,42c6,1.5,18,3,22.5,7.5c10.5,6,19.5,9,28.5,16.5
				L1563,957l9,37.5c-10.5,40.5-24,43.5-61.5,58.5c-21,6-25.5,7.5-48,3c-34.5,7.5-48,1.5-64.5-27c-34.5-3-163.5,19.5-202.5,27
				c-1.5,1.5-4.5,4.5-6,6c-9-9-67.5,0-82.5,1.5c-13.5,0-28.5-1.5-42-1.5c-12-1.5-18,0-28.5-4.5c-19.5-30,21-96,39-123
				c-10.5,6-13.5,7.5-21,16.5l-16.5-1.5c19.5-21,31.5-28.5,52.5-46.5c12-9,9-16.5,10.5-30c4.5,7.5,10.5,15,15,22.5h3l1.5-13.5
				l-1.5-6c-1.5-13.5-3-28.5-3-42c-1.5-7.5-6-22.5-9-30c-21-52.5-36-81-66-130.5c10.5,3,13.5,3,25.5,3c10.5-6,6-3,12-13.5l-6-18
				C1068,630,1068,610.5,1069.5,597L1069.5,597z"/>
			<path fill="#FB2007" d="M1069.5,597c16.5,18,63,61.5,75,76.5c45,55.5,84,93,139.5,139.5c34.5,28.5,90,24,114,58.5l-3,7.5
				c-9,12-18,30-22.5,34.5c1.5,1.5-66,0-70.5,0c-4.5,6-7.5,15-13.5,18c-33-4.5-60-10.5-93-16.5c-10.5-1.5-19.5-3-30-4.5
				c-21-3-51-9-69,3c-6,6-13.5,12-19.5,18c-10.5,6-13.5,7.5-21,16.5l-16.5-1.5c19.5-21,31.5-28.5,52.5-46.5c12-9,9-16.5,10.5-30
				c4.5,7.5,10.5,15,15,22.5h3l1.5-13.5l-1.5-6c-1.5-13.5-3-28.5-3-42c-1.5-7.5-6-22.5-9-30c-21-52.5-36-81-66-130.5
				c10.5,3,13.5,3,25.5,3c10.5-6,6-3,12-13.5l-6-18C1068,630,1068,610.5,1069.5,597L1069.5,597z"/>
			
				<linearGradient id="SVGID_00000049914474073767226640000017616014803392976798_" gradientUnits="userSpaceOnUse" x1="1173.8906" y1="1758.7902" x2="1261.9406" y2="1671.9896" gradientTransform="matrix(1 0 0 1 0 -878)">
				<stop  offset="0" style="stop-color:#B70600"/>
				<stop  offset="1" style="stop-color:#E10A00"/>
			</linearGradient>
			<path fill="url(#SVGID_00000049914474073767226640000017616014803392976798_)" d="M1159.5,730.5l1.5,1.5c31.5,27,54,63,82.5,94.5
				c22.5,15,25.5,31.5,57,37.5c7.5-10.5,7.5-15,19.5-19.5l4.5,3c0,21-13.5,48-22.5,66c-4.5,6-7.5,15-13.5,18
				c-33-4.5-60-10.5-93-16.5c-4.5-57-22.5-81-36-135C1158,774,1159.5,739.5,1159.5,730.5L1159.5,730.5z"/>
			<path fill="#E71800" d="M1243.5,826.5c22.5,15,25.5,31.5,57,37.5c-10.5,13.5-15,21-31.5,25.5c0-7.5,4.5-18,4.5-19.5
				C1270.5,852,1252.5,847.5,1243.5,826.5z"/>
			<path fill="#FEB872" d="M1080,660c18,37.5,31.5,96,39,138c-3,0-7.5,1.5-10.5,3c-21-52.5-36-81-66-130.5c10.5,3,13.5,3,25.5,3
				C1077,667.5,1074,670.5,1080,660L1080,660z"/>
			<path fill="#FE391E" d="M1116,829.5l7.5,1.5c1.5,12,6,37.5-3,46.5l-1.5-6C1119,858,1117.5,844.5,1116,829.5z"/>
			<path fill="#FEDFC0" d="M1108.5,801c3-1.5,7.5-1.5,10.5-3l4.5,33l-7.5-1.5C1116,823.5,1110,808.5,1108.5,801z"/>
			<path fill="#F69164" d="M1077,931.5c6-6,13.5-12,19.5-18c-10.5,22.5-27,48-24,72C1107,1038,1350,996,1407,987
				c-7.5,16.5-7.5,21-9,39c-34.5-3-163.5,19.5-202.5,27c-1.5,1.5-4.5,4.5-6,6c-9-9-67.5,0-82.5,1.5c-13.5,0-28.5-1.5-42-1.5
				c-12-1.5-18,0-28.5-4.5C1018.5,1024.5,1059,958.5,1077,931.5L1077,931.5z"/>
			<path fill="#E71800" d="M1407,987c64.5-39,102,30,55.5,67.5c-34.5,7.5-48,1.5-64.5-27C1399.5,1006.5,1399.5,1003.5,1407,987
				L1407,987z"/>
			<path fill="#FA7A48" d="M1398,870c10.5,16.5,73.5,34.5,97.5,42c-10.5,9-21,6-36,6l16.5,4.5v3c-22.5,16.5-90,21-115.5,16.5l12-30
				c4.5-4.5,13.5-22.5,22.5-34.5L1398,870z"/>
			<path fill="#FEA96A" d="M1398,870c10.5,16.5,73.5,34.5,97.5,42c-10.5,9-21,6-36,6c-22.5-3-58.5-15-63-40.5L1398,870z"/>
			<path fill="#E71800" d="M1288.5,931.5c6-4.5,9-12,13.5-18c6,0,72,1.5,70.5,0l-12,30C1338,940.5,1311,936,1288.5,931.5z"/>
			<path fill="#FB2007" d="M889.5,529.5c57,7.5,91.5,58.5,127.5,102l3,4.5c7.5,12,15,22.5,24,34.5c30,49.5,45,78,66,130.5
				c3,7.5,7.5,22.5,9,30c1.5,13.5,1.5,28.5,3,42l1.5,6l-1.5,13.5h-3c-4.5-7.5-9-15-15-22.5c-18-16.5-24-19.5-48-19.5
				c-3-9-4.5-10.5-10.5-19.5c-6,7.5-40.5,25.5-51,36c-30,27-60,43.5-97.5,22.5c-73.5-42-196.5-202.5-88.5-268.5c9-6,48-13.5,60-16.5
				c-45-12-60,9-84,3L795,585C816,559.5,858,541.5,889.5,529.5L889.5,529.5z"/>
			<path fill="#FB2007" d="M889.5,529.5c57,7.5,91.5,58.5,127.5,102l3,4.5c7.5,12,15,22.5,24,34.5c30,49.5,45,78,66,130.5
				c3,7.5,7.5,22.5,9,30c1.5,13.5,1.5,28.5,3,42l1.5,6l-1.5,13.5h-3c-4.5-7.5-9-15-15-22.5c-18-16.5-24-19.5-48-19.5
				c-3-9-4.5-10.5-10.5-19.5c-18-36-36-70.5-55.5-106.5c-30-54-61.5-103.5-123-120c-45-12-60,9-84,3l12-22.5
				C816,559.5,858,541.5,889.5,529.5L889.5,529.5z"/>
			<path fill="#CC0A00" d="M795,585c78-21,118.5,1.5,162,67.5c13.5,1.5,33,3,43.5,9l1.5,7.5c-6,9-7.5,10.5-18,16.5
				c67.5,73.5,99,91.5,136.5,187.5l1.5,6l-1.5,13.5h-3c-4.5-7.5-9-15-15-22.5c-18-16.5-24-19.5-48-19.5c-3-9-4.5-10.5-10.5-19.5
				c-18-36-36-70.5-55.5-106.5c-30-54-61.5-103.5-123-120c-45-12-60,9-84,3L795,585z"/>
			<path fill="#CC0A00" d="M643.5,1407c63-10.5,114-51,168-70.5c-13.5,15-45,37.5-63,49.5c30,57,30,58.5,90,36
				c-6,12-13.5,21-12,34.5c33,34.5,298.5-6,352.5-15l40.5-4.5c-1.5,31.5,1.5,87-1.5,114l-13.5,3c-18,3-37.5,6-54,10.5
				c-88.5,13.5-156,19.5-246,21c-63,15-124.5,22.5-189,34.5c-24-25.5-27-58.5-19.5-91.5c-1.5-3,0-1.5-3-4.5
				C661.5,1480.5,651,1459.5,643.5,1407L643.5,1407z"/>
			<path fill="#AF0600" d="M696,1528.5c81,55.5,124.5,43.5,207,57c-63,15-124.5,22.5-189,34.5C691.5,1594.5,688.5,1561.5,696,1528.5
				L696,1528.5z"/>
			<path fill="#CC0A00" d="M1179,1441.5l40.5-4.5c-1.5,31.5,1.5,87-1.5,114l-13.5,3c1.5-15-15-48-19.5-66
				C1180.5,1467,1180.5,1461,1179,1441.5z"/>
			<path fill="#CC0A00" d="M1039.5,1180.5c-156-9-331.5-195-313.5-354c1.5-16.5,3-63,13.5-73.5c10.5,6,27,54,39,69
				c48,63,87,115.5,147,166.5l-1.5,6c-6,54,18,55.5,61.5,75c3,0,25.5,1.5,25.5-3c9-34.5,18-91.5,43.5-118.5c9-9,10.5-10.5,21-16.5
				c-18,27-58.5,93-39,123c12,4.5,16.5,4.5,28.5,4.5c-6,1.5-16.5,3-18,7.5C1039.5,1092,1038,1153.5,1039.5,1180.5L1039.5,1180.5z"/>
			<path fill="#AF0600" d="M985.5,1069.5c-28.5,16.5-60-16.5-78-36c-66-75-130.5-148.5-159-246c25.5,45,132,186,174,207
				C916.5,1047,942,1050,985.5,1069.5z"/>
			<path fill="#FE391E" d="M988.5,1264.5c43.5,3,241.5,6,267,16.5l4.5,6c-6,12-9,18-13.5,30l-4.5,6c-75-18-168-10.5-246-24
				c-12-1.5-28.5-6-34.5-15l1.5-7.5C976.5,1264.5,970.5,1269,988.5,1264.5z"/>
			<path fill="#FE391E" d="M1053,850.5c24,0,30,3,48,19.5c-1.5,13.5,1.5,21-10.5,30c-21,18-34.5,25.5-52.5,46.5
				c-4.5,4.5-15,16.5-16.5,21c-16.5,9-28.5,15-42-1.5c-3-30,36-81,52.5-105C1038,858,1047,853.5,1053,850.5L1053,850.5z"/>
			<path fill="#990400" d="M642,1357.5c79.5,1.5,181.5-61.5,270-84c-31.5,18-66,42-100.5,61.5c-54,19.5-105,60-168,70.5
				C642,1390.5,642,1374,642,1357.5z"/>
			<path fill="#FB2007" d="M1033.5,861c-18,25.5-57,75-52.5,105c12,16.5,25.5,9,42,1.5c-10.5,19.5-12,21-27,36c-21,3-36,7.5-54-3
				C915,960,1000.5,880.5,1033.5,861z"/>
			<path fill="#FE391E" d="M832.5,1101c24,6,61.5,39,85.5,54c27,18,52.5,28.5,82.5,43.5c9,4.5,9,7.5,12,16.5
				C957,1240.5,855,1144.5,832.5,1101z"/>
			<path fill="#CC0A00" d="M1260,1287c19.5,6,58.5,6,82.5,9c33,7.5,82.5,3,103.5,40.5c15,27,15,85.5,6,114
				c-4.5,28.5-43.5,156-43.5,159h-4.5c-4.5,24-25.5,69-37.5,91.5c-46.5,96-100.5,187.5-115.5,295.5c-1.5,10.5-4.5,31.5,0,40.5
				l10.5,9l6,9l7.5,18l4.5,9l7.5,18l4.5,10.5l7.5,16.5c27,34.5,42,48,78,73.5c6,9,10.5,12,19.5,19.5l-1.5,3c9,12,10.5,15,16.5,28.5
				c-4.5,24-24,36-48,37.5c-75,4.5-124.5-16.5-181.5-63c-30,4.5-46.5,4.5-73.5,19.5c-15,31.5-22.5,76.5-34.5,111
				c-9,25.5-16.5,40.5-28.5,64.5c-3,6-6,15-7.5,21c-18-22.5-58.5-43.5-84-54c58.5-24,111-4.5,108-88.5c-1.5-91.5-63-231-124.5-297
				c-93-84-244.5-84-357-58.5c-145.5,33-225,79.5-325.5,187.5l-1.5-16.5c18-15,82.5-102,99-124.5c-10.5-34.5-22.5-34.5-36-66
				c-13.5-1.5-21-3-27-16.5c4.5-12,3-9,15-18c-9-30-21-61.5-31.5-90c-27-84-28.5-84,55.5-91.5c130.5-12,261-48,385.5-87
				c64.5-12,124.5-21,189-34.5c90-3,157.5-9,246-21c18-4.5,37.5-7.5,54-10.5l13.5-3c3-25.5,0-82.5,1.5-114c3-13.5,4.5-27,6-40.5
				c4.5-25.5,12-48,18-72l4.5-6C1251,1305,1252.5,1299,1260,1287L1260,1287z"/>
			<path fill="#1F272A" d="M904.5,1585.5c90-3,157.5-9,246-21c28.5,34.5,57,91.5,15,127.5c-4.5-4.5-13.5-15-21-13.5
				C1014,1713,879,1764,750,1803c-24,7.5-148.5,39-153,42c-4.5,15-6,22.5-16.5,36c-18,21-58.5,31.5-84,39c-57,18-97.5,30-142.5,69
				c-10.5-34.5-22.5-34.5-36-66c-13.5-1.5-21-3-27-16.5c4.5-12,3-9,15-18c-9-30-21-61.5-31.5-90c-27-84-28.5-84,55.5-91.5
				c130.5-12,261-48,385.5-87C778.5,1608,840,1599,904.5,1585.5L904.5,1585.5z"/>
			<path fill="#FEDFC0" d="M598.5,1845c-4.5,15-6,22.5-16.5,36c-18,21-58.5,31.5-84,39c-57,18-97.5,30-142.5,69
				c-10.5-34.5-22.5-34.5-36-66c-13.5-1.5-21-3-27-16.5c4.5-12,3-9,15-18c15,1.5,70.5-7.5,88.5-10.5C462,1869,529.5,1857,598.5,1845
				z"/>
			<path fill="#1F272A" d="M318,1923c33-13.5,222-36,264-43.5c-18,21-58.5,31.5-84,39c-57,18-97.5,30-142.5,69
				C343.5,1956,331.5,1956,318,1923z"/>
			<path fill="#374044" d="M792,1644c18,0,36,6,54,12c-90,51-390,130.5-493.5,133.5c-22.5,0-28.5,0-46.5-13.5
				c-6-18,21-25.5,34.5-25.5C498,1741.5,640.5,1686,792,1644L792,1644z"/>
			<path fill="#FEA96A" d="M1260,1287c19.5,6,58.5,6,82.5,9c33,7.5,82.5,3,103.5,40.5c15,27,15,85.5,6,114
				c-4.5,28.5-43.5,156-43.5,159h-4.5c-4.5,24-25.5,69-37.5,91.5c-46.5,96-100.5,187.5-115.5,295.5c-1.5,10.5-4.5,31.5,0,40.5
				c-30,10.5-54,34.5-79.5,31.5l-18-3c-27-18-30-30-36-60c12-19.5,18-31.5,21-55.5c7.5-72,21-144,25.5-216c1.5-13.5,0-27,3-40.5
				c40.5-36,13.5-94.5-15-127.5c18-4.5,37.5-7.5,54-10.5l13.5-3c3-25.5,0-82.5,1.5-114c3-13.5,4.5-27,6-40.5c4.5-25.5,12-48,18-72
				l4.5-6C1251,1305,1252.5,1299,1260,1287z"/>
			<path fill="#FA7A48" d="M1170,2067c13.5-21,0-73.5,9-94.5c25.5-66,60-139.5,94.5-201c18-31.5,100.5-154.5,129-163.5
				c-4.5,24-25.5,69-37.5,91.5c-46.5,96-100.5,187.5-115.5,295.5c-1.5,10.5-4.5,31.5,0,40.5C1221,2046,1195.5,2070,1170,2067z"/>
			<path fill="#FA7A48" d="M1224,1396.5c43.5-1.5,139.5-13.5,169.5,15c3,10.5,3,6,0,15c-6,3-43.5,16.5-43.5,18
				c-66,64.5-112.5,135-151.5,217.5c-1.5,1.5-3,4.5-4.5,9c4.5-46.5,10.5-75,24-120c3-25.5,0-82.5,1.5-114
				C1221,1423.5,1222.5,1410,1224,1396.5z"/>
			<path fill="#FEB872" d="M1260,1287c19.5,6,58.5,6,82.5,9c33,7.5,82.5,3,103.5,40.5c15,27,15,85.5,6,114c-51-12-9-114-88.5-121.5
				c-31.5-3-85.5-6-115.5-12C1251,1305,1252.5,1299,1260,1287z"/>
			<path fill="#FFFFFE" d="M1218,1551c-12,45-19.5,73.5-24,120c-6,54-30,243-57,279c7.5-72,21-144,25.5-216c1.5-13.5,0-27,3-40.5
				c40.5-36,13.5-94.5-15-127.5c18-4.5,37.5-7.5,54-10.5L1218,1551z"/>
			<path fill="#FB2007" d="M1051.5,2067c13.5-19.5,31.5-43.5,49.5-58.5c12,30,16.5,46.5,48,61.5l3-6l18,3c25.5,3,51-19.5,79.5-31.5
				l10.5,9l6,9l7.5,18l4.5,9l7.5,18l4.5,10.5l7.5,16.5c27,34.5,42,48,78,73.5c6,9,10.5,12,19.5,19.5l-1.5,3c9,12,10.5,15,16.5,28.5
				c-4.5,24-24,36-48,37.5c-75,4.5-124.5-16.5-181.5-63c-52.5-49.5-112.5-39-151.5-111L1051.5,2067z"/>
			<path fill="#FEA96A" d="M1051.5,2067c27,69,57,64.5,114,103.5c25.5,18,51,48,79.5,66c9,4.5,16.5,10.5,25.5,13.5
				c39,18,103.5,25.5,141-1.5c-4.5,24-24,36-48,37.5c-75,4.5-124.5-16.5-181.5-63c-52.5-49.5-112.5-39-151.5-111L1051.5,2067z"/>
			<path fill="#990400" d="M1296,2125.5h3c27,34.5,42,48,78,73.5c6,9,10.5,12,19.5,19.5l-1.5,3c-18-10.5-45-27-64.5-34.5
				c-4.5-1.5-19.5-1.5-31.5-4.5c-3-10.5,1.5-9,7.5-22.5l1.5-4.5c0-1.5-1.5-7.5-1.5-10.5l-9-6L1296,2125.5z"/>
			<path fill="#990400" d="M1249.5,2035.5l10.5,9c-45,30-58.5,42-112.5,24l3-6l18,3C1195.5,2070,1221,2046,1249.5,2035.5z"/>
			<path fill="#540200" d="M1287,2098.5l4.5,10.5l7.5,16.5h-3c-9,6-19.5,13.5-30,13.5l-7.5-4.5c-1.5-13.5,1.5-9-7.5-19.5
				C1260,2113.5,1276.5,2103,1287,2098.5L1287,2098.5z"/>
			<path fill="#E71800" d="M1287,2098.5l4.5,10.5c-9,6-28.5,18-33,25.5c-1.5-13.5,1.5-9-7.5-19.5
				C1260,2113.5,1276.5,2103,1287,2098.5L1287,2098.5z"/>
			<path fill="#540200" d="M1267.5,2055l7.5,18c-22.5,12-40.5,22.5-66,30C1225.5,2082,1246.5,2068.5,1267.5,2055L1267.5,2055z"/>
			<path fill="#540200" d="M1251,2116.5l-6-6c4.5-12,22.5-22.5,33-30l7.5,18C1276.5,2103,1260,2113.5,1251,2116.5L1251,2116.5z"/>
			<path fill="#540200" d="M1297.5,2140.5l9,6c0,1.5,1.5,7.5,1.5,10.5c-10.5,4.5-21,10.5-28.5,1.5
				C1282.5,2148,1288.5,2145,1297.5,2140.5z"/>
			<path fill="#E71800" d="M1669.5,759c75-40.5,94.5,30,111,88.5c10.5,39,34.5,105,0,136.5c-24,10.5-69,9-97.5,10.5
				c-1.5,6-6,13.5-1.5,18c22.5,27,55.5,58.5,81,82.5c72,70.5,142.5,142.5,213,216c24,25.5,81,84,97.5,111c12,10.5,24,10.5,36,18
				c18,10.5,34.5,24,49.5,37.5c37.5,31.5,42,61.5,1.5,94.5c-24,10.5-52.5,42-79.5,58.5c-7.5,9-6,3-6,15l3,3l18,19.5
				c-16.5,25.5-25.5,51-36,79.5l-9-3c-1.5,12-3,24-4.5,36l4.5,3c-4.5,18-18,163.5-19.5,165c-10.5,19.5-21,73.5-31.5,99
				C1956,2166,1860,2232,1744.5,2268c-160.5,51-325.5,94.5-489,142.5c-49.5,10.5-180,60-217.5,28.5c1.5-6,6-15,7.5-21
				c12-24,19.5-39,28.5-64.5c12-34.5,19.5-79.5,34.5-111c27-15,43.5-15,73.5-19.5c57,46.5,106.5,67.5,181.5,63
				c24-1.5,43.5-13.5,48-37.5c-6-13.5-9-16.5-16.5-28.5l1.5-3c-9-7.5-12-10.5-19.5-19.5c136.5-30,279-79.5,415.5-114
				c33-9,63-18,87-43.5c33-30,52.5-21,42-73.5c6-43.5,6-81,4.5-124.5l15,3c3-9,3-37.5,3-48c1.5-105-24-211.5-70.5-304.5
				c-15-28.5-36-52.5-51-81l-1.5-3c-7.5-12-18-21-28.5-30c-39-79.5-118.5-177-175.5-246c-30-19.5-45-36-70.5-61.5
				c-15-6-22.5-12-36-21c37.5-13.5,51-18,61.5-58.5l-9-37.5l-16.5-19.5c-10.5-6-18-10.5-28.5-16.5l33-12c4.5-4.5,13.5-24,16.5-30
				C1597.5,823.5,1617,793.5,1669.5,759L1669.5,759z"/>
			
				<linearGradient id="SVGID_00000150815230578285799120000014099026251193243051_" gradientUnits="userSpaceOnUse" x1="1703.2993" y1="2291.0818" x2="1953.1051" y2="2053.4541" gradientTransform="matrix(1 0 0 1 0 -878)">
				<stop  offset="0" style="stop-color:#AB0401"/>
				<stop  offset="1" style="stop-color:#E80E00"/>
			</linearGradient>
			<path fill="url(#SVGID_00000150815230578285799120000014099026251193243051_)" d="M1669.5,759c75-40.5,94.5,30,111,88.5
				c10.5,39,34.5,105,0,136.5c-24,10.5-69,9-97.5,10.5c-1.5,6-6,13.5-1.5,18c22.5,27,55.5,58.5,81,82.5c72,70.5,142.5,142.5,213,216
				c24,25.5,81,84,97.5,111c12,10.5,24,10.5,36,18c18,10.5,34.5,24,49.5,37.5c37.5,31.5,42,61.5,1.5,94.5
				c-24,10.5-52.5,42-79.5,58.5c-7.5,9-6,3-6,15l3,3l18,19.5c-16.5,25.5-25.5,51-36,79.5l-9-3c-1.5,12-3,24-4.5,36
				c-7.5-9-10.5-49.5-12-61.5c-7.5-112.5-40.5-207-99-303c-72-120-154.5-235.5-249-339c0,7.5-1.5,16.5-1.5,22.5l-6-9
				c-27-12-42,12-54,33l-9,6c-30-19.5-45-36-70.5-61.5c-15-6-22.5-12-36-21c37.5-13.5,51-18,61.5-58.5l-9-37.5l-16.5-19.5
				c-10.5-6-18-10.5-28.5-16.5l33-12c4.5-4.5,13.5-24,16.5-30C1597.5,823.5,1617,793.5,1669.5,759z"/>
			<path fill="#FB2007" d="M1669.5,759c75-40.5,94.5,30,111,88.5c10.5,39,34.5,105,0,136.5c-9-10.5-18-10.5-25.5-18
				c-28.5-30-30-51-72-64.5l-1.5,12c-18-10.5-22.5-15-42-7.5c-24,0-39,1.5-60,16.5c-10.5,3-25.5,7.5-34.5,12
				c-10.5-6-18-10.5-28.5-16.5l33-12c4.5-4.5,13.5-24,16.5-30C1597.5,823.5,1617,793.5,1669.5,759z"/>
			<path fill="#FE391E" d="M1669.5,759c75-40.5,94.5,30,111,88.5c-21-6-100.5-54-109.5-66c0-9,0-12-1.5-21V759z"/>
			<path fill="#E71800" d="M1551,909c28.5,4.5,72-16.5,133.5-6l-1.5,12c-18-10.5-22.5-15-42-7.5c-24,0-39,1.5-60,16.5
				c-10.5,3-25.5,7.5-34.5,12c-10.5-6-18-10.5-28.5-16.5L1551,909z"/>
			<path fill="#E71800" d="M2073,1422c12,10.5,24,10.5,36,18c18,10.5,34.5,24,49.5,37.5c37.5,31.5,42,61.5,1.5,94.5
				c-24,10.5-52.5,42-79.5,58.5c-15-10.5-25.5-37.5-28.5-55.5c-3-19.5-30-132-27-139.5l12-4.5C2055,1434,2064,1438.5,2073,1422z"/>
			<path fill="#FB2007" d="M2037,1432.5c-9,13.5-10.5,39,1.5,51l3-3l-1.5-16.5c-1.5-9-1.5-10.5,3-19.5c9-3,6-3,15,1.5
				c36,13.5,60,21,81,55.5c30,51-45,75-85.5,73.5c-3-19.5-30-132-27-139.5L2037,1432.5z"/>
			<path fill="#FE391E" d="M2058,1446c36,13.5,60,21,81,55.5c0,13.5,1.5,15-6,22.5C2086.5,1533,2008.5,1467,2058,1446z"/>
			<path fill="#E71800" d="M1546.5,1071c28.5-18,96-75,123-27c3,4.5,16.5,30,18,33c0,7.5-1.5,16.5-1.5,22.5l-6-9c-27-12-42,12-54,33
				l-9,6C1587,1113,1572,1096.5,1546.5,1071z"/>
			<path fill="#FE391E" d="M1624.5,952.5h12c-1.5,12,3,15,12,24c-15,13.5-45,30-64.5,25.5v-4.5l-10.5-4.5l-9-37.5
				c13.5,1.5,39,4.5,51,4.5C1617,955.5,1620,954,1624.5,952.5z"/>
			<path fill="#CC0A00" d="M1563,954c13.5,1.5,39,4.5,51,4.5c-4.5,16.5-18,27-31.5,39L1572,993L1563,954z"/>
			<path fill="#FE391E" d="M1581,922.5h36c13.5,10.5,21,10.5,18,30h-12c-4.5,1.5-7.5,3-10.5,6c-12,0-37.5-3-51-4.5l-16.5-19.5
				C1555.5,931.5,1570.5,927,1581,922.5z"/>
			<path fill="#FA7A48" d="M1617,922.5c13.5,10.5,21,10.5,18,30h-12c-13.5-4.5-21-6-27-19.5C1606.5,924,1603.5,927,1617,922.5z"/>
			<path fill="#FB2007" d="M1581,922.5c21-13.5,36-16.5,60-16.5c21,24,30,42,7.5,69c-9-9-12-12-12-24c1.5-18-4.5-19.5-18-30
				L1581,922.5z"/>
			<path fill="#FFFFFE" d="M2052,1746c0-31.5,7.5-69,27-96l18,19.5c-16.5,25.5-25.5,51-36,79.5L2052,1746z"/>
			<path fill="#CC0A00" d="M2008.5,1437c-1.5,12-3,60-4.5,61.5c-9-6-13.5-16.5-18-28.5l-13.5-25.5l3-3c6,6,7.5,13.5,10.5,21l6-3
				C1996.5,1449,1999.5,1446,2008.5,1437L2008.5,1437z"/>
			<path fill="#FE391E" d="M1687.5,1078.5c94.5,105,177,219,249,339c58.5,96,90,190.5,99,303c1.5,13.5,4.5,52.5,12,61.5l4.5,3
				c-4.5,18-18,163.5-19.5,165c-10.5,19.5-21,73.5-31.5,99c-43.5,118.5-139.5,184.5-255,220.5c-160.5,51-325.5,94.5-489,142.5
				c-49.5,10.5-180,60-217.5,28.5c1.5-6,6-15,7.5-21c82.5-3,259.5-60,348-84c121.5-37.5,250.5-60,367.5-109.5
				c202.5-87,231-237,232.5-432c1.5-229.5-91.5-373.5-214.5-558c-21-31.5-70.5-111-94.5-133.5
				C1686,1095,1687.5,1084.5,1687.5,1078.5L1687.5,1078.5z"/>
			<path fill="#FB2007" d="M1821,1408.5c82.5,73.5,135,261,135,367.5c0,21,4.5,52.5-3,72c-7.5,1.5-4.5,1.5-13.5-3c3-9,3-37.5,3-48
				c1.5-105-24-211.5-70.5-304.5c-15-28.5-36-52.5-51-81V1408.5z"/>
			<path fill="#1F272A" d="M1626,1125c12-21,27-45,54-33c-10.5,16.5-16.5,31.5-36,39C1636.5,1132.5,1635,1131,1626,1125z"/>
			<path fill="#FFFFFE" d="M1402.5,1608h4.5c27,61.5,154.5,225,150,295.5c28.5,25.5,43.5,37.5,82.5,33c25.5-9,31.5-18,37.5-43.5
				l7.5-24c12-3,16.5-4.5,27,4.5l15,13.5l7.5,7.5l12,7.5l13.5,9l10.5,7.5l9,7.5c67.5,42,88.5,4.5,138,45l3-3c12,51-9,43.5-42,73.5
				c-24,24-54,34.5-87,43.5c-136.5,34.5-277.5,82.5-415.5,114c-36-25.5-51-39-78-73.5l-7.5-16.5l-4.5-10.5l-7.5-18l-4.5-9l-7.5-18
				l-6-9l-10.5-9c-4.5-9-1.5-30,0-40.5c15-108,69-199.5,115.5-295.5C1377,1677,1398,1632,1402.5,1608L1402.5,1608z"/>
			<path fill="#FB2007" d="M1684.5,1870.5c12-3,16.5-4.5,27,4.5l15,13.5l7.5,7.5l12,7.5l13.5,9l10.5,7.5l9,7.5
				c67.5,42,88.5,4.5,138,45c-6,27-27,37.5-51,45c-18-6-58.5,0-81-4.5c-66-12-121.5-16.5-189-12c-13.5,1.5-37.5-18-55.5-22.5l6-51
				c1.5-9,4.5-16.5,6-25.5c28.5,25.5,43.5,37.5,82.5,33c25.5-9,31.5-18,37.5-43.5L1684.5,1870.5z"/>
			<path fill="#990400" d="M1684.5,1870.5c12-3,16.5-4.5,27,4.5c-13.5,33-36,60-72,70.5l-1.5-7.5c25.5-9,31.5-18,37.5-43.5
				L1684.5,1870.5z"/>
			<path fill="#CC0A00" d="M1557,1903.5c28.5,25.5,43.5,37.5,82.5,33l1.5,7.5c-31.5,10.5-61.5-3-90-16.5
				C1551,1920,1554,1912.5,1557,1903.5z"/>
			<path fill="#540200" d="M1711.5,1929l-6-1.5c-6-12,10.5-33,21-39l7.5,7.5C1728,1908,1722,1920,1711.5,1929z"/>
			<path fill="#E71800" d="M1735.5,1896l12,7.5c-9,12-16.5,21-18,36c-7.5-7.5-7.5-7.5-16.5-10.5C1722,1920,1728,1908,1735.5,1896z"
				/>
			<path fill="#540200" d="M1746,1903.5l13.5,9c-7.5,10.5-13.5,18-22.5,27h-9C1731,1924.5,1738.5,1915.5,1746,1903.5z"/>
			<path fill="#540200" d="M1770,1920l9,7.5c-4.5,10.5-6,16.5-16.5,24l-6-1.5l-1.5-7.5C1759.5,1930.5,1762.5,1929,1770,1920z"/>
			
				<linearGradient id="SVGID_00000007406116346202928240000016904526376499691436_" gradientUnits="userSpaceOnUse" x1="1647.3677" y1="2793.1653" x2="1817.7766" y2="2973.8718" gradientTransform="matrix(1 0 0 1 0 -878)">
				<stop  offset="0" style="stop-color:#F68848"/>
				<stop  offset="1" style="stop-color:#FFB567"/>
			</linearGradient>
			<path fill="url(#SVGID_00000007406116346202928240000016904526376499691436_)" d="M1918.5,1972.5l3-3c12,51-9,43.5-42,73.5
				c-16.5-7.5-45,10.5-64.5,9c-81-4.5-160.5,3-240,4.5c-36,0-34.5-27-31.5-55.5l1.5-21c18,4.5,40.5,24,55.5,22.5c66-6,123,0,189,12
				c22.5,4.5,61.5-3,81,4.5C1891.5,2010,1912.5,1999.5,1918.5,1972.5z"/>
			<path fill="#CC0A00" d="M1543.5,1980c18,4.5,40.5,24,55.5,22.5c66-6,123,0,189,12c22.5,4.5,61.5-3,81,4.5
				c-63,25.5-121.5,7.5-184.5,3c-52.5-3-94.5,12-139.5-21L1543.5,1980z"/>
			
				<linearGradient id="SVGID_00000142165762683941261650000006399126220192033205_" gradientUnits="userSpaceOnUse" x1="1757.0782" y1="2534.1177" x2="1910.0151" y2="2472.2471" gradientTransform="matrix(1 0 0 1 0 -878)">
				<stop  offset="0" style="stop-color:#FF1800"/>
				<stop  offset="1" style="stop-color:#FF5048"/>
			</linearGradient>
			<path fill="url(#SVGID_00000142165762683941261650000006399126220192033205_)" d="M1792.5,1378.5c10.5,9,21,18,28.5,30l1.5,3
				c15,28.5,36,52.5,51,81c46.5,93,72,199.5,70.5,304.5c0,10.5,0,40.5-3,48l-15-3c-15-7.5-69-39-79.5-48
				c-58.5-49.5-120-181.5-130.5-256.5C1704,1468.5,1752,1431,1792.5,1378.5z"/>
			<path fill="#FA7A48" d="M1362,1254l3,1.5c52.5,45,103.5,49.5,139.5,129c-1.5,9-9,37.5-7.5,45c34.5,178.5,67.5,316.5,180,463.5
				c-6,25.5-12,33-37.5,43.5c-39,3-54-9-82.5-33c6-69-123-234-150-295.5c-1.5-3,39-130.5,43.5-159c7.5-28.5,9-87-6-114
				c-21-36-70.5-33-103.5-40.5l6-1.5c6-7.5,9-25.5,13.5-37.5L1362,1254z"/>
			<path fill="#F69164" d="M1459.5,1516.5c30,13.5,61.5,151.5,61.5,184.5C1497,1647,1435.5,1572,1459.5,1516.5z"/>
			
				<linearGradient id="SVGID_00000173861203584878135670000016307814586710083971_" gradientUnits="userSpaceOnUse" x1="1021.1639" y1="2010.0187" x2="1348.4519" y2="2152.2305" gradientTransform="matrix(1 0 0 1 0 -878)">
				<stop  offset="0" style="stop-color:#9F0500"/>
				<stop  offset="1" style="stop-color:#DF0B00"/>
			</linearGradient>
			<path fill="url(#SVGID_00000173861203584878135670000016307814586710083971_)" d="M1108.5,1060.5c15-1.5,73.5-10.5,82.5-1.5
				c-13.5,55.5-34.5,130.5-69,177c45,18,210-16.5,243,9l-3,9l-1.5,3c-6,13.5-7.5,30-13.5,37.5l-6,1.5c-22.5-3-63-3-82.5-9l-4.5-6
				c-24-9-223.5-13.5-267-16.5l1.5-6c34.5-22.5,40.5-39,48-79.5c0-25.5,0-87,9-112.5c1.5-6,12-6,18-7.5
				C1081.5,1060.5,1095,1060.5,1108.5,1060.5z"/>
			<path fill="#CC0A00" d="M1108.5,1060.5c15-1.5,73.5-10.5,82.5-1.5c-13.5,55.5-34.5,130.5-69,177l-3-3c-10.5,0-13.5,0-22.5-4.5
				C1098,1233,1108.5,1077,1108.5,1060.5L1108.5,1060.5z"/>
			<path fill="#FEA96A" d="M1365,1245c1.5,0,3,1.5,3,1.5c51,7.5,120,0,150,52.5c13.5,24,19.5,51,22.5,78c9,58.5,24,115.5,36,172.5
				c21,97.5,40.5,241.5,106.5,319.5l-7.5,24c-112.5-147-145.5-286.5-180-463.5c-1.5-7.5,4.5-36,7.5-45c-37.5-79.5-87-82.5-139.5-129
				l-3-1.5L1365,1245z"/>
			<path fill="#1F272A" d="M2169,1584c55.5-75,228-111,319.5-105c42,3,52.5,12,79.5,42c37.5,21,166.5,52.5,181.5,94.5
				c-6,30-94.5,54-121.5,66c27,9,45,15,70.5,27c297,123,300,565.5-7.5,682.5c-93,36-193.5,36-286.5-3c-81-33-172.5-115.5-201-201
				c-27-63-28.5-105-28.5-171c-61.5,52.5-73.5,46.5-139.5,78c-13.5,0-15,1.5-24-6c-3-16.5,16.5-106.5,18-136.5c0,0,15-147,19.5-165
				l-4.5-3c1.5-12,3-24,4.5-36l9,3c10.5-28.5,19.5-54,36-79.5l-18-19.5l-3-3c0-12-1.5-7.5,6-15c27-16.5,55.5-46.5,79.5-58.5
				L2169,1584z"/>
			<path fill="#FB2007" d="M2169,1584c55.5-75,228-111,319.5-105c42,3,52.5,12,79.5,42c37.5,21,166.5,52.5,181.5,94.5
				c-6,30-94.5,54-121.5,66h-3c-40.5,19.5-156,51-204,61.5c3,19.5,6,34.5,1.5,54v9c3,6,9,15,12,21c13.5,24,42,58.5,58.5,82.5
				c7.5,10.5,21,25.5,27,36l-1.5,7.5c12,16.5,49.5,72,55.5,90c-18-9-21-10.5-40.5-13.5c-13.5,12-16.5,15-19.5,33
				c-25.5,0-34.5-33-61.5-54c-10.5-13.5-22.5-31.5-33-46.5c-15-27-39-54-55.5-84c-7.5-9-13.5-16.5-24-24l-9-4.5
				c-12-3-16.5-6-25.5-13.5c-12,9-13.5,10.5-22.5,22.5c-34.5,54-64.5,109.5-109.5,154.5c-61.5,52.5-73.5,46.5-139.5,78
				c-13.5,0-15,1.5-24-6c-3-16.5,16.5-106.5,18-136.5c0,0,15-147,19.5-165l-4.5-3c1.5-12,3-24,4.5-36l9,3c10.5-28.5,19.5-54,36-79.5
				l-18-19.5l-3-3c0-12-1.5-7.5,6-15c27-16.5,55.5-46.5,79.5-58.5L2169,1584z"/>
			<path fill="#FE391E" d="M2410.5,1627.5l15,6c-18,1.5-45,6-58.5,21l13.5-4.5c-15,7.5-82.5,43.5-85.5,54c-7.5,0,51-7.5,39-1.5
				c15-7.5,30-10.5,46.5-1.5c12,6,30,22.5,39,33c51,0,156-33,199.5-52.5l6,3c-40.5,19.5-156,51-204,61.5c3,19.5,6,34.5,1.5,54v9
				c3,6,9,15,12,21c13.5,24,42,58.5,58.5,82.5c7.5,10.5,21,25.5,27,36l-1.5,7.5c12,16.5,49.5,72,55.5,90c-18-9-21-10.5-40.5-13.5
				c-13.5,12-16.5,15-19.5,33c-25.5,0-34.5-33-61.5-54c-10.5-13.5-22.5-31.5-33-46.5c-15-27-39-54-55.5-84c-7.5-9-13.5-16.5-24-24
				l-9-4.5c-12-3-16.5-6-25.5-13.5c-12,9-13.5,10.5-22.5,22.5c-3-10.5-9-22.5-13.5-33c-15-39-10.5-60-3-99
				c-19.5,6-109.5,208.5-148.5,241.5h-6c-6-19.5,51-114,63-135C2244,1705.5,2263.5,1662,2410.5,1627.5L2410.5,1627.5z"/>
			<path fill="#E71800" d="M2334,1851c15-1.5,33-6,48-9c24,48,102,150,138,190.5c7.5,0,7.5-1.5,13.5-3h3c-13.5,12-16.5,15-19.5,33
				c-25.5,0-34.5-33-61.5-54c-10.5-13.5-22.5-31.5-33-46.5c-15-27-39-54-55.5-84c-7.5-9-13.5-16.5-24-24L2334,1851z"/>
			<path fill="#CC0A00" d="M2308.5,1702.5c-18,28.5-33,48-25.5,84c4.5,22.5,18,36,24,51c-12,9-13.5,10.5-22.5,22.5
				c-3-10.5-9-22.5-13.5-33c-15-39-10.5-60-3-99C2281.5,1722,2296.5,1711.5,2308.5,1702.5L2308.5,1702.5z"/>
			<path fill="#FB2007" d="M2416.5,1818l7.5-12c3,6,9,15,12,21c13.5,24,42,58.5,58.5,82.5c7.5,10.5,21,25.5,27,36l-1.5,7.5
				C2485.5,1923,2449.5,1855.5,2416.5,1818L2416.5,1818z"/>
			<path fill="#CC0A00" d="M2169,1584c55.5-75,228-111,319.5-105c42,3,52.5,12,79.5,42c-27,1.5-70.5-12-100.5-13.5
				c-106.5-4.5-220.5,27-295.5,108c-102,112.5-103.5,228-114,370.5c-3,45-16.5,72-21,108c-13.5,0-15,1.5-24-6
				c-3-16.5,16.5-106.5,18-136.5c0,0,15-147,19.5-165l-4.5-3c1.5-12,3-24,4.5-36l9,3c10.5-28.5,19.5-54,36-79.5l-18-19.5l-3-3
				c0-12-1.5-7.5,6-15c27-16.5,55.5-46.5,79.5-58.5L2169,1584z"/>
			<path fill="#AF0600" d="M2082,1630.5c27-16.5,55.5-46.5,79.5-58.5l9,10.5c-1.5,12-61.5,78-73.5,85.5l-18-19.5l-3-3
				C2076,1633.5,2074.5,1639.5,2082,1630.5L2082,1630.5z"/>
			<path fill="#F7E8EC" d="M2052,1746l9,3c-3,12-6,24-9,36l-4.5-3C2047.5,1770,2049,1758,2052,1746z"/>
			<path fill="#FE391E" d="M2410.5,1627.5c46.5-18,150,6,195,25.5c-43.5-7.5-87-12-130.5-16.5c-15-1.5-37.5-1.5-49.5-3
				L2410.5,1627.5z"/>
			<path fill="#FE391E" d="M2422.5,1530c52.5-3,255,24,258,90c-31.5,46.5-214.5-34.5-264-9c-6,3-42,6-48,6c42-21,124.5-9,169.5-4.5
				c19.5,10.5,109.5,27,133.5,15c6-7.5,4.5-3,4.5-13.5c-13.5-22.5-43.5-39-67.5-49.5c-10.5-3-15,7.5-22.5,12c-39,19.5-48-37.5-90-36
				c-52.5,3-96-9-148.5,7.5c-9,3-49.5,15-55.5,13.5C2329.5,1543.5,2380.5,1533,2422.5,1530z"/>
			<path fill="#374044" d="M2700,1707c297,123,300,565.5-7.5,682.5c-93,36-193.5,36-286.5-3c-81-33-172.5-115.5-201-201l6-6
				c3-22.5,19.5-78,45-84c9,12,9,30,15,45c4.5,13.5,12,27,18,39c118.5,235.5,475.5,205.5,547.5-49.5c21-73.5,12-151.5-24-219
				c-51-91.5-124.5-129-219-157.5C2632.5,1734,2656.5,1720.5,2700,1707L2700,1707z"/>
			<path fill="#AF0600" d="M2436,1827c30-12,52.5-21,85.5-22.5c-9,16.5-3,37.5,1.5,54c1.5,7.5,4.5,13.5,6,21
				c13.5,4.5,28.5,7.5,43.5,10.5c85.5,16.5,141,84,138,171c-4.5,114-115.5,177-220.5,142.5c-42-13.5-78-45-97.5-84
				c-12-25.5-18-55.5-16.5-85.5c-16.5,0-16.5-13.5-33-25.5c-13.5,6-36,22.5-45,19.5c4.5-54,31.5-106.5,67.5-147
				c18,30,40.5,58.5,55.5,84c9,15,21,33,33,46.5c27,21,36,54,61.5,54c3-18,6-21,19.5-33c19.5,4.5,22.5,4.5,40.5,13.5
				c-6-18-43.5-73.5-55.5-90l1.5-7.5c-6-10.5-19.5-27-27-36C2478,1885.5,2449.5,1849.5,2436,1827z"/>
			<path fill="#CC0A00" d="M2523,1945.5c37.5,0,52.5,0,84,22.5c16.5,19.5,30,33,36,58.5c7.5,37.5-1.5,72-31.5,97.5
				c-21,18-49.5,25.5-76.5,24c-27-3-52.5-16.5-69-39c-15-18-19.5-36-22.5-58.5l6-25.5l7.5-18c27,21,36,54,61.5,54c3-18,6-21,19.5-33
				c19.5,4.5,22.5,4.5,40.5,13.5c-6-18-43.5-73.5-55.5-90L2523,1945.5z"/>
			<path fill="#FA7A48" d="M2536.5,2029.5c19.5,4.5,22.5,4.5,40.5,13.5c-1.5,46.5-31.5,45-60,19.5
				C2520,2044.5,2523,2041.5,2536.5,2029.5z"/>
			<path fill="#FEDFC0" d="M2595,1911c40.5,16.5,70.5,42,88.5,81c15,34.5,16.5,75,1.5,109.5c-13.5,36-42,64.5-76.5,79.5
				c-85.5,37.5-172.5-4.5-204-90c10.5-15,24-28.5,39-39c3,22.5,9,40.5,22.5,58.5c16.5,21,42,36,69,39c28.5,3,55.5-6,76.5-24
				c30-24,39-60,31.5-97.5c-4.5-25.5-19.5-39-36-58.5c-3-7.5-6-15-10.5-22.5C2592,1935,2589,1923,2595,1911L2595,1911z"/>
			<path fill="#F69164" d="M2424,1963.5c9,15,21,33,33,46.5l-7.5,18l-6,25.5c-15,10.5-28.5,24-39,39c-12-45-10.5-70.5,9-112.5
				L2424,1963.5z"/>
			<path fill="#C27F6D" d="M2424,1963.5c9,15,21,33,33,46.5l-7.5,18c-15-18-22.5-27-36-46.5L2424,1963.5z"/>
			<path fill="#F69164" d="M2496,1909.5c36-9,63-12,99,1.5c-6,13.5-3,24,3,36c3,7.5,6,15,10.5,22.5c-31.5-22.5-46.5-22.5-84-22.5
				C2517,1935,2503.5,1920,2496,1909.5z"/>
			<path fill="#E71800" d="M2344.5,2005.5c13.5-1.5,19.5-4.5,30-1.5c4.5,9,3,16.5,1.5,27C2361,2031,2361,2019,2344.5,2005.5z"/>
			<path fill="#E71800" d="M2532,1801.5c76.5,0,135,18,190.5,73.5c46.5,46.5,73.5,109.5,73.5,175.5c0,64.5-24,126-70.5,172.5
				c-157.5,157.5-426,42-427.5-186l1.5-9c9,3,33-13.5,45-19.5c16.5,12,16.5,25.5,33,25.5c-1.5,28.5,3,58.5,16.5,85.5
				c19.5,40.5,54,70.5,97.5,84c105,36,216-28.5,220.5-142.5c3-87-51-154.5-138-171c-15-3-28.5-6-43.5-10.5c-3-6-4.5-13.5-6-21
				c-4.5-16.5-10.5-37.5-1.5-54v-1.5L2532,1801.5z"/>
			<path fill="#FEB872" d="M2581.5,1770c87,19.5,154.5,54,204,132c39,63,52.5,138,37.5,210c-15,70.5-58.5,132-120,171
				c-66,40.5-144,54-219,36c-76.5-19.5-141-67.5-181.5-135c-16.5-27-34.5-69-34.5-100.5l30-46.5c3,229.5,270,343.5,427.5,186
				c45-45,70.5-108,70.5-172.5c0-66-25.5-129-73.5-175.5c-55.5-55.5-114-73.5-190.5-73.5C2550,1783.5,2556,1774.5,2581.5,1770z"/>
			<path fill="#FA7A48" d="M2344.5,1855.5c10.5,7.5,15,13.5,24,24c-36,40.5-63,93-67.5,147l-1.5,9l-30,46.5c0-3,0-6-1.5-9
				C2257.5,1981.5,2289,1921.5,2344.5,1855.5z"/>
			<path fill="#FA7A48" d="M2424,1797c24-13.5,51-18,78-24c1.5,15,0,18,7.5,28.5l12,1.5v1.5c-31.5,1.5-55.5,9-85.5,22.5
				c-3-6-9-15-12-21V1797z"/>
			<path fill="#F69164" d="M2502,1773c27-4.5,54-6,79.5-3c-25.5,4.5-31.5,13.5-51,33H2520l-12-1.5
				C2502,1789.5,2503.5,1788,2502,1773L2502,1773z"/>
			<path fill="#FEA96A" d="M813,331.5C805.5,222,892.5,153,1000.5,165c58.5,7.5,88.5,51,120,96c22.5,3,106.5,10.5,124.5,18l1.5,7.5
				c-22.5,54-60,57-115.5,55.5l-3,6l1.5,3c15,28.5,39,39,36,63c-6,9-7.5,9-16.5,15c7.5,12,13.5,69,15,84c-28.5,45-61.5,4.5-90,34.5
				c-3,10.5-3,13.5-4.5,24c0,7.5,0,15,0,22.5c-1.5,13.5,0,33,4.5,45l6,21c-6,10.5-3,7.5-12,13.5c-12,0-13.5,0-25.5-3
				c-9-12-15-22.5-24-34.5l-1.5-6c-36-43.5-70.5-93-127.5-102c6-10.5,3-25.5,1.5-37.5c-18-27-40.5-63-54-91.5
				C822,375,817.5,358.5,813,331.5L813,331.5z"/>
			<path fill="#FB2007" d="M813,331.5C805.5,222,892.5,153,1000.5,165c58.5,7.5,88.5,51,120,96c22.5,3,106.5,10.5,124.5,18l1.5,7.5
				c-22.5,54-60,57-115.5,55.5l-7.5-22.5c-25.5,0-52.5-1.5-78-3c-10.5,1.5-24,3-34.5,4.5c-19.5,10.5-40.5,21-60,31.5
				c-40.5,18-70.5,33-114,45C822,375,817.5,358.5,813,331.5L813,331.5z"/>
			<path fill="#CC0A00" d="M813,331.5l3-16.5c15-4.5,40.5,12,61.5,9c22.5-4.5,36-16.5,49.5-33c24-28.5-9-54-12-70.5
				c18,13.5,27,42,58.5,61.5l3,1.5c54,3,85.5-1.5,138-13.5c-22.5,19.5-45,31.5-70.5,46.5c-10.5,1.5-24,3-34.5,4.5
				c-19.5,10.5-40.5,21-60,31.5c-40.5,18-70.5,33-114,45C822,375,817.5,358.5,813,331.5L813,331.5z"/>
			<path fill="#990400" d="M1122,321c63-1.5,66-9,121.5-33c-22.5,54-60,57-115.5,55.5L1122,321z"/>
			<path fill="#FA7A48" d="M945,444c12,1.5,24,4.5,34.5,7.5c34.5,61.5,118.5,66,183,64.5c-28.5,45-61.5,4.5-90,34.5
				c-3,10.5-3,13.5-4.5,24c0,7.5,0,15,0,22.5c-1.5,13.5,0,33,4.5,45l7.5,18c-6,10.5-3,7.5-12,13.5c-12,0-13.5,0-25.5-3
				c-9-12-15-22.5-24-34.5l-1.5-6c-36-43.5-70.5-93-127.5-102c6-10.5,3-25.5,1.5-37.5C922.5,480,930,472.5,945,444L945,444z"/>
			<path fill="#FEA96A" d="M1017,630c-3-13.5-10.5-24-16.5-36c-21-46.5-22.5-64.5-22.5-112.5c6,7.5,10.5,16.5,16.5,24
				c16.5,22.5,46.5,63,75,67.5c0,7.5,0,15,0,22.5c-1.5,13.5,0,33,4.5,45l6,19.5c-6,10.5-3,7.5-12,13.5c-12,0-13.5,0-25.5-3
				c-9-12-15-22.5-24-34.5L1017,630z"/>
			<path fill="#FFFFFE" d="M1018.5,634.5c15,7.5,27,16.5,43.5,15l12-7.5l6,18c-6,10.5-3,7.5-12,13.5c-12,0-13.5,0-25.5-3
				C1033.5,658.5,1027.5,646.5,1018.5,634.5L1018.5,634.5z"/>
			<path fill="#E71800" d="M951,352.5c19.5-9,40.5-21,60-31.5v21c-1.5,30-1.5,43.5-10.5,72l-9,3c-18-25.5-18-43.5-43.5-55.5
				c-40.5,16.5-33,60-3,81c-15,28.5-24,36-55.5,48c-18-27-40.5-63-54-91.5C879,387,909,370.5,951,352.5L951,352.5z"/>
			<path fill="#FA7A48" d="M1045.5,316.5c25.5,1.5,52.5,4.5,78,3l7.5,22.5l-3,6l-13.5,13.5c-30-31.5-52.5-10.5-102-21v-21
				C1021.5,319.5,1035,318,1045.5,316.5z"/>
			<path fill="#F69164" d="M1126.5,349.5l1.5,3c15,28.5,39,39,36,63c-6,9-7.5,9-16.5,15c-31.5-13.5-9-60-36-69L1126.5,349.5z"/>
		</g>
	</g>
</g>
</svg>
