<?xml version="1.0" encoding="utf-8"?>
<!-- Generator: Adobe Illustrator 27.9.0, SVG Export Plug-In . SVG Version: 6.00 Build 0)  -->
<svg version="1.1" id="svg" xmlns="http://www.w3.org/2000/svg" xmlns:xlink="http://www.w3.org/1999/xlink" x="0px" y="0px"
	 viewBox="0 0 5474.604 3000" enable-background="new 0 0 5474.604 3000" xml:space="preserve">
<g>
	<rect x="1.737" y="0" fill="#FFFFFF" width="5472.868" height="2996.899"/>
	<g>
		<g>
			<g>
				<path fill="#ED2900" d="M1364.527,1088.372c27.907,17.054,48.062,72.868,68.217,100.775
					c4.651,7.752,15.504,24.806,18.605,34.108l3.101,1.55c51.163,27.907,93.023,34.109,145.736,54.264
					c66.667,24.806,142.636,57.364,206.201,88.372c55.814,27.907,99.225,93.023,131.783,142.636
					c65.116,102.326,133.333,207.752,175.193,324.031c4.651,12.403,9.302,38.76,6.201,52.713
					c-9.302,49.612,4.651,89.922,15.504,139.535c-6.201,3.101-20.155,7.752-26.357,9.302l3.101,23.256
					c9.302,77.52,18.605,155.039,26.357,234.109c7.752,74.418,13.953,145.736,17.054,218.605
					c7.752,167.442-96.124,265.116-226.356,348.837c-32.558,21.705-51.163,31.008-93.023,34.109
					c-13.953,3.101-80.62,23.256-91.473,23.256c0,26.357,1.55,54.264,3.101,80.62h-279.07H570.729H65.303v-412.403v-809.302
					c41.861-3.101,82.17-9.302,124.031-18.605c20.155-9.302,40.31-18.605,60.465-27.907c3.101-3.101,3.101-26.357,3.101-31.008
					c1.551-55.814,1.551-122.48-18.605-175.194c-1.55-4.651-3.101-9.302-3.101-13.953v-15.504
					c10.853-15.504,51.163-62.016,65.117-80.62c10.853-17.054,26.357-35.659,38.76-52.713c3.101,0,12.403-1.55,15.504-1.55h4.651
					l-1.55-3.101c26.357-40.31,151.938-159.69,192.248-192.248c20.155-15.504,86.822-15.504,117.829-27.907
					c21.705-9.302,52.713-40.31,66.667-43.411c12.403,4.651,51.163,18.605,60.465,23.256c20.155,3.101,75.969,18.605,97.674,23.256
					c3.101,0,57.365,3.101,57.365,1.551c32.558,63.566,74.418,113.178,137.984,147.287c17.054,9.302,51.163,23.256,63.566,35.659
					l9.302,9.302l7.752,4.651c15.504-3.101,37.209-20.155,49.613-29.457c54.264-43.411,99.225-97.674,130.233-158.139
					C1355.225,1134.884,1362.977,1105.426,1364.527,1088.372L1364.527,1088.372z"/>
				<path fill="#F87E34" d="M1623.442,1514.729c24.806,21.705,58.915,54.264,80.62,77.519c1.551,52.713,6.202,105.426,7.752,156.589
					c15.504,0,52.713-1.551,65.116-6.202h3.101c7.752,3.101,60.465-4.651,77.519-3.101c21.705-9.302,27.907-3.101,40.31,13.953
					c17.054-3.101,24.806-3.101,41.861-3.101l17.054,212.403c1.55,34.109,4.651,72.868,7.752,105.426
					c23.256,1.551,114.729-26.357,142.636-35.659l3.101,23.256c9.302,77.519,18.605,155.039,26.357,234.108
					c7.752,74.419,13.953,145.737,17.054,218.605c7.752,167.441-96.124,265.116-226.357,348.837
					c-32.558,21.705-51.163,31.008-93.023,34.109c-13.953,3.101-80.62,23.256-91.473,23.256c0,26.357,1.551,54.264,3.101,80.62
					h-279.07c-15.504-9.302-62.016-41.861-79.07-44.961c-105.426-20.155-220.155,6.201-325.581,0
					c-6.201-37.209-1.55-131.783-7.752-158.14c-4.651,0-3.101-1.551-7.752-3.101c-3.101-96.124-4.651-192.248-4.651-288.372
					c-4.651-218.604-1.55-435.659,9.302-654.263c1.551-23.256,1.551-51.163,6.201-72.868c1.551-10.853,21.705-6.202,29.457-1.551
					c44.961,4.651,131.783,9.302,176.744,7.752v-17.054c-4.651-49.612-6.201-106.977-9.302-158.14
					c18.605-23.256,58.915-62.016,80.62-83.721C1432.744,1520.93,1528.868,1516.279,1623.442,1514.729z"/>
				<path fill="#FD9A42" d="M1623.442,1514.729c24.806,21.705,58.915,54.264,80.62,77.519c1.551,52.713,6.202,105.426,7.752,156.589
					v18.605c6.201,65.116,4.651,139.535,10.853,206.202c1.551,21.705,1.551,48.062,4.651,68.217
					c-29.457,1.551-62.016,3.101-89.922,1.551c-3.101-68.217-7.752-136.434-10.853-204.651c0-9.302-1.55-63.566-4.651-69.767
					l-1.55-12.403c-63.566,0-127.132,0-190.698,6.201c-21.705,1.551-44.961-4.651-68.217,0h-3.101c-1.551,0-3.101,0-4.651,1.551
					v15.504c6.201,65.116,6.201,131.783,10.853,195.349c1.551,24.806,1.551,58.915,4.651,83.721
					c-27.907,1.551-63.566,3.101-91.473,3.101c-1.55-55.814-4.651-111.628-9.302-167.442c-3.101-37.209-1.551-77.519-6.201-114.729
					v-17.054c-4.651-49.612-6.202-106.977-9.302-158.139c18.605-23.256,58.915-62.016,80.62-83.721
					C1432.744,1520.93,1528.868,1516.279,1623.442,1514.729L1623.442,1514.729z"/>
				<path fill="#ED2900" d="M1349.023,1621.705c88.372-1.551,176.744-6.202,266.667-7.752c0,44.961,4.651,97.675,6.201,142.636
					c-63.566,0-127.132,0-190.698,6.201c-21.705,1.55-44.961-4.651-68.217,0h-3.101c-1.551,0-3.101,0-4.651,1.55
					C1353.675,1717.829,1350.574,1669.767,1349.023,1621.705z"/>
				<path fill="#CB1A00" d="M1056,2795.349c20.155-4.651,83.721-6.201,106.977-6.201l224.806-9.302
					c29.457,4.651,6.201,18.605,31.008,32.558c27.907-6.201,75.969,0,105.426,1.551c43.411,35.659,94.574,71.318,144.186,97.674
					c12.403,6.201,21.705,7.752,34.109,13.954c12.403,0,24.806-6.202,40.31-7.752c0,26.357,1.551,54.264,3.101,80.621h-279.07
					c-15.504-9.302-62.016-41.861-79.07-44.961c-105.426-20.155-220.155,6.202-325.581,0
					C1057.551,2916.279,1062.202,2821.706,1056,2795.349z"/>
				<path fill="#F87E34" d="M1420.341,2812.403c27.907-6.201,75.969,0,105.426,1.551c43.411,35.659,94.574,71.318,144.186,97.674
					c12.403,6.201,21.705,7.752,34.109,13.954c-27.907,6.201-49.613,13.953-77.519,3.101
					c-57.365-21.705-122.48-38.76-175.194-69.767C1445.147,2855.814,1424.992,2820.155,1420.341,2812.403z"/>
				<path fill="#DE5218" d="M1972.279,2137.985c10.853-3.101,43.411-26.357,58.915-34.109c1.551,38.76,1.551,77.52,3.101,116.279
					c6.201,165.891,4.651,333.333-3.101,500.775c0,7.752-6.201,15.504-12.403,20.155c-9.302-4.651-12.403-113.178-12.403-128.682
					l-20.155-288.372c-3.101-40.31-6.202-82.17-9.302-122.48C1975.38,2184.496,1972.279,2153.488,1972.279,2137.985
					L1972.279,2137.985z"/>
				<path fill="#CA3F04" d="M1389.333,2779.845c136.434-6.201,274.419-9.302,412.403-13.953c41.861-1.55,86.822-4.651,128.682-4.651
					c-12.403,10.853-26.357,24.806-41.861,26.357c-40.31,6.201-88.372-4.651-128.682-3.101
					c-40.31,1.551-77.519,13.953-119.38,18.605c21.705,52.713,69.767,38.76,116.279,51.163v1.551c-23.256,0-65.116,0-86.822-7.752
					c-27.907-10.853-85.271-75.969-122.48-58.915c-10.853,17.054,12.403,31.008,23.256,40.31l6.202,4.651
					c29.457,20.155,72.868,52.713,103.876,66.667c41.861,17.054,113.178-10.853,156.589-7.752
					c-13.953,3.101-80.62,23.256-91.473,23.256c-15.504,1.55-27.907,7.752-40.31,7.752c-12.403-6.202-21.705-6.202-34.109-13.953
					c-49.613-26.357-100.775-62.016-144.186-97.674c-29.457-1.551-79.07-7.752-105.426-1.551
					C1395.535,2796.899,1418.791,2784.496,1389.333,2779.845z"/>
				<path fill="#CA3F04" d="M1967.628,2069.768c23.256,1.551,114.729-26.357,142.636-35.659l3.101,23.256
					c-21.705,15.504-55.814,32.558-80.62,46.511c-15.504,7.752-49.613,31.008-58.915,34.109
					C1970.729,2114.729,1967.628,2091.473,1967.628,2069.768L1967.628,2069.768z"/>
				<path fill="#CA3F04" d="M1356.775,1765.891c1.55,0,3.101,0,4.651-1.551h3.101c21.705-4.651,46.512,1.551,68.217,0
					c63.566-6.201,127.132-6.201,190.698-6.201l1.551,12.403l-3.101,4.651c-15.504,6.201-255.814,9.302-263.566,6.201
					L1356.775,1765.891z"/>
				<path fill="#CA3F04" d="M1781.581,1742.636c7.752,3.101,60.465-4.651,77.519-3.101l-26.357,21.705
					c-17.054,1.55-108.527,10.853-119.38,6.201v-18.604c15.504,0,52.713-1.551,65.117-6.201H1781.581z"/>
				<path fill="#CA3F04" d="M1569.178,2831.008l1.55-1.55c4.651-7.752,9.302-18.605,12.403-21.705
					c7.752,10.853,0,20.155-7.752,27.907L1569.178,2831.008z"/>
				<path fill="#FD9613" d="M65.303,1776.744c41.861-3.101,82.17-9.302,124.031-18.605c12.403,21.705,27.907,46.512,38.76,68.217
					l3.101,6.201c7.752-4.651,48.062-4.651,60.465-6.201c10.853,0,31.008,1.551,40.31,4.651c6.201,0,38.76-3.101,46.512-3.101
					c77.519-12.403,110.078-26.357,189.148-3.101c12.403,390.698,12.403,782.946,3.101,1175.194H65.303v-412.403L65.303,1776.744z"
					/>
				<path fill="#9E3200" d="M291.659,1826.356c10.853,0,31.008,1.551,40.31,4.651c-24.806,3.101-75.969,4.651-100.775,1.551
					C240.496,1827.907,279.256,1826.356,291.659,1826.356z"/>
				<path fill="#FD9613" d="M356.775,1359.69l-1.551-3.101c26.357-40.31,151.938-159.69,192.248-192.248
					c20.155-15.504,86.822-15.504,117.829-27.907c21.705-9.302,52.713-40.31,66.667-43.411
					c12.403,4.651,51.163,18.605,60.465,23.256c20.155,3.101,75.969,18.605,97.674,23.256l-44.961,102.326l-46.512,4.651
					c-15.504,12.403-41.861,44.961-62.016,41.86c-27.907-4.651-49.613-9.302-79.07-7.752h-4.651
					c-55.814-3.101-35.659,40.31-83.721,40.31c-7.752,0-20.155-6.201-26.357-10.853c-31.008-21.705-54.264,9.302-72.868,29.457
					C435.845,1347.287,392.434,1353.488,356.775,1359.69L356.775,1359.69z"/>
				<path fill="#ED2900" d="M731.969,1091.473c12.403,4.651,51.163,18.605,60.465,23.256c-6.201,15.504-18.605,46.512-34.109,52.713
					C696.31,1190.698,724.217,1111.628,731.969,1091.473z"/>
				<path fill="#CB1A00" d="M559.876,1581.396c4.651,10.853,0,21.705,3.101,26.356l1.551-1.55
					c1.55,72.868,3.101,144.186,3.101,217.054c-79.07-21.705-113.178-7.752-189.148,3.101c-7.752,1.551-38.76,4.651-46.512,3.101
					c-7.752-4.651-29.457-4.651-40.31-4.651c34.109-6.201,43.411,6.201,57.365-32.558c43.411-7.752,130.233-24.806,161.24-55.814
					C542.822,1703.876,559.876,1627.907,559.876,1581.396L559.876,1581.396z"/>
				<path fill="#CB1A00" d="M1097.861,1351.938c-32.558,20.155-74.418,44.961-108.527,63.566c-4.651,1.551-12.403,1.551-17.054-1.55
					c-51.163-35.659-96.124-100.775-114.729-158.14c6.202,4.651,10.853,13.953,13.953,20.155
					c27.907,43.411,62.016,85.271,102.326,119.38c29.457-31.008,80.62-72.868,119.38-88.372
					c17.054,6.202,35.659,13.953,54.264,15.504l9.302,9.302c-13.953,4.651-46.512-10.853-66.667-13.953l17.054,31.008
					C1107.163,1350.388,1097.861,1351.938,1097.861,1351.938z"/>
				<path fill="#CB1A00" d="M1451.349,1223.256l3.101,1.55c1.551,44.961-80.62,170.543-117.829,193.799
					c-10.853,6.201-103.876-71.318-127.132-82.171c13.953-6.202,27.907-13.953,40.31-21.705
					c32.558,29.457,52.713,52.713,80.62,85.271c40.31-44.961,77.519-89.923,103.876-144.186
					C1438.946,1246.512,1445.147,1232.558,1451.349,1223.256z"/>
				<path fill="#CB1A00" d="M189.334,1758.14c20.155-9.302,40.31-18.605,60.465-27.907c-3.101,24.806-7.752,75.969-21.705,96.124
					C217.24,1803.101,201.736,1779.845,189.334,1758.14z"/>
				<path fill="#CA3F04" d="M1088.558,1773.643l4.651-9.302c12.403-9.302,65.116-1.55,82.17,0
					c29.457,1.551,58.915,1.551,88.372,1.551v17.054C1220.341,1782.946,1133.519,1778.295,1088.558,1773.643z"/>
				<path fill="#9E3200" d="M559.876,1581.396c-3.101-68.217-10.853-131.783-23.256-200c-3.101-13.953-13.953-46.512-10.853-57.364
					h3.101c6.202,18.605,7.752,40.31,10.853,58.915c17.054,72.868,24.806,147.287,24.806,221.705l-1.551,1.551
					C559.876,1603.101,562.977,1593.798,559.876,1581.396L559.876,1581.396z"/>
				<path fill="#CB1A00" d="M1778.481,1742.636c0-40.31,10.853-96.124,15.504-139.535c1.551-17.054,4.651-79.07,7.752-91.473
					c6.201,34.108-10.853,192.248-20.155,229.457L1778.481,1742.636z"/>
				<path fill="#CB1A00" d="M1959.876,1962.791c6.201-6.201,131.783-34.108,145.736-34.108
					C2094.76,1937.985,1975.38,1965.891,1959.876,1962.791z"/>
				<path fill="#CB1A00" d="M1107.163,1350.388c24.806,31.008,18.605,113.178,18.605,151.938v-3.101
					c-4.651-31.008,1.551-133.333-27.907-147.287L1107.163,1350.388z"/>
				<path fill="#CB1A00" d="M652.899,1279.07h4.651c9.302,10.853,35.659,44.961,34.109,55.814h1.551
					C685.458,1330.233,657.55,1286.822,652.899,1279.07z"/>
				<path fill="#CB1A00" d="M318.016,1404.651c9.302,7.752,17.054,23.256,23.256,34.109c38.76,66.667,52.713,145.736,52.713,223.256
					c0,24.806-1.551,88.372-9.302,111.628h-1.551c-1.55-15.504,4.651-65.116,4.651-86.822
					c1.55-99.225-15.504-193.798-72.868-277.519L318.016,1404.651z"/>
				<path fill="#641D05" d="M1156.775,1534.884c9.302-3.101,18.605-1.551,26.357,4.651c7.752,6.201,10.853,15.504,9.302,24.806
					c-1.55,9.302-7.752,17.054-17.054,20.155c-13.953,4.651-27.907-3.101-32.558-15.504
					C1138.17,1555.039,1144.372,1539.535,1156.775,1534.884z"/>
				<path fill="#641D05" d="M1161.426,1378.295c13.953-4.651,27.907,3.101,32.558,17.054c4.651,13.953-3.101,27.907-17.054,32.558
					c-13.953,4.651-27.907-3.101-32.558-17.054C1141.271,1396.899,1147.473,1382.946,1161.426,1378.295L1161.426,1378.295z"/>
				<path fill="#F87E34" d="M997.086,291.473c96.124-15.504,173.644-26.357,260.465,35.659
					c86.822,62.016,122.481,162.791,144.186,263.566c3.101,13.953,3.101,26.357-4.651,37.209
					c-3.101,6.201-10.853,18.605-13.953,24.806c-1.551,10.853,12.403,68.217,13.953,86.822
					c9.302,105.426-10.853,218.605-77.519,300.775c1.551,15.504,4.651,29.457,7.752,44.961h1.551l34.109,1.55
					c-3.101,17.054-9.302,46.512-18.605,60.465c-31.008,62.016-75.969,116.279-130.232,158.139
					c-12.403,10.853-34.109,26.357-49.613,29.457l-7.752-4.651l-9.302-9.302c-13.953-12.403-46.512-26.356-63.566-35.659
					c-63.566-35.659-105.426-83.721-137.984-147.287c1.55,0-52.713-1.55-57.365-1.55c-21.705-4.651-77.519-20.155-97.674-23.256
					c-9.302-4.651-46.512-18.605-60.465-23.256c-13.953,1.551-44.961,34.109-66.667,43.411
					c-31.008,13.953-97.674,12.403-117.829,27.907c-40.31,32.558-165.892,151.938-192.248,192.248l1.551,3.101h-4.651
					c-3.101,0-12.403,1.551-15.504,1.551c-12.403,17.054-27.907,35.659-38.76,52.713c-13.953,18.605-54.263,65.116-65.116,80.62
					v15.504c1.55,6.201,1.55,9.302,3.101,13.953c20.155,52.713,20.155,119.38,18.605,175.194c0,6.202-1.55,27.907-3.101,31.008
					c-20.155,9.302-40.31,18.605-60.465,27.907c-41.861,9.302-80.62,15.504-124.031,18.605v-479.07
					c21.705-7.752,127.132-82.171,155.039-100.775c57.365-38.76,113.178-77.519,170.543-116.279
					c27.907-18.605,65.116-43.411,89.922-65.116c37.209-32.558,68.217-82.171,105.426-116.279
					c27.907-26.357,63.566-41.86,93.023-63.566c24.806-23.256,26.357-49.612,38.76-79.07c13.953-35.659,37.209-18.605,62.016-29.457
					c-32.558-120.93-51.163-226.357,37.209-331.783c27.907-29.457,79.07-69.767,116.279-85.271
					C955.225,302.326,976.93,297.674,997.086,291.473L997.086,291.473z"/>
				<path fill="#ED2900" d="M997.086,291.473c96.124-15.504,173.644-26.357,260.465,35.659
					c86.822,62.016,122.481,162.791,144.186,263.566c3.101,13.953,3.101,26.357-4.651,37.209
					c-3.101-27.907-6.201-29.457-29.457-46.512c-34.109-23.256-69.767-31.008-108.527-40.31l-29.457-3.101
					c-88.372,3.101-179.845,13.953-260.465,51.163c-4.651,1.55-13.953,9.302-18.605,9.302
					c-69.767,24.806-113.178,69.767-158.14,125.581c-4.651,1.55-7.752,1.55-12.403,3.101
					c-32.558-120.93-51.163-226.357,37.209-331.783c27.907-29.457,79.07-69.767,116.279-85.271
					C955.225,302.326,976.93,297.674,997.086,291.473z"/>
				<path fill="#9E3200" d="M1231.194,537.985c10.853-4.651,34.109-6.202,46.512-4.651l1.551,1.551
					c-7.752,3.101-9.302,3.101-17.054,4.651L1231.194,537.985z"/>
				<path fill="#401D11" d="M1124.217,336.434c80.62-7.752,111.628,54.264,125.581,122.48l-83.721,7.752
					c-34.109,3.101-69.768,9.302-102.326,12.403C1052.899,420.155,1054.45,356.589,1124.217,336.434z"/>
				<path fill="#F87E34" d="M905.612,981.395c15.504,21.705,27.907,46.512,44.961,66.667
					c83.721,99.225,226.357,147.287,341.085,68.217c12.403-9.302,24.806-18.605,35.659-29.457h1.551l34.109,1.551
					c-3.101,17.054-9.302,46.512-18.605,60.465c-31.008,62.016-75.969,116.279-130.233,158.14
					c-12.403,10.853-34.109,26.357-49.613,29.457l-7.752-4.651l-9.302-9.302c-13.953-12.403-46.512-26.357-63.566-35.659
					c-63.566-35.659-105.426-83.721-137.984-147.287c27.907-17.054,31.008-31.008,7.752-54.264l-27.907-6.202
					C922.667,1054.264,905.612,1003.101,905.612,981.395L905.612,981.395z"/>
				<path fill="#CB1A00" d="M1330.419,1086.822l34.109,1.551c-3.101,17.054-9.302,46.512-18.605,60.465
					C1339.721,1136.434,1330.419,1099.225,1330.419,1086.822L1330.419,1086.822z"/>
				<path fill="#DE5218" d="M759.876,841.86c10.853-21.705,21.705-41.86,20.155-66.667c0-7.752-1.551-23.256,0-29.457
					c27.907,15.504,0,86.822-7.752,108.527c24.806,26.357,54.263,54.263,77.519,79.07c18.605,1.55,21.705,1.55,37.209-6.201
					c6.202,17.054,10.853,32.558,17.054,49.612l1.55,4.651c0,21.705,17.054,72.868,20.155,99.225l27.907,6.201
					c23.256,23.256,20.155,37.209-7.752,54.264c1.551,0-52.713-1.55-57.365-1.55c-21.705-4.651-77.519-20.155-97.674-23.256
					c-9.302-4.651-46.512-18.605-60.465-23.256c-13.953,1.551-44.961,34.109-66.667,43.411
					c-31.008,13.953-97.674,12.403-117.829,27.907c-40.31,32.558-165.892,151.938-192.248,192.248l1.55,3.101h-4.651
					c-3.101,0-12.403,1.55-15.504,1.55c7.752-10.853,13.953-20.155,21.705-31.008c26.357-34.109,172.093-187.597,201.55-200
					c32.558-15.504,71.318-12.403,105.426-26.357c15.504-6.201,41.861-32.558,57.365-29.457
					c20.155,4.651,38.76,15.504,57.365,24.806c40.31,17.054,114.729,40.31,159.69,34.108c9.302-1.55,17.054-4.651,23.256-12.403
					c4.651-6.202,3.101-10.853,3.101-17.054c-7.752-9.302-26.357-10.853-37.209-12.403c-32.558-4.651-57.365-10.853-88.372-23.256
					c-3.101,9.302-4.651,13.953-10.853,21.705h-3.101c0-9.302,4.651-17.054,7.752-24.806
					c-20.155-7.752-120.93-66.667-110.078-86.822c7.752,1.55,34.109,31.008,44.961,38.76c13.953,9.302,20.155,15.504,35.659,23.256
					c6.201-6.201,12.403-13.953,13.953-23.256c7.752-26.357-75.969-86.822-93.023-113.178l3.101-3.101
					c15.504-1.55,24.806,23.256,35.659,32.558c17.054,17.054,35.659,35.659,55.814,49.612l1.55,1.551
					c6.201-9.302,17.054-24.806,13.953-35.659c-6.201-27.907-72.868-79.07-93.023-100.775c-29.457-31.008-48.062,0-63.566,1.55
					v-3.101l4.651-4.651c15.504-9.302,21.705-12.403,38.76-18.605C741.272,827.907,749.023,832.558,759.876,841.86z"/>
				<path fill="#FD9613" d="M887.008,927.132c6.201,17.054,10.853,32.558,17.054,49.612l1.55,4.651
					c0,21.705,17.054,72.868,20.155,99.225c-40.31-4.651-72.868-12.403-106.977-35.659c4.651-12.403,13.953-31.008,12.403-43.411
					c0-9.302,15.504-29.457,18.605-40.31c1.55-9.302,1.55-15.504,0-26.357C868.403,934.884,871.504,934.884,887.008,927.132
					L887.008,927.132z"/>
				<path fill="#CB1A00" d="M887.008,927.132c6.201,17.054,10.853,32.558,17.054,49.612C877.706,984.496,856,992.248,831.194,1000
					c0-9.302,15.504-29.457,18.605-40.31c1.55-9.302,1.55-15.504,0-26.357C868.403,934.884,871.504,934.884,887.008,927.132z"/>
				<path fill="#DE5218" d="M887.008,927.132c7.752-20.155,6.201-27.907,3.101-49.612c13.953,23.256,38.76,75.969,55.814,94.574
					c71.318,83.721,221.705,158.14,328.682,105.426c15.504-7.752,32.558-24.806,44.961-35.659
					c1.551,15.504,4.651,29.457,7.752,44.961c-10.853,10.853-23.256,21.705-35.659,29.457
					c-114.729,79.07-257.365,31.008-341.085-68.217c-17.054-20.155-31.008-44.961-44.961-66.667l-1.551-4.651
					C897.86,959.69,893.209,942.636,887.008,927.132z"/>
				<path fill="#401D11" d="M793.985,724.031c44.961-55.814,88.372-100.775,158.14-125.581
					c-100.775,93.023-105.426,74.419-66.667,213.953c-4.651,1.551-18.605,3.101-21.705,1.551
					C832.744,779.845,845.147,750.388,793.985,724.031L793.985,724.031z"/>
				<path fill="#DE5218" d="M90.109,1631.008c6.201-6.201,13.953-12.403,20.155-18.605c41.861-37.209,82.17-75.969,119.38-117.829
					v15.504c1.551,6.202,1.551,9.302,3.101,13.953C187.783,1573.644,152.124,1598.45,90.109,1631.008L90.109,1631.008z"/>
				<path fill="#9E3200" d="M1369.178,581.396c23.256,15.504,26.357,18.605,29.457,46.512c-3.101,6.202-10.853,18.605-13.953,24.806
					C1381.581,629.457,1373.829,604.651,1369.178,581.396z"/>
				<path fill="#641D05" d="M1265.302,866.667c9.302,3.101,26.357,18.605,29.457,27.907c-4.651,12.403-12.403,3.101-15.504,4.651
					c-63.566,37.209-105.426,48.062-181.396,18.605l-3.101,3.101c-6.201,3.101-9.302,4.651-15.504,0
					c0-9.302,12.403-29.457,20.155-34.108c7.752,3.101,12.403,17.054,17.054,18.605c44.961,15.504,108.527,13.953,144.186-21.705
					C1256,886.822,1262.201,871.318,1265.302,866.667z"/>
				<path fill="#DE5218" d="M1181.582,739.535c12.403,3.101,26.357,40.31,32.558,52.713c18.605,37.209,40.31,77.519-18.605,86.822
					c-17.054-3.101-35.659-6.202-52.713-10.853c18.605-4.651,34.109-1.55,49.613-7.752
					C1209.488,834.109,1169.178,778.295,1181.582,739.535z"/>
				<path fill="#401D11" d="M1035.845,719.38c44.961-1.551,60.465,60.465,21.705,86.822
					C1015.69,809.302,1000.186,748.837,1035.845,719.38z"/>
				<path fill="#401D11" d="M1279.256,688.372c48.062-3.101,60.465,57.364,26.357,83.721
					C1259.101,776.744,1246.698,716.279,1279.256,688.372z"/>
				<path fill="#401D11" d="M1031.194,638.76c15.504-1.55,57.365,1.55,63.566,20.155c-7.752,13.953-58.915,7.752-83.721,17.054
					c-15.504,6.201-32.558,23.256-43.411,21.705l-1.55-4.651C975.38,660.465,1000.186,644.961,1031.194,638.76z"/>
				<path fill="#401D11" d="M1283.907,600c26.357,0,51.163,3.101,66.667,27.907c3.101,3.101,1.551,4.651,0,9.302
					c-10.853,3.101-34.109-7.752-52.713-7.752h-3.101c-23.256,1.55-32.558,7.752-54.264,13.953c-6.202,1.551-6.202,0-10.853-3.101
					C1224.992,612.403,1263.752,603.101,1283.907,600z"/>
				<path fill="#641D05" d="M1221.892,951.938h6.202c6.201,9.302-4.651,17.054-12.403,21.705
					c-15.504,9.302-27.907,6.201-43.411,1.55c-9.302-4.651-10.853-4.651-15.504-10.853
					C1162.977,955.039,1198.636,958.14,1221.892,951.938z"/>
				<path fill="#DE5218" d="M838.946,827.907c6.202,26.357,21.705,31.008,20.155,46.512
					C835.845,866.667,829.643,849.612,838.946,827.907z"/>
				<path fill="#FD9613" d="M65.303,1297.675V556.589V361.24c0-24.806-3.101-88.372,3.101-110.078
					c40.31-141.085,193.798-62.016,293.023-46.512c23.256,3.101-1.551,89.923,91.473,108.527
					c120.93,24.806,243.411,58.915,365.892,80.62c-88.372,105.426-69.768,209.302-37.209,331.783
					c-24.806,10.853-48.062-6.201-62.016,29.457c-10.853,29.457-13.953,55.814-38.76,79.07
					c-31.008,21.705-66.667,37.209-93.023,63.566c-35.659,34.109-66.667,85.271-105.426,116.279
					c-24.806,21.705-62.016,44.961-89.922,65.116c-55.814,38.76-113.178,77.519-170.543,116.279
					C193.985,1215.504,88.558,1289.922,65.303,1297.675L65.303,1297.675z"/>
				<path fill="#303131" d="M121.117,100.775c82.17-6.201,260.465,46.512,347.287,66.667
					c176.744,41.861,351.938,85.271,528.682,124.031c-20.155,6.201-43.411,10.853-62.016,18.605
					c-37.209,15.504-88.372,55.814-116.279,85.271c-120.93-21.705-244.961-55.814-365.892-80.62
					c-93.023-18.605-68.217-105.426-91.473-108.527c-99.225-15.504-252.713-96.124-293.023,46.512
					c-6.201,21.705-3.101,85.271-3.101,110.078V558.14v741.085v479.07v809.302V3000H1.737L0.186,370.543
					c3.101-10.853,0-31.008,0-41.86c0-60.465-4.651-120.93,32.558-172.093C59.101,122.481,83.907,111.628,121.117,100.775
					L121.117,100.775z"/>
				<path fill="#1F1F21" d="M635.845,280.62c17.054,1.55,111.628,21.705,133.333,31.008c4.651,1.551,6.201,9.302,6.201,13.953
					c-3.101-1.551-4.651-4.651-7.752-6.201C741.272,299.225,657.55,300.775,635.845,280.62L635.845,280.62z"/>
			</g>
		</g>
	</g>
</g>
</svg>
