<?xml version="1.0" encoding="utf-8"?>
<!-- Generator: Adobe Illustrator 27.9.0, SVG Export Plug-In . SVG Version: 6.00 Build 0)  -->
<svg version="1.1" id="svg" xmlns="http://www.w3.org/2000/svg" xmlns:xlink="http://www.w3.org/1999/xlink" x="0px" y="0px"
	 viewBox="0 0 4500 3000" enable-background="new 0 0 4500 3000" xml:space="preserve">
<g>
	<defs>
		<rect id="SVGID_1_" width="4499.865" height="2999.997"/>
	</defs>
	<clipPath id="SVGID_00000124137922436035208210000007867058692487248010_">
		<use xlink:href="#SVGID_1_"  overflow="visible"/>
	</clipPath>
	<g clip-path="url(#SVGID_00000124137922436035208210000007867058692487248010_)">
		
			<linearGradient id="SVGID_00000141442425902222597920000013037480041464012222_" gradientUnits="userSpaceOnUse" x1="2277.1018" y1="3034.5835" x2="2239.177" y2="889.9715" gradientTransform="matrix(1 0 0 -1 0 3002)">
			<stop  offset="0" style="stop-color:#F33426"/>
			<stop  offset="1" style="stop-color:#FB711F"/>
		</linearGradient>
		<path fill="url(#SVGID_00000141442425902222597920000013037480041464012222_)" d="M0,0h4500v2070.525V3000H0v-938.765V0z"/>
		<path fill="#DA3A1B" d="M0,2061.235c5.268,3.846,6.09,5.462,8.392,11.539c68.125,11.754,495.566-4.277,514.434,6.809
			c-16.552,18.055-48.098,41.538-33.33,66.525c30.006,17.558,39.601-21.317,62.8-9.859c12.656,6.25,38.452,55.523,31.445,72.213
			c16.275,6.791,32.41,13.912,48.39,21.363c16.082-3.055,78.812-3.363,98.057-3.429c70.789-0.242,141.579,0.483,212.348,2.176
			c10.485,20.286,21.806,52.22,50.803,34.285c15.106-9.341,30.127-18.901,45.149-28.396l1.934-0.594
			c24.302-1.077,11.595-14.198,18.011-24.242c1.033,0.527,2.07,1.055,3.111,1.582c4.674,2.286,15.423,8.33,20.83,5.319
			c39.272-21.767,89.635-53.07,112.603-92.505c2.008-3.444-1.261-12.89-3.564-15.673c-14.073-17.018-24.365-25.09-45.066-29.075
			c85.685-0.543,172.657-4.143,258.315,1.514c-22.186,29.607-23.748,23.934-34.37,56.952c4.843,7.615,6.119,8.446,13.401,13.886
			l4.32-2.044c17.053-1.435,26.473-7.767,38.654-18.695l1.986,4.978c9.231-0.062,14.588-0.459,21.331,6.677
			c12.852,13.602,26.281,38.495,31.074,56.292l-3.421,7.978c2.243,4.813,44.556,20.637,54.002,24.725
			c15.706-8.088,264.795-4.527,298.841-3.121c10.791,21.341,21.303,52.022,51.28,35.45c17.139-9.472,33.115-21.78,50.146-30.989
			c20.617-13.363,6.772-25.341,14.038-32.308l2.894,2.857c4.647,11.011,15.75,18.681,27.468,12.198
			c41.003-22.743,176.247-98.385,71.638-136.101c3.371,1.508,10.525,3.149,13.849,2.565c28.109-4.938,237.423,4.031,249.333-3.299
			c-9.844,14.488-21.423,27.176-30.696,41.862c-3.098,4.892-3.406,11.015-5.471,15.116c9.009,17.824,23.643,23.892,41.968,13.82
			c5.603-3.055,10.789-6.811,15.447-11.174c33.047-8.026,44.736,36.009,56.206,59.892c1.318,2.725-1.736,9.539-2.812,12.792
			c20.347,6.637,34.058,11.604,53.635,20.176c27.905-9.626,286.743-4.088,334.995-3.23c-9.009-19.055-21.819-38.884-4.46-55.525
			c5.032-1.026,14.722-1.651,20.193-2.18c19.138-2.257,30.476-4.015,32.3-25.51c-5.537-16.971-22.632-48.67-31.311-65.826
			c7.097-1.945,493.748-3.369,504.47,0.644c-5.933,7.261-36.453,46.306-40.759,50.55c2.043,4.512,4.988,11.692,7.427,15.694
			c19.336,7.82,34.519-3.71,49.395-14.624c14.392-16.138,30.388-36.967,44.758-54.046l375.491-0.156
			c8.306,15.554,42.385,81.415,50.845,91.09c21.445-2.323,25.994-2.066,34.937-22.2c-8.547-20.242-23.159-46.938-33.442-67.042
			c17.402-7.532,181.56,2.257,209.971-3.611c7.888,2.024,108.259,1.035,121.816,0.998l271.56-2.587
			c35.75-0.624,68.247,0.514,104.678-1.158c3.604-3.253,1.428-1.996,7.734-2.029v929.475H0V2061.235z"/>
		<path fill="#A42A11" d="M3731.902,2077.064c8.306,15.554,42.385,81.415,50.845,91.09l-14.897,3.114
			c-7.097,1.266-7.91,1.538-12.964,6.664c-5.317,12.98,2.153,28.464,7.383,41.057c1.296,3.077,2.593,6.132,3.933,9.187
			c37.727,68.725,47.043,34.241,103.228,4.659c56.404,1.209,200.808,14.11,245.654,41.407
			c-92.153,58.176-703.059,51.516-835.95,39.143c-44.253-4.132-108.259-8.352-152.666-19.429
			c-11.667-2.923-23.049-5.033-32.058-13.758l-1.67-4.572c12.766-20.769,128.101-31.011,151.765-32.241
			c-25.906-14.066-70.4-42.989-82.244-70.378c-4.417-10.22,50.581-62.369,67.324-66.371c17.402,4.846,15.864,28.428,30.476,41.339
			l2.197-2.083c19.336,7.82,34.519-3.71,49.395-14.624c14.392-16.138,30.388-36.967,44.758-54.046L3731.902,2077.064z"/>
		<path fill="#EB410C" d="M3731.902,2077.064c8.306,15.554,42.385,81.415,50.845,91.09l-14.897,3.114
			c-7.097,1.266-7.91,1.538-12.964,6.664c-5.317,12.98,2.153,28.464,7.383,41.057c1.296,3.077,2.593,6.132,3.933,9.187
			c-78.245-1.956-156.511-2.33-234.756-1.121c-27.993,0.418-83.606,0.242-109.995,4.374c-4.702-1.033-46.824-17.736-55.283-20.857
			c1.252-5.583,1.604-8.22,2.153-13.934c-11.909-22.44-22.961-49.237-43.879-62.209c-4.614-0.87-8.306-1.914-12.788-3.163
			c14.392-16.138,30.388-36.967,44.758-54.046L3731.902,2077.064z"/>
		<path fill="#FEFEFE" d="M3244.504,2243.385c-25.906-14.066-70.4-42.989-82.244-70.378c-4.417-10.22,50.581-62.369,67.324-66.371
			c17.402,4.846,15.864,28.428,30.476,41.339l2.197-2.083c19.336,7.82,34.519-3.71,49.395-14.624
			c4.482,1.248,8.174,2.292,12.788,3.163c20.918,12.971,31.97,39.769,43.879,62.209c-0.549,5.714-0.901,8.352-2.153,13.934
			c8.459,3.121,50.581,19.824,55.283,20.857c13.579,10.417,31.685,32.044,17.666,46.769
			c-36.497,38.308-127.112,5.297-165.037-19.033c-5.317-3.406-11.667-16.572-14.48-21.582
			C3252.041,2238.836,3251.338,2239.539,3244.504,2243.385L3244.504,2243.385z"/>
		<path fill="#F05A0E" d="M3311.653,2131.266c4.482,1.249,8.174,2.292,12.788,3.163c-23.599,3.606-38.474,33.952-64.38,13.545
			l2.197-2.083C3281.594,2153.71,3296.777,2142.18,3311.653,2131.266z"/>
		<path fill="#A42A11" d="M2183.194,2166.69c20.026-16.886,40.241-45.963,61.291-58.222c15.205-8.844,25.159,15.2,30.476,27.301
			c9.009,17.824,23.643,23.892,41.968,13.82c5.603-3.055,10.789-6.811,15.447-11.174c33.047-8.026,44.736,36.009,56.206,59.892
			c1.318,2.725-1.736,9.539-2.812,12.792c20.347,6.637,34.058,11.604,53.635,20.176c27.905-9.626,286.743-4.088,334.995-3.23
			c12.129,24.417,21.116,52.703,53.943,34.396c15.557-8.659,30.981-20.088,46.318-28.308
			c23.225,1.099,173.826,11.978,175.847,40.791c-8.284,12.264-30.652,16.989-44.231,19.626
			c-63.699,12.286-127.441,18.11-192.107,21.934c-114.346,6.813-586.318,16.11-666.323-32.439c-2.129-1.297-3.325-2.681-4.959-4.506
			c-0.787-24.527,103.728-33.121,124.91-36.813C2238.728,2226.44,2200.803,2195.18,2183.194,2166.69L2183.194,2166.69z"/>
		<path fill="#FEFEFE" d="M2183.194,2166.69c20.026-16.886,40.241-45.963,61.291-58.222c15.205-8.844,25.159,15.2,30.476,27.301
			c9.009,17.824,23.643,23.892,41.968,13.82c5.603-3.055,10.789-6.811,15.447-11.174c33.047-8.026,44.736,36.009,56.206,59.892
			c1.318,2.725-1.736,9.539-2.812,12.792c20.347,6.637,34.058,11.604,53.635,20.176c10.811,7.319,20.479,16.22,22.302,29.385
			c3.142,22.835-25.62,33.824-43.198,34.44c-43.66,1.538-92.087-14.659-126.431-41.253c-4.46-3.604-6.724-11.231-8.416-16.572
			c-5.427-1.538-9.426,2.198-15.864,5.45C2238.728,2226.44,2200.803,2195.18,2183.194,2166.69L2183.194,2166.69z"/>
		<path fill="#A42A11" d="M389.296,2159.25c16.244-13.881,53.971-57.477,68.884-59.989c7.607,3.699,16.284,35.11,31.315,46.846
			c30.006,17.558,39.601-21.317,62.8-9.859c12.656,6.25,38.452,55.523,31.445,72.213c16.275,6.791,32.41,13.912,48.391,21.363
			c16.082-3.055,78.812-3.363,98.057-3.429c70.789-0.242,141.578,0.483,212.348,2.176c10.485,20.286,21.806,52.22,50.803,34.286
			c15.106-9.341,30.127-18.901,45.149-28.396c19.613,1.494,169.657,10.835,156.278,46.088
			c-24.783,20.791-170.31,32.022-209.859,34.637c-119.687,6.989-239.616,8.945-359.466,5.846
			c-41.008-0.879-332.139-7.516-338.86-43.692c23.153-36.132,150.985-24.154,182.597-41.428
			C436.256,2216.571,409.735,2191.74,389.296,2159.25L389.296,2159.25z"/>
		<path fill="#FEFEFE" d="M389.296,2159.25c16.244-13.881,53.971-57.477,68.884-59.989c7.607,3.699,16.284,35.11,31.315,46.846
			c30.006,17.558,39.601-21.317,62.8-9.859c12.656,6.25,38.452,55.523,31.445,72.213c16.275,6.791,32.41,13.912,48.391,21.363
			c35.971,29.121,28.268,63.758-19.044,63.912c-39.292,0.154-90.96-18.681-119.958-45.011c-8.455-7.956-3.786-15.472-12.938-17.428
			l-11.013,4.615C436.256,2216.572,409.735,2191.741,389.296,2159.25L389.296,2159.25z"/>
		<path fill="#A42A11" d="M1361.979,2241.451c-1.815-0.967-3.617-1.978-5.403-3.011c-22.364-12.835-66.676-46.171-73.527-71.213
			c6.734-14.095,51.891-64.614,69.102-61.059c9.538,7.541,13.346,20.13,18.143,31.573c4.843,7.615,6.119,8.446,13.401,13.886
			l4.32-2.044c17.053-1.435,26.473-7.767,38.654-18.695l1.986,4.978c9.231-0.062,14.588-0.459,21.331,6.677
			c12.852,13.602,26.281,38.494,31.074,56.292l-3.421,7.978c2.243,4.813,44.556,20.637,54.002,24.725
			c15.706-8.088,264.795-4.527,298.841-3.121c10.791,21.341,21.303,52.022,51.28,35.451c17.139-9.472,33.115-21.78,50.146-30.989
			c28.564,2.703,160.846,11.538,169.482,40.33c-2.38,6.264-5.161,8.572-11.237,11.45c-109.51,51.714-723.931,48.572-835.928,5.407
			c-4.944-1.89-9.068-4.418-13.085-7.868C1231.675,2252.923,1344.373,2246.022,1361.979,2241.451L1361.979,2241.451z"/>
		<path fill="#FEFEFE" d="M1361.979,2241.451c-1.815-0.967-3.617-1.978-5.403-3.011c-22.364-12.835-66.676-46.171-73.527-71.213
			c6.734-14.095,51.891-64.614,69.102-61.059c9.538,7.541,13.346,20.13,18.143,31.573c4.843,7.615,6.119,8.446,13.401,13.886
			l4.32-2.044c17.053-1.435,26.473-7.767,38.654-18.695l1.986,4.978c9.231-0.062,14.588-0.459,21.331,6.677
			c12.852,13.602,26.281,38.494,31.074,56.292l-3.421,7.978c2.243,4.813,44.556,20.637,54.002,24.725
			c8.339,5.758,23.078,17.824,22.843,28.286c-1.562,68.945-143.552,22.461-168.923-7.209
			C1376.196,2241.67,1384.161,2230.571,1361.979,2241.451L1361.979,2241.451z"/>
		<path fill="#F05A0E" d="M1426.669,2130.888l1.986,4.978c-15.357,12.666-24.014,21.967-44.96,15.761l4.32-2.044
			C1405.068,2148.147,1414.488,2141.815,1426.669,2130.888z"/>
		<path fill="#FEFEFE" d="M3784.241,2078.912c17.402-7.532,181.56,2.257,209.971-3.611l-4.46,6.4
			c17.007,6.958,47.944,23.925,34.629,45.703c-20.061,32.782-84.902,73.035-119.509,85.958c-6.636-4.571-11.821-8.439-19.226-11.78
			l-2.856,1.736c-1.318,16.945,0.637,19.429-13.359,29.517c-56.184,29.582-65.5,64.066-103.228-4.659
			c-1.34-3.055-2.637-6.11-3.933-9.187c-5.229-12.593-12.7-28.077-7.383-41.057c5.054-5.125,5.867-5.398,12.964-6.664l14.897-3.115
			c21.445-2.323,25.994-2.066,34.937-22.2C3809.136,2125.712,3794.524,2099.016,3784.241,2078.912L3784.241,2078.912z"/>
		<path fill="#EB410C" d="M3784.241,2078.912c17.402-7.532,181.56,2.257,209.971-3.611l-4.46,6.4
			c-28.938-1.33-44.209,24.292-70.884,33.661c-1.165-1.248-2.329-2.497-3.494-3.747c-1.099-1.387-2.219-2.774-3.318-4.16
			c-19.556-3.552-85.386-12.584-93.098,19.732c-0.637,2.664-0.22,12.488-0.132,15.712l-1.143,3.055
			C3809.136,2125.712,3794.524,2099.016,3784.241,2078.912z"/>
		<path fill="#FEC6B3" d="M3818.826,2142.899c3.34,6.288,2.329,4.196,1.23,12.668c-10.591,16.345-34.695,16.774-52.207,15.701
			l14.897-3.114c21.445-2.323,25.994-2.066,34.937-22.2L3818.826,2142.899z"/>
		<path fill="#FEFEFE" d="M2827.046,2143.677c-3.582-26.448,7.405-34.861,33.267-37.33c13.777-1.314,54.36-3.13,60.732,9.701
			l3.845,1.2c33.926-21.604,66.907-56.932,101.58-7.49c3.494,4.978,4.087,9.569,3.296,15.501
			c-13.645,25.481-81.65,76.499-110.962,85.18c-9.36,2.791-11.228,2.242-19.358-2.286c-1.077-0.594-2.131-1.209-3.186-1.846
			l-4.856-4.989l-2.483,1.45c-1.34,18.659,1.252,20.945-14.26,31.363c-15.337,8.22-30.762,19.648-46.318,28.308
			c-32.827,18.308-41.814-9.978-53.943-34.396c-9.009-19.055-21.819-38.883-4.46-55.525c5.032-1.026,14.722-1.651,20.193-2.18
			c19.138-2.257,30.476-4.015,32.3-25.51L2827.046,2143.677z"/>
		<path fill="#FEC6B3" d="M2827.046,2143.677c4.329,32.361-36.255,29.24-57.107,28.842c5.032-1.026,14.722-1.651,20.193-2.18
			c19.138-2.257,30.476-4.015,32.3-25.51L2827.046,2143.677z"/>
		<path fill="#F05A0E" d="M2791.121,2079.002c7.097-1.945,493.748-3.369,504.47,0.644c-5.933,7.261-36.453,46.305-40.759,50.55
			c-0.813-10.437,10.217-21.136,17.095-29.191c5.999-7.004,12.107-13.941,18.259-20.807c-28.85,0.002-282.634-1-289.644,3.323
			l1.692,0.628c14.875,5.609,18.984,12.607,30.322,24.033c14.81,37.809-89.714,99.664-119.619,109.576
			c-6.746,2.242-15.205-4.593-16.677-11.45c1.055,0.637,2.109,1.253,3.186,1.846c8.13,4.528,9.998,5.077,19.358,2.286
			c29.312-8.681,97.317-59.699,110.962-85.18c0.791-5.932,0.198-10.523-3.296-15.501c-34.673-49.442-67.654-14.114-101.58,7.49
			l-3.845-1.2c-6.372-12.831-46.956-11.015-60.732-9.701c-25.862,2.468-36.848,10.881-33.267,37.33l-4.614,1.152
			C2816.895,2127.857,2799.8,2096.158,2791.121,2079.002L2791.121,2079.002z"/>
		<path fill="#FD8628" d="M389.608,1337.782c161.55-180.657,482.757-171.71,662.715-22.492
			c45.189,37.47,95.84,140.33,37.211,183.828c-4.803,9.343-29.975,12.734-40.243,13.569l9.426,10.215
			c18.899,22.776,27.661,39.132,28.531,69.505c7.622,17.563,12.234,32.945,32.75,38.736c19.118-0.369,30.975,4.607,35.101,24.514
			c-2.49,5.734-5.08,12.609-8.62,17.615c-32.337,23.453-61.816,4.796-104.935,20.185c-14.783-1.87-16.414-0.785-29.481-7.949
			c-43.124,2.578-77.036,7.716-119.224,14.154c-31.507,7.444-80.481,5.789-113.519,7.589c-33.871,1.846-66.406,3.341-100.362,1.87
			c-21.549-0.934-58.832-8.376-77.805-7.826l-8.875-5.211c-23.379,0.859-64.288,3.824-87.034,6.938l-14.249-0.723l-6.31,2.637
			c11.896-12.035,11.057-24.255-0.729-35.261l-2.054,0.842c-15.359-1.266-27.4-3.105-42.456-5.582
			c-21.52-4.035-55.857-9.917-76.091-15.69c-9.371-0.352-21.514-0.132-30.065-3.079c-8.156-3.415-16.383-6.941-20.078-16.022
			c-6.625-16.275-17.846-41.571-12.406-59.066c2.268-7.299,12.924-11.007,19.828-14.209c7.458-18.473,42.434-36.895,60.398-48.033
			c-24.267-9.426-30.237-1.646-55.96-19.91c39.621,1.064,70.363,6.721,112.759-0.446c-38.637-12.503-32.416-58.906-29.678-90.519
			c-11.228,16.734-23.032,36.989-19.98,58.244c1.43,9.965,4.427,15.24,4.065,25.813c-0.528,0.251-1.053,0.503-1.58,0.754
			c-75.362,1.24-41.847-80.446-19.534-117.026C381.78,1348.275,383.393,1346.833,389.608,1337.782L389.608,1337.782z"/>
		<path fill="#A42A11" d="M320.634,1556.87c14.008,6.273,48.606,7.842,61.75,4.031c23.313-6.76,137.683-19.943,149.502-29.877
			c8.288,2.125,10.742,2.864,19.496,3.09c6.229,0.167,32.509,0.409,37.109,1.213l35.073,1.472
			c65.23,3.424,298.171,1.655,244.461,120.297l1.112,8.422c5.614,11.784,11.566,15.991,24.135,19.33l15.62,7.284l-1.668,0.508
			c-7.108,2.235-8.279,2.844-14.383,7.024c-31.507,7.444-80.481,5.789-113.52,7.589c-33.871,1.846-66.406,3.341-100.362,1.87
			c-21.548-0.934-58.832-8.376-77.805-7.826l-8.875-5.211c-23.379,0.859-64.288,3.824-87.034,6.938l-14.249-0.723l-6.311,2.637
			c11.896-12.035,11.057-24.255-0.729-35.261l-2.054,0.842c-15.359-1.266-27.4-3.105-42.456-5.582
			c-21.52-4.035-55.857-9.917-76.091-15.69c-9.371-0.352-21.513-0.132-30.065-3.079c-8.156-3.415-16.383-6.941-20.078-16.022
			c-6.625-16.275-17.846-41.571-12.406-59.066C303.073,1563.781,313.73,1560.073,320.634,1556.87L320.634,1556.87z"/>
		<path fill="#8F230F" d="M439.447,1664.936l0.729-3.264c6.693-4.626,28.009-11.268,37.101-13.89
			c21.353-6.156,7.655-26.468,16.433-45.684c11.235,5.283,9.872,25.657,18.943,34.749l2.294-0.472
			c-1.688-8.152-2.562-12.763-3.232-21.273l2.599-2.486c11.544,3.505,35.128,30.369,50.115,37.149
			c21.041,9.519,13.008,14.569,37.808,6.818c27.279,12.209,67.57,17.881,96.401,12.174c5.443-5.407,5.842-12.301,7.515-20.15
			l4.854-9.44c17.659,3.873,23.972,9.927,40.471-0.646c0.606-1.281,4.658-5.158,5.915-6.448c7.853-1.288,14.441,3.334,22.03,7.09
			c13.775,2.363,13.271,7.11,19.705,19.499c45.664,21.996,39.393-12.292,68.897-1.567l1.112,8.422
			c5.614,11.785,11.566,15.991,24.135,19.33l15.62,7.284l-1.668,0.508c-7.108,2.235-8.279,2.844-14.383,7.024
			c-31.507,7.444-80.481,5.789-113.519,7.589c-33.871,1.846-66.406,3.341-100.362,1.87c-21.549-0.934-58.832-8.376-77.805-7.826
			l-8.875-5.211c-23.379,0.859-64.288,3.824-87.034,6.938l-14.249-0.723l-6.311,2.637c11.896-12.035,11.057-24.255-0.729-35.262
			l-2.054,0.842C466.543,1669.253,454.502,1667.413,439.447,1664.936L439.447,1664.936z"/>
		
			<linearGradient id="SVGID_00000176724844203874348010000015497285102211361458_" gradientUnits="userSpaceOnUse" x1="757.6381" y1="1276.2681" x2="746.9792" y2="1324.0637" gradientTransform="matrix(1 0 0 -1 0 3002)">
			<stop  offset="0" style="stop-color:#EC0D00"/>
			<stop  offset="1" style="stop-color:#C50401"/>
		</linearGradient>
		<path fill="url(#SVGID_00000176724844203874348010000015497285102211361458_)" d="M869.137,1665.519
			c5.614,11.785,11.566,15.991,24.135,19.33l15.62,7.284l-1.668,0.508c-7.108,2.235-8.279,2.844-14.383,7.024
			c-31.507,7.444-80.481,5.789-113.519,7.589c-33.871,1.846-66.406,3.341-100.362,1.87c-21.549-0.934-58.832-8.376-77.805-7.826
			l-8.875-5.211c36.439-1.96,54.806,10.149,103.946,4.173c22.351-3.055,36.136-10.492,55.604-21.78
			c7.106-3.774,18.595-7.813,26.479-10.837C818.349,1685.543,830.461,1698.572,869.137,1665.519z"/>
		<path fill="#A42A11" d="M553.021,1671.796l1.244,5.422c8.422,3.409,97.657,1.602,117.953,4.189
			c7.923,6.187,16.264,12.508,24.007,18.853c-49.14,5.976-67.507-6.134-103.946-4.174c-23.379,0.859-64.288,3.824-87.034,6.938
			l-14.249-0.723C511.154,1688.574,533.76,1688.125,553.021,1671.796L553.021,1671.796z"/>
		<path fill="#DA3A1B" d="M483.957,1669.677c21.902-8.053,49.768-15.941,69.065,2.119c-19.261,16.33-41.867,16.778-62.024,30.505
			l-6.311,2.637C496.582,1692.903,495.743,1680.683,483.957,1669.677L483.957,1669.677z"/>
		<path fill="#A42A11" d="M672.218,1681.407c22.006,0.185,59.893-5.574,79.611-2.927c-19.468,11.288-33.253,18.725-55.604,21.78
			C688.482,1693.914,680.141,1687.593,672.218,1681.407z"/>
		<path fill="#A42A11" d="M711.007,1639.169c17.659,3.873,23.972,9.927,40.471-0.646c-4.023,10.312-6.978,18.024-17.541,22.712
			C718.616,1660.615,718.071,1651.464,711.007,1639.169L711.007,1639.169z"/>
		<path fill="#F05A0E" d="M791.613,1590.402c4.474,1.714,9.875,3.589,14.115,5.644c13.296,27.136,2.571,39.501-26.306,43.119
			c-7.589-3.756-14.177-8.378-22.03-7.09c-1.257,1.29-5.309,5.167-5.915,6.448c-16.499,10.574-22.812,4.519-40.472,0.646
			l-4.854,9.44c-31.656,33.409-47.782-1.576-73.05-18.677c-6.601-4.466-10.922-7.277-15.779-13.697
			c-2.103-8.585-2.558-5.461,0.204-13.073c6.209-6.051,7.044-6.765,15.26-9.437l9.521-0.49l11.279,2.42l4.79,3.837
			c8.558,3.301,26.692-2.774,35.859-5.352c33.809,22.96,26.413,4.8,57.162-2.345c7.473,0.457,26.833,2.602,32.801,1.543
			L791.613,1590.402z"/>
		<path fill="#8F230F" d="M320.634,1556.87c14.008,6.273,48.606,7.842,61.75,4.031c23.313-6.76,137.683-19.943,149.502-29.877
			c8.288,2.125,10.742,2.864,19.496,3.09l0.501,1.319c4.085,10.426,11.452,19.967,12.41,29.826
			c-4.223,9.323-13.234,7.242-22.755,7.385c-8.903-6.004-0.765-21.211,3.113-28.754c-11.698,0.938-23.159,3.231-34.708,5.319
			c2.254,11.631,4.997,24.334,6.761,35.952l-1.285-1.901c-8.796-13.27-8.356-24.802-13.124-31.165
			c-6.728-0.717-6.994-0.585-13.57,1.42c-9.402,10.701-4.197,33.407-6.66,50.765c-4.801-14.681-11.806-44.457-29.103-47.943
			c-15.888,8.796-11.571,33.354-10.738,49.099c-17.752-37.982-14.612-39.763-56.632-35.635c2.417,10.024,10.822,50.534,4.841,58.826
			c-11.602-11.943-15.007-49.607-28.358-55.55c-7.976,0.917-11.382,0.78-18.128,5.495c-12.588,21.244,11.663,51.517,25.378,67.49
			c-2.834,3.4-1.039,2.136-5.97,3.185c-9.371-0.351-21.513-0.132-30.065-3.079c-8.156-3.415-16.383-6.941-20.078-16.022
			c-6.625-16.275-17.846-41.571-12.406-59.066C303.073,1563.781,313.73,1560.073,320.634,1556.87L320.634,1556.87z"/>
		<path fill="#8F230F" d="M588.491,1535.328l35.073,1.473c-0.193,1.2-1.521,4.578-1.988,5.879
			c-6.451,2.455-12.861,5.02-19.224,7.688l0.024,2.029c5.113,0.334,11.263,0.094,15.324,2.763
			c-0.664,6.178-21.377,36.49-27.962,37.308c-8.62-14.501,2.362-33.371-4.742-52.881l-0.448-1.202L588.491,1535.328z"/>
		<path fill="#8F230F" d="M764.851,1572.993c6.721-5.565,13.241-12.222,21.698-13.569l4.285,1.76
			c2.426,10.958-2.766,17.435-8.385,27.387l1.751,4.767c-5.968,1.059-25.328-1.086-32.801-1.543
			c-8.227-1.87-16.422-4.33-24.55-6.635l-0.415-4.473C733.515,1573.906,754.482,1573.857,764.851,1572.993z"/>
		<path fill="#A42A11" d="M726.849,1585.16c9.363-0.6,34.44-4.244,40.858-2.609l5.515,6.684c4.456,0.158,5.008,0.6,9.226-0.664
			l1.751,4.767c-5.968,1.059-25.328-1.086-32.801-1.543C743.172,1589.925,734.977,1587.466,726.849,1585.16L726.849,1585.16z"/>
		<path fill="#8F230F" d="M648.435,1557.963c12.584,0.163,15.585,1.539,27.341,2.943l0.69,2.635
			c-5.871,4.622-8.446,6.431-14.952,10.081c-0.562,11.066,1.547,16.723-3.135,25.87l-4.79-3.837l-11.279-2.42
			c5.421-16.71,4.039-21.077-7.02-33.807C641.307,1560.921,642.265,1560.082,648.435,1557.963L648.435,1557.963z"/>
		<path fill="#A42A11" d="M635.289,1559.428c6.018,1.492,6.976,0.653,13.146-1.466c1.898,11.851,4.546,25.897,5.153,37.692
			l-11.279-2.42C647.73,1576.525,646.348,1572.158,635.289,1559.428z"/>
		<path fill="#8F230F" d="M791.613,1590.402c4.805-11.459,9.44-19.796,22.447-15.705c4.922,6.009,3.92,3.169,4.575,10.598
			c-3.169,6.549-4.605,9.811-12.907,10.752C801.488,1593.991,796.087,1592.117,791.613,1590.402L791.613,1590.402z"/>
		<path fill="#8F230F" d="M635.289,1559.428c11.059,12.73,12.441,17.097,7.02,33.807l-9.521,0.49l-5.056-5.681
			C627.15,1578.771,631.949,1568.47,635.289,1559.428z"/>
		<path fill="#8F230F" d="M362.296,1592.251l6.047,4.073c7.633,12.971,3.792,18.512-6.631,27.352
			c-7.326-5.853-11.736-10.831-11.874-20.477C353.982,1594.67,351.69,1597.659,362.296,1592.251L362.296,1592.251z"/>
		<path fill="#8F230F" d="M437.39,1603.13c9.692,9-0.523,19.193,15.128,36.532l1.747,1.899l-2.547,3.864
			C426.962,1636.167,428.689,1625.912,437.39,1603.13z"/>
		<path fill="#8F230F" d="M823.57,1625.286c8.429-0.017,14.315-0.967,21.357,3.308c3.184,7.378,2.443,4.494,0.67,13.503
			c-9.89,2.248-9.189,3.6-17.877,1.044C823.023,1637.191,823.81,1633.04,823.57,1625.286z"/>
		<path fill="#8F230F" d="M713.751,1549.453c6.763,1.44,11.725,2.576,14.906,8.523c-5.159,5.877-7.767,5.081-16.249,7.501
			c-5.234,0.163-9.152,0.952-13.566-1.607C705.804,1558.78,708.421,1556.552,713.751,1549.453L713.751,1549.453z"/>
		<path fill="#ECE892" d="M729.927,1495.996c55.817-4.868,145.83,9.912,202.819,13.855c41.256,2.853,74.927,3.25,116.545,2.838
			l9.426,10.215c18.899,22.776,27.661,39.132,28.531,69.505c7.622,17.563,12.234,32.945,32.75,38.736
			c19.118-0.369,30.975,4.607,35.101,24.514c-2.49,5.734-5.08,12.609-8.62,17.615c-32.337,23.453-61.816,4.796-104.935,20.185
			c-14.783-1.87-16.414-0.785-29.481-7.949c-43.124,2.578-77.036,7.716-119.224,14.154c6.104-4.18,7.275-4.789,14.383-7.024
			l1.668-0.508l-15.62-7.284c-12.568-3.338-18.521-7.545-24.135-19.33l-1.112-8.422c53.71-118.642-179.231-116.872-244.461-120.297
			l-35.073-1.472c-4.601-0.804-30.88-1.046-37.109-1.213c-8.754-0.226-11.208-0.965-19.496-3.09
			c9.879-4.688,106.82-20.657,125.481-24.31C681.852,1503.018,705.292,1500.35,729.927,1495.996L729.927,1495.996z"/>
		<path fill="#C6B55C" d="M657.367,1506.714c3.142,1.099,10.033,3.306,12.757,4.556c-23.436,4.297-46.775,9.103-70,14.417
			l2.388,0.556c74.435,16.754,209.16-4.618,265.72,61.655c19.62,22.989,3.854,89.538,29.307,85.578
			c59.944-9.323,67.247-31.099,127.666,8.281c17.609,11.479,96.289-0.347,119.015-17.437c3.693-2.802,7.321-5.69,10.881-8.662
			c-2.49,5.734-5.08,12.609-8.62,17.615c-32.337,23.453-61.816,4.796-104.935,20.185c-14.783-1.87-16.414-0.785-29.481-7.949
			c-43.124,2.578-77.036,7.716-119.224,14.154c6.104-4.18,7.275-4.789,14.383-7.024l1.668-0.508l-15.62-7.284
			c-12.568-3.338-18.521-7.545-24.135-19.33l-1.112-8.422c53.71-118.642-179.231-116.872-244.461-120.297l-35.073-1.473
			c-4.601-0.804-30.88-1.046-37.109-1.213c-8.754-0.226-11.208-0.965-19.496-3.09
			C541.765,1526.336,638.706,1510.367,657.367,1506.714L657.367,1506.714z"/>
		<path fill="#DA3A1B" d="M996.535,1672.864c5.014,3.95,10.92,8.352,15.53,12.646c-43.124,2.578-77.036,7.716-119.224,14.154
			c6.104-4.18,7.275-4.789,14.383-7.024l1.668-0.508l-15.62-7.284c9.729-0.831,11.529-1.092,20.995-4.132l0.65,2.864
			C923.212,1686.703,985.625,1678.356,996.535,1672.864z"/>
		<path fill="#A42A11" d="M914.267,1680.717c27.712-17.541,51.565-22.635,82.268-7.853c-10.909,5.492-73.323,13.84-81.617,10.717
			L914.267,1680.717z"/>
		<path fill="#C6B55C" d="M729.927,1495.996c55.817-4.868,145.83,9.912,202.819,13.855c41.256,2.853,74.927,3.25,116.545,2.838
			l9.426,10.215c-87.761,11.121-210.641-17.635-300.454-20.2c-23.304-0.666-64.031,5.607-88.139,8.567
			c-2.725-1.25-9.615-3.457-12.757-4.556C681.851,1503.017,705.292,1500.349,729.927,1495.996z"/>
		<path fill="#C6B55C" d="M1087.249,1592.409c7.622,17.563,12.234,32.945,32.75,38.736c-11.155,5.262-32.687,22.646-45.681,16.607
			C1070.046,1638.411,1083.757,1606.103,1087.249,1592.409z"/>
		<path fill="#EB410C" d="M724.091,1473.611c14.612,0.945,25.064,1.125,39.704,0.743c55.009,3.888,109.938,8.822,164.758,14.798
			c41.99,4.45,122.366,15.009,160.98,9.967c-4.803,9.343-29.975,12.734-40.243,13.569c-41.618,0.413-75.289,0.016-116.545-2.837
			c-56.988-3.943-147.002-18.723-202.819-13.855c-24.636,4.354-48.076,7.022-72.56,10.719
			c-18.661,3.653-115.603,19.622-125.481,24.31c-11.819,9.934-126.189,23.116-149.502,29.877
			c-13.144,3.811-47.742,2.242-61.75-4.031c7.457-18.472,42.434-36.895,60.398-48.033c-24.267-9.426-30.237-1.646-55.96-19.91
			c39.621,1.064,70.363,6.721,112.759-0.446c10.235-1.033,20.834-1.886,31.118-2.103
			C553.225,1484.584,639.934,1474,724.091,1473.611L724.091,1473.611z"/>
		<path fill="#62130B" d="M381.032,1508.837c10.077-6.593,323.736-15.541,348.895-12.842c-24.636,4.354-48.076,7.022-72.56,10.719
			c-18.661,3.653-115.603,19.622-125.482,24.31c-11.819,9.934-126.189,23.117-149.502,29.877
			c-13.144,3.811-47.742,2.242-61.75-4.031C328.091,1538.398,363.068,1519.976,381.032,1508.837L381.032,1508.837z"/>
		<path fill="#F05A0E" d="M739.595,1405.967c30.467,22.083,29.101,33.391,24.201,68.387c-14.641,0.382-25.093,0.202-39.705-0.743
			c31.691-14.985,33.047-33.336,18.11-62.677C741.353,1409.268,740.483,1407.613,739.595,1405.967z"/>
		<path fill="#FEA64F" d="M644.766,1273.004c20.213-1.587,53.387-1.723,62.35,19.844
			C682.904,1297.802,663.155,1288.187,644.766,1273.004z"/>
		<path fill="#F05A0E" d="M864.145,1358.094c28.916,2.723,45.639,18.543,37.428,48.587l-1.997,0.932
			C887.829,1378.475,894.808,1381.209,864.145,1358.094z"/>
		<path fill="#F05A0E" d="M3136.465,1421.574c-6.328-20.693,15.974-68.101,27.554-86.618
			c46.34-74.132,141.833-115.804,223.901-134.642c116.675-26.785,247.896-22.49,361.494,15.943
			c13.689,4.754,46.033,16.58,58.184,24.229c59.041,25.398,133.11,78.356,148.711,143.69
			c17.227,53.202,21.533,91.974-44.583,100.187c16.084,21.62,61.172,75.053,28.718,97.152c-2.219,1.484-4.46,2.903-6.724,4.257
			c-32.827,10.517-61.238,19.475-95.032,26.15c-127.332,19.035-255.366,30.374-384.192,24.068
			c-12.81-0.626-73.74-4.732-83.694-2.387l-11.096,8.785c-14.128-6.886-78.157-8.272-97.778-13.508
			c-16.963-4.53-48.845-9.741-67.061-12.312l-2.417-6.789c-9.47-6.275-19.314-8.314-33.86-18.631
			c-11.404-14.382-11.03-71.374-9.69-90.031c6.504-8.567,41.726-22.066,54.58-27.938c4.241-1.042,7.932-4.914,11.602-7.949
			C3175.972,1458.864,3148.528,1468.363,3136.465,1421.574L3136.465,1421.574z"/>
		<path fill="#62130B" d="M3640.649,1457.497c25.334,3.305,64.775,2.835,92.944,2.789c61.567-0.103,136.714,12.174,195.996-4.286
			c29.905-8.301,17.249-53.633,26.719-71.824c17.227,53.202,21.533,91.974-44.583,100.187c16.084,21.62,61.172,75.053,28.718,97.152
			c-2.219,1.484-4.46,2.903-6.724,4.257c-32.827,10.517-61.238,19.475-95.032,26.15c-127.332,19.035-255.366,30.374-384.192,24.068
			c-12.81-0.626-73.74-4.732-83.694-2.387l-11.096,8.785c-14.128-6.886-78.157-8.272-97.778-13.508
			c-16.963-4.53-48.845-9.741-67.061-12.312l-2.417-6.789c-9.47-6.275-19.314-8.314-33.86-18.631
			c-11.404-14.382-11.03-71.374-9.69-90.031c6.504-8.567,41.726-22.066,54.58-27.938c4.241-1.042,7.932-4.914,11.602-7.949
			c-39.111-6.365-66.555,3.134-78.618-43.655l2.703-3.497c4.307,1.98,2.593,0.501,5.098,4.815
			c15.337,21.514,75.168,28.22,99.119,24.229c41.177,2.255,89.297,3.376,130.759,3.754c16.479,1.884,32.146,0.886,48.691,0.33
			c18.809,0.994,37.639,1.618,56.47,1.87c23.423,3.536,84.353,1.991,111.248,2.169
			C3608.723,1457.135,3622.412,1457.326,3640.649,1457.497L3640.649,1457.497z"/>
		<path fill="#FEAA36" d="M3640.649,1457.497c25.334,3.305,64.775,2.835,92.944,2.789c61.567-0.103,136.714,12.174,195.996-4.286
			c29.905-8.301,17.249-53.633,26.719-71.824c17.227,53.202,21.533,91.974-44.583,100.187c-22.83,2.545-61.567-0.941-77.607,1.934
			c21.204,14.602,51.855,33.993,13.799,54.29c-10.239,5.064-15.886,11.989-23.818,20.196
			c-17.007,17.828-57.283,44.347-77.476,19.475c-18.699-23.013,10.327-37.367-10.613-64.703
			c-28.323-19.523-68.796-16.459-101.206-15.558c-57.437,1.596-55.679,112.31-105.93,49.989l-4.373-6.075
			c-39.419-27.081-53.657,36.343-85.715,46.042c-31.201,9.439-43.901-31.2-50.273-53.053c-4.57-21.617-12.876-40.308-35.266-48.152
			c-39.089-11.749-51.812,13.675-83.716,22.543l-13.535-2.549c-47.527-24.967-42.825,40.84-48.911,62.398
			c-24.5-34.092-31.465-63.873-3.604-97.96c4.241-1.042,7.932-4.914,11.602-7.949c-39.111-6.365-66.555,3.134-78.618-43.655
			l2.703-3.497c4.307,1.98,2.593,0.501,5.098,4.815c15.337,21.514,75.168,28.22,99.119,24.229
			c41.177,2.255,89.297,3.376,130.759,3.754c16.479,1.884,32.146,0.886,48.691,0.33c18.809,0.993,37.639,1.618,56.47,1.87
			c23.423,3.536,84.353,1.991,111.248,2.169C3608.723,1457.134,3622.412,1457.325,3640.649,1457.497z"/>
		<path fill="#A42A11" d="M3640.649,1457.497c25.334,3.305,64.775,2.835,92.944,2.789c61.567-0.103,136.714,12.174,195.996-4.286
			c29.905-8.301,17.249-53.633,26.719-71.824c17.227,53.202,21.533,91.974-44.583,100.187c-22.83,2.545-61.567-0.941-77.607,1.934
			c-18.259-4.365-135.659-5.604-161.565-6.637c-152.424-6.077-305.09-5.158-457.471-14.431
			c-39.111-6.365-66.555,3.134-78.618-43.655l2.703-3.497c4.307,1.98,2.593,0.501,5.098,4.815
			c15.337,21.514,75.168,28.22,99.119,24.229c41.177,2.255,89.297,3.376,130.759,3.754c16.479,1.884,32.146,0.886,48.691,0.33
			c18.809,0.993,37.639,1.618,56.47,1.87c23.423,3.536,84.353,1.991,111.248,2.169
			C3608.723,1457.134,3622.412,1457.326,3640.649,1457.497L3640.649,1457.497z"/>
		<path fill="#F05A0E" d="M3824.099,1560.782c0.901-1.844,1.78-3.712,2.571-5.604l1.011-2.367
			c5.669-13.088,2.527-24.097,5.867-40.613l2.681,0.27c7.91,11.459,8.438,14.393,11.689,28.119
			C3837.678,1545.651,3832.031,1552.576,3824.099,1560.782z"/>
		<path fill="#8F230F" d="M3269.531,1511.29c31.904-8.868,44.626-34.292,83.716-22.543c22.39,7.844,30.696,26.534,35.266,48.152
			c6.372,21.853,19.072,62.492,50.273,53.053c32.058-9.699,46.296-73.123,85.715-46.042l4.373,6.075
			c50.251,62.321,48.494-48.393,105.93-49.989c32.41-0.901,72.883-3.965,101.206,15.558l-2.153,2.552
			c10.107,44.538-46.912,40.807-74.663,41.545c9.053,5.145,15.886,6.875,17.93,17.448c-1.846,4.451-3.735,7.998-7.8,10.78
			c-45.791,31.187-344.092,19.842-410.405,5.018c-12.107-2.708-23.84-5.987-30.432-17.552c-5.713-10.053-7.954-27.35-4.219-38.286
			c5.098-14.864,18.721-21.659,31.729-28.319L3269.531,1511.29z"/>
		<path fill="#79130B" d="M3528.875,1549.985c50.251,62.321,48.494-48.393,105.93-49.989c32.41-0.901,72.883-3.965,101.206,15.558
			l-2.153,2.552c-31.663-15.393-76.838-12.807-110.654-4.765c-37.573,8.932-32.256,73.917-76.399,61.648
			C3539.619,1572.991,3528.918,1557.398,3528.875,1549.985z"/>
		<path fill="#79130B" d="M3388.513,1536.899c6.372,21.853,19.072,62.492,50.273,53.053c32.058-9.699,46.296-73.123,85.715-46.042
			c-40.276,2.64-43.704,35.897-78.926,54.437C3410.859,1616.624,3381.548,1550.352,3388.513,1536.899z"/>
		<path fill="#79130B" d="M3269.531,1511.29c31.904-8.868,44.626-34.292,83.716-22.543c-15.491,7.917-52.932,13.163-70.488,24.407
			c-2.9,1.853-12.634,1.679-16.37,0.026L3269.531,1511.29z"/>
		<path fill="#8F230F" d="M3148.901,1501.116c6.504-8.567,41.726-22.066,54.58-27.938c-27.861,34.088-20.896,63.868,3.604,97.96
			l-2.373,3.675l3.098,7.71C3179.18,1596.013,3159.998,1519.24,3148.901,1501.116z"/>
		<path fill="#F05A0E" d="M3192.451,1609.778c47.966,10.072,94.329,15.716,143.13,19.314c7.932,0.585,29.685,1.169,35.222,4.51
			l-11.096,8.785c-14.128-6.886-78.157-8.272-97.778-13.508c-16.963-4.53-48.845-9.741-67.061-12.312L3192.451,1609.778z"/>
		<path fill="#DA3A1B" d="M3807.598,1240.486c59.041,25.398,133.11,78.356,148.711,143.69c-9.47,18.191,3.186,63.523-26.719,71.824
			c-59.282,16.459-134.429,4.182-195.996,4.286c-28.169,0.046-67.61,0.517-92.944-2.789c12.634-0.853,33.267-0.354,46.516-0.398
			c32.212-22.706,24.28-41.567,15.601-73.714c17.139,15.615,42.759,32.345,54.141-0.736c11.206-32.563-0.813-66.714-15.183-96.363
			c29.839,11.211,102.612,51.697,130.254,32.672C3884.304,1293.591,3824.78,1254.294,3807.598,1240.486z"/>
		<path fill="#EB410C" d="M3784.746,1365.565c19.622,4.167,21.138,38.246,15.623,53.248c-4.241,11.488-6.592,14.536-14.875,23.517
			l-7.251-0.407c-2.615-8.112,14.062-26.875,12.92-44.47C3790.283,1383.681,3788.35,1378.787,3784.746,1365.565z"/>
		<path fill="#DA3A1B" d="M3224.158,1364.835c-5.603,36.193-10.305,56.152,19.226,82.286c-23.95,3.991-83.782-2.714-99.119-24.229
			c14.414,8.051,53.679,18.662,70.708,22.139C3204.888,1411.257,3209.128,1396.272,3224.158,1364.835z"/>
		<path fill="#DA3A1B" d="M3479.304,1453.075c56.689-0.007,66.643,10.982,82.705-46.152l1.538,1.261l-0.857-1.556l-1.604,3.822
			l3.406,1.545c5.603,19.719,9.514,30.754,26.06,43.248C3563.657,1455.066,3502.727,1456.611,3479.304,1453.075L3479.304,1453.075z"
			/>
		<path fill="#DA3A1B" d="M3400.95,1449.978c-12.305-23.523-15.864-29.103-11.47-56.24c6.702,6.215,10.679,36.011,33.354,57.466
			c-16.545,0.556-32.212,1.554-48.691-0.33L3400.95,1449.978z"/>
		<path fill="#FEA684" d="M3475.767,1347.367c6.68-0.736,14.15-1.198,20.215,2.295c3.999,2.266,6.812,6.152,7.712,10.648
			c4.812,23.514-23.269,39.804-43,43.418C3407.234,1396.611,3439.358,1358.108,3475.767,1347.367z"/>
		<path fill="#FEA684" d="M3605.383,1220.734c15.139,0.323,43,0.67,46.45,19.609c-6.548,10.154-19.072,8.321-29.971,8.358
			c-12.898-2.18-39.001-5.622-45.549-18.84l2.241-4.365C3586.575,1220.589,3595.649,1221.257,3605.383,1220.734z"/>
		<path fill="#FEA684" d="M3411.87,1226.725c9.163-0.492,16.875-2.301,22.522,5.956l-1.626,5.369
			c-13.623,14.158-19.094,15.464-37.925,22.176c-9.47,0.941-16.765,2.644-21.907-6.402
			C3375.417,1237.928,3399.126,1230.734,3411.87,1226.725L3411.87,1226.725z"/>
		<path fill="#FEA684" d="M3339.448,1354.103c21.665,4.666,38.628,29.877,16.04,47.862c-15.271-5.969-31.487-18.8-28.015-37.103
			C3331.055,1358.108,3332.549,1357.655,3339.448,1354.103z"/>
		<path fill="#FEA684" d="M3279.111,1332.921c9.998,6.862,12.393,27.927,7.932,38.646c-2.944,7.018-8.108,8.747-14.458,11.892
			C3251.36,1366.448,3266.411,1350.53,3279.111,1332.921z"/>
		<path fill="#FEAA36" d="M2190.988,1444.409c2.711-0.879,7.794-2.29,10.628-2.024c61.128,5.721,122.388,8.356,183.669,11.719
			c14.7,0.807,28.542,1.47,43.022,4.308c24.214-13.275,298.213,5.503,342.861,7.092c39.529,1.059,79.058,1.116,118.586,0.174
			l2.747,8.044l0.813,2.87c25.906,26.488,46.67,47.235,12.678,79.705c-6.24,5.96-16.106,12.47-21.401,18.765
			c7.251,3.075,11.799,4.457,17.82,9.615c4.395,6.422,14.436,26.769,17.644,29.585c19.907,17.453,75.542,34.547,37.683,70.009
			l-5.317,5.974c3.362,10.93,5.999,31.044,1.23,41.657c-6.328,92.101-213.047,109.58-282.92,112.022
			c-14.326,0.723-30.894,2.141-44.956,2.514c-55.327,2.818-105.403,5.604-160.994,2.103c1.274,8.802,2.395,17.431,4.285,26.127
			l-39.023-1.354l-4.504-27.363c-74.18,0.182-167.585-11.708-236.531-38.719c-63.916-25.037-77.445-69.007-50.144-129.187
			c-14.513-6.96-23.827-10.861-24.601-27.943c11.984-17.749,20.608-23.824,41.287-29.235c9.864-16.565-1.424-37.886,18.71-43.866
			c5.161,1.031,36.87-0.095,45.703,0.086c-21.16-23.593-79.853-8.218-61.361-66.684
			C2166.585,1485.162,2166.638,1459.547,2190.988,1444.409L2190.988,1444.409z"/>
		<path fill="#FEA684" d="M2428.308,1458.411c24.214-13.275,298.213,5.503,342.861,7.092c39.529,1.059,79.058,1.116,118.586,0.174
			l2.747,8.044l0.813,2.87c25.906,26.488,46.67,47.235,12.678,79.705c-6.24,5.96-16.106,12.47-21.401,18.765
			c7.251,3.075,11.799,4.457,17.82,9.615c4.395,6.422,14.436,26.769,17.644,29.585c19.907,17.453,75.542,34.547,37.683,70.009
			l-5.317,5.974l-7.361,6.418c-21.511-2.448-28.213-2.677-46.582-13.376c-43.088,18.541-64.709,17.215-109.775,19.334
			c-19.072,29.444-23.862,44.224-60.205,28.158l-5.098,1.121l-14.788-11.552l-4.351-15.079c1.516-13.967,2.681-17.44,7.888-30.523
			c2.505-4.103,5.427-11.075,7.515-15.659c4.9-18.868-0.769-32.585-10.876-48.218
			C2640.322,1515.673,2537.249,1482.057,2428.308,1458.411L2428.308,1458.411z"/>
		<path fill="#2A6D06" d="M2884.592,1575.062c7.251,3.075,11.799,4.457,17.82,9.615c4.395,6.422,14.436,26.769,17.644,29.585
			c19.907,17.453,75.542,34.547,37.683,70.009l-5.317,5.974l-7.361,6.418c-21.511-2.448-28.213-2.677-46.582-13.376
			c-43.088,18.541-64.709,17.215-109.775,19.334c10.063-9.341,24.104-13.543,36.958-18.369c8.921-5.413,12.722-10.739,11.118-21.125
			c-7.207-8.859-14.546-12.248-24.104-25.116c-0.725-26.635,4.438-30.411,24.236-47.684c9.163-3.02,23.071-6.123,32.761-8.598
			L2884.592,1575.062z"/>
		<path fill="#EB410C" d="M2884.592,1575.062c7.251,3.075,11.799,4.457,17.82,9.615c0.989,7.044,3.164,15.853-1.296,21.347
			c-14.392,17.727-53.416,20.163-75.806,25.807l-12.634,6.178c-0.725-26.635,4.438-30.411,24.236-47.684
			c9.163-3.02,23.071-6.123,32.761-8.598L2884.592,1575.062z"/>
		<path fill="#A42A11" d="M2869.673,1581.728l-1.165,1.31c-19.49,21.481-27.795,20.64-43.198,48.793l-12.634,6.178
			c-0.725-26.635,4.438-30.411,24.236-47.684C2846.074,1587.306,2859.983,1584.202,2869.673,1581.728z"/>
		<path fill="#255D01" d="M2872.024,1626.609c7.69,5.495,18.699,15.624,27.29,16.528c6.108-4.33,6.064-10.626,9.382-19.569
			l3.625-0.778c10.547,21.657,2.439,32.851-11.338,49.193c-0.549,3.042-1.318,8.785-2.505,11.303
			c-43.088,18.541-64.709,17.215-109.775,19.334c10.063-9.341,24.104-13.543,36.958-18.369c18.853,5.87,58.25,1.165,64.775-21.617
			C2893.491,1651.976,2878.638,1635.308,2872.024,1626.609L2872.024,1626.609z"/>
		<path fill="#255D01" d="M2898.479,1683.286c1.187-2.519,1.956-8.262,2.505-11.303c19.402,15.259,27.202,14.11,51.086,8.701
			c1.714,1.033,4.197,2.376,5.669,3.587l-5.317,5.974l-7.361,6.418C2923.55,1694.213,2916.848,1693.985,2898.479,1683.286z"/>
		<path fill="#FC5748" d="M2428.308,1458.411c24.214-13.275,298.213,5.503,342.861,7.092c39.529,1.059,79.058,1.116,118.586,0.174
			l2.747,8.044c-8.613,0.02-18.303-0.541-26.389,2.042c-27.136,3.382-69.719,0.343-98.152-0.016
			c-76.465-0.963-177.253-12.921-252.29-8.958c72.4,35.385,170.991,78.317,208.191,159.673
			c19.424,42.453-39.771,63.149,4.636,104.316l-5.098,1.121l-14.788-11.552l-4.351-15.079c1.516-13.967,2.681-17.44,7.888-30.523
			c2.505-4.103,5.427-11.075,7.515-15.659c4.9-18.868-0.769-32.585-10.876-48.218
			C2640.322,1515.673,2537.249,1482.057,2428.308,1458.411z"/>
		<path fill="#DA3A1B" d="M2893.315,1476.591c25.906,26.488,46.67,47.235,12.678,79.706c-6.24,5.96-16.106,12.47-21.401,18.765
			l-14.919,6.666c-9.69,2.475-23.599,5.578-32.761,8.598c5.493-5.316,10.92-10.716,16.26-16.198
			C2882.9,1543.404,2893.975,1518.756,2893.315,1476.591z"/>
		<path fill="#FC5748" d="M2892.502,1473.721l0.813,2.87c0.659,42.165-10.415,66.813-40.144,97.536
			c-5.339,5.481-10.767,10.881-16.26,16.198c-19.797,17.272-24.961,21.048-24.236,47.684c9.558,12.868,16.897,16.257,24.104,25.116
			c-2.966-1.308-5.999-2.725-8.613-4.596c-64.929-46.51,14.062-80.697,39.177-117.888c12.7-18.82,21.511-38.132,17.622-61.406
			c-6.218-4.708-9.646-3.147-18.853-3.473C2874.199,1473.18,2883.889,1473.741,2892.502,1473.721z"/>
		<path fill="#79130B" d="M2190.988,1444.409c2.711-0.879,7.794-2.29,10.628-2.024c61.128,5.721,122.388,8.356,183.669,11.719
			c14.7,0.807,28.542,1.47,43.022,4.308c108.94,23.646,212.014,57.262,280.481,152.457c-22.236,2.813-44.209-1.846-64.468,2.303
			c-19.424-0.196-38.826-1.312-58.228-2.268l-15.798,0.629c-73.938-1.024-155.5-11.024-229.57-16.433
			c-17.095-1.248-32.432-3.404-49.812-3.567c-15.029,0.147-31.377,0.961-46.055-1.78c-11.865-4.297-14.282-5.714-24.895-12.664
			c-21.16-23.593-79.853-8.218-61.361-66.684C2166.585,1485.163,2166.638,1459.547,2190.988,1444.409L2190.988,1444.409z"/>
		<path fill="#A42A11" d="M2241.123,1470.576c1.143-0.031,2.263-0.055,3.384-0.073c41.089-0.648,85.166,4.092,125.596,3.391
			c117.51-2.04,194.128,20.554,280.02,103.626l-28.235,0.393c-95.493,1.105-195.71-9.437-290.786-18.439
			c-30.718-4.963-69.104-4.697-98.284-15.059C2195.497,1531.162,2212.141,1484.545,2241.123,1470.576z"/>
		<path fill="#EB410C" d="M2219.963,1577.088c10.613,6.949,13.03,8.367,24.895,12.664c14.678,2.741,31.025,1.927,46.055,1.78
			c17.38,0.163,32.717,2.319,49.812,3.567c74.07,5.409,155.632,15.409,229.57,16.433l15.798-0.629
			c19.402,0.956,38.804,2.073,58.228,2.268c20.259-4.149,42.231,0.51,64.468-2.303c10.107,15.633,15.776,29.349,10.876,48.218
			c-2.087,4.585-5.01,11.556-7.515,15.659c-20.435,4.734-43.638,15.407-62.139,11.736l-4.68-4.374
			c-14.436,1.991-67.28-1.25-83.76-2.433c-74.377-2.209-179.912-16.873-255.125-24.875c-24.653,15.281-13.447,23.305-23.049,35.171
			c-11.36-9.783-52.427-6.593-67.808-6.196c-29.799,2.145-48.092,2.846-76.726-5.73c-14.513-6.96-23.827-10.861-24.601-27.943
			c11.984-17.749,20.608-23.824,41.287-29.235c9.864-16.565-1.424-37.886,18.71-43.866
			C2179.421,1578.033,2211.13,1576.907,2219.963,1577.088L2219.963,1577.088z"/>
		<path fill="#255D01" d="M2155.551,1620.868c9.158,7.939,25.139,10.176,37.551,13.336c36.332,7.228,79.003,13.2,113.346,20.596
			c-24.653,15.281-13.447,23.305-23.049,35.171c-11.36-9.782-52.427-6.593-67.808-6.196c-29.799,2.145-48.092,2.846-76.726-5.73
			c-14.513-6.96-23.827-10.861-24.601-27.943C2126.248,1632.353,2134.872,1626.279,2155.551,1620.868L2155.551,1620.868z"/>
		<path fill="#2A6D06" d="M2155.551,1620.868c9.158,7.939,25.139,10.176,37.551,13.336l-0.272,3.237
			c9.183,8.246,28.738,14.026,43.064,24.745c-50.197,17.771-77.81,22.295-121.63-12.083
			C2126.248,1632.354,2134.872,1626.279,2155.551,1620.868L2155.551,1620.868z"/>
		<path fill="#8F230F" d="M2708.789,1610.868c10.107,15.633,15.776,29.349,10.876,48.218c-2.087,4.585-5.01,11.556-7.515,15.659
			c-20.435,4.734-43.638,15.407-62.139,11.736l-4.68-4.374l2.527-1.141c6.438-21.984,13.447-49.224-3.538-67.796
			C2664.58,1609.022,2686.553,1613.681,2708.789,1610.868z"/>
		<path fill="#255D01" d="M2647.859,1680.967c18.237-2.895,62.095-24.026,71.807-21.881c-2.087,4.585-5.01,11.556-7.515,15.659
			c-20.435,4.734-43.638,15.407-62.139,11.736l-4.68-4.374L2647.859,1680.967z"/>
		<path fill="#EB410C" d="M2586.094,1610.903c19.402,0.956,38.804,2.073,58.228,2.268c16.985,18.572,9.976,45.811,3.538,67.796
			l-2.527,1.141c-14.436,1.991-67.28-1.25-83.76-2.433c9.075-0.27,13.689-0.506,22.808-1.941
			C2591.257,1665.367,2594.202,1622.6,2586.094,1610.903z"/>
		<path fill="#FEA684" d="M2290.913,1591.532c17.38,0.163,32.717,2.319,49.812,3.567c74.07,5.409,155.632,15.409,229.57,16.433
			c-23.137,13.402-251.169-12.4-290.5-16.692l1.868-1.958C2286.233,1592.912,2286.541,1592.554,2290.913,1591.532z"/>
		<path fill="#FC5748" d="M2219.963,1577.088c10.613,6.949,13.03,8.367,24.895,12.664c-13.14,2.437-58.104-4.912-70.598-12.749
			C2179.421,1578.033,2211.13,1576.908,2219.963,1577.088z"/>
		<path fill="#FEC6B3" d="M2413.784,1615.774c21.489,1.864,42.671,2.101,64.556,4.405c29.421,3.097,38.606,35.534,15.93,48.747
			c-12.085-0.466-24.741-1.211-37.244-1.969c-28.542-1.73-69.521-1.152-55.459-43.156
			C2402.798,1620.136,2410.4,1617.172,2413.784,1615.774L2413.784,1615.774z"/>
		<path fill="#F05A0E" d="M2138.865,1678.046c28.635,8.576,46.927,7.875,76.727,5.73l-2.043,1.011
			c-17.534,8.481-41.467,3.917-47.973,24.706c-14.539,46.453,37.822,67.363,72.648,77.732
			c53.701,16.075,109.006,21.991,164.312,28.897c110.588,13.804,221.968,4.629,332.029-9.503
			c64.27-8.253,178.989-17.776,219.089-74.717c-6.328,92.101-213.047,109.58-282.92,112.022
			c-14.326,0.723-30.894,2.141-44.956,2.514c-55.327,2.818-105.403,5.604-160.994,2.103c1.274,8.802,2.395,17.431,4.285,26.127
			l-39.023-1.354l-4.504-27.363c-74.18,0.182-167.585-11.708-236.531-38.719C2125.092,1782.195,2111.564,1738.226,2138.865,1678.046
			L2138.865,1678.046z"/>
		<path fill="#D5CAD3" d="M2425.54,1845.952c13.601,1.259,25.532,2.409,39.243,2.589c1.274,8.802,2.395,17.431,4.285,26.127
			l-39.023-1.354L2425.54,1845.952z"/>
		<path fill="#2A6D06" d="M2306.448,1654.8c75.212,8.002,180.747,22.666,255.125,24.875c16.479,1.182,69.324,4.424,83.76,2.433
			l4.68,4.374c18.501,3.67,41.704-7.002,62.139-11.736c-5.208,13.083-6.372,16.556-7.888,30.523l4.351,15.079
			c-19.995,2.596-50.208,7.376-69.521,7.789c-8.745,2.283-19.512,2.303-27.246,4.807c-22.148,7.161-25.532,37.455-44.055,50.523
			c-15.205,11.532-29.905,10.347-47.944,4.561c-26.719-8.567-61.897-19.712-77.937-44.053c-4.57-6.927-1.56-14.266,0.747-21.442
			l1.978-7.07c-2.988-4.266-5.142-6.598-10.854-6.925c-40.781-2.345-96.855,12.385-135.945-2.382
			c-1.604-0.468-12.458-7.105-14.656-8.413l0.22-7.769C2293,1678.106,2281.794,1670.081,2306.448,1654.8L2306.448,1654.8z"/>
		<path fill="#255D01" d="M2297.834,1706.154c16.458-1.541,45.308,2.967,65.984,1.138c22.961-2.031,64.424-20.429,82.178-13.481
			c2.615,2.642,6.877,5.818,6.35,9.547c-2.461,16.877-11.14,21.398,5.339,38.222c17.886,18.279,61.084,41.233,87.144,45.512
			c4.878,0.802,17.314-3.596,22.961-3.626c-15.205,11.532-29.905,10.347-47.944,4.56c-26.719-8.567-61.897-19.712-77.937-44.053
			c-4.57-6.927-1.56-14.266,0.747-21.442l1.978-7.07c-2.988-4.266-5.142-6.598-10.854-6.925
			C2392.998,1706.191,2336.924,1720.921,2297.834,1706.154z"/>
		<path fill="#255D01" d="M2639.092,1728.136l-0.769-1.657c4.065-3.341,13.909-4.068,19.556-4.914
			c18.083-2.71,30.564-7.064,46.384-16.297l4.351,15.079C2688.618,1722.943,2658.406,1727.723,2639.092,1728.136z"/>
		<path fill="#FD8628" d="M2898.479,1683.286c18.369,10.699,25.071,10.928,46.582,13.376c-10.767,13.552-34.915,0.545-46.868-6.099
			c-12.502,5.868-20.259,8.418-31.992,11.78c-13.052,3.743-63.699,4.017-71.587,11.387c-24.412,22.741-32.036,44.607-71.213,18.169
			l5.098-1.121c36.343,16.066,41.133,1.286,60.205-28.158C2833.77,1700.501,2855.391,1701.826,2898.479,1683.286L2898.479,1683.286z
			"/>
		<path fill="#F05A0E" d="M2283.179,1697.741c2.197,1.308,13.052,7.945,14.656,8.413c39.089,14.767,95.164,0.037,135.945,2.382
			c5.713,0.327,7.866,2.659,10.854,6.925l-1.978,7.07C2420.068,1700.771,2317.258,1749.938,2283.179,1697.741z"/>
		<path fill="#FEAA36" d="M2142.134,1403.29c-3.369-8.477,0.71-21.224,4.548-29.084c33.923-69.437,107.514-115.31,176.596-141.407
			c143.481-53.308,318.823-49.079,458.701,13.534c65.852,29.475,138.691,86.925,167.981,154.42
			c6.328,14.582,5.054,22.903,3.274,37.765c-3.933,26.473-42.319,24.73-63.479,27.158c-39.529,0.943-79.058,0.886-118.586-0.174
			c-44.648-1.589-318.647-20.367-342.861-7.092c-14.48-2.837-28.323-3.501-43.022-4.308c-61.282-3.363-122.542-5.998-183.669-11.719
			c-2.834-0.266-7.917,1.145-10.628,2.024C2177.323,1434.198,2136.49,1432.576,2142.134,1403.29L2142.134,1403.29z"/>
		<path fill="#F05A0E" d="M2190.988,1444.409c-13.665-10.211-54.499-11.833-48.854-41.119
			c22.017,12.785,38.953,15.536,64.426,17.464c8.372,2.275,15.93,1.675,24.631,1.631c14.106,1.11,28.213,2.233,42.319,3.079
			c14.897,0.894,16.611-1.301,26.323-11.776c5.273,3.626,17.512,14.864,22.478,15.574c15.095,2.156,32.827,1.857,48.164,1.8
			c15.117-2.009,36.013,4.468,44.407-7.361c10.657,1.314,27.466,4.534,36.98,0.121c5.098,3.829,8.306,5.982,13.821,9.213
			l140.273-0.235c20.061,0.708,41.99,1.908,61.875,1.974l9.734,0.633c12.502,2.4,52.339,4.079,66.599,4.081
			c41.375,0.338,181.34,11.198,209.07-0.969c-3.933,26.473-42.319,24.73-63.479,27.158c-39.529,0.943-79.058,0.886-118.586-0.174
			c-44.648-1.589-318.647-20.367-342.861-7.092c-14.48-2.837-28.323-3.501-43.022-4.308c-61.282-3.363-122.542-5.998-183.669-11.719
			C2198.782,1442.118,2193.7,1443.53,2190.988,1444.409L2190.988,1444.409z"/>
		<path fill="#FEA64F" d="M2414.883,1423.701c10.657,1.314,27.466,4.534,36.98,0.121c5.098,3.829,8.306,5.982,13.821,9.213
			c-27.642-0.053-68.752,0.943-95.208-1.974C2385.593,1429.053,2406.489,1435.53,2414.883,1423.701z"/>
		<path fill="#FD8628" d="M2378.848,1297.917c1.868,35.787-3.142,62.519,33.926,79.196c7.009-4.521,11.316-9.062,18.545-9.264
			c1.846,28.174-6.042,34.791,20.544,55.974c-9.514,4.413-26.323,1.193-36.98-0.121
			C2388.23,1363.857,2363.379,1366.431,2378.848,1297.917L2378.848,1297.917z"/>
		<path fill="#FD8628" d="M2605.957,1432.8c60.645-14.789,66.797-15.323,85.979-76.055c1.758,19.319,6.13,43.431-7.383,58.578
			c-4.68,5.266-16.018,14.314-16.721,19.451C2647.947,1434.708,2626.018,1433.507,2605.957,1432.8z"/>
		<path fill="#FD8628" d="M2708.547,1435.543c27.026-14.613,28.806-13.279,41.682-41.475c7.119,21.743-10.371,34.765-6.064,45.42
			c-14.26-0.002-54.097-1.681-66.599-4.081L2708.547,1435.543z"/>
		<path fill="#FD8628" d="M2206.56,1420.754c5.713-12.094-3.098-26.141,8.174-43.574c6.987,22.27-2.065,26.758,16.458,45.204
			C2222.49,1422.428,2214.932,1423.029,2206.56,1420.754z"/>
		<path fill="#FD8628" d="M2326.97,1274.385c4.526,14.763-6.35,34.209,19.578,48.609c0.725,5.609-11.975,20.965-16.194,26.875
			c-2.219,2.971-5.823,6.87-8.35,9.778l-0.945-1.541C2331.167,1320.717,2306.184,1306.284,2326.97,1274.385L2326.97,1274.385z"/>
		<path fill="#EB410C" d="M3838.689,1611.921c33.794-6.675,62.205-15.633,95.032-26.15l4.724,3.448
			c2.109,5.662,5.625,13.954,6.284,19.675l1.033,0.007c6.855,18.64,59.48,39.965,63.962,66.501
			c-6.746,11.358-26.082,4.754-37.222,2.371c2.263,29.04,1.208,55.956-21.226,79.681c-63.567,67.209-204.17,69.358-291.621,78.582
			c-1.165,0.123-4.131,0.048-5.208,0.029c-9.734-0.127-20.259,0.912-30.059,1.657c-59.304,3.229-118.718,3.782-178.066,1.664
			c-11.206-1.51-27.444-2.09-39.067-2.857c-8.943-2.457-39.836-2.716-50.933-4.317c-80.552-11.602-208.872-13.525-235.283-108.688
			c-0.945-21.659,2.087-40.158,18.259-55.565c20.984,11.802,51.218,19.215,75.081,20.011l7.537-11.679
			c18.984-39.684-16.589-30.163-27.048-59.725c18.215,2.571,50.098,7.782,67.061,12.312c19.622,5.235,83.65,6.622,97.778,13.508
			l11.096-8.785c9.954-2.345,70.884,1.76,83.694,2.387C3583.323,1642.295,3711.357,1630.956,3838.689,1611.921L3838.689,1611.921z"
			/>
		<path fill="#255D01" d="M3838.689,1611.921c33.794-6.675,62.205-15.633,95.032-26.15l4.724,3.448
			c2.109,5.662,5.625,13.954,6.284,19.675l1.033,0.007c6.855,18.64,59.48,39.965,63.962,66.501
			c-6.746,11.358-26.082,4.754-37.222,2.371c-7.756-1.209-26.104-1.193-34.695-1.413c-16.963,1.169-32.893,2.917-49.79,0.82
			c-13.557-3.659-56.646-21.686-68.159-14.233c-13.535,8.785-12.854,14.899-32.146,20.046c-13.931,4.222-25.708,5.255-40.298,5.127
			l4.175,14.499l4.438,18.343c-3.472,10.833-1.033,8.026-8.394,13.98c-8.965,1.903-14.832-1.29-23.687-3.664
			c-19.688-15.393-16.414-22.138-44.363-33.798c-48.406,13.088-50.471,13.184-99.58,6.596c-17.49-5.119-36.013-11.549-53.306-17.411
			c-7.053-2.339-14.15-4.6-21.248-6.785c-24.631-2.004-55.591,1.56-81.079,1.974c-30.081,0.488-55.217-1.119-85.166-3.752
			l-12.59-1.892c9.558-15.903,18.479-22.49,33.091-33.824l11.096-8.785c9.954-2.345,70.884,1.76,83.694,2.387
			C3583.323,1642.295,3711.357,1630.956,3838.689,1611.921L3838.689,1611.921z"/>
		<path fill="#9CAE02" d="M3508.506,1650.165l2.834,0.123c47.307,1.862,99.976-6.015,147.173-10.738
			c16.479-1.651,50.032-6.059,64.929-4.98c6.086,8.035,17.358,41.33,23.972,53.552l4.175,14.499l4.438,18.343
			c-3.472,10.833-1.033,8.026-8.394,13.98c-8.965,1.903-14.832-1.29-23.687-3.664c-19.688-15.393-16.414-22.138-44.363-33.798
			c-48.406,13.088-50.471,13.184-99.58,6.596c-17.49-5.119-36.013-11.549-53.306-17.411c-7.053-2.339-14.15-4.6-21.248-6.785
			l2.065-0.82l0.835-2.64c-5.823-7.75-19.775-15.952-28.345-21.686C3490.664,1651.934,3497.476,1649.517,3508.506,1650.165
			L3508.506,1650.165z"/>
		<path fill="#357903" d="M3480.007,1654.736c10.657-2.802,17.468-5.22,28.499-4.572l-7.207,3.971
			c15.688,18.486,86.287,47.681,113.203,48.71c26.938,1.031,49.065-8.187,65.083-5.365c-48.406,13.088-50.471,13.184-99.58,6.596
			c-17.49-5.119-36.013-11.549-53.306-17.411c-7.053-2.339-14.15-4.6-21.248-6.785l2.065-0.82l0.835-2.64
			C3502.529,1668.673,3488.577,1660.47,3480.007,1654.736L3480.007,1654.736z"/>
		<path fill="#357903" d="M3944.729,1608.894l1.033,0.007c6.855,18.64,59.48,39.965,63.962,66.501
			c-6.746,11.358-26.082,4.754-37.222,2.371c-7.756-1.209-26.104-1.193-34.695-1.413c-7.317-3.442-30.74-5.905-41.111-7.85
			c-11.711-2.198-67.324-22.044-76.047-17.385c-17.578,9.393-11.492,17.284-38.342,24.982c-20.962-0.545-30.015-2.703-36.562-25.05
			c-1.626-5.618,1.296-8.202,4.329-12.233c22.961-13.242,70.159-6.451,94.834-0.068c12.019,3.108,94.878-12.481,96.768-23.356
			l-6.833-2.721L3944.729,1608.894z"/>
		<path fill="#9CAE02" d="M3838.689,1611.921c33.794-6.675,62.205-15.633,95.032-26.15l4.724,3.448
			c2.109,5.662,5.625,13.954,6.284,19.675l-9.888,3.785C3909.309,1621.699,3862.529,1628.075,3838.689,1611.921z"/>
		<path fill="#5D9001" d="M3360.081,1657.382c3.889-23.398,63.853-20.629,77.08-5.205l0.901,4.692
			c8.811,3.758,21.973,1.912,33.728,4.349C3435.908,1668.938,3392.578,1680.338,3360.081,1657.382z"/>
		<path fill="#357903" d="M3437.161,1652.178l0.901,4.692c8.811,3.758,21.973,1.912,33.728,4.35
			c-35.881,7.719-79.211,19.119-111.709-3.837C3381.306,1658.8,3423.538,1668.525,3437.161,1652.178z"/>
		<path fill="#A42A11" d="M3937.808,1676.36c8.591,0.22,26.938,0.205,34.695,1.413c2.263,29.039,1.208,55.956-21.226,79.681
			c-63.567,67.209-204.17,69.358-291.621,78.582c-1.165,0.123-4.131,0.048-5.208,0.028c-9.734-0.127-20.259,0.912-30.059,1.657
			c-59.304,3.229-118.718,3.782-178.066,1.664c-11.206-1.51-27.444-2.09-39.067-2.857c-8.943-2.457-39.836-2.716-50.933-4.317
			c-80.552-11.602-208.872-13.525-235.283-108.688c85.21,82.741,299.246,86.78,414.272,85.064
			c41.528-0.754,83.013-2.864,124.387-6.33c19.336,3.475,46.56-0.967,65.83-4.868l-12.568,0.655
			c47.812-10.483,101.338-20.993,144.536-45.235c20.303-11.4,43-39.846,37.222-64.653c-6.284-7.312-10.613-3.081-16.567-8.376
			c4.944,2.967-2.527-0.604,9.866-2.602C3904.915,1679.277,3920.845,1677.53,3937.808,1676.36z"/>
		<path fill="#FEAA36" d="M3194.868,1616.567c18.215,2.571,50.098,7.782,67.061,12.312c19.622,5.235,83.65,6.622,97.778,13.508
			c-14.612,11.334-23.533,17.921-33.091,33.824l-1.626,3.094c-10.063,25.534-21.313,63.756-52.515,70.013
			c-20.786,4.165-45-10.059-59.7-23.712c-11.008-15.591-7.317-22.765,1.604-37.635l7.537-11.679
			C3240.901,1636.609,3205.327,1646.13,3194.868,1616.567z"/>
		<path fill="#FEAA36" d="M3339.207,1678.103c29.949,2.633,55.085,4.24,85.166,3.752c25.488-0.413,56.448-3.978,81.079-1.974
			c7.097,2.185,14.194,4.446,21.248,6.785c12.854,12.244,30.608,18.956,46.758,25.813c-28.586,40.037-35.925,24.147-74.377,16.266
			c-41.462-8.492-85.342,47.938-123.838,6.987C3362.871,1722.573,3339.58,1696.217,3339.207,1678.103z"/>
		<path fill="#DA3A1B" d="M3787.712,1682.993c19.292-5.147,18.611-11.261,32.146-20.046c11.514-7.453,54.602,10.574,68.159,14.233
			c-12.393,1.998-4.922,5.569-9.866,2.602c5.955,5.294,10.283,1.064,16.567,8.376c5.779,24.807-16.919,53.253-37.222,64.653
			c-43.198,24.242-96.724,34.752-144.536,45.235l12.568-0.655c-19.27,3.901-46.494,8.343-65.83,4.868
			c15.293-4.837,40.474-7.363,56.909-10.549c42.078-8.152,84.792-16.941,124.146-34.457c18.765-8.345,59.106-40.38,50.691-63.945
			c-7.251-7.648-43.835-19.299-54.536-20.36c0.264,0.026-87.275,31.655-85.32,29.673l-4.175-14.499
			C3762.004,1688.248,3773.782,1687.215,3787.712,1682.993z"/>
		<path fill="#DA3A1B" d="M3679.585,1697.481c27.949,11.659,24.675,18.404,44.363,33.798c8.855,2.374,14.722,5.567,23.687,3.664
			c7.361-5.954,4.922-3.147,8.394-13.98c2.527,6.077,1.714,8.347,1.077,15.169c-9.229,14.606-20.61,11.776-34.277,4.569
			c-6.548-5.257-21.028-20.519-27.246-24.145c-16.084-9.361-42.759,4.789-61.787,3.661c-14.084-0.833-43.066,1.6-54.185-10.466
			l0.396-5.675C3629.114,1710.666,3631.179,1710.569,3679.585,1697.481z"/>
		<path fill="#DA3A1B" d="M3324.99,1679.306l9.272,3.437c1.077,11.301-23.357,49.473-28.806,59.98
			c-17.886,34.479-93.779,13.864-92.681-17.117c14.7,13.653,38.914,27.877,59.7,23.712
			C3303.677,1743.062,3314.927,1704.84,3324.99,1679.306z"/>
		<path fill="#F05A0E" d="M1255.032,1397.873c1.14-5.679,2.423-11.327,3.852-16.941c40.944-157.055,213.172-189.516,351.09-190.789
			c121.673-1.125,257.924,27.376,323.958,141.233c18.798,28.776,51.047,87.13,47.87,121.481l-2.109,3.215
			c-10.514-2.27-69.537-1.637-84.625-2c-76.37-1.319-152.728-3.275-229.063-5.866l-63.264-1.93
			c-25.352-0.031-56.443-0.134-81.611-3.505c-32.616-4.475-84.333-5.607-118.694-7.574c-21.434,1.039-131.003-11.578-138.935-7.906
			C1253.129,1417.67,1254.845,1411.275,1255.032,1397.873z"/>
		<path fill="#DA3A1B" d="M1666.004,1448.207c87.871-25.475,113.104-34.732,93.92-130.595c29.391,49.549,43.792,80.02,0.369,125.734
			c48.329,3.87,88.723-0.771,113.875-46.866c1.626-32.176-4.92-39.769-19.736-68.771l2.591,0.877
			c31.665,36.646,58.702,66.694,15.778,108.982c18.442-1.631,53.686-4.281,65.859-19.464c18.369-22.912-2.562-61.824-4.728-86.727
			c18.798,28.776,51.047,87.13,47.87,121.481l-2.109,3.215c-10.514-2.27-69.537-1.637-84.625-2
			C1818.697,1452.754,1742.339,1450.798,1666.004,1448.207L1666.004,1448.207z"/>
		<path fill="#DA3A1B" d="M1329.034,1422.055c-0.055-40.457-0.29-55.057,27.613-87.149c-6.601,21.558-19.848,82.152,11.872,92.631
			c9.868,3.262,23.038,3.899,33.917,7.662c-21.434,1.039-131.003-11.578-138.935-7.905c-10.371-9.622-8.655-16.018-8.468-29.42
			c6.996,2.558,10.951,6.189,17.44,9.123C1290.953,1415.356,1308.993,1419.334,1329.034,1422.055z"/>
		<path fill="#DA3A1B" d="M1521.13,1442.771c35.339-19.345,18.853-47.574,3.685-73.954c5.093,5.167,15.075,14.983,19.004,20.719
			c20.931,30.554,21.549,43.864,58.922,56.741C1577.388,1446.246,1546.297,1446.143,1521.13,1442.771z"/>
		<path fill="#FEA684" d="M1498.133,1228.512c8.297-0.031,10.863,1.437,15.998,6.123l-0.332,5.079
			c-7.822,12.176-17.743,15.739-30.544,21.218c-7.242,0.253-11.336-1.464-16.099-6.402l0.857-6.064
			C1477.549,1235.664,1483.735,1233.585,1498.133,1228.512z"/>
		<path fill="#FEA684" d="M1688.653,1217.69c18.141,0.059,60.212,2.09,59.689,25.712
			C1729.615,1245.824,1695.795,1237.191,1688.653,1217.69z"/>
		<path fill="#FEA684" d="M1559.969,1209.253c11.503-0.6,40.043-3.314,46.989,6.099c-3.828,5.536-8.18,5.952-14.818,8.018
			c-10.896,1.686-40.959,6.714-46.505-5.596C1548.833,1212.462,1553.823,1211.585,1559.969,1209.253z"/>
		<path fill="#9CAE02" d="M1263.5,1427.292c7.932-3.673,117.501,8.945,138.935,7.905c34.361,1.967,86.078,3.099,118.694,7.574
			c25.167,3.371,56.259,3.475,81.611,3.506l63.264,1.93c76.335,2.591,152.693,4.547,229.063,5.866
			c15.089,0.363,74.111-0.27,84.625,2c-18.468,13.626-59.065,14.89-82.23,16.813l13.79,10.622
			c3.599,3.873,9.672,10.009,12.634,14.048c7.027,12.85,14.588,43.932,18.861,59.435c2.727,11.69,5.379,19.664,1.116,31.312
			c-19.641,28.811-74.384,37.615-108.103,40.802l3.896,13.321l-0.376,8.571c-21.006,30.404-54.778,31.62-88.598,23.117
			c1.455,7.086,3.021,9.053,1.004,15.338c-6.141,1.725-6.886,1.591-13.361,1.497l-2.072,2.048
			c-33.838-3.901-43.954-7.914-76.61-16.108c2.037-6.569,2.56-7.261,1.878-13.919c-9.879-9.479-55.448-10.009-78.016-14.466
			l-28.56-0.818c-5.766-2.51-37.255-4.818-47.689-6.719c-58.57-10.664-177.363-13.492-217.567-59.618
			c-15.177-17.416-15.987-66.24-14.981-88.446c0.925-20.435,34.071-27.477,54.729-42.952
			C1304.225,1445.646,1284.058,1442.855,1263.5,1427.292L1263.5,1427.292z"/>
		<path fill="#62130B" d="M1263.5,1427.292c7.932-3.673,117.501,8.945,138.935,7.905c34.361,1.967,86.078,3.099,118.694,7.574
			c25.167,3.371,56.259,3.475,81.611,3.506l63.264,1.93c76.335,2.591,152.693,4.547,229.063,5.866
			c15.089,0.363,74.111-0.27,84.625,2c-18.468,13.626-59.065,14.89-82.23,16.813c-20.292-2.514-75.201,1.815-99.083,1.87
			c-73.288,0.121-146.566-1.58-219.771-5.103c-68.291-3.18-137.169-10.308-205.4-15.075c-9.721-0.681-22.217-5.883-28.666,2.347
			l1.033,7.314c1.861,14.044,3.542,28.112,5.043,42.198c10.918,15.147,21.698,21.982,41.032,13.749
			c11.626,1.943,28.259,4.358,30.327,18.657l-1.323-1.868c-3.825-5.33-6.651-9.782-13.856-10.229
			c-8.011,6.701-15.17,13.541-15.726,24.782c-1.773,35.782,38.127,46.963,65.483,51.749c43.06,7.534,86.915,12.945,130.384,14.442
			c25.159,1.508,58.931,4.365,83.061,0.108c15.19-0.207,24.168-0.846,39.23-2.809c-2.443,12.138-1.789,13.925,0.369,26.088
			c12.414,19.319,19.158,24.607,41.084,33.007c1.454,7.086,3.021,9.053,1.004,15.338c-6.141,1.725-6.886,1.591-13.362,1.497
			l-2.072,2.048c-33.838-3.901-43.954-7.914-76.61-16.108c2.037-6.569,2.56-7.261,1.879-13.919
			c-9.879-9.479-55.448-10.009-78.016-14.466l-28.56-0.818c-5.766-2.51-37.255-4.818-47.689-6.719
			c-58.57-10.664-177.363-13.492-217.567-59.618c-15.177-17.416-15.987-66.24-14.981-88.446
			c0.925-20.435,34.071-27.477,54.729-42.952C1304.224,1445.646,1284.058,1442.855,1263.5,1427.292L1263.5,1427.292z"/>
		<path fill="#A42A11" d="M1709.598,1641.108c12.415,19.319,19.158,24.607,41.084,33.007c1.455,7.086,3.021,9.053,1.004,15.339
			c-6.141,1.725-6.886,1.591-13.362,1.497l-2.072,2.048c-33.838-3.901-43.954-7.914-76.61-16.108
			c2.037-6.569,2.56-7.262,1.879-13.919c-9.879-9.479-55.448-10.009-78.016-14.466
			C1618.695,1649,1676.278,1647.378,1709.598,1641.108L1709.598,1641.108z"/>
		<path fill="#A42A11" d="M1923.886,1497.556c7.027,12.85,14.588,43.932,18.861,59.435c2.727,11.69,5.379,19.664,1.116,31.312
			c-19.641,28.811-74.384,37.615-108.103,40.802l-4.597-23.286l5.553-1.923l-1.395-3.552c3.059-20.136,25.855-65.169,36.116-83.879
			c10.397,0.44,32.937,2.994,40.093-2.936C1918.165,1507.068,1919.14,1505.554,1923.886,1497.556L1923.886,1497.556z"/>
		<path fill="#62130B" d="M1836.716,1603.897c39.786-9.778,82.745-8.91,106.031-46.906c2.727,11.69,5.379,19.664,1.116,31.312
			c-19.641,28.811-74.384,37.615-108.103,40.802l-4.597-23.286L1836.716,1603.897z"/>
		<path fill="#A42A11" d="M1406.797,1526.747l1.753,1.793c21.052,21.76,16.666,57.334,41.1,65.167
			c13.094,0.202,17.343-6.288,24.77-15.684c10.591-19.87,22.553-39.536,45.316-45.617c60.873-16.261,35.872,58.727,67.201,85.314
			c-43.469-1.497-87.324-6.908-130.384-14.442c-27.356-4.787-67.256-15.967-65.483-51.749
			C1391.627,1540.288,1398.786,1533.449,1406.797,1526.747L1406.797,1526.747z"/>
		<path fill="#666403" d="M1345.575,1464.24l-1.033-7.314c6.449-8.231,18.945-3.028,28.666-2.347
			c68.232,4.767,137.109,11.895,205.4,15.075c73.204,3.523,146.483,5.224,219.771,5.103c23.882-0.055,78.792-4.385,99.083-1.87
			l13.79,10.622c-125.53,1.659-249.737,5.866-375.104-4.398C1472.777,1473.921,1408.968,1468.802,1345.575,1464.24L1345.575,1464.24
			z"/>
		<path fill="#A42A11" d="M1617.35,1617.703c14.37-17.114,17.901-31.853,25.563-52.334c28.925-77.327,60.297-28.53,72.598,22.798
			c-1.505,6.87-4.166,20.668-6.282,26.853c-15.062,1.963-24.04,2.602-39.23,2.809
			C1653.724,1617.182,1633.88,1617.701,1617.35,1617.703z"/>
		<path fill="#79130B" d="M1471.388,1566.415c9.567-20.158,17.372-35.018,39.927-43.009c26.87-9.068,44.328-8.141,55.448,20.782
			c7.328,19.057,2.485,57.42,21.151,66.204c52.093,24.514,42.438-121.015,94.368-94.141c22.869,11.835,35.016,45.56,33.229,71.914
			c-12.3-51.327-43.673-100.125-72.598-22.798c-7.662,20.481-11.193,35.22-25.563,52.334c16.53-0.002,36.374-0.521,52.649,0.125
			c-24.13,4.257-57.902,1.4-83.061-0.108c-31.328-26.587-6.328-101.576-67.201-85.314c-22.764,6.081-34.726,25.747-45.316,45.617
			L1471.388,1566.415z"/>
		<path fill="#79130B" d="M1831.164,1605.82c1.147-22.459,24.275-113.868,58.597-98.446c6.708,3.013,14.651,4.415,21.771,6.156
			c-7.156,5.93-29.696,3.376-40.093,2.936c-10.261,18.71-33.058,63.743-36.116,83.879l1.395,3.552L1831.164,1605.82z"/>
		<path fill="#79130B" d="M1391.649,1520.187c8.998-1.688,15.073-3.229,23.183,2.094c20.973,13.76,18.708,91.103,56.555,44.134
			l3.032,11.609c-7.427,9.396-11.676,15.886-24.77,15.684c-24.434-7.833-20.048-43.406-41.1-65.167l-1.753-1.793
			c7.205,0.446,10.031,4.899,13.856,10.229l1.323,1.868C1419.908,1524.545,1403.275,1522.13,1391.649,1520.187z"/>
		<path fill="#F05A0E" d="M333.29,1646.167c8.552,2.947,20.694,2.728,30.065,3.079c20.234,5.774,54.571,11.655,76.091,15.69
			c15.056,2.477,27.097,4.317,42.456,5.582l2.054-0.842c11.786,11.006,12.625,23.226,0.729,35.261l6.31-2.637l14.249,0.723
			c22.746-3.114,63.655-6.079,87.034-6.938l8.875,5.211c18.973-0.549,56.257,6.892,77.805,7.826
			c33.957,1.47,66.491-0.024,100.362-1.87c33.038-1.8,82.013-0.145,113.52-7.589c42.188-6.438,76.1-11.576,119.224-14.154
			c13.067,7.165,14.697,6.079,29.481,7.949c43.119-15.389,72.598,3.268,104.935-20.185c12.357,15.596,20.349,27.835,26.657,47.009
			c0.804,112.317-251.835,102.835-326.551,103.27l-12.792,0.046l14.741,31.046c-12.096,0.125-33.205-0.525-44.11,2.589
			l-16.238-33.552c-42.126,0.363-84.254,0.099-126.371-0.793c3.16,10.494,7.497,23.549,9.905,34.015
			c-9.949-0.281-30.491-2.248-38.298,1.965l-10.975-36.708c-58.57-1.18-120.566-1.026-178.537-9.004
			c-55.099-7.582-123.838-18.921-139.353-81.129c-22.012-8.943-41.594-35.549-32.634-60.583
			c3.221-8.996,12.311-11.002,20.687-13.778C306.204,1653.958,319.764,1650.124,333.29,1646.167L333.29,1646.167z"/>
		<path fill="#DA3A1B" d="M333.29,1646.167c8.552,2.947,20.694,2.728,30.065,3.079c20.234,5.774,54.571,11.655,76.091,15.69
			c15.056,2.477,27.097,4.317,42.456,5.582l2.054-0.842c11.786,11.006,12.625,23.226,0.729,35.261l6.31-2.637l14.249,0.723
			c-39.784,17.38-108.138,39.235-151.635,40.327c40.414,34.255,101.217,41.154,153.044,44.886
			c148.889,10.716,302.564,12.189,451.408,1.466c68.627-4.945,167.983-14.895,215.075-69.42
			c0.804,112.317-251.835,102.835-326.551,103.271l-12.792,0.046l14.741,31.046c-12.096,0.125-33.205-0.525-44.11,2.589
			l-16.238-33.552c-42.126,0.363-84.254,0.099-126.371-0.793c3.16,10.494,7.497,23.549,9.905,34.015
			c-9.949-0.281-30.491-2.248-38.298,1.965l-10.975-36.708c-58.57-1.18-120.566-1.026-178.537-9.004
			c-55.099-7.582-123.838-18.921-139.353-81.13c-22.012-8.943-41.594-35.549-32.634-60.582c3.221-8.996,12.311-11.002,20.687-13.778
			C306.204,1653.958,319.764,1650.124,333.29,1646.167L333.29,1646.167z"/>
		<path fill="#EB410C" d="M333.29,1646.167c8.552,2.947,20.694,2.728,30.065,3.079c20.234,5.774,54.571,11.655,76.091,15.69
			c15.056,2.477,27.097,4.317,42.456,5.582l2.054-0.842c11.786,11.006,12.625,23.226,0.729,35.261
			c-52.561,19.345-123.996,38.088-180.128,27.09c-22.012-8.943-41.594-35.549-32.634-60.582
			c3.221-8.996,12.311-11.002,20.687-13.778C306.204,1653.958,319.763,1650.123,333.29,1646.167L333.29,1646.167z"/>
		<path fill="#FC5748" d="M333.29,1646.167c8.552,2.947,20.694,2.728,30.065,3.079c20.234,5.774,54.571,11.655,76.091,15.69
			c15.056,2.477,27.097,4.317,42.456,5.582c-1.872,2.226-4.08,4.541-6.488,6.033c-52.917,32.776-74.259,4.389-124.635-10.712
			c-20.448-6.13-36.378-1.053-56.296-4.727l-1.87-3.444C306.204,1653.958,319.764,1650.123,333.29,1646.167z"/>
		<path fill="#FC5748" d="M326.169,1682.262c21.335,2.561,13.878,17.182,27.694,26.101c5.135,3.314,18.866,2.154,28.197,5.398
			l-0.642,3.668C340.302,1730.327,333.336,1720.233,326.169,1682.262L326.169,1682.262z"/>
		<path fill="#D5CAD3" d="M788.188,1823.683l45.607-0.083l14.741,31.046c-12.096,0.125-33.205-0.525-44.11,2.589L788.188,1823.683z"
			/>
		<path fill="#D5CAD3" d="M622.448,1822.163c11.738,0.209,28.042-0.037,39.368,0.728c3.16,10.495,7.497,23.549,9.905,34.015
			c-9.949-0.281-30.491-2.248-38.298,1.965L622.448,1822.163z"/>
		<path fill="#FD8628" d="M1012.065,1685.51c13.067,7.165,14.697,6.079,29.481,7.949c12.47,8.044,51.335-3.982,43.882,26.684
			c-27.128,44.38-206.075,51.901-256.247,47.325c-14.361-1.31-34.317-4.602-48.199-8.864c-26.892-7.114-53.266-25.248-81.519-16.993
			l0.997,2.393c9.765,3.774,16.921,5.428,27.051,7.91c-48.474,16.407-97.099,26.596-145.228,2.536
			c-15.445-7.721-44.64-27.591-44.967-46.75c8.003-11.681,47.446-4.914,63.839-6.404c18.973-0.549,56.257,6.892,77.805,7.826
			c33.956,1.47,66.491-0.024,100.362-1.87c33.038-1.8,82.013-0.145,113.52-7.589
			C935.029,1693.226,968.942,1688.088,1012.065,1685.51z"/>
		<path fill="#DA3A1B" d="M1835.76,1629.105c33.719-3.187,88.462-11.991,108.103-40.802c18.569,4.991,46.34,11.972,63.567,19.042
			c2.63,15.651,2.696,27.477-1.54,43.026c39.555,32.446,26.837,46.314-17.532,51.266l1.11,7.853
			c43.919,118.431-186.902,124.727-256.311,125.85c4.812,11.391,8.473,18.778,14.396,29.657c-10.061,1.426-36.644,3.681-44.09,5.56
			c-4.386-10.622-10.424-22.264-15.528-32.701c-43.6,1.811-87.232,2.835-130.869,3.073l5.142,29.789
			c-7.642-0.064-32.427-1.022-38.151,1.099c-1.492-10.769-3.733-21.547-5.821-32.231c-15.115-1.497-42.075-1.382-59.071-2.325
			c-6.585-4.499-15.003-8.387-21.968-12.982c-29.237-19.294-48.968-52.547-18.532-81.833c-0.033-4.932-0.756-7.055-1.907-11.738
			c13.654-7.053,21.795-8.514,36.879-9.202c7.394,3.154,13.845,5.848,21.441,8.565c14.353,2.501,47.252,7,59.06,10.828
			c6.148,10.497,23.482,20.897,34.35,25.963c29.918-8.161,45.901-23.024,78.253-28.306c11.492,0.668,28.066,2.13,39.16,1.624
			c34.233-21.378-7.515-49.422-26.846-61.855l0.589-1.435c32.656,8.193,42.772,12.207,76.61,16.108l2.072-2.048
			c6.475,0.094,7.22,0.229,13.362-1.497c2.017-6.286,0.45-8.253-1.004-15.338c33.82,8.503,67.592,7.288,88.598-23.116l0.376-8.571
			L1835.76,1629.105z"/>
		<path fill="#357903" d="M1835.76,1629.105c33.719-3.187,88.462-11.991,108.103-40.802c18.569,4.991,46.34,11.972,63.567,19.042
			c2.63,15.651,2.696,27.477-1.54,43.026c39.555,32.446,26.837,46.314-17.532,51.266l1.11,7.853
			c-20.81,13.314-47.399,11.567-57.582,27.923l-2.589-4.901c-16.884,10.712-26.574,1.844-42.792-7.057
			c-56.885,20.903-88.904,31.022-150.84,22.292c-16.253-0.541-32.798-4.127-48.85-7.057l-0.916-0.51
			c34.233-21.378-7.515-49.422-26.846-61.855l0.589-1.435c32.656,8.193,42.772,12.206,76.61,16.108l2.072-2.048
			c6.475,0.094,7.22,0.229,13.361-1.497c2.017-6.286,0.451-8.253-1.004-15.338c33.82,8.503,67.592,7.288,88.598-23.116l0.376-8.571
			L1835.76,1629.105z"/>
		<path fill="#EB410C" d="M1835.76,1629.105c33.719-3.187,88.462-11.991,108.103-40.802c18.569,4.991,46.34,11.972,63.567,19.042
			c2.63,15.651,2.696,27.477-1.54,43.026c-22.812,18.562-46.637,23.42-74.667,31.716c-52.049,10.943-125.963,15.938-178.904,12.349
			c-7.57,0.558-8.853,0.747-16.066-1.439l2.072-2.048c6.475,0.094,7.22,0.229,13.362-1.497c2.017-6.286,0.45-8.253-1.004-15.338
			c33.82,8.503,67.592,7.288,88.598-23.116l0.376-8.571L1835.76,1629.105z"/>
		<path fill="#FC5748" d="M1835.76,1629.105c33.719-3.187,88.462-11.991,108.103-40.802c18.569,4.991,46.34,11.972,63.567,19.042
			c-35.453,19.215-125.919,33.706-167.774,35.081L1835.76,1629.105z"/>
		<path fill="#A42A11" d="M1750.682,1674.114c33.82,8.503,67.592,7.288,88.598-23.116c-4.652,45.112-49.3,34.51-81.235,36.666
			c-1.934,0.132-4.9,5.224-5.726,6.774c-7.57,0.558-8.853,0.747-16.066-1.439l2.072-2.048c6.475,0.094,7.22,0.229,13.362-1.497
			C1753.703,1683.167,1752.137,1681.2,1750.682,1674.114z"/>
		<path fill="#255D01" d="M1735.666,1747.747c25.156-3.013,52.266-4.396,73.455-10.835c35.613-10.824,69.609-45.279,100.263-9.532
			c3.586,4.182,14.276,1.666,20,0.53l-0.086,4.602c-16.884,10.712-26.574,1.844-42.792-7.057
			C1829.621,1746.358,1797.603,1756.477,1735.666,1747.747L1735.666,1747.747z"/>
		<path fill="#DA3A1B" d="M1942.058,1713.756c10.325-1.303,33.537-9.213,46.301-12.119l1.11,7.853
			c-20.81,13.314-47.399,11.567-57.582,27.923l-2.589-4.901l0.086-4.602C1933.349,1718.613,1932.899,1716.475,1942.058,1713.756
			L1942.058,1713.756z"/>
		<path fill="#A42A11" d="M1886.506,1725.455c16.218,8.901,25.908,17.769,42.792,7.057l2.588,4.901
			c-16.633,14.587-21.621,7.91-39.452-3.213c-27.938,9.719-69.724,23.262-99.141,24.092c-23.634,0.666-92.672,1.576-106.477-17.602
			c16.051,2.93,32.597,6.516,48.85,7.057C1797.603,1756.477,1829.621,1746.358,1886.506,1725.455z"/>
		<path fill="#D5CAD3" d="M1687.935,1837.857c15.051-1.2,30.131-2.04,45.222-2.517c4.812,11.391,8.473,18.778,14.396,29.657
			c-10.061,1.426-36.644,3.681-44.09,5.561C1699.077,1859.936,1693.039,1848.294,1687.935,1837.857z"/>
		<path fill="#D5CAD3" d="M1518.236,1839.587l38.83,1.343l5.142,29.789c-7.642-0.064-32.427-1.022-38.151,1.099
			C1522.564,1861.048,1520.323,1850.27,1518.236,1839.587z"/>
		<path fill="#A42A11" d="M1416.757,1730.708c13.654-7.053,21.795-8.514,36.879-9.202c7.394,3.154,13.845,5.848,21.441,8.565
			c-28.42,2.033-30.043-1.503-56.413,12.376C1418.631,1737.514,1417.909,1735.391,1416.757,1730.708L1416.757,1730.708z"/>
		<path fill="#F05A0E" d="M3624.39,1837.723c9.8-0.745,20.325-1.785,30.059-1.657c4.307,8.055,11.272,22.083,15.996,29.339
			c39.287,68.877,75.388,143.58,113.796,213.508c10.283,20.104,24.895,46.8,33.442,67.042c-8.943,20.134-13.491,19.877-34.937,22.2
			c-8.459-9.675-42.539-75.536-50.845-91.09l-375.491,0.156c29.971-37.778,62.095-74.195,90.703-113.272
			c21.335-29.143,10.525-60.857,3.625-95.844c-1.626-9.396-2.988-19.253-4.417-28.716
			C3505.671,1841.506,3565.085,1840.952,3624.39,1837.723z"/>
		<path fill="#FEFEFE" d="M3624.39,1837.723c9.8-0.745,20.325-1.785,30.059-1.657c4.307,8.055,11.272,22.083,15.996,29.339
			c39.287,68.877,75.388,143.58,113.796,213.508c10.283,20.104,24.895,46.8,33.442,67.042c-8.943,20.134-13.491,19.877-34.937,22.2
			c-8.459-9.675-42.539-75.536-50.845-91.09l-109.578-208.068c-4.109-9.738-11.865-18.128-12.261-26.719
			C3614.37,1837.38,3616.37,1838.677,3624.39,1837.723z"/>
		<path fill="#D5CAD3" d="M3624.39,1837.723c9.8-0.745,20.325-1.785,30.059-1.657c4.307,8.055,11.272,22.083,15.996,29.339
			l-48.12,3.591c-4.109-9.739-11.865-18.127-12.261-26.719C3614.37,1837.38,3616.37,1838.677,3624.39,1837.723z"/>
		<path fill="#F05A0E" d="M2740.671,2076.917c11.733,20.532,38.584,80.998,49.46,93.422c-5.471,0.53-15.161,1.154-20.193,2.18
			c-17.358,16.642-4.548,36.471,4.46,55.525c-48.252-0.857-307.09-6.396-334.995,3.23c-19.578-8.571-33.289-13.538-53.635-20.176
			c1.077-3.253,4.131-10.066,2.812-12.792c-11.47-23.883-23.159-67.918-56.206-59.892l-1.165-4.958
			c11.646-12.097,34.761-42.479,46.384-56.69L2740.671,2076.917z"/>
		<path fill="#EB410C" d="M909.431,2077.347c15.003,28.633,31.414,67.811,46.925,93.688c-41.814,3.62-24.524,31.448-13.819,57.536
			c-70.77-1.692-141.559-2.417-212.348-2.176c-19.246,0.066-81.976,0.374-98.057,3.428c-15.981-7.45-32.115-14.572-48.39-21.363
			c7.007-16.69-18.789-65.963-31.445-72.213c-23.199-11.457-32.794,27.417-62.8,9.859c3.463,0.202,6.935,0.246,10.402,0.132
			c32.19-1.262,61.04-45.638,83.639-69.728L909.431,2077.347z"/>
		<path fill="#F05A0E" d="M1471.957,2076.831c108.455,0.132,219.581,1.719,327.812-0.207c11.276,21.835,34.471,79.868,46.27,92.67
			l-0.299,2.594c-40.779-2.033-25.818,31.76-15.258,56.53c-34.047-1.406-283.135-4.967-298.841,3.121
			c-9.446-4.088-51.759-19.912-54.002-24.725l3.421-7.978c-4.792-17.798-18.222-42.69-31.074-56.292
			c-6.743-7.136-12.1-6.739-21.331-6.677l-1.986-4.978C1441.964,2113.035,1457.06,2095.016,1471.957,2076.831L1471.957,2076.831z"/>
		<path fill="#FD8628" d="M2464.783,1848.541c55.591,3.501,105.667,0.714,160.994-2.103c4.351,9.602,8.899,19.105,13.667,28.503
			c32.607,67.699,67.917,134.475,101.228,201.976l-363.076-0.15c29.509-36.848,60.315-75.07,88.638-112.884
			c20.105-26.798,9.294-57.031,2.834-89.215C2467.178,1865.971,2466.057,1857.343,2464.783,1848.541z"/>
		<path fill="#F05A0E" d="M661.816,1822.89c42.117,0.892,84.245,1.156,126.371,0.793l16.238,33.552
			c33.497,71.958,69.787,148.982,105.005,220.112l-325.894-0.835c26.804-33.534,89.341-96.965,105.823-130.842
			c-2.266-31.644-9.837-58.303-17.638-88.765C669.313,1846.439,664.976,1833.384,661.816,1822.89L661.816,1822.89z"/>
		<path fill="#FD8628" d="M1557.066,1840.93c43.638-0.237,87.269-1.261,130.869-3.073c5.104,10.437,11.142,22.079,15.528,32.701
			c32.939,67.949,63.969,137.661,96.306,206.066c-108.231,1.926-219.358,0.338-327.812,0.207
			c27.022-35.119,54.479-68.846,80.613-104.925c26.262-36.255,17.363-57.87,9.637-101.187L1557.066,1840.93z"/>
		<path fill="#FEFEFE" d="M804.425,1857.235c10.905-3.114,32.014-2.464,44.11-2.589l73.745,151.644
			c6.416,13.196,29.927,63.527,36.266,72.723c8.189-3.576,177.229-3.009,187.803,0.261c20.7,3.985,30.992,12.057,45.066,29.075
			c2.303,2.782,5.572,12.229,3.564,15.673c-22.968,39.435-73.332,70.739-112.603,92.505c-5.407,3.011-16.156-3.033-20.83-5.319
			c-1.041-0.527-2.078-1.055-3.111-1.582c-6.416,10.044,6.291,23.165-18.011,24.242l-1.934,0.594
			c-15.023,9.494-30.043,19.055-45.149,28.396c-28.997,17.934-40.318-14-50.803-34.286c-10.705-26.088-27.995-53.917,13.819-57.536
			c-15.51-25.877-31.922-65.055-46.925-93.688C874.213,2006.218,837.923,1929.194,804.425,1857.235L804.425,1857.235z"/>
		<path fill="#EB410C" d="M958.546,2079.013c8.189-3.576,177.229-3.009,187.803,0.261c20.7,3.985,30.992,12.057,45.066,29.075
			c2.303,2.782,5.572,12.229,3.564,15.673c-22.968,39.435-73.332,70.739-112.603,92.505c-5.407,3.011-16.156-3.033-20.83-5.319
			c-1.042-0.528-2.079-1.055-3.111-1.582c-6.416,10.044,6.291,23.165-18.011,24.242c3.962-3.143,7.328-6.374,11.008-9.824
			c4.1-8.484,1.795-16.176,0.486-25.912c7.868,6.572,14.465,10.55,23.1,16c32.484-12.923,72.457-42.637,97.728-66.822
			c20.898-20,20.681-33.96-0.152-52.086c-38.301-33.321-58.652,18.083-87.17,21.022l-2.538-5.791
			c-18.991-9.499-76.373-6.22-90.644,14.741l-2.437,22.154C983.854,2128.904,967.544,2097.539,958.546,2079.013L958.546,2079.013z"
			/>
		<path fill="#FEA684" d="M992.241,2125.196c1.459,17.541,4.192,25.266-5.851,39.319l-4.271,2.198
			c0.017-7.371,6.093-7.494,7.686-19.362L992.241,2125.196z"/>
		<path fill="#EB410C" d="M1269.844,1594.418c70.356,23.569,208.323,53.978,282.261,55.703l2.841-2.433l28.56,0.818
			c22.568,4.457,68.137,4.987,78.016,14.466c0.681,6.657,0.158,7.349-1.879,13.919l-0.589,1.435
			c19.332,12.433,61.079,40.477,26.846,61.855c-11.094,0.505-27.668-0.956-39.16-1.624c-32.353,5.281-48.335,20.145-78.253,28.305
			c-10.868-5.066-28.202-15.466-34.35-25.963c-11.808-3.829-44.708-8.327-59.06-10.828c-7.596-2.717-14.047-5.411-21.441-8.565
			l6.508-1.007c-21.065-7.45-46.512-13.956-68.315-19.402c-13.003-3.246-17.209-0.705-27.584,6.279
			c-37.307-12.237-71.365-9.04-110.066-8.332l-5.025-1.246c-7.813-0.727-11.58-2.127-17.811-6.505
			c-6.724-16.688,10.549-19.859,13.5-35.47c0.4-2.114-5.392-3.521-4.524-12.233c5.124-3.301,15.664-2.457,22.322-2.543
			C1266.353,1625.345,1267.884,1610.391,1269.844,1594.418L1269.844,1594.418z"/>
		<path fill="#2A6D06" d="M1249.154,1697.798c-7.813-0.727-11.58-2.127-17.811-6.505c-6.724-16.688,10.549-19.859,13.5-35.47
			c0.4-2.114-5.392-3.521-4.524-12.233c5.124-3.301,15.664-2.457,22.322-2.543c10.228,3.697,20.342,7.538,30.845,10.369
			c25.308,7.484,47.498,13.226,73.138,18.728c8.097,1.738,34.058,6.681,41.052,8.921c34.04,5.87,118.668,17.33,154.65,17.932
			l12.1-0.103c9.213,8.563,18.532,17.013,27.952,25.349c16.759,11.824,23.935,12.438,44.363,16.314
			c-32.353,5.281-48.335,20.145-78.253,28.305c-10.868-5.066-28.202-15.466-34.35-25.963c-11.808-3.829-44.708-8.327-59.06-10.828
			c-7.596-2.717-14.047-5.411-21.441-8.565l6.508-1.007c-21.065-7.45-46.512-13.956-68.315-19.402
			c-13.003-3.246-17.209-0.705-27.584,6.279c-37.307-12.237-71.365-9.04-110.066-8.332L1249.154,1697.798z"/>
		<path fill="#357903" d="M1249.154,1697.798c-7.813-0.727-11.58-2.127-17.811-6.505c-6.724-16.688,10.549-19.859,13.5-35.47
			c0.4-2.114-5.392-3.521-4.524-12.233c5.124-3.301,15.664-2.457,22.322-2.543c10.228,3.697,20.342,7.538,30.845,10.369
			c4.032,18.174,23.476,15.275,21.329,31.651C1301.179,1696.745,1260.624,1686.791,1249.154,1697.798z"/>
		<path fill="#255D01" d="M1407.676,1679.064c34.04,5.87,118.668,17.33,154.65,17.932c-2.485,4.099-4.493,8.486-8.134,11.18
			C1520.578,1697.286,1425.54,1704.572,1407.676,1679.064z"/>
		<path fill="#255D01" d="M1562.326,1696.996l12.1-0.103c9.213,8.563,18.532,17.013,27.951,25.349
			c-13.003,6.857-27.207,17.908-41.133,11.492c-5.614-7.303-5.697-16.079-7.053-25.558
			C1557.833,1705.481,1559.841,1701.094,1562.326,1696.996L1562.326,1696.996z"/>
		<path fill="#255D01" d="M1460.145,1720.499c12.417-1.229,26.756-8.213,38.88-12.336c15.073,18.987,27.714,23.644,35.112,32.736
			c-11.808-3.829-44.708-8.327-59.06-10.828c-7.596-2.717-14.047-5.411-21.441-8.565L1460.145,1720.499z"/>
		<path fill="#9CAE02" d="M1659.054,1678.325c19.332,12.433,61.079,40.477,26.846,61.855c-11.094,0.505-27.668-0.956-39.16-1.624
			c-20.428-3.877-27.604-4.49-44.363-16.314c-9.42-8.336-18.738-16.787-27.952-25.349
			C1599.574,1697.068,1637.793,1691.681,1659.054,1678.325z"/>
		<path fill="#FEFEFE" d="M1848.601,2077.996c48.916-0.341,154.626-3.615,199.345,1.53c104.61,37.717-30.634,113.358-71.637,136.101
			c-11.718,6.484-22.821-1.187-27.468-12.198l-2.894-2.857c-7.266,6.967,6.579,18.945-14.038,32.308
			c-17.031,9.209-33.007,21.517-50.146,30.989c-29.977,16.572-40.489-14.11-51.28-35.451c-10.56-24.769-25.521-58.562,15.258-56.53
			l0.299-2.594c19.971,0.299,24.021-2.969,34.374-18.648C1874.832,2130.336,1858.346,2098.229,1848.601,2077.996z"/>
		<path fill="#F05A0E" d="M1848.601,2077.996c48.916-0.341,154.626-3.615,199.345,1.53c104.61,37.717-30.634,113.358-71.637,136.101
			c-11.718,6.484-22.821-1.187-27.468-12.198c6.75,4.747,9.938,7.868,18.062,9.209c37.14-8.527,97.724-59.754,119.452-91.725
			c-6.581-13.541-16.69-27.987-31.012-34.099c-29.287-12.503-53.721,21.492-76.131,31.439c-3.23-2.422-3.547-4.261-5.577-8.097
			c-19.178-7.833-79.829-8.369-90.938,14.952l-2.283,25.538C1874.832,2130.336,1858.346,2098.229,1848.601,2077.996z"/>
		<path fill="#FEC6B3" d="M1882.696,2125.108c2.204,27.637-1.36,53.125-36.956,46.78l0.299-2.594
			c19.971,0.299,24.021-2.969,34.374-18.648L1882.696,2125.108z"/>
		<path fill="#A42A11" d="M1254.179,1699.044c38.7-0.708,72.758-3.905,110.065,8.332c10.375-6.984,14.581-9.525,27.584-6.279
			c21.803,5.446,47.25,11.952,68.315,19.402l-6.508,1.007c-15.084,0.688-23.225,2.15-36.879,9.202
			c1.151,4.684,1.874,6.807,1.907,11.739c-30.437,29.286-10.705,62.538,18.532,81.833c6.965,4.596,15.383,8.484,21.968,12.982
			C1389.382,1837.611,1195.365,1810.976,1254.179,1699.044L1254.179,1699.044z"/>
		<path fill="#9CAE02" d="M1364.245,1707.376c10.375-6.985,14.581-9.525,27.584-6.279c21.803,5.446,47.25,11.952,68.315,19.402
			l-6.508,1.007c-15.084,0.688-23.225,2.15-36.879,9.202c-15.394,6.635-49.935,35.771-63.53,16.07
			C1351.472,1733.092,1358.308,1719.389,1364.245,1707.376z"/>
		<path fill="#DA3A1B" d="M1307.538,1706.094c8.835-0.079,10.835-0.127,19.345,2.026c9.336,10.602-5.421,23.354-9.615,39.62
			c-4.131,16.02,2.663,21.864,6.99,39.114l-2.883,1.745c-24.546-10.576-56.085-45.624-38.041-74.604
			C1287.332,1707.569,1300.144,1707.022,1307.538,1706.094z"/>
		<path fill="#FEFEFE" d="M3407.256,1836.53c11.624,0.767,27.861,1.347,39.067,2.857c1.428,9.464,2.791,19.321,4.417,28.716
			c6.899,34.987,17.71,66.701-3.625,95.844c-28.608,39.077-60.732,75.495-90.703,113.272c-14.37,17.079-30.366,37.908-44.758,54.046
			c-14.875,10.914-30.059,22.444-49.395,14.624c-2.439-4.002-5.383-11.182-7.427-15.694c4.307-4.244,34.827-43.288,40.759-50.55
			c3.406-2.881,25.84-30.343,30.63-35.906c24.038-27.901,47.769-57.347,71.609-85.38c24.038-28.273,17.512-50.683,13.359-86.358
			C3408.926,1866.002,3404.619,1842.077,3407.256,1836.53z"/>
		<path fill="#D5CAD3" d="M3407.256,1836.53c11.624,0.767,27.861,1.347,39.067,2.857c1.428,9.464,2.791,19.321,4.417,28.716
			c-10.635-0.846-27.642-3.035-37.507-0.846l-2.043,4.745C3408.926,1866.002,3404.619,1842.077,3407.256,1836.53z"/>
		<path fill="#FEFEFE" d="M2625.776,1846.437c14.062-0.374,30.63-1.791,44.956-2.514l15.381,28.609
			c24.741,47.081,48.845,94.497,72.29,142.235c6.965,13.866,25.027,52.187,32.717,64.235c8.679,17.156,25.774,48.855,31.311,65.826
			c-1.824,21.495-13.162,23.253-32.3,25.51c-10.876-12.424-37.727-72.89-49.46-93.422
			c-33.311-67.501-68.621-134.277-101.228-201.976C2634.675,1865.543,2630.127,1856.039,2625.776,1846.437L2625.776,1846.437z"/>
		<path fill="#D5CAD3" d="M2625.776,1846.437c14.062-0.374,30.63-1.791,44.956-2.514l15.381,28.609
			c-15.776,0.552-30.938,0.989-46.67,2.409C2634.675,1865.543,2630.127,1856.04,2625.776,1846.437z"/>
		<path fill="#FEFEFE" d="M2430.044,1873.314l39.023,1.354c6.46,32.185,17.271,62.418-2.834,89.215
			c-28.323,37.813-59.128,76.035-88.638,112.884c-11.624,14.211-34.739,44.593-46.384,56.69l1.165,4.958
			c-4.658,4.363-9.844,8.119-15.447,11.174c-18.325,10.073-32.959,4.004-41.968-13.82c2.065-4.101,2.373-10.224,5.471-15.117
			c9.272-14.686,20.852-27.374,30.696-41.862l6.438,0.855c28.894-34.497,92.241-105.974,114.521-140
			C2433.977,1918.427,2432.483,1894.477,2430.044,1873.314L2430.044,1873.314z"/>
		<path fill="#F05A0E" d="M2311.128,2078.791l6.438,0.855c-9.558,11.561-66.204,70.336-13.513,68.798
			c6.833-0.2,21.577-10.554,27.158-14.987l1.165,4.958c-4.658,4.363-9.844,8.119-15.447,11.174
			c-18.325,10.073-32.959,4.004-41.968-13.82c2.065-4.101,2.373-10.224,5.471-15.117
			C2289.705,2105.967,2301.284,2093.279,2311.128,2078.791z"/>
		<path fill="#FEFEFE" d="M1747.553,1864.998c35.477,70.589,66.507,142.488,101.048,212.998
			c9.745,20.233,26.231,52.341,31.812,72.65c-10.354,15.679-14.403,18.948-34.374,18.648c-11.799-12.802-34.994-70.835-46.27-92.67
			c-32.337-68.404-63.367-138.116-96.306-206.066C1710.91,1868.679,1737.492,1866.424,1747.553,1864.998L1747.553,1864.998z"/>
		<path fill="#FEFEFE" d="M633.423,1858.87c7.807-4.213,28.349-2.246,38.298-1.965c7.8,30.462,15.372,57.121,17.637,88.765
			c-16.482,33.877-79.018,97.308-105.822,130.842c-22.599,24.09-51.449,68.466-83.639,69.727c-3.467,0.114-6.939,0.07-10.402-0.132
			c-14.768-24.987,16.778-48.47,33.33-66.525c14.753-11.154,104.711-115.062,122.109-135.892
			C656.213,1930.187,638.734,1877.222,633.423,1858.87z"/>
		<path fill="#FEFEFE" d="M1524.056,1871.818c5.724-2.121,30.509-1.163,38.151-1.099c7.725,43.317,16.625,64.932-9.637,101.187
			c-26.134,36.079-53.591,69.806-80.613,104.925c-14.897,18.185-29.993,36.204-45.288,54.057
			c-12.182,10.927-21.601,17.259-38.654,18.695c-6.959-3.402-9.321-5.352-12.335-12.11
			c-1.947-26.055,129.133-162.183,151.348-202.075C1527.62,1916.668,1525.3,1891.077,1524.056,1871.818L1524.056,1871.818z"/>
		<path fill="#5D9001" d="M3158.591,1591.147c14.546,10.316,24.39,12.356,33.86,18.631l2.417,6.789
			c10.459,29.563,46.033,20.042,27.048,59.725l-7.537,11.679c-23.862-0.796-54.097-8.209-75.081-20.011l-0.154-2.895
			c-40.562,4.402-67.434,34.989-93.362,37.336l-2.351-2.743c3.757-40.042,34.058-68.829,68.906-84.921
			C3129.368,1606.87,3144.287,1604.017,3158.591,1591.147L3158.591,1591.147z"/>
		<path fill="#DA3A1B" d="M3139.146,1665.066c23.972-7.626,42.539,20.275,82.771,11.226l-7.537,11.679
			c-23.862-0.796-54.097-8.209-75.081-20.011L3139.146,1665.066z"/>
		<path fill="#F05A0E" d="M325.072,1488.927c-13.83-5.895-17.222-23.279-17.057-37.031c0.573-48.163,32.799-78.385,63.708-110.708
			l1.578,0.875c-3.122,7.121-34.611,39.073-42.109,52.677c-12.107,20.116-22.878,44.327-19.692,68.086
			c3.274,24.439,53.249,31.664,71.739,26.387c-6.034-5.793-31.933-10.596-36.026-16.826
			c-22.399-34.086,16.479-112.486,39.781-135.938l2.615,1.334c-6.216,9.051-7.829,10.492-18.483,27.965
			c-22.313,36.58-55.828,118.266,19.534,117.026c0.527-0.25,1.053-0.503,1.58-0.754c0.363-10.574-2.634-15.848-4.065-25.813
			c-3.052-21.255,8.752-41.51,19.98-58.244c-2.738,31.613-8.958,78.016,29.678,90.519
			C395.435,1495.648,364.693,1489.991,325.072,1488.927z"/>
		<path fill="#FEAA36" d="M3938.445,1589.22c9.954,1.582,20.369,2.229,28.564,7.745l0.703,3.873c-9.69,8-8.196,4.185-21.951,8.064
			l-1.033-0.007C3944.07,1603.174,3940.554,1594.881,3938.445,1589.22z"/>
	</g>
</g>
</svg>
