<?xml version="1.0" encoding="utf-8"?>
<!-- Generator: Adobe Illustrator 27.9.0, SVG Export Plug-In . SVG Version: 6.00 Build 0)  -->
<svg version="1.1" id="svg" xmlns="http://www.w3.org/2000/svg" xmlns:xlink="http://www.w3.org/1999/xlink" x="0px" y="0px"
	 viewBox="0 0 5786.191 3000" enable-background="new 0 0 5786.191 3000" xml:space="preserve">
<g>
	<rect x="0" y="0" fill="#FFFFFF" width="5786.191" height="3000"/>
	<g>
		<g>
			<g>
				<path fill="#FEAE7D" d="M1790.646,1493.318c26.726-23.385,61.804-33.408,91.871-10.022l1.671,1.67l6.681,6.682l10.022,13.363
					l16.704,30.067c5.011,10.022,13.363,26.726,18.374,36.748l3.341,3.341l8.352,13.363c45.1,73.497,50.111,81.849,78.508,163.697
					c1.671,5.011,6.681,16.704,8.352,21.715c21.715,71.826,43.43,145.323,66.815,217.149c13.363,41.759,31.737,86.86,40.089,130.29
					c3.341,18.374,3.341,36.748-3.341,53.452c-15.033,30.067-58.463,66.815-83.519,90.2
					c-115.256,110.245-237.194,200.446-339.087,324.053c-70.156,85.189-243.875,157.015-345.768,203.786
					c-90.2,41.76-182.071,85.189-272.272,128.619c-31.737,15.033-121.938,58.463-146.993,75.167h-574.61
					c-45.1-78.508-78.508-141.982-101.893-230.512c-6.681-26.726-18.374-53.452-11.693-80.178
					c8.352-16.704,26.726-38.419,33.408-53.452c66.815-162.027,152.004-330.735,280.623-452.673
					c11.693-1.67,16.704-3.341,26.726-6.681l288.975-125.278c50.111-21.715,106.904-46.771,157.016-66.815l-1.671-15.033
					c-1.67-16.704-1.67-26.726,3.341-43.43l1.671-3.341c6.681-16.704,10.022-21.715,25.056-31.737
					c20.044-15.034,55.122-5.011,83.519-5.011h1.67c23.385,1.67,50.111,3.341,73.497,3.341h6.681
					c18.374-15.033,101.893-45.1,131.96-60.134c-3.341-11.693,0-21.715,1.671-33.408c1.67-15.033,8.352-25.056,16.704-36.748
					c1.67-5.011-1.67-15.033-3.341-20.045c-1.67-8.352-1.67-10.022-5.011-16.704l1.67-1.67c-1.67-30.067,5.011-50.111,20.044-75.167
					c5.011-8.352,11.693-16.704,20.045-20.044c16.704-8.352,31.737-6.682,48.441,0c20.044,8.352,43.43,23.385,60.134,35.078
					l15.033,11.693c51.782-21.715,141.982-58.463,188.753-83.519c5.011-6.682,5.011-11.693,6.682-20.045
					C1758.909,1543.43,1763.92,1521.715,1790.646,1493.318L1790.646,1493.318z"/>
				<path fill="#F18258" d="M1790.646,1493.318c26.726-23.385,61.804-33.408,91.871-10.022l1.671,1.67l6.681,6.682l10.022,13.363
					l16.704,30.067c5.011,10.022,13.363,26.726,18.374,36.748l3.341,3.341l8.352,13.363c45.1,73.497,50.111,81.849,78.508,163.697
					c1.671,5.011,6.681,16.704,8.352,21.715c21.715,71.826,43.43,145.323,66.815,217.149c13.363,41.759,31.737,86.86,40.089,130.29
					c3.341,18.374,3.341,36.748-3.341,53.452c-15.033,30.067-58.463,66.815-83.519,90.2
					c-115.256,110.245-237.194,200.446-339.087,324.053c-70.156,85.189-243.875,157.015-345.768,203.786
					c-90.2,41.76-182.071,85.189-272.272,128.619c-31.737,15.033-121.938,58.463-146.993,75.167h-574.61
					c-45.1-78.508-78.508-141.982-101.893-230.512c-6.681-26.726-18.374-53.452-11.693-80.178
					c8.352-16.704,26.726-38.419,33.408-53.452c66.815-162.027,152.004-330.735,280.623-452.673
					c11.693-1.67,16.704-3.341,26.726-6.681c28.396,51.782,58.463,103.563,86.86,155.345
					c68.485-3.341,225.501-13.363,287.305,20.044c-58.463,36.748-197.105,60.134-263.92,88.53
					c-78.508,33.407-140.312,80.178-210.468,123.608c-5.011,10.022-13.363,31.737-16.704,43.43
					c-16.704,58.463-6.681,120.267,23.385,172.049c28.396,46.771,71.826,80.178,125.278,93.541
					c143.653,36.748,511.136-143.653,646.436-215.479c48.441-25.056,118.597-70.156,168.708-98.552
					c15.033,31.737,53.452,136.971,98.552,88.53c3.341-3.341,13.363-23.385,16.704-28.396c16.704-5.011,35.078-10.022,50.111-18.374
					c25.056-11.693,50.111-28.396,70.156-48.441c31.737-30.067,240.534-288.976,250.557-317.372
					c6.681-18.374,6.681-35.078,1.671-53.452c-13.363-53.452-83.519-158.686-110.245-215.479
					c-33.408-65.145-70.156-121.938-110.245-182.071c-25.056-33.408-31.737-33.408-65.145-58.463l-13.363-8.352
					c-16.704-10.022-28.396-16.704-45.1-25.056l-13.363-8.352c-3.341-1.67-21.715-13.363-26.726-16.704
					c51.782-21.715,141.982-58.463,188.753-83.519c5.011-6.682,5.011-11.693,6.681-20.044
					C1758.909,1543.43,1763.92,1521.715,1790.646,1493.318L1790.646,1493.318z"/>
				<path fill="#FEAE7D" d="M1790.646,1493.318c26.726-23.385,61.804-33.408,91.871-10.022l1.671,1.67l6.681,6.682l10.022,13.363
					l16.704,30.067c5.011,10.022,13.363,26.726,18.374,36.748l3.341,3.341l8.352,13.363c45.1,73.497,50.111,81.849,78.508,163.697
					c1.671,5.011,6.681,16.704,8.352,21.715c21.715,71.826,43.43,145.323,66.815,217.149c13.363,41.759,31.737,86.86,40.089,130.29
					c3.341,18.374,3.341,36.748-3.341,53.452c-10.022-3.341-175.39,98.552-121.938-21.715
					c-10.022-56.793-20.044-113.586-38.419-168.708c-18.374-51.782-40.089-101.893-55.123-155.345
					c-11.693-38.419-13.363-81.849-23.385-120.267c-3.341-11.693-26.726-36.748-36.748-48.441
					C1824.053,1613.586,1795.657,1551.782,1790.646,1493.318L1790.646,1493.318z"/>
				<path fill="#FEC8AC" d="M1884.187,1483.296L1884.187,1483.296l8.352,8.352l10.022,13.363l16.704,30.067
					c5.011,10.022,13.363,26.726,18.374,36.748c3.341,23.385,26.726,50.111,13.363,66.815
					c-23.385,28.396-76.838,13.363-93.541-13.363c-10.022-25.056-23.385-50.111-35.078-75.167
					c-5.011-11.693,1.671-33.408,10.022-43.43C1849.109,1488.307,1860.802,1484.967,1884.187,1483.296L1884.187,1483.296z"/>
				<path fill="#FA956A" d="M1822.383,1548.441c11.693,25.056,25.056,50.111,35.078,75.167l-3.341,1.67
					C1835.746,1616.927,1815.701,1565.145,1822.383,1548.441z"/>
				<path fill="#F6260F" d="M1578.508,1677.06c18.374-13.363,130.29-55.122,155.345-60.134c0,18.374,1.671,28.396,5.011,46.771
					l3.341,15.033c3.341,6.682,16.704,45.1,16.704,50.111c-15.033,16.704-28.396,31.737-43.43,48.441
					c-25.056-33.408-31.737-33.408-65.145-58.463l-13.363-8.352c-16.704-10.022-28.396-16.704-45.1-25.056L1578.508,1677.06z"/>
				<path fill="#FFFFFF" d="M1742.205,1678.73c3.341,6.682,16.704,45.1,16.704,50.111c-15.033,16.704-28.396,31.737-43.43,48.441
					c-25.056-33.408-31.737-33.408-65.145-58.463C1677.06,1708.797,1715.479,1690.423,1742.205,1678.73L1742.205,1678.73z"/>
				<path fill="#9C0000" d="M1738.864,1663.697l3.341,15.033c-26.726,11.693-65.145,30.067-91.871,40.089l-13.363-8.352
					C1658.686,1698.775,1713.808,1677.06,1738.864,1663.697z"/>
				<path fill="#F12E12" d="M1758.909,1728.842c16.704,28.396,35.078,71.826,55.123,96.882c0,25.056,13.363,121.938,11.693,133.63
					c-33.408-65.145-70.156-121.938-110.245-182.071C1730.512,1762.249,1743.875,1745.546,1758.909,1728.842z"/>
				<path fill="#E26644" d="M1050.668,1979.399c16.704,45.1,38.419,70.156,78.508,95.212c35.078,21.715,86.86,41.76,126.949,23.385
					l13.363-1.671c-23.385,25.056-43.43,50.112-58.463,80.178l56.793,30.067c6.681,3.341,15.033,6.681,23.385,10.022
					c-20.044,11.693-40.089,21.715-60.134,35.078c-13.363,10.022-36.748,45.1-46.771,48.441
					c-68.486,13.363-138.641,30.067-205.457,43.43c-61.804-33.408-218.82-23.385-287.305-20.045
					c-30.067-51.782-58.463-103.563-86.86-155.345l288.976-125.278C943.764,2024.499,998.886,1999.443,1050.668,1979.399
					L1050.668,1979.399z"/>
				<path fill="#FA956A" d="M1129.176,2074.61c35.078,21.715,86.86,41.76,126.949,23.385l13.363-1.671
					c-23.385,25.056-43.43,50.112-58.463,80.178l56.793,30.067c-113.586-5.011-180.401-5.011-282.294-60.134
					C1028.953,2124.721,1084.076,2099.666,1129.176,2074.61z"/>
				<path fill="#F18258" d="M1167.594,2123.051c15.033,25.056,28.396,31.737,43.43,51.782c-10.022-1.67-28.396-15.033-35.078-23.385
					C1165.924,2138.085,1167.594,2136.414,1167.594,2123.051L1167.594,2123.051z"/>
				<path fill="#F18258" d="M1408.129,1635.301c1.67,23.385,5.011,28.396,13.363,50.111
					c13.363,55.123,95.212,123.608,143.653,153.675c13.363,8.352,28.396,16.704,43.43,23.385
					c58.463,141.982,98.552,223.831,177.06,354.12c-31.737,56.793,16.704,66.815,61.804,68.486
					c-31.737,46.771-65.145,93.541-98.552,138.642c-25.056,33.407-45.1,65.145-73.497,96.882
					c-61.804,66.815-105.234-23.385-126.949-28.396c3.341-8.352,3.341-23.385,3.341-31.737c0-63.475,6.681-108.575,56.793-152.005
					c21.715-18.374,28.396-110.245,26.726-135.301c6.681-21.715-38.419-133.63-48.441-168.708
					c-3.341-6.681-8.352-23.385-10.022-30.067c-3.341-13.363-3.341-21.715-3.341-35.078c-43.43-16.704-56.793-25.056-90.2-56.793
					c-26.726-21.715-38.419-38.419-56.793-66.815l-6.681-11.693c-15.033,5.011-30.067,13.363-43.43,18.374
					c-3.341-11.693,0-21.715,1.671-33.408c1.67-15.033,8.352-25.056,16.704-36.748c1.67-5.011-1.67-15.033-3.341-20.044
					c-1.67-8.352-1.67-10.022-5.011-16.704l1.67-1.67C1386.414,1680.401,1393.096,1660.356,1408.129,1635.301z"/>
				<path fill="#F12E12" d="M1388.084,1710.468c1.671-3.341,3.341-6.682,3.341-10.022c6.681,15.033,20.045,28.396,25.056,41.76
					c21.715,56.793,66.815,110.245,116.927,146.993c25.056,25.056,40.089,31.737,70.156,46.771
					c11.693,21.715,25.056,75.167-18.374,68.486c-3.341-6.681-8.352-23.385-10.022-30.067c-3.341-13.363-3.341-21.715-3.341-35.078
					c-43.43-16.704-56.793-25.056-90.2-56.793c-26.726-21.715-38.419-38.419-56.793-66.815l-6.681-11.693
					c-15.033,5.011-30.067,13.363-43.43,18.374c-3.341-11.693,0-21.715,1.671-33.407c1.67-15.033,8.352-25.056,16.704-36.748
					c1.671-5.011-1.671-15.033-3.341-20.045c-1.671-8.352-1.671-10.022-5.011-16.704L1388.084,1710.468z"/>
				<path fill="#BC0200" d="M1394.766,1750.557c5.011,13.363,16.704,43.43,26.726,53.452c-15.033,5.011-30.067,13.363-43.43,18.374
					c-3.341-11.693,0-21.715,1.671-33.408C1379.733,1772.272,1386.414,1762.249,1394.766,1750.557z"/>
				<path fill="#E26644" d="M1408.129,1635.301c1.67,23.385,5.011,28.396,13.363,50.111c-21.715,6.682-15.033,25.056-6.681,43.43
					c16.704,43.43,43.43,81.849,75.167,115.256c13.363,13.363,35.078,31.737,43.43,46.771
					c-48.441-36.748-95.212-90.201-116.927-146.993c-5.011-15.033-20.045-28.396-25.056-41.759c0,3.341-1.671,6.681-3.341,10.022
					C1386.414,1680.401,1393.096,1660.356,1408.129,1635.301L1408.129,1635.301z"/>
				<path fill="#F18258" d="M1054.009,1915.924c15.033,41.759,41.76,66.815,81.848,85.189
					c66.815,30.067,120.267,16.704,185.412-1.671c10.022,88.53,60.134,168.708,153.675,178.73
					c-210.468,116.927-66.815,223.831-91.871,255.568c-48.441,6.681-85.189-93.541-106.904-126.949
					c-63.474,60.134-45.1,110.245-20.044,183.742c-91.871-73.497-60.134-175.39-75.167-188.753
					c11.693-3.341,33.407-38.419,46.771-48.441c20.045-13.363,40.089-23.385,60.134-35.078c-6.682-3.341-15.033-6.681-23.385-10.022
					l-56.793-30.067c15.033-31.737,35.078-55.123,58.463-80.178l-13.363,1.67c-40.089,16.704-93.541-3.341-126.949-23.385
					c-41.76-25.056-61.804-51.782-78.508-95.212l-1.67-15.033c-1.671-16.704-1.671-26.726,3.341-43.43L1054.009,1915.924z"/>
				<path fill="#FFFFFF" d="M1281.18,2091.314c3.341,33.407,21.715,58.463,51.782,73.497l-5.011,13.363
					c0,1.67-6.681,30.067-6.681,30.067l-10.022,3.341c-5.011,1.671-15.033,5.011-20.044,5.011
					c-6.682-3.341-15.033-6.681-23.385-10.022l-56.793-30.067c15.033-31.737,35.078-55.123,58.463-80.178L1281.18,2091.314z"/>
				<path fill="#E26644" d="M1309.577,2214.922l10.022-3.341c-15.033,86.86-3.341,80.178,8.352,153.675
					C1299.555,2316.815,1286.192,2266.704,1309.577,2214.922L1309.577,2214.922z"/>
				<path fill="#F12E12" d="M1331.292,2164.811c13.363,1.67,30.067,8.352,45.1,11.693c21.715,5.011,36.748,6.681,58.463,10.022
					c-21.715,3.341-95.212,11.693-108.575-8.352L1331.292,2164.811z"/>
				<path fill="#E26644" d="M1256.125,2097.996c23.385-23.385,31.737-41.76,51.782-63.474
					c-5.011,15.033-15.033,48.441-26.726,56.793l-10.022,5.011L1256.125,2097.996z"/>
				<path fill="#FEC8AC" d="M1476.615,1613.586c20.045,8.352,43.43,23.385,60.134,35.078l15.033,11.693
					c5.011,3.341,23.385,15.033,26.726,16.704l13.363,8.352c31.737,50.111-23.385,68.486-63.474,56.793
					c-31.737-20.045-61.804-45.1-93.541-65.145C1433.185,1643.652,1448.218,1625.278,1476.615,1613.586z"/>
				<path fill="#E26644" d="M1376.392,1822.383c13.363-5.011,30.067-11.693,43.43-18.374l6.681,11.693
					c18.374,28.396,28.396,45.1,56.793,66.815c-16.704,13.363-28.396,25.056-43.43,40.089
					c-60.134-70.156-93.541-35.078-158.686-41.76h-3.341c-8.352,3.341-23.385,1.67-33.408,1.67
					C1264.477,1867.483,1347.995,1837.416,1376.392,1822.383z"/>
				<path fill="#9C0000" d="M1376.392,1822.383c13.363-5.011,30.067-11.693,43.43-18.374l6.681,11.693
					c-30.067,13.363-123.608,50.111-146.993,65.145c-8.352,3.341-23.385,1.67-33.408,1.67
					C1264.477,1867.483,1347.995,1837.416,1376.392,1822.383z"/>
				<path fill="#FEC8AC" d="M1079.064,1885.857c20.044-15.033,55.122-5.011,83.519-5.011h1.671
					c23.385,1.67,50.111,3.341,73.497,3.341c1.67,11.693,6.681,31.737-1.67,41.76c-28.396,28.396-115.256,26.726-146.993,6.682
					C1072.383,1920.935,1075.724,1902.561,1079.064,1885.857L1079.064,1885.857z"/>
				<path fill="#FFFFFF" d="M1483.296,1882.517c33.408,31.737,48.441,40.089,90.2,56.793c0,13.363,0,21.715,3.341,35.078
					l-51.782,48.441c-28.396-33.408-56.793-66.815-85.189-98.552C1454.9,1907.572,1466.592,1897.55,1483.296,1882.517
					L1483.296,1882.517z"/>
				<path fill="#F12E12" d="M1633.63,2173.163h3.341c1.671,25.056-5.011,116.927-26.726,135.301
					c-50.111,43.43-58.463,88.53-56.793,152.005c0,8.352,0,25.056-3.341,31.737c-6.681-10.022-8.352-25.056-11.693-35.078
					C1503.341,2356.904,1620.267,2261.692,1633.63,2173.163L1633.63,2173.163z"/>
				<path fill="#F12E12" d="M1525.056,2021.158l51.782-48.441c3.341,8.352,8.352,23.385,10.022,30.067
					c10.022,35.078,56.793,146.993,48.441,168.708h-3.341C1615.256,2128.062,1556.793,2064.588,1525.056,2021.158L1525.056,2021.158
					z"/>
				<path fill="#FA956A" d="M1434.855,1675.39c30.067,21.715,61.804,46.771,93.541,65.145
					C1503.341,1743.875,1439.866,1700.445,1434.855,1675.39z"/>
				<path fill="#FFFFFF" d="M1329.621,671.492c5.011-6.682,13.363-26.726,18.374-36.748c10.022,15.033,16.704,8.352,31.737,15.033
					c0,11.693-1.671,20.044,0,31.737c10.022,0,20.044,1.67,28.396,1.67c1.671,0,5.011,0,6.681,0
					c16.704,0,16.704-3.341,28.396-15.034l5.011,1.67c21.715,0,31.737,5.011,33.408,28.396c5.011-1.67,30.067-15.033,35.078-16.704
					c10.022-6.681,21.715-5.011,33.408-6.681l-1.671,1.67c-6.681,1.67-6.681,0-10.022,3.341l3.341,1.67l8.352-3.341v5.011
					c-20.045,3.341-20.045,11.693-21.715,28.396c5.011,3.341,26.726,20.044,31.737,25.056c-6.681,11.693-5.011,11.693,5.011,21.715
					c11.693,6.682,30.067,26.726,40.089,36.748c45.1,46.771,88.53,93.541,110.245,157.016c8.352,21.715,11.693,78.508,21.715,90.2
					c0,21.715-3.341,45.1-6.681,66.815c-5.011,66.815-8.352,131.96-58.463,183.742c-41.759,43.43-253.897,120.267-317.372,145.323
					c15.033,18.374,40.089,45.1,10.022,63.474c-30.067,18.374-61.804,36.748-93.541,48.441c-5.011,1.67-36.748,0-43.43,0
					c1.671,46.771,3.341,63.474-13.363,108.575c-45.1,90.201-125.278,133.63-225.501,113.586
					c-41.759-10.022-73.497-30.067-101.893-61.804c-26.726-31.737-38.419-60.134-45.1-101.893
					c-8.352,3.341-16.704,8.352-25.056,10.022c-16.704,10.022-40.089,25.056-58.463,15.033
					c-16.704-23.385,5.011-121.938,3.341-150.334l-5.011-3.341l-1.67-1.67c1.67,0,5.011-1.67,6.682-1.67
					c6.682-13.363,8.352-31.737,13.363-46.771c8.352-21.715,16.704-36.748,25.056-58.463c3.341-3.341,8.352-15.033,11.693-20.044
					v-3.341l3.341-3.341c5.011-5.011,13.363-18.374,16.704-25.056c8.352-13.363,20.044-25.056,28.396-41.759
					c-10.022-35.078-18.374-8.352-31.737-38.419c-11.693,1.67-26.726,6.682-38.419,8.352l3.341-13.363
					c11.693-3.341,8.352-1.67,15.034-10.022l1.67,5.011c6.682-1.67,8.352-3.341,13.363-5.011v-1.67
					c-11.693-13.363-35.078-68.485-38.419-85.189c10.022-26.726,56.793-20.044,76.837-23.385c43.43-8.352,95.212-23.385,133.63-45.1
					c8.352-6.682,13.363-8.352,21.715-11.693l6.681-3.341c-10.022-16.704-16.704-30.067-13.363-48.441
					c-1.67-3.341,0-1.67-3.341-5.011c-21.715-26.726-30.067-48.441-33.407-81.849l-3.341-43.43c6.681-1.67,10.022-1.67,15.033-6.682
					l-1.67-15.033l10.022,10.022c25.056,10.022,46.771-6.682,60.134-8.352l13.363-1.67l8.352-3.341
					c10.022-3.341,21.715-6.681,31.737-10.022c10.022-3.341,21.715-6.682,33.407-10.022c5.011-1.67,8.352-3.341,13.363-3.341
					c11.693,0,26.726-3.341,33.408,8.352l-11.693,6.682l8.352,3.341l16.704-1.67c3.341-11.693,5.011-15.033,11.693-25.056
					c5.011,1.67,5.011,3.341,10.022,3.341c0-8.352,0-13.363,1.67-21.715l6.681-1.67c25.056-21.715,45.1-73.497,51.782-105.234
					c1.67-11.693,1.67-31.737,1.67-45.1C1307.906,664.811,1312.917,666.481,1329.621,671.492L1329.621,671.492z"/>
				<path fill="#F12E12" d="M835.189,1322.94l1.67,8.352c3.341,0,6.682,1.67,10.022-1.67
					c68.486-75.167,207.127-133.63,305.679-90.201c15.033,6.682,38.419,23.385,45.1,40.089
					c36.748,33.407,63.474,103.563,53.452,153.675l5.011,1.67c1.671,10.022-3.341,20.045-6.681,30.067l-3.341,8.352
					c16.704,13.363,86.86-21.715,106.904-30.067c15.033,18.374,40.089,45.1,10.022,63.474
					c-30.067,18.374-61.804,36.748-93.541,48.441c-5.011,1.67-36.748,0-43.43,0c1.67,46.771,3.341,63.474-13.363,108.575
					c-45.1,90.2-125.278,133.63-225.501,113.586c-41.76-10.022-73.497-30.067-101.893-61.804
					c-26.726-31.737-38.419-60.134-45.1-101.893c-8.352,3.341-16.704,8.352-25.056,10.022
					c-16.704,10.022-40.089,25.056-58.463,15.033c-16.704-23.385,5.011-121.938,3.341-150.334l-5.011-3.341l-1.67-1.67
					c1.67,0,5.011-1.67,6.682-1.67c6.682-13.363,8.352-31.737,13.363-46.771c8.352-21.715,16.704-36.748,25.056-58.463
					c3.341-3.341,8.352-15.033,11.693-20.044v-3.341l3.341-3.341C823.497,1342.984,831.848,1329.621,835.189,1322.94
					L835.189,1322.94z"/>
				<path fill="#1D1F21" d="M1247.773,1473.274c16.704,13.363,86.86-21.715,106.904-30.067c15.033,18.374,40.089,45.1,10.022,63.474
					c-30.067,18.374-61.804,36.748-93.541,48.441c-5.011,1.67-36.748,0-43.43,0c1.67,46.771,3.341,63.474-13.363,108.575
					c-45.1,90.2-125.278,133.63-225.501,113.586c-41.76-10.022-73.497-30.067-101.893-61.804
					c-26.726-31.737-38.419-60.134-45.1-101.893c86.86-36.748,175.39-85.189,263.92-121.938
					c35.078-13.363,66.815-30.067,101.893-40.089C1221.047,1456.57,1239.421,1461.581,1247.773,1473.274L1247.773,1473.274z"/>
				<path fill="#414245" d="M1194.321,1561.804l33.407-6.682c1.671,46.771,3.341,63.474-13.363,108.575
					c-45.1,90.2-125.278,133.63-225.501,113.586c-41.759-10.022-73.497-30.067-101.893-61.804
					c5.011-15.033,10.022-18.374,23.385-26.726c65.145,75.167,167.038,83.519,242.205,11.693
					C1195.991,1658.686,1195.991,1618.597,1194.321,1561.804z"/>
				<path fill="#27282A" d="M891.982,1628.619c-1.67-10.022-3.341-16.704,1.67-25.056c71.826-23.385,138.641-65.145,203.786-86.86
					c21.715,15.033,65.145-8.352,83.519,11.693c-6.681,3.341-6.681,1.67-10.022,6.682c3.341,10.022,6.681,25.056,8.352,35.078
					c3.341,23.385,0,76.837-18.374,93.541c-11.693,1.67-18.374,6.682-28.396,10.022l-5.011,3.341
					c-5.011,5.011-11.693,11.693-16.704,16.704c-15.033,10.022-31.737,16.704-48.441,21.715c6.681,5.011,10.022,5.011,18.374,6.682
					v3.341l-5.011,5.011c-38.419,15.033-83.519,3.341-118.597-15.033c1.67-6.682,1.67-11.693,3.341-18.374
					c-8.352-6.682-15.033-13.363-21.715-20.045h-1.67c-8.352-1.67-16.704-1.67-23.385-3.341
					C903.675,1658.686,898.664,1643.652,891.982,1628.619L891.982,1628.619z"/>
				<path fill="#F6260F" d="M1010.579,1635.301c16.704,10.022,31.737,15.033,46.771,25.056l-5.011,3.341
					c36.748,1.67,50.111,23.385,76.838,13.363c-5.011,5.011-11.693,11.693-16.704,16.704
					c-15.033,10.022-31.737,16.704-48.441,21.715c6.681,5.011,10.022,5.011,18.374,6.682v3.341l-5.011,5.011
					c-38.419,15.033-83.519,3.341-118.597-15.033c1.67-6.682,1.67-11.693,3.341-18.374c-8.352-6.682-15.033-13.363-21.715-20.045
					h-1.671l-6.681-10.022c13.363-6.682,36.748-13.363,51.782-18.374l6.681,1.67L1010.579,1635.301z"/>
				<path fill="#C71202" d="M1010.579,1635.301c16.704,10.022,31.737,15.033,46.771,25.056l-5.011,3.341
					c36.748,1.67,50.111,23.385,76.838,13.363c-5.011,5.011-11.693,11.693-16.704,16.704c-6.681-8.352-28.396-15.033-40.089-20.045
					c-6.681,1.67-10.022,3.341-15.033,6.682l5.011,3.341c-26.726,5.011-63.474-13.363-85.189-26.726
					c-10.022,5.011-25.056,13.363-36.748,20.044h-1.67l-6.681-10.022c13.363-6.682,36.748-13.363,51.782-18.374l6.681,1.67
					L1010.579,1635.301z"/>
				<path fill="#FEC8AC" d="M1010.579,1635.301c16.704,10.022,31.737,15.033,46.771,25.056l-5.011,3.341h-5.011
					c-25.056,0-36.748,0-55.123-16.704L1010.579,1635.301z"/>
				<path fill="#FEAE7D" d="M960.468,1695.434c33.407,20.045,61.804,28.396,101.893,20.045c6.682,5.011,10.022,5.011,18.374,6.682
					v3.341l-5.011,5.011c-38.419,15.033-83.519,3.341-118.597-15.033C958.797,1707.127,960.468,1702.116,960.468,1695.434
					L960.468,1695.434z"/>
				<path fill="#BC0200" d="M1162.583,1585.189c1.671-13.363,5.011-11.693,16.704-15.033c3.341,23.385,0,76.837-18.374,93.541
					c-11.693,1.67-18.374,6.682-28.396,10.022l-5.011,3.341c-26.726,10.022-41.759-11.693-76.838-13.363l5.011-3.341
					c16.704,6.682,31.737-8.352,40.089-21.715c1.67-3.341,5.011-6.682,6.681-10.022c8.352-10.022,10.022-15.034,13.363-26.726
					c11.693-6.682,33.408-16.704,46.771-18.374L1162.583,1585.189z"/>
				<path fill="#FA956A" d="M1162.583,1585.189c1.671-13.363,5.011-11.693,16.704-15.033c3.341,23.385,0,76.837-18.374,93.541
					c-11.693,1.67-18.374,6.682-28.396,10.022C1155.902,1643.652,1162.583,1623.608,1162.583,1585.189L1162.583,1585.189z"/>
				<path fill="#9C0000" d="M912.026,1623.608c23.385-5.011,30.067-6.682,51.782-18.374c1.67,5.011,3.341,11.693,3.341,15.033
					l3.341,8.352c5.011,8.352,5.011,10.022,13.363,18.374c-15.033,5.011-38.419,11.693-51.782,18.374l6.681,10.022
					c-8.352-1.67-16.704-1.67-23.385-3.341c-10.022-13.363-16.704-28.396-21.715-43.43
					C895.323,1626.949,907.016,1625.278,912.026,1623.608L912.026,1623.608z"/>
				<path fill="#F18258" d="M891.982,1628.619c3.341-1.67,15.033-3.341,20.044-5.011c5.011,16.704,8.352,26.726,20.044,41.76
					l6.681,10.022c-8.352-1.67-16.704-1.67-23.385-3.341C903.675,1658.686,898.664,1643.652,891.982,1628.619z"/>
				<path fill="#9C0000" d="M1147.55,1533.408c8.352,0,15.033-1.67,21.715,1.67c3.341,10.022,6.681,25.056,8.352,35.078
					c-11.693,3.341-15.033,1.67-16.704,15.033v-1.67c-13.363,1.67-35.078,10.022-46.771,18.374
					c-1.67-13.363-1.67-26.726-6.681-40.089l-5.011-11.693C1109.131,1543.43,1139.198,1535.078,1147.55,1533.408L1147.55,1533.408z"
					/>
				<path fill="#E26644" d="M1147.55,1533.408c8.352,0,15.033-1.67,21.715,1.67c3.341,10.022,6.681,25.056,8.352,35.078
					c-11.693,3.341-15.033,1.67-16.704,15.033v-1.67C1159.243,1563.474,1154.231,1551.782,1147.55,1533.408z"/>
				<path fill="#414245" d="M963.808,1605.234l18.374-5.011l5.011,3.341c3.341,6.682,8.352,16.704,13.363,23.385
					c5.011,3.341,6.681,3.341,10.022,8.352l-18.374,11.693l-6.681-1.67c-6.681-6.682-8.352-8.352-13.363-18.374l-3.341-8.352
					C967.149,1616.927,965.479,1610.245,963.808,1605.234z"/>
				<path fill="#1D1F21" d="M1000.557,1626.949c5.011,3.341,6.682,3.341,10.022,8.352l-18.374,11.693l-6.681-1.67
					c-6.681-6.682-8.352-8.352-13.363-18.374C983.853,1628.619,988.864,1628.619,1000.557,1626.949z"/>
				<path fill="#524546" d="M963.808,1605.234l18.374-5.011l5.011,3.341c-5.011,10.022-11.693,10.022-20.044,16.704
					C967.149,1616.927,965.479,1610.245,963.808,1605.234z"/>
				<path fill="#FA956A" d="M1055.679,1640.312c20.045-13.363,23.385-31.737,43.43-35.078l3.341,3.341
					c1.671,8.352,1.671,10.022,0,20.045c-1.67,3.341-5.011,6.682-6.681,10.022
					C1084.076,1646.993,1072.383,1643.652,1055.679,1640.312z"/>
				<path fill="#414245" d="M1109.131,1561.804c0,11.693-5.011,25.056-15.033,30.067l-5.011-3.341
					c-8.352-11.693-10.022-23.385-1.671-35.078c8.352-3.341,8.352-3.341,16.704-3.341L1109.131,1561.804z"/>
				<path fill="#414245" d="M1095.768,1516.704c56.793-21.715,115.256,1.67,172.049,0c16.704,0,56.793-25.056,76.837-23.385
					l3.341,3.341c-5.011,13.363-33.407,30.067-46.771,36.748c-30.067,16.704-88.53,3.341-121.938-3.341
					C1162.583,1508.352,1117.483,1531.737,1095.768,1516.704z"/>
				<path fill="#FEAE7D" d="M1132.517,1673.719c10.022-3.341,16.704-8.352,28.396-10.022
					c-16.704,30.067-46.771,55.123-80.178,63.474c-1.67,0-3.341,1.67-5.011,1.67l5.011-5.011v-3.341
					c-8.352-1.67-11.693-1.67-18.374-6.682c18.374-5.011,33.408-11.693,48.441-21.715c5.011-5.011,11.693-11.693,16.704-16.704
					L1132.517,1673.719z"/>
				<path fill="#FEC8AC" d="M913.697,1672.049c8.352,1.67,16.704,1.67,23.385,3.341h1.67c6.681,6.682,13.363,13.363,21.715,20.044
					c-1.671,6.682-1.671,11.693-3.341,18.374C938.753,1700.445,927.06,1692.094,913.697,1672.049z"/>
				<path fill="#BC0200" d="M1251.113,1433.185l5.011,1.67c1.671,10.022-3.341,20.044-6.681,30.067l-3.341,8.352
					c-6.681-11.693-25.056-16.704-38.419-20.045C1221.047,1444.878,1237.75,1441.537,1251.113,1433.185z"/>
				<path fill="#F6260F" d="M1055.679,1259.465c76.838-18.374,157.016,23.385,172.049,101.893
					c3.341,20.044,6.681,55.123-3.341,75.167c-5.011,8.352-23.385,11.693-33.408,15.033l-20.044-8.352
					c-5.011-21.715-8.352-35.078-15.033-55.123c15.033,20.045,11.693,35.078,21.715,51.782l1.671-3.341
					c3.341-46.771-13.363-55.123-35.078-88.53l1.67-1.67c18.374,6.682,26.726,20.045,31.737,40.089l3.341-10.022l8.352,6.682
					c0-13.363-1.671-35.078,0-48.441c1.671-10.022,1.671-8.352-1.671-20.044l-3.341-3.341l-3.341-5.011
					c-5.011-13.363-26.726-13.363-33.407-25.056C1132.517,1247.773,1080.735,1266.147,1055.679,1259.465L1055.679,1259.465z"/>
				<path fill="#E26644" d="M1189.309,1311.247c30.067,33.407,48.441,93.541,16.704,130.29h-5.011
					c-15.033-13.363-13.363-46.771-23.385-58.463l3.341-10.022l8.352,6.682c0-13.363-1.67-35.078,0-48.441
					C1192.65,1321.269,1192.65,1322.94,1189.309,1311.247L1189.309,1311.247z"/>
				<path fill="#DD0801" d="M855.234,1358.018c0,3.341,1.67,6.682,3.341,11.693c-3.341,18.374-20.044,38.419-26.726,56.793
					c-13.363,40.089-21.715,76.837-26.726,118.597c-1.67,23.385-1.67,53.452-8.352,73.497l-5.011-1.67
					c-1.67-10.022-1.67-15.033-1.67-25.056C788.419,1500,801.782,1434.855,855.234,1358.018L855.234,1358.018z"/>
				<path fill="#570F0E" d="M1067.372,1376.392c3.341,3.341,1.671,1.67,3.341,6.682c-8.352,13.363-115.256,55.123-135.301,61.804
					c-3.341-1.67-1.67-1.67-3.341-5.011C935.412,1434.855,1052.339,1383.073,1067.372,1376.392L1067.372,1376.392z"/>
				<path fill="#570F0E" d="M1069.042,1419.822h5.011l1.67,3.341c-3.341,8.352-111.915,53.452-130.29,63.474l-5.011,1.67
					l-1.671-3.341C950.445,1469.933,1043.987,1431.514,1069.042,1419.822L1069.042,1419.822z"/>
				<path fill="#570F0E" d="M1077.394,1436.526l5.011,3.341l-1.67,3.341c-13.363,10.022-101.893,46.771-125.278,60.134
					c-5.011,0-3.341,0-6.681-3.341C953.786,1489.978,1059.02,1446.548,1077.394,1436.526L1077.394,1436.526z"/>
				<path fill="#570F0E" d="M1084.076,1456.57c6.681,0,6.681,0,11.693,1.67v3.341c-13.363,8.352-96.882,43.43-115.256,51.782
					c-3.341,1.67-5.011,1.67-10.022,1.67l-1.67-3.341C970.49,1505.011,1069.042,1464.922,1084.076,1456.57L1084.076,1456.57z"/>
				<path fill="#570F0E" d="M1065.702,1399.777h3.341l1.67,3.341c-6.681,8.352-111.915,53.452-128.619,60.134l-5.011,1.67
					l-1.671-3.341C940.423,1453.229,1048.998,1408.129,1065.702,1399.777L1065.702,1399.777z"/>
				
					<linearGradient id="SVGID_1_" gradientUnits="userSpaceOnUse" x1="1105.1676" y1="1852.1245" x2="1600.2413" y2="2234.1831" gradientTransform="matrix(1 0 0 1 0 -878)">
					<stop  offset="0" style="stop-color:#C50000"/>
					<stop  offset="1" style="stop-color:#EA1100"/>
				</linearGradient>
				<path fill="url(#SVGID_1_)" d="M1503.341,770.044c21.715-5.011,23.385-23.385,38.419-15.033
					c10.022-1.67,13.363,3.341,23.385,10.022c11.693,6.682,30.067,26.726,40.089,36.748c45.1,46.771,88.53,93.541,110.245,157.016
					c8.352,21.715,11.693,78.508,21.715,90.2c0,21.715-3.341,45.1-6.681,66.815c-5.011,66.815-8.352,131.96-58.463,183.742
					c-41.759,43.43-253.897,120.267-317.372,145.323c-20.045,8.352-91.871,41.76-106.904,30.067l3.341-8.352
					c3.341-10.022,6.682-20.044,6.682-30.067l-5.011-1.67c10.022-48.441-18.374-118.597-53.452-153.675
					c-6.681-16.704-30.067-33.408-45.1-40.089c-98.552-43.43-237.194,15.033-305.679,90.201c-3.341,3.341-6.682,1.67-10.022,1.67
					l-1.67-8.352c8.352-13.363,20.045-25.056,28.396-41.759c-10.022-35.078-18.374-8.352-31.737-38.419
					c-11.693,1.67-26.726,6.682-38.419,8.352l3.341-13.363c11.693-3.341,8.352-1.67,15.033-10.022l1.67,5.011
					c6.682-1.67,8.352-3.341,13.363-5.011v-1.67c-11.693-13.363-35.078-68.486-38.419-85.189
					c10.022-26.726,56.793-20.045,76.837-23.385c43.43-8.352,95.211-23.385,133.63-45.1c8.352-6.682,13.363-8.352,21.715-11.693
					l6.681-3.341c25.056-6.682,48.441-13.363,71.826-20.045c6.681-1.67,20.044-6.682,30.067-8.352
					c43.43-6.682,91.871-21.715,135.301-30.067c21.715,21.715,10.022,33.408,10.022,61.804c0,33.408-13.363,121.938-28.396,150.334
					c3.341,20.044,6.681,26.726,26.726,33.408l5.011,1.67c10.022-3.341,23.385-11.693,33.408-18.374
					c1.671-8.352,1.671-13.363,8.352-16.704c3.341,21.715,5.011,28.396,13.363,48.441c15.033,35.078,28.396,48.441,63.474,63.474
					c16.704-8.352,46.771-18.374,65.145-25.056c35.078-13.363,70.156-26.726,105.234-41.759
					c91.871-36.748,78.508-36.748,88.53-131.96c1.671-11.693,0-15.033,15.033-16.704c8.352,0,15.033,5.011,21.715,10.022l1.67,6.682
					c0-41.76-1.67-120.267-26.726-153.675c-21.715-31.737-63.474-81.849-88.53-110.245
					C1558.463,831.849,1530.067,800.111,1503.341,770.044L1503.341,770.044z"/>
				<path fill="#27282A" d="M1102.45,1037.305c6.681-1.67,20.044-6.682,30.067-8.352c43.43-6.682,91.871-21.715,135.301-30.067
					c21.715,21.715,10.022,33.408,10.022,61.804c-41.759,16.704-83.519,38.419-125.278,58.463
					c-53.452,25.056-100.223,55.123-160.356,66.815c0,10.022,1.67,15.033-6.681,20.044c-25.056,25.056-86.86,33.408-121.938,76.837
					c-10.022-35.078-18.374-8.352-31.737-38.419c-11.693,1.67-26.726,6.682-38.419,8.352l3.341-13.363
					c11.693-3.341,8.352-1.67,15.033-10.022l1.67,5.011c6.682-1.67,8.352-3.341,13.363-5.011v-1.67
					c-11.693-13.363-35.078-68.485-38.419-85.189c10.022-26.726,56.793-20.044,76.837-23.385c43.43-8.352,95.212-23.385,133.63-45.1
					c8.352-6.682,13.363-8.352,21.715-11.693l6.681-3.341C1054.009,1052.339,1077.394,1045.657,1102.45,1037.305L1102.45,1037.305z"
					/>
				<path fill="#414245" d="M1000.557,1074.053c8.352-6.682,13.363-8.352,21.715-11.693c8.352,6.681,30.067,10.022,40.089,13.363
					v1.67c-8.352,1.67-13.363,1.67-20.044,3.341c6.681,5.011,8.352,5.011,16.704,5.011c-6.681,5.011-30.067-5.011-31.737,21.715
					l5.011,3.341c-8.352,8.352-26.726-3.341-28.396-1.67c-33.408,18.374-153.675,75.167-188.753,48.441
					c1.67-5.011,3.341-6.682,8.352-6.682C846.882,1144.209,1022.272,1109.131,1000.557,1074.053L1000.557,1074.053z"/>
				<path fill="#1D1F21" d="M865.256,1234.41c36.748-6.682,85.189-20.044,121.938-28.396
					c-25.056,25.056-86.86,33.408-121.938,76.837c-10.022-35.078-18.374-8.352-31.737-38.419
					C838.53,1241.091,858.575,1236.08,865.256,1234.41z"/>
				<path fill="#FEE4C2" d="M826.837,1227.728c40.089-8.352,128.619-28.396,165.367-41.759c0,10.022,1.67,15.033-6.681,20.045
					c-36.748,8.352-85.189,21.715-121.938,28.396c-6.682,1.67-26.726,6.682-33.408,10.022c-11.693,1.67-26.726,6.682-38.419,8.352
					l3.341-13.363c11.693-3.341,8.352-1.67,15.033-10.022l1.67,5.011c6.681-1.67,8.352-3.341,13.363-5.011L826.837,1227.728z"/>
				<path fill="#FEC8AC" d="M811.804,1229.399l1.67,5.011c6.682-1.67,8.352-3.341,13.363-5.011c0,6.682,1.67,3.341-3.341,10.022
					h3.341c0-1.67,1.67-1.67,1.67-3.341c11.693-1.67,25.056-5.011,36.748-3.341c-6.681,1.67-26.726,6.682-33.408,10.022
					c-11.693,1.67-26.726,6.682-38.419,8.352l3.341-13.363C808.463,1234.41,805.122,1237.75,811.804,1229.399z"/>
				<path fill="#1D1F21" d="M1042.316,1080.735c11.693,0,26.726,0,36.748,3.341c-6.681,1.67-13.363,1.67-20.045,3.341
					C1050.668,1085.746,1048.998,1085.746,1042.316,1080.735z"/>
				<path fill="#F12E12" d="M1503.341,770.044c21.715-5.011,23.385-23.385,38.419-15.033c10.022-1.67,13.363,3.341,23.385,10.022
					c11.693,6.682,30.067,26.726,40.089,36.748c45.1,46.771,88.53,93.541,110.245,157.016c8.352,21.715,11.693,78.508,21.715,90.2
					c0,21.715-3.341,45.1-6.681,66.815c-5.011,66.815-8.352,131.96-58.463,183.742c-41.759,43.43-253.897,120.267-317.372,145.323
					c-20.045,8.352-91.871,41.76-106.904,30.067l3.341-8.352c123.608-41.76,255.568-96.882,375.835-148.664
					c55.123-23.385,76.838-106.904,80.178-163.697l-5.011-25.056c0-41.76-1.671-120.267-26.726-153.675
					c-21.715-31.737-63.474-81.849-88.53-110.245C1558.463,831.849,1530.067,800.111,1503.341,770.044L1503.341,770.044z"/>
				<path fill="#DD0801" d="M1503.341,770.044c21.715-5.011,23.385-23.385,38.419-15.033c-3.341,6.682-6.681,8.352-5.011,15.033
					l10.022-3.341c10.022,8.352,33.408,33.408,43.43,43.43c53.452,53.452,105.234,116.927,113.586,197.105
					c5.011,41.759,5.011,101.893,1.671,145.323l-5.011-25.056c0-41.759-1.671-120.267-26.726-153.675
					c-21.715-31.737-63.474-81.849-88.53-110.245C1558.463,831.849,1530.067,800.111,1503.341,770.044L1503.341,770.044z"/>
				<path fill="#F6260F" d="M1217.706,1246.102c13.363-25.056,23.385-20.045,31.737-35.078c3.341,20.044,6.682,26.726,26.726,33.407
					l5.011,1.67c10.022-3.341,23.385-11.693,33.408-18.374c1.67-8.352,1.67-13.363,8.352-16.704
					c3.341,21.715,5.011,28.396,13.363,48.441c15.033,35.078,28.396,48.441,63.474,63.474c1.67,6.682,3.341,13.363,3.341,20.044
					c-55.123,6.682-75.167,1.67-118.597-36.748C1259.465,1286.192,1232.739,1279.51,1217.706,1246.102z"/>
				<path fill="#C71202" d="M1316.258,1229.399c1.671-8.352,1.671-13.363,8.352-16.704c3.341,21.715,5.011,28.396,13.363,48.441
					c-5.011,5.011-16.704,13.363-21.715,8.352c3.341-5.011,3.341-6.682,6.682-11.693l-3.341-1.67l-8.352,3.341l-3.341-1.67
					l1.671-5.011c-5.011-5.011-13.363,1.67-25.056-3.341C1292.873,1242.762,1306.236,1234.41,1316.258,1229.399L1316.258,1229.399z"
					/>
				<path fill="#F18258" d="M1217.706,1246.102c15.033,33.408,41.759,40.089,68.486,61.804
					c43.43,36.748,63.474,43.43,118.597,36.748c-16.704,23.385-55.123,16.704-78.508,6.682
					c-23.385-10.022-40.089-26.726-60.134-40.089c-20.044-13.363-46.771-16.704-56.793-41.759
					C1209.354,1261.136,1212.695,1254.454,1217.706,1246.102L1217.706,1246.102z"/>
				<path fill="#DD0801" d="M1363.029,783.408h3.341c-8.352,16.704-10.022,28.396-10.022,46.771c0,6.682,0,16.704-1.67,21.715
					l-6.681-1.67c-10.022,0-30.067-1.67-36.748,6.682c-16.704,23.385-18.374,61.804-21.715,88.53
					c1.671,21.715,3.341,26.726,0,48.441l-23.385,5.011c-43.43,6.682-91.871,21.715-135.301,30.067
					c-10.022,1.67-23.385,6.682-30.067,8.352c-23.385,6.682-48.441,15.034-71.826,20.045
					c-10.022-16.704-16.704-30.067-13.363-48.441c-1.671-3.341,0-1.67-3.341-5.011c-21.715-26.726-30.067-48.441-33.408-81.849
					l-3.341-43.43c6.681-1.67,10.022-1.67,15.033-6.681l-1.67-15.033l10.022,10.022c25.056,10.022,46.771-6.682,60.134-8.352
					l13.363-1.67l8.352-3.341c10.022-3.341,21.715-6.682,31.737-10.022c10.022-3.341,21.715-6.681,33.408-10.022
					c5.011-1.67,8.352-3.341,13.363-3.341c11.693,0,26.726-3.341,33.408,8.352l-11.693,6.682l8.352,3.341l16.704-1.67
					c3.341-11.693,5.011-15.034,11.693-25.056c5.011,1.67,5.011,3.341,10.022,3.341c0-8.352,0-13.363,1.67-21.715l6.682-1.67
					C1279.51,800.111,1319.599,788.419,1363.029,783.408L1363.029,783.408z"/>
				<path fill="#BC0200" d="M1114.142,846.882c-1.67,8.352-20.045,23.385-28.396,28.397c-15.033,13.363-33.407,25.056-46.771,40.089
					c5.011,10.022,8.352,18.374,16.704,26.726c10.022,3.341,15.033-5.011,30.067-5.011c1.671,5.011,1.671,8.352,1.671,13.363
					c15.033,16.704,155.345-20.044,180.401-26.726c10.022,45.1,8.352,33.408,25.056,71.826l-23.385,5.011
					c-43.43,6.682-91.871,21.715-135.301,30.067c-10.022,1.67-23.385,6.682-30.067,8.352c-23.385,6.682-48.441,15.033-71.826,20.045
					c-10.022-16.704-16.704-30.067-13.363-48.441c-1.671-3.341,0-1.67-3.341-5.011c-21.715-26.726-30.067-48.441-33.408-81.849
					l-3.341-43.43c6.681-1.67,10.022-1.67,15.033-6.682l-1.67-15.033l10.022,10.022c25.056,10.022,46.771-6.682,60.134-8.352
					l13.363-1.67l8.352-3.341C1092.427,853.563,1104.12,850.223,1114.142,846.882L1114.142,846.882z"/>
				<path fill="#DD0801" d="M1074.053,858.575c3.341,3.341,3.341,5.011,6.681,6.681c-3.341,5.011-83.519,45.1-100.223,56.793
					l-3.341-43.43c6.682-1.67,10.022-1.67,15.033-6.681l-1.67-15.033l10.022,10.022c25.056,10.022,46.771-6.682,60.134-8.352
					H1074.053z"/>
				<path fill="#C71202" d="M1028.953,1059.02c-10.022-16.704-16.704-30.067-13.363-48.441
					c28.396,15.034,46.771,18.374,78.508,21.715c0,0,5.011,5.011,6.681,5.011C1077.394,1045.657,1054.009,1052.339,1028.953,1059.02
					z"/>
				<path fill="#F6260F" d="M1363.029,783.408h3.341c-8.352,16.704-10.022,28.396-10.022,46.771c0,6.682,0,16.704-1.67,21.715
					l-6.681-1.67c-10.022,0-30.067-1.67-36.748,6.682c-16.704,23.385-18.374,61.804-21.715,88.53c0-6.682,0-10.022-1.67-18.374
					c-26.726-18.374-18.374-35.078-15.033-63.474c-20.045,3.341-105.234,8.352-118.597-5.011v-5.011
					c5.011-3.341,26.726-1.67,36.748-3.341l16.704-1.67c3.341-11.693,5.011-15.033,11.693-25.056
					c5.011,1.67,5.011,3.341,10.022,3.341c0-8.352,0-13.363,1.671-21.715l6.681-1.67
					C1279.51,800.111,1319.599,788.419,1363.029,783.408L1363.029,783.408z"/>
				<path fill="#F6260F" d="M1363.029,783.408h3.341c-8.352,16.704-10.022,28.396-10.022,46.771
					c-20.044,1.67-106.904,3.341-125.278-1.67c0-8.352,0-13.363,1.671-21.715l6.681-1.67
					C1279.51,800.111,1319.599,788.419,1363.029,783.408z"/>
				<path fill="#BC0200" d="M1209.354,850.223c3.341-11.693,5.011-15.033,11.693-25.056c5.011,1.67,5.011,3.341,10.022,3.341
					c18.374,5.011,105.234,3.341,125.278,1.67c0,6.682,0,16.704-1.671,21.715l-6.681-1.67
					C1319.599,843.541,1239.421,846.882,1209.354,850.223L1209.354,850.223z"/>
				<path fill="#F6260F" d="M1147.55,836.86c5.011-1.67,8.352-3.341,13.363-3.341c11.693,0,26.726-3.341,33.408,8.352l-11.693,6.681
					c-21.715-3.341-21.715,5.011-33.408-3.341C1149.22,841.871,1147.55,838.53,1147.55,836.86L1147.55,836.86z"/>
				
					<linearGradient id="SVGID_00000015352889357247962540000005775571778864926861_" gradientUnits="userSpaceOnUse" x1="1231.7183" y1="1863.3317" x2="1374.7946" y2="1957.6948" gradientTransform="matrix(1 0 0 1 0 -878)">
					<stop  offset="0" style="stop-color:#FD8961"/>
					<stop  offset="1" style="stop-color:#FFAF7B"/>
				</linearGradient>
				<path fill="url(#SVGID_00000015352889357247962540000005775571778864926861_)" d="M1311.247,856.904
					c6.681-8.352,26.726-5.011,36.748-6.682l6.681,1.67c23.385,0,28.396,1.67,48.441,11.693
					c13.363,25.056,15.033,35.078,13.363,63.474c-5.011,28.396-10.022,43.43-16.704,70.156c-1.671,8.352-5.011,16.704-6.681,25.056
					c-16.704,45.1-85.189,153.675-70.156,190.423c-6.682,3.341-6.682,8.352-8.352,16.704c-10.022,5.011-23.385,13.363-33.408,18.374
					l-5.011-1.67c-21.715-6.682-23.385-13.363-26.726-33.408c15.033-28.396,28.396-115.256,28.396-150.334
					c0-28.396,11.693-40.089-10.022-61.804l23.385-5.011c3.341-21.715,1.67-26.726,0-48.441
					C1294.543,918.708,1296.214,880.289,1311.247,856.904z"/>
				<path fill="#F18258" d="M1277.84,1244.432c1.671-10.022,0-31.737,0-38.419c6.681-50.111,71.826-162.027,106.904-193.764h5.011
					l5.011,8.352c-16.704,45.1-85.189,153.675-70.156,190.423c-6.681,3.341-6.681,8.352-8.352,16.704
					c-10.022,5.011-23.385,13.363-33.407,18.374L1277.84,1244.432z"/>
				<path fill="#FEAE7D" d="M1311.247,856.904c6.681-8.352,26.726-5.011,36.748-6.682l6.681,1.67
					c23.385,0,28.396,1.67,48.441,11.693c13.363,25.056,15.033,35.078,13.363,63.474c-16.704-6.682-21.715-21.715-28.396-38.419
					C1376.392,851.893,1321.269,880.289,1311.247,856.904z"/>
				<path fill="#F12E12" d="M1585.189,861.915c25.056,28.396,66.815,80.178,88.53,110.245
					c23.385,33.407,25.056,111.915,26.726,153.675l-1.671-6.682c-6.681-5.011-13.363-11.693-21.715-10.022
					c-13.363,1.67-13.363,5.011-15.033,16.704c0-41.76-28.396-20.044-53.452-56.793c-16.704-21.715-55.123-96.882-63.474-123.608
					c-1.671-5.011-1.671-16.704-1.671-23.385C1553.452,902.004,1571.826,878.619,1585.189,861.915z"/>
				<path fill="#F6260F" d="M1543.43,922.049c3.341,1.67,11.693,5.011,11.693,6.682c15.033,28.396,66.815,103.563,63.474,131.96
					l-3.341,1.67c-3.341,1.67-6.681,3.341-8.352,6.682c-16.704-21.715-55.122-96.882-63.474-123.608
					C1543.43,940.423,1543.43,927.06,1543.43,922.049L1543.43,922.049z"/>
				<path fill="#F6260F" d="M1586.86,890.312c11.693,6.682,50.111,48.441,55.123,61.804h-1.671
					c-10.022-10.022-38.419-55.122-51.782-51.782c1.671,6.682,55.123,71.826,63.474,83.519
					c8.352,20.044,15.033,40.089,23.385,60.134c3.341,6.682,1.671,15.033-1.671,20.045c-13.363-11.693-35.078-61.804-46.771-81.849
					C1613.585,962.138,1580.178,913.697,1586.86,890.312z"/>
				<path fill="#F18258" d="M1366.37,783.408c15.033,3.341,18.374,21.715,28.396,33.408c25.056,26.726,56.793,23.385,35.078,63.474
					c6.681,21.715,21.715,58.463,25.056,80.178c10.022,48.441,16.704,75.167,50.111,113.586
					c6.681,8.352,11.693,16.704,21.715,20.045l3.341,1.67l-8.352,23.385h-1.67c-15.033-3.341-40.089-3.341-55.123-3.341
					c-5.011-35.078-46.771-90.2-66.815-118.597c5.011-26.726,11.693-41.76,16.704-70.156c1.671-28.396,0-38.419-13.363-63.474
					c-20.045-10.022-26.726-11.693-48.441-11.693c0-5.011,1.671-16.704,1.671-21.715
					C1358.018,811.804,1358.018,800.111,1366.37,783.408L1366.37,783.408z"/>
				<path fill="#FEAE7D" d="M1363.029,783.408c21.715-3.341,55.123-5.011,73.497,10.022
					c38.419,30.067,46.771,232.183,93.541,300.668c-11.693-5.011-15.033-13.363-21.715-20.045
					c-35.078-36.748-41.759-65.145-50.111-113.586c-3.341-20.044-18.374-58.463-25.056-80.178
					c21.715-41.759-10.022-38.419-35.078-63.474c-11.693-11.693-13.363-28.396-28.396-33.408H1363.029z"/>
				<path fill="#F6260F" d="M1531.737,1095.768c5.011,0,8.352,0,11.693,1.67c16.704,13.363,30.067,25.056,48.441,36.748
					c26.726,0,50.111-5.011,61.804,23.385c-60.134,21.715-98.552,15.033-160.356,16.704c-11.693,0-18.374-1.67-28.396-5.011
					l-3.341-5.011c1.67-16.704,1.67-28.396,5.011-45.1l1.67-3.341c15.033,0,41.76,0,55.123,3.341h1.67L1531.737,1095.768z"/>
				<path fill="#E26644" d="M1468.263,1115.813c15.033,0,41.76,0,55.123,3.341c-16.704,23.385-38.419,10.022-56.793-1.67
					L1468.263,1115.813z"/>
				<path fill="#C71202" d="M1531.737,1095.768c5.011,0,8.352,0,11.693,1.67c-1.671,8.352-1.671,15.033-8.352,21.715
					c-5.011,1.67-6.681,3.341-11.693,1.67L1531.737,1095.768z"/>
				<path fill="#C71202" d="M1516.704,684.855c10.022-6.682,21.715-5.011,33.407-6.682l-1.67,1.67c-6.682,1.67-6.682,0-10.022,3.341
					l3.341,1.67l8.352-3.341v5.011c-20.044,3.341-20.044,11.693-21.715,28.396c5.011,3.341,26.726,20.044,31.737,25.056
					c-6.681,11.693-5.011,11.693,5.011,21.715c-10.022-6.682-13.363-11.693-23.385-10.022
					c-15.033-8.352-16.704,10.022-38.419,15.033c-5.011-3.341-11.693-13.363-15.033-18.374
					c-20.045-30.067-20.045-6.682-36.748-25.056c1.67-1.67,5.011-3.341,6.682-5.011c10.022-3.341,18.374-11.693,26.726-20.045
					C1486.637,699.889,1513.363,686.526,1516.704,684.855L1516.704,684.855z"/>
				<path fill="#F6260F" d="M1528.396,716.592c5.011,3.341,26.726,20.045,31.737,25.056c-6.682,11.693-5.011,11.693,5.011,21.715
					c-10.022-6.681-13.363-11.693-23.385-10.022c-15.033-8.352-16.704,10.022-38.419,15.033
					c-5.011-3.341-11.693-13.363-15.033-18.374c8.352-10.022,21.715-28.396,33.408-31.737
					C1525.056,719.933,1525.056,719.933,1528.396,716.592z"/>
				<path fill="#E26644" d="M1459.911,1164.254l3.341,5.011c10.022,3.341,18.374,5.011,28.396,5.011
					c63.474-1.67,100.223,5.011,160.356-16.704c-18.374,40.089-80.178,28.396-115.256,30.067
					C1516.704,1185.969,1444.877,1216.036,1459.911,1164.254z"/>
				<path fill="#9C0000" d="M1443.207,671.492l5.011,1.67c21.715,0,31.737,5.011,33.408,28.396
					c-8.352,6.682-16.704,16.704-26.726,20.045c-1.671,1.67-3.341,3.341-6.682,5.011c-10.022,5.011-23.385,1.67-28.396-8.352
					c-6.682-10.022-3.341-23.385,6.681-30.067c-5.011-1.67-15.033-3.341-20.044-3.341c1.67,0,5.011,0,6.681,0
					C1431.514,686.526,1431.514,683.185,1443.207,671.492z"/>
				<path fill="#FEAE7D" d="M1443.207,671.492l5.011,1.67c21.715,0,31.737,5.011,33.408,28.396
					c-8.352,6.682-16.704,16.704-26.726,20.045c6.681-8.352,6.681-20.045-1.671-28.396c-8.352-8.352-18.374-10.022-26.726-3.341
					c-5.011-1.67-15.033-3.341-20.045-3.341c1.671,0,5.011,0,6.681,0C1431.514,686.526,1431.514,683.185,1443.207,671.492
					L1443.207,671.492z"/>
				<path fill="#BC0200" d="M1329.621,671.492c5.011-6.682,13.363-26.726,18.374-36.748c10.022,15.033,16.704,8.352,31.737,15.033
					c0,11.693-1.671,20.044,0,31.737C1358.018,691.537,1346.325,681.514,1329.621,671.492z"/>
				<path fill="#D9D8D8" d="M1735.523,1047.327c0-15.033,0-26.726,18.374-33.408l10.022,11.693
					c-31.737,43.43-30.067,121.938-35.078,173.719c-1.671,10.022-6.681,51.782-6.681,58.463
					c23.385,3.341,58.463-21.715,73.496-36.748c5.011,38.419,13.363,70.156,36.748,101.893
					c16.704,25.056,36.748,40.089,61.804,56.793l1.67,1.67c98.552,56.793,212.138,16.704,267.26-80.178
					c65.145-6.682,130.29-18.374,193.764-26.726c3.341,0,8.352,1.67,11.693,3.341c25.056-13.363,33.407-18.374,61.804-10.022
					c-6.681,8.352-11.693,13.363-21.715,15.033c-18.374,3.341-20.044,5.011-35.078,15.033l-61.804,26.726
					c-10.022,1.67-6.681,0-13.363,6.682c-123.608,60.134-268.931,121.938-395.88,177.06l-10.022-13.363l-6.681-6.682l-1.671-1.67
					c-30.067-23.385-65.145-13.363-91.871,10.022c-28.396,26.726-31.737,50.111-43.43,61.804c-1.671,8.352,0,13.363-6.681,20.044
					c-46.771,25.056-136.971,61.804-188.753,83.519l-15.033-11.693c-16.704-11.693-40.089-26.726-60.134-35.078
					c-16.704-5.011-31.737-8.352-48.441,0c-8.352,5.011-16.704,11.693-20.044,20.045c-15.033,25.056-21.715,45.1-20.045,75.167
					l-1.671,1.67c3.341,8.352,3.341,8.352,5.011,16.704c1.671,5.011,3.341,15.033,3.341,20.045
					c-8.352,11.693-15.033,21.715-16.704,36.748c-1.671,11.693-3.341,21.715-1.671,33.408
					c-28.396,15.033-111.915,46.771-131.96,60.134h-6.681c-23.385,0-50.111-1.67-73.496-3.341h-1.671
					c-26.726,0-63.474-10.022-83.519,5.011c-15.033,10.022-18.374,13.363-25.056,31.737l-1.671,3.341
					c-5.011,16.704-5.011,26.726-3.341,43.43l1.671,15.033c-51.782,20.044-106.904,45.1-157.016,66.815l-288.975,125.278
					c-11.693,3.341-15.034,5.011-26.726,6.681c-35.078-10.022-56.793-51.782-41.759-85.189
					c6.682-15.033,20.044-18.374,33.408-23.385c5.011-16.704,78.508-60.134,96.882-73.496l220.49-146.993
					c25.056-16.704,81.849-53.452,103.564-70.156c100.223,20.045,180.401-23.385,225.501-113.586
					c15.033-45.1,15.033-61.804,13.363-108.575c6.681,0,38.419,1.67,43.43,0c31.737-13.363,63.474-31.737,93.541-48.441
					c30.067-18.374,5.011-45.1-10.022-63.474c63.474-25.056,275.612-101.893,317.372-145.323
					c50.111-51.782,51.782-116.927,58.463-183.742C1732.182,1092.428,1735.523,1069.042,1735.523,1047.327L1735.523,1047.327z"/>
				<path fill="#FFFFFF" d="M1735.523,1047.327c0-15.033,0-26.726,18.374-33.408l10.022,11.693
					c-31.737,43.43-30.067,121.938-35.078,173.719c-1.671,10.022-6.681,51.782-6.681,58.463
					c23.385,3.341,58.463-21.715,73.496-36.748c5.011,38.419,13.363,70.156,36.748,101.893
					c16.704,25.056,36.748,40.089,61.804,56.793c-16.704,10.022-60.134,26.726-80.178,35.078l-146.993,60.134
					c-46.771,20.044-430.958,187.082-451.002,187.082c15.033-45.1,15.033-61.804,13.363-108.575c6.682,0,38.419,1.67,43.43,0
					c31.737-13.363,63.474-31.737,93.541-48.441c30.067-18.374,5.011-45.1-10.022-63.474
					c63.474-25.056,275.613-101.893,317.372-145.323c50.111-51.782,51.782-116.927,58.463-183.742
					C1732.182,1092.428,1735.523,1069.042,1735.523,1047.327L1735.523,1047.327z"/>
				
					<linearGradient id="SVGID_00000135652587978675535750000002627115041054800535_" gradientUnits="userSpaceOnUse" x1="963.9897" y1="3045.6377" x2="962.2311" y2="2598.4153" gradientTransform="matrix(1 0 0 1 0 -878)">
					<stop  offset="0" style="stop-color:#8E0000"/>
					<stop  offset="1" style="stop-color:#D20C07"/>
				</linearGradient>
				<path fill="url(#SVGID_00000135652587978675535750000002627115041054800535_)" d="M1386.414,1713.808
					c3.341,8.352,3.341,8.352,5.011,16.704c1.671,5.011,3.341,15.033,3.341,20.044c-8.352,11.693-15.033,21.715-16.704,36.748
					c-1.67,11.693-3.341,21.715-1.67,33.408c-28.396,15.033-111.915,46.771-131.96,60.134h-6.681
					c-23.385,0-50.111-1.67-73.497-3.341h-1.67c-26.726,0-63.474-10.022-83.519,5.011c-15.033,10.022-18.374,13.363-25.056,31.737
					l-1.671,3.341c-5.011,16.704-5.011,26.726-3.341,43.43l1.67,15.033c-51.782,20.045-106.904,45.1-157.016,66.815
					l-288.975,125.278c-11.693,3.341-15.033,5.011-26.726,6.681c-35.078-10.022-56.793-51.782-41.76-85.189
					c6.682-15.033,20.044-18.375,33.408-23.385c21.715-8.352,56.793-25.056,80.178-35.078l165.367-71.826L1386.414,1713.808z"/>
				<path fill="#E26644" d="M673.163,2042.873c23.385-11.693,58.463-26.726,83.519-36.748l162.027-70.156
					c155.345-68.485,317.372-140.312,474.387-205.457c1.671,5.011,3.341,15.033,3.341,20.044
					c-8.352,11.693-15.033,21.715-16.704,36.748c-1.671,11.693-3.341,21.715-1.671,33.408
					c-28.396,15.033-111.915,46.771-131.96,60.134h-6.681c-23.385,0-50.111-1.67-73.496-3.341h-1.671
					c-26.726,0-63.474-10.022-83.519,5.011c-15.033,10.022-18.374,13.363-25.056,31.737l-1.671,3.341
					c-21.715-1.67-322.383,130.29-367.483,150.334L673.163,2042.873z"/>
				<path fill="#F6260F" d="M1164.254,1880.846c10.022-15.033,190.423-90.2,213.808-91.871c-1.67,11.693-3.341,21.715-1.67,33.408
					c-28.396,15.033-111.915,46.771-131.96,60.134h-6.681C1214.365,1882.517,1187.639,1880.846,1164.254,1880.846L1164.254,1880.846
					z"/>
				<path fill="#DD0801" d="M684.855,2071.269c45.1-20.044,345.768-153.675,367.483-150.334c-5.011,16.704-5.011,26.726-3.341,43.43
					c-81.849,38.419-172.049,73.497-253.898,110.245c-28.396,13.363-61.804,25.056-88.53,38.419
					C699.888,2108.018,688.196,2079.621,684.855,2071.269z"/>
				<path fill="#DD0801" d="M668.151,2072.94c6.681,10.022,15.033,33.407,20.044,45.1c-11.693,5.011-31.737,16.704-43.43,18.374
					v-3.341c3.341-23.385,1.67-31.737-11.693-51.782C646.436,2086.303,658.129,2084.633,668.151,2072.94L668.151,2072.94z"/>
				<path fill="#9C0000" d="M619.71,2076.281c5.011,1.671,8.352,3.341,13.363,6.681c13.363,20.045,15.033,28.396,11.693,51.782
					c-15.034-1.67-36.748-5.011-38.419-25.056c-1.67-11.693,3.341-21.715,11.693-30.067L619.71,2076.281z"/>
				<path fill="#9C0000" d="M673.163,2042.873l11.693,26.726c3.341,8.352,15.033,38.419,20.044,41.76
					c-6.682,1.67-11.693,3.341-18.374,6.681c-3.341-11.693-11.693-36.748-20.044-45.1c-3.341-6.681-6.682-15.033-11.693-21.715
					C659.799,2049.554,668.151,2046.214,673.163,2042.873z"/>
				<path fill="#F6260F" d="M656.459,2051.225c3.341,6.681,6.682,15.033,11.693,21.715c-10.022,11.693-21.715,13.363-35.078,10.022
					c-5.011-3.341-8.352-5.011-13.363-6.681c-3.341,0-3.341-1.671-6.682-3.341C619.71,2062.917,644.766,2056.236,656.459,2051.225
					L656.459,2051.225z"/>
				<path fill="#DD0801" d="M2368.597,1277.84c25.056-13.363,33.407-18.374,61.804-10.022c-6.681,8.352-11.693,13.363-21.715,15.033
					c-18.374,3.341-20.044,5.011-35.078,15.033l-61.804,26.726c-10.022,1.67-6.681,0-13.363,6.681
					c-123.608,60.134-268.931,121.938-395.88,177.06l-10.022-13.363l31.737-15.033c31.737-13.363,71.826-30.067,101.893-45.1
					c45.1-18.374,95.212-41.76,140.312-61.804c16.704-6.682,50.111-21.715,68.486-30.067L2368.597,1277.84z"/>
				<path fill="#DD0801" d="M1747.216,1555.122c-1.671,8.352,0,13.363-6.681,20.044c-46.771,25.056-136.971,61.804-188.753,83.519
					l-15.033-11.693c21.715-8.352,50.111-23.385,71.826-31.737L1747.216,1555.122z"/>
				<path fill="#FFFFFF" d="M2026.169,1431.514c-1.671-1.67-1.671-1.67-3.341-5.011c11.693-11.693,120.267-58.463,138.641-61.804
					l5.011,3.341C2121.381,1389.755,2071.269,1413.14,2026.169,1431.514z"/>
				<path fill="#FFFFFF" d="M1884.187,1484.967c10.022-5.011,23.385-11.693,35.078-11.693l3.341,5.011l-31.737,15.033
					L1884.187,1484.967z"/>
				<path fill="#C71202" d="M1075.724,417.595l21.715,10.022c11.693,11.693,48.441,43.43,56.793,53.452l8.352,10.022l16.704,18.374
					c8.352,1.67,13.363,3.341,21.715,1.67c6.681-5.011,5.011-1.67,6.681-11.693c25.056,43.43,36.748,88.53,40.089,138.641
					c6.681,13.363,1.67,33.408,6.681,41.759c16.704,1.67,21.715-3.341,33.408,8.352l1.67,11.693
					c-6.681,31.737-26.726,83.519-51.782,105.234l-6.681,1.67c-1.671,8.352-1.671,13.363-1.671,21.715
					c-5.011,0-5.011,0-10.022-3.341c-6.681,10.022-8.352,13.363-11.693,25.056l-16.704,1.67l-8.352-3.341l11.693-6.682
					c-6.681-11.693-21.715-8.352-33.407-8.352c-5.011,0-10.022,0-13.363,3.341c-11.693,3.341-23.385,6.682-33.408,10.022
					c-10.022,3.341-21.715,6.682-31.737,10.022l-8.352,3.341l-13.363,1.67c-13.363,1.67-35.078,16.704-60.134,8.352l-10.022-10.022
					l1.67,15.033c-5.011,5.011-6.681,5.011-15.033,6.682l-5.011,1.67c-3.341-13.363-6.681-25.056-10.022-38.419
					c0-11.693-1.67-18.374,3.341-28.396c0-21.715-23.385-45.1-38.419-58.463c6.681-3.341,6.681-1.67,8.352-8.352
					c-3.341-13.363-15.033-25.056-23.385-38.419l-1.67-1.67c-16.704-28.396-28.396-53.452-25.056-85.189
					c15.033-3.341,18.374-5.011,33.407-3.341c-5.011-3.341-11.693-6.682-16.704-10.022c-23.385-25.056-35.078-35.078-70.156-31.737
					l6.682-15.033c20.044-20.045,26.726-11.693,46.771-25.056c51.782-33.408,81.849-60.134,141.982-78.508
					c3.341-10.022,5.011-11.693,11.693-20.045C1050.668,429.287,1062.361,422.606,1075.724,417.595L1075.724,417.595z"/>
				<path fill="#FEAE7D" d="M885.301,621.381c15.034-3.341,18.374-5.011,33.408-3.341c21.715,35.078,36.748,76.837,61.804,111.915
					c13.363,0,26.726-1.67,41.76-1.67c8.352,3.341,6.681,5.011,10.022,13.363h8.352c15.033-13.363,50.111-33.408,71.826-38.419
					c6.681-1.67,5.011-1.67,13.363-6.682c1.671,18.374,6.681,30.067,10.022,46.771c3.341,23.385,5.011,50.111,6.681,75.167
					c10.022,0,23.385,1.67,35.078,1.67l-15.033,15.033c-5.011,0-10.022,0-13.363,3.341c-11.693,3.341-23.385,6.682-33.407,10.022
					c-10.022,3.341-21.715,6.682-31.737,10.022l-8.352,3.341l-13.363,1.67c-13.363,1.67-35.078,16.704-60.134,8.352l-10.022-10.022
					l1.67,15.033c-5.011,5.011-6.681,5.011-15.033,6.682l-5.011,1.67c-3.341-13.363-6.681-25.056-10.022-38.419
					c0-11.693-1.67-18.374,3.341-28.396c0-21.715-23.385-45.1-38.419-58.463c6.681-3.341,6.681-1.67,8.352-8.352
					c-3.341-13.363-15.033-25.056-23.385-38.419l-1.671-1.67C895.323,679.844,883.63,654.788,885.301,621.381L885.301,621.381z"/>
				<path fill="#F12E12" d="M1040.646,739.978c15.033-13.363,50.111-33.408,71.826-38.419c6.681-1.67,5.011-1.67,13.363-6.682
					c1.671,18.374,6.681,30.067,10.022,46.771c3.341,23.385,5.011,50.111,6.681,75.167c10.022,0,23.385,1.67,35.078,1.67
					l-15.033,15.034c-5.011,0-10.022,0-13.363,3.341c-11.693,3.341-23.385,6.682-33.407,10.022
					c-10.022,3.341-21.715,6.682-31.737,10.022l-8.352,3.341c1.67-16.704-18.374-45.1-26.726-61.804
					c3.341,3.341,6.681,5.011,10.022,8.352c6.681,6.681,10.022,6.681,18.374,5.011v-5.011
					c-5.011-13.363-16.704-20.045-28.396-28.397C1045.657,763.363,1043.987,753.341,1040.646,739.978L1040.646,739.978z"/>
				<path fill="#DD0801" d="M1022.272,726.615c8.352,3.341,6.681,5.011,10.022,13.363h8.352c3.341,13.363,5.011,23.385,6.681,36.748
					c-13.363-5.011-28.396-10.022-41.759-13.363c-6.681-6.681-11.693-15.033-16.704-21.715l-8.352-13.363
					C993.875,728.285,1007.238,728.285,1022.272,726.615L1022.272,726.615z"/>
				<path fill="#9C0000" d="M1022.272,726.615c8.352,3.341,6.681,5.011,10.022,13.363c-15.033,1.67-26.726,1.67-41.759,1.67
					l-8.352-13.363C993.875,728.285,1007.238,728.285,1022.272,726.615z"/>
				<path fill="#BC0200" d="M967.149,813.474c8.352,18.374,13.363,26.726,23.385,43.43l1.67,15.033
					c-5.011,5.011-6.681,5.011-15.033,6.682l-5.011,1.67c-3.341-13.363-6.681-25.056-10.022-38.419
					C962.138,830.178,962.138,825.167,967.149,813.474L967.149,813.474z"/>
				<path fill="#F12E12" d="M1027.283,456.013c11.693,0,18.374,0,30.067,1.67c26.726,25.056,40.089,50.111,26.726,86.86
					l-3.341,8.352c-13.363,11.693-46.771,31.737-65.145,36.748c-10.022,3.341-18.374,3.341-23.385,10.022
					c8.352,15.033,28.396,105.234,30.067,125.278c-13.363,1.67-26.726,1.67-41.759,1.67
					c-23.385-35.078-38.419-76.837-61.804-111.915c-5.011-3.341-11.693-6.682-16.704-10.022
					c-23.385-25.056-35.078-35.078-70.156-31.737l6.681-15.034c20.045-20.044,26.726-11.693,46.771-25.056
					C935.412,501.114,967.149,474.388,1027.283,456.013L1027.283,456.013z"/>
				<path fill="#DD0801" d="M838.53,559.577c38.419,1.67,55.122,13.363,86.86,36.748c1.671-1.67,3.341-3.341,5.011-6.682
					l-6.681-15.033c30.067,20.044,18.374,28.396,61.804,26.726l3.341-1.67c8.352,15.033,28.396,105.234,30.067,125.278
					c-13.363,1.67-26.726,1.67-41.76,1.67c-23.385-35.078-38.419-76.837-61.804-111.915c-5.011-3.341-11.693-6.682-16.704-10.022
					c-23.385-25.056-35.078-35.078-70.156-31.737L838.53,559.577z"/>
				<path fill="#9C0000" d="M923.719,576.281c30.067,20.045,18.374,28.397,61.804,26.726c-20.044,5.011-33.408,10.022-53.452,16.704
					c0-11.693,0-18.374-3.341-28.396L923.719,576.281z"/>
				<path fill="#DD0801" d="M1069.042,501.114c3.341,11.693,8.352,41.759,15.033,46.771l-3.341,8.352
					c-13.363,11.693-46.771,31.737-65.145,36.748c-10.022,3.341-18.374,3.341-23.385,10.022l-3.341,1.67
					c-45.1,1.67-31.737-5.011-61.804-26.726c-1.67-1.67-31.737-30.067-40.089-36.748c53.452,15.034,95.212,51.782,146.993,1.67
					c11.693-11.693,25.056-13.363,33.407-30.067L1069.042,501.114z"/>
				<path fill="#F6260F" d="M1064.031,511.136c-1.671-10.022-10.022-28.396-8.352-35.078c6.681,10.022,8.352,13.363,11.693,25.056
					L1064.031,511.136z"/>
				<path fill="#BC0200" d="M1249.443,638.085c6.681,13.363,1.67,33.408,6.681,41.76c16.704,1.67,21.715-3.341,33.408,8.352
					l1.671,11.693c-6.682,31.737-26.726,83.519-51.782,105.234l-6.681,1.67c-1.671,8.352-1.671,13.363-1.671,21.715
					c-5.011,0-5.011,0-10.022-3.341c-6.682,10.022-8.352,13.363-11.693,25.056l-16.704,1.67l-8.352-3.341l11.693-6.682
					c-6.682-11.693-21.715-8.352-33.408-8.352l15.033-15.033c-10.022,0-23.385,0-35.078-1.67
					c-1.67-25.056-3.341-51.782-6.682-75.167c-3.341-16.704-6.681-28.396-10.022-46.771c15.033-3.341,36.748-23.385,53.452-30.067
					l1.67,3.341l3.341-3.341c16.704,5.011,53.452,15.033,60.134,30.067c1.67-10.022,0-23.385,0-35.078l3.341-1.67
					c3.341-6.682,1.67-6.682,1.67-15.033L1249.443,638.085z"/>
				<path fill="#F6260F" d="M1124.165,694.878c15.033-3.341,36.748-23.385,53.452-30.067l1.67,3.341
					c6.681,30.067,13.363,61.804,21.715,91.871c-8.352,28.396-10.022,35.078-26.726,58.463c-10.022,0-23.385,0-35.078-1.67
					c-1.671-25.056-3.341-51.782-6.681-75.167C1130.846,724.944,1127.505,713.252,1124.165,694.878L1124.165,694.878z"/>
				
					<linearGradient id="SVGID_00000052068336257974227820000000807071677528539556_" gradientUnits="userSpaceOnUse" x1="1268.8203" y1="1626.3065" x2="1219.0981" y2="1602.0074" gradientTransform="matrix(1 0 0 1 0 -878)">
					<stop  offset="0" style="stop-color:#B90000"/>
					<stop  offset="1" style="stop-color:#E81001"/>
				</linearGradient>
				<path fill="url(#SVGID_00000052068336257974227820000000807071677528539556_)" d="M1249.443,638.085
					c6.681,13.363,1.67,33.408,6.681,41.76c16.704,1.67,21.715-3.341,33.408,8.352l1.671,11.693
					c-6.682,31.737-26.726,83.519-51.782,105.234l-6.681,1.67c-1.671,8.352-1.671,13.363-1.671,21.715
					c-5.011,0-5.011,0-10.022-3.341c3.341-11.693,5.011-23.385,6.681-35.078c11.693-15.034,13.363-75.167,15.033-96.882
					c1.67-10.022,0-23.385,0-35.078l3.341-1.67c3.341-6.681,1.67-6.681,1.67-15.033L1249.443,638.085z"/>
				<path fill="#9C0000" d="M1195.991,841.871c11.693-1.67,23.385-38.419,28.396-48.441l6.681-1.67
					c-1.671,11.693-5.011,23.385-6.681,35.078c-6.681,10.022-8.352,13.363-11.693,25.056l-16.704,1.67l-8.352-3.341
					L1195.991,841.871z"/>
				<path fill="#F6260F" d="M1079.064,556.236c15.033,13.363,20.044,10.022,33.408,18.374c6.681-1.67,21.715-5.011,26.726-3.341
					c31.737,1.67,33.408,51.782,38.419,78.508c-26.726,21.715-106.904,60.134-141.982,71.826
					c-5.011-21.715-28.396-101.893-28.396-118.597c5.011-5.011,3.341-3.341,11.693-5.011l-5.011-5.011
					C1032.294,586.303,1065.702,567.929,1079.064,556.236L1079.064,556.236z"/>
				<path fill="#9C0000" d="M1079.064,556.236c15.033,13.363,20.044,10.022,33.408,18.374
					c-23.385,5.011-71.826,15.033-91.871,21.715l-5.011-5.011C1032.294,586.303,1065.702,567.929,1079.064,556.236L1079.064,556.236
					z"/>
				<path fill="#F12E12" d="M1075.724,417.595l21.715,10.022c11.693,11.693,48.441,43.43,56.793,53.452l8.352,10.022l16.704,18.374
					c8.352,1.67,13.363,3.341,21.715,1.67c6.681-5.011,5.011-1.67,6.681-11.693c25.056,43.43,36.748,88.53,40.089,138.641v5.011
					c1.67,10.022,3.341,8.352-1.67,15.034l-3.341,1.67c-18.374-55.122-43.43-73.497-88.53-106.904
					c-10.022-6.682-23.385-16.704-31.737-25.056c-13.363-3.341-15.033-3.341-21.715-13.363
					c-10.022-31.737-33.408-65.145-65.145-76.837C1050.668,429.287,1062.361,422.606,1075.724,417.595L1075.724,417.595z"/>
				<path fill="#FEAE7D" d="M1209.354,501.114c25.056,43.43,36.748,88.53,40.089,138.641v5.011
					c-3.341-5.011-8.352-23.385-10.022-30.067c-13.363-40.089-31.737-70.156-56.793-103.564c8.352,1.67,13.363,3.341,21.715,1.67
					C1209.354,506.125,1207.684,509.466,1209.354,501.114z"/>
				<path fill="#9C0000" d="M1102.45,512.806c11.693-1.67,30.067-3.341,38.419,3.341c-3.341,6.682-10.022,8.352-18.374,10.022
					C1109.131,522.828,1109.131,522.828,1102.45,512.806z"/>
				<path fill="#F6260F" d="M372.494,1018.931c95.212-36.748,212.138-76.837,309.02-108.575l30.067,73.497
					c21.715,13.363,83.519,207.127,100.223,245.546c-6.681,8.352-3.341,5.011-15.033,10.022l-3.341,13.363l-11.693,3.341
					l-8.352,1.67c-21.715,8.352-136.971,51.782-152.004,48.441l-6.682-5.011h-1.67c-28.396,6.681-85.189,30.067-115.256,40.089
					l-76.837-198.775C399.22,1087.416,390.868,1079.064,372.494,1018.931z"/>
				
					<linearGradient id="SVGID_00000038372483566847478090000010162797917800763290_" gradientUnits="userSpaceOnUse" x1="804.5795" y1="1989.196" x2="409.4197" y2="1992.7708" gradientTransform="matrix(1 0 0 1 0 -878)">
					<stop  offset="0" style="stop-color:#D20600"/>
					<stop  offset="1" style="stop-color:#690002"/>
				</linearGradient>
				<path fill="url(#SVGID_00000038372483566847478090000010162797917800763290_)" d="M713.252,983.853
					c21.715,13.363,83.519,207.127,100.223,245.546c-6.682,8.352-3.341,5.011-15.033,10.022l-5.011-5.011l1.67-3.341
					c-3.341-28.396-78.508-195.434-93.541-235.523c-30.067,13.363-268.931,98.552-292.316,100.223
					c8.352-5.011,18.374-8.352,28.396-11.693C527.84,1048.998,621.381,1015.59,713.252,983.853z"/>
				<path fill="#BC0200" d="M616.37,1302.895c8.352-10.022,157.016-61.804,175.39-68.485l5.011,5.011l-3.341,13.363l-11.693,3.341
					l-8.352,1.67c-21.715,8.352-136.971,51.782-152.004,48.441L616.37,1302.895z"/>
				<path fill="#F6260F" d="M2029.51,1020.601c10.022,3.341,21.715,6.682,31.737,10.022c15.033,6.682,21.715,10.022,35.078,20.044
					c45.1,33.408,73.496,75.167,81.848,130.29c6.681,40.089,0,81.849-16.704,120.267c-55.123,95.211-168.708,135.301-267.26,80.178
					l-1.671-1.67c-25.056-16.704-45.1-31.737-61.804-56.793c-23.385-31.737-31.737-63.474-36.748-101.893
					c1.67-3.341,16.704-21.715,20.044-25.056c15.033-16.704,36.748-66.815,53.452-78.508c0-13.363-53.452-63.474,20.044-71.826
					c13.363-1.67,23.385,6.682,33.408,15.033C1947.661,1055.679,2004.454,1032.294,2029.51,1020.601z"/>
				<path fill="#1D1F21" d="M2096.325,1050.668c45.1,33.408,73.496,75.167,81.848,130.29c6.681,40.089,0,81.849-16.704,120.267
					c-55.123,95.212-168.708,135.301-267.26,80.178l-1.671-1.67c-25.056-16.704-45.1-31.737-61.804-56.793
					c-23.385-31.737-31.737-63.474-36.748-101.893c1.67-3.341,16.704-21.715,20.044-25.056
					c15.033-16.704,36.748-66.815,53.452-78.508l6.681,6.682l5.011-1.67l11.693,10.022c8.352,8.352,23.385,25.056,28.396,35.078
					c-13.363,6.682-16.704,30.067-15.033,43.43l-1.671-1.67l-5.011,8.352c-11.693,1.67-25.056,1.67-33.408,8.352l-1.67,3.341
					c3.341,20.045,8.352,33.408,18.374,50.111c25.056,36.748,63.474,60.134,106.904,60.134c35.078,0,68.486-13.363,91.871-38.419
					c25.056-25.056,38.419-58.463,36.748-93.541c0-41.76-18.374-68.485-46.771-96.882l3.341-18.374l-3.341-3.341
					c1.67-1.67,1.67-3.341,1.67-6.682C2072.94,1070.713,2086.303,1060.69,2096.325,1050.668L2096.325,1050.668z"/>
				<path fill="#414245" d="M2096.325,1050.668c45.1,33.408,73.496,75.167,81.848,130.29c6.681,40.089,0,81.849-16.704,120.267
					c-55.123,95.212-168.708,135.301-267.26,80.178l-1.671-1.67c-25.056-16.704-45.1-31.737-61.804-56.793
					c10.022-8.352,23.385-20.045,35.078-13.363c16.704,43.43,96.882,66.815,140.312,61.804
					c43.43-6.682,78.508-20.045,106.904-55.123c45.1-55.122,46.771-148.664-5.011-200.445c-3.341-3.341-6.681-3.341-11.693-1.67
					c-8.352-6.682-15.033-13.363-23.385-20.044l-3.341-3.341c1.67-1.67,1.67-3.341,1.67-6.682
					C2072.94,1070.713,2086.303,1060.69,2096.325,1050.668L2096.325,1050.668z"/>
				
					<linearGradient id="SVGID_00000093139454121494541260000007602262391976426886_" gradientUnits="userSpaceOnUse" x1="2110.78" y1="2160.0227" x2="1935.2437" y2="2059.1384" gradientTransform="matrix(1 0 0 1 0 -878)">
					<stop  offset="0" style="stop-color:#FCA776"/>
					<stop  offset="1" style="stop-color:#FFD1A7"/>
				</linearGradient>
				<path fill="url(#SVGID_00000093139454121494541260000007602262391976426886_)" d="M2074.61,1094.098
					c8.352,6.682,15.033,13.363,23.385,20.044c28.396,38.419,43.43,71.826,35.078,121.938
					c-6.682,38.419-26.726,71.826-58.463,93.541c-31.737,21.715-71.826,31.737-110.245,25.056
					c-40.089-6.682-75.167-30.067-98.552-65.145c3.341-3.341,10.022-6.682,15.033-10.022
					c25.056,36.748,63.474,60.134,106.904,60.134c35.078,0,68.486-13.363,91.871-38.419c25.056-25.056,38.419-58.463,36.748-93.541
					c0-41.759-18.374-68.485-46.771-96.882L2074.61,1094.098z"/>
				<path fill="#9C0000" d="M1892.539,1134.187c8.352,8.352,23.385,25.056,28.396,35.078c-13.363,6.682-16.704,30.067-15.033,43.43
					l-1.671-1.67l-5.011,8.352c-11.693,1.67-25.056,1.67-33.408,8.352c-1.671-6.681-1.671-15.033-1.671-23.385
					c1.671-3.341,1.671-13.363,1.671-16.704c3.341-16.704,10.022-28.396,18.374-43.43L1892.539,1134.187z"/>
				<path fill="#C71202" d="M1865.813,1189.31c8.352,3.341,31.737,11.693,35.078,16.704l1.671,8.352l-5.011,8.352
					c-11.693,1.67-25.056,1.67-33.407,8.352c-1.671-6.682-1.671-15.033-1.671-23.385
					C1864.142,1202.673,1865.813,1192.65,1865.813,1189.31z"/>
				<path fill="#E26644" d="M1860.802,1149.22l23.385-3.341c-8.352,15.033-15.033,26.726-18.374,43.43
					c0,3.341-1.671,13.363-1.671,16.704c0,6.682,0,15.033,1.671,23.385l-1.671,3.341c-8.352,1.67-15.033,0-16.704,10.022
					l-1.671-11.693C1839.087,1201.002,1849.109,1174.276,1860.802,1149.22L1860.802,1149.22z"/>
				<path fill="#F18258" d="M1862.472,1206.013c0,6.682,0,15.033,1.671,23.385l-1.671,3.341c-8.352,1.67-15.033,0-16.704,10.022
					l-1.671-11.693C1845.768,1212.695,1849.109,1214.365,1862.472,1206.013z"/>
				<path fill="#FEAE7D" d="M1845.768,1241.091c3.341-10.022,10.022-8.352,16.704-10.022c3.341,20.045,8.352,33.408,18.374,50.111
					c-3.341,3.341-10.022,6.682-15.033,10.022C1855.79,1272.828,1852.45,1262.806,1845.768,1241.091z"/>
				<path fill="#F18258" d="M1875.835,1125.835l5.011-1.67l11.693,10.022l-8.352,10.022l-23.385,3.341L1875.835,1125.835z"/>
				<path fill="#DD0801" d="M1869.154,1119.154c0-13.363-53.452-63.474,20.044-71.826c13.363-1.67,23.385,6.682,33.408,15.033
					c1.67,6.682,1.67,13.363,1.67,21.715l1.671,8.352c10.022,5.011,26.726-3.341,43.43-6.682
					c21.715,15.033,5.011,33.407,28.396,45.1c16.704,5.011,26.726,10.022,41.76,20.045c-1.671,8.352-3.341,25.056-10.022,30.067
					c1.671,11.693,1.671,16.704,8.352,26.726c0,10.022,0,18.374,0,26.726c-30.067,48.441-80.178,41.759-98.552-13.363
					c-6.681,1.67-16.704,5.011-21.715,6.682c-1.671-8.352-3.341-8.352-10.022-15.033c-1.67-13.363,1.67-36.748,15.033-43.43
					c-5.011-10.022-18.374-26.726-28.396-35.078l-11.693-10.022l-5.011,1.67L1869.154,1119.154z"/>
				<path fill="#F12E12" d="M1869.154,1119.154c0-13.363-53.452-63.474,20.044-71.826c13.363-1.67,23.385,6.682,33.408,15.033
					c1.67,6.682,1.67,13.363,1.67,21.715l1.671,8.352c10.022,5.011,26.726-3.341,43.43-6.682
					c21.715,15.033,5.011,33.407,28.396,45.1c-10.022,1.67-18.374,3.341-28.396,6.682l-6.682,5.011l1.671,1.67
					c0,13.363,33.408,51.782,43.43,63.474c-8.352-3.341-16.704-1.67-25.056-1.67c-25.056-23.385-45.1-58.463-66.815-85.189
					c-6.682-8.352-25.056-3.341-31.737,1.67l-5.011,1.67L1869.154,1119.154z"/>
				<path fill="#9C0000" d="M1924.276,1092.428c10.022,5.011,26.726-3.341,43.43-6.682c21.715,15.033,5.011,33.407,28.396,45.1
					c-10.022,1.67-18.374,3.341-28.396,6.682l-6.681,5.011l-5.011-1.67c-8.352-10.022-31.737-35.078-33.408-46.771
					L1924.276,1092.428z"/>
				<path fill="#1D1F21" d="M1996.102,1130.846c16.704,5.011,26.726,10.022,41.759,20.045c-1.671,8.352-3.341,25.056-10.022,30.067
					l-1.671-5.011c-26.726-20.045-45.1-13.363-63.474-31.737l-1.67-1.67l6.682-5.011
					C1977.728,1134.187,1986.08,1132.517,1996.102,1130.846z"/>
				
					<linearGradient id="SVGID_00000147204891087711535950000001895578027023128970_" gradientUnits="userSpaceOnUse" x1="1991.8074" y1="2048.2405" x2="1992.1749" y2="2019.4097" gradientTransform="matrix(1 0 0 1 0 -878)">
					<stop  offset="0" style="stop-color:#F6927A"/>
					<stop  offset="1" style="stop-color:#FFD0A4"/>
				</linearGradient>
				<path fill="url(#SVGID_00000147204891087711535950000001895578027023128970_)" d="M1967.706,1137.528
					c25.056,1.67,48.441,16.704,56.793,40.089c-26.726-20.045-45.1-13.363-63.474-31.737l-1.671-1.67L1967.706,1137.528z"/>
				<path fill="#8D4E37" d="M1905.902,1214.365c-1.671-13.363,1.67-36.748,15.033-43.43c18.374,21.715,23.385,23.385,16.704,51.782
					c-6.682,1.67-16.704,5.011-21.715,6.681C1912.583,1221.047,1910.913,1221.047,1905.902,1214.365z"/>
				<path fill="#F6260F" d="M1979.399,1207.684c10.022,0,16.704,0,25.056,1.67c1.67,11.693,3.341,6.682,0,16.704
					c-11.693,10.022-16.704,8.352-26.726-1.67C1976.058,1212.695,1976.058,1217.706,1979.399,1207.684L1979.399,1207.684z"/>
				<path fill="#FEE4C2" d="M2037.862,1150.891c5.011,5.011,10.022,11.693,13.363,16.704c11.693,21.715,18.374,43.43,10.022,68.485
					c-5.011,18.374-16.704,33.408-33.408,41.76c-18.374,10.022-41.76,11.693-61.804,5.011c-20.044-6.682-35.078-20.045-43.43-38.419
					c-1.671-5.011-5.011-11.693-6.681-16.704c5.011-3.341,16.704-5.011,21.715-6.681c18.374,55.123,70.156,61.804,98.552,13.363
					c1.67-10.022,0-18.374,0-26.726c-6.681-10.022-6.681-15.034-8.352-26.726
					C2034.521,1175.947,2036.191,1159.243,2037.862,1150.891L2037.862,1150.891z"/>
				<path fill="#27282A" d="M2037.862,1150.891c5.011,5.011,10.022,11.693,13.363,16.704c-3.341,16.704-5.011,25.056-13.363,38.419
					c-6.681-10.022-6.681-15.033-8.352-26.726C2034.521,1175.947,2036.191,1159.243,2037.862,1150.891L2037.862,1150.891z"/>
				<path fill="#C71202" d="M1967.706,1085.746c8.352-1.67,20.044,0,28.396,0c-5.011,1.67-10.022,3.341-15.033,3.341
					c5.011,45.1,36.748,46.771,75.167,45.1l-5.011,28.396c73.497,105.234-71.826,185.412-140.312,98.552
					c-8.352-10.022-11.693-30.067-15.033-43.43l5.011-8.352l1.671,1.67c6.681,6.682,6.681,6.682,10.022,15.034
					c1.671,5.011,3.341,11.693,6.682,16.704c8.352,18.374,25.056,31.737,43.43,38.419c20.044,6.682,43.43,5.011,61.804-5.011
					c16.704-8.352,28.396-23.385,33.407-41.759c6.681-25.056,1.671-46.771-10.022-68.485c-3.341-5.011-8.352-11.693-13.363-16.704
					c-15.033-11.693-23.385-15.034-41.759-20.045C1972.717,1119.154,1991.091,1099.109,1967.706,1085.746z"/>
				<path fill="#1D1F21" d="M2029.51,1020.601c10.022,3.341,21.715,6.682,31.737,10.022c-10.022,13.363-31.737,15.033-50.111,36.748
					l-25.056-1.67l-6.681,13.363l1.671,3.341c6.681,0,13.363,1.67,20.044,1.67l-3.341,1.67c-8.352,0-20.044-1.67-28.396,0
					c-16.704,3.341-33.408,11.693-43.43,6.682l-1.671-8.352c0-6.682-1.67-13.363-1.67-21.715
					C1947.661,1055.679,2004.454,1032.294,2029.51,1020.601z"/>
				<path fill="#F18258" d="M1924.276,1082.405c25.056-10.022,36.748-13.363,63.474-16.704l-6.681,13.363l1.67,3.341
					c6.682,0,13.363,1.67,20.045,1.67l-3.341,1.67c-8.352,0-20.045-1.67-28.396,0c-16.704,3.341-33.407,11.693-43.43,6.682
					L1924.276,1082.405z"/>
				<path fill="#27282A" d="M2061.247,1032.294c15.033,6.682,21.715,10.022,35.078,20.045
					c-11.693,10.022-23.385,20.045-23.385,33.408c0,3.341-1.671,3.341-1.671,6.682c-23.385-13.363-35.078-16.704-60.134-23.385
					C2029.51,1047.327,2051.225,1045.657,2061.247,1032.294z"/>
				<path fill="#FEAE7D" d="M1986.08,1067.372l25.056,1.67c25.056,6.681,36.748,10.022,60.134,23.385l3.341,3.341l-3.341,18.374
					c-25.056-20.044-38.419-25.056-70.156-30.067c-6.681,0-13.363-1.67-20.044-1.67l-1.671-3.341L1986.08,1067.372z"/>
				<path fill="#F6260F" d="M2430.401,1267.817c25.056,18.374,41.76,50.111,26.726,80.178c0,1.67-5.011,10.022-5.011,10.022
					c-73.497,36.748-148.664,68.485-223.831,103.563l-38.419,18.374c-78.508,33.408-162.027,71.826-240.534,108.575l-8.352-13.363
					l-3.341-3.341c-3.341-10.022-13.363-26.726-18.374-36.748l-16.704-30.067c126.949-55.123,272.272-116.927,395.88-177.06
					c8.352-6.682,3.341-5.011,13.363-6.682l61.804-26.726c16.704-10.022,16.704-11.693,35.078-15.033
					C2418.708,1279.51,2423.719,1274.499,2430.401,1267.817L2430.401,1267.817z"/>
				<path fill="#E26644" d="M2296.771,1327.951c3.341,8.352,10.022,23.385,15.033,31.737
					c-125.278,46.771-242.205,106.904-364.142,160.356c-10.022,3.341-20.045,10.022-28.396,13.363l-16.704-30.067
					C2027.839,1449.889,2174.833,1388.085,2296.771,1327.951z"/>
				<path fill="#F12E12" d="M2430.401,1267.817c25.056,18.374,41.76,50.111,26.726,80.178
					c-21.715,1.67-91.871,36.748-113.586,46.771l-13.363,5.011c-5.011-13.363-11.693-26.726-18.375-40.089
					c-5.011-8.352-10.022-23.385-15.033-31.737c8.352-6.682,3.341-5.011,13.363-6.682l61.804-26.726
					c16.704-10.022,16.704-11.693,35.078-15.033C2418.708,1279.51,2423.719,1274.499,2430.401,1267.817z"/>
				<path fill="#E26644" d="M2408.686,1281.18c28.396,5.011,38.419,25.056,31.737,50.111c-10.022,45.1-91.871,15.033-68.486-36.748
					C2388.641,1286.192,2390.312,1284.521,2408.686,1281.18z"/>
				<path fill="#9C0000" d="M2296.771,1327.951c8.352-6.682,3.341-5.011,13.363-6.682l31.737,73.497l-13.363,5.011
					c-5.011-13.363-11.693-26.726-18.374-40.089C2306.793,1351.336,2301.782,1337.973,2296.771,1327.951L2296.771,1327.951z"/>
				<path fill="#9C0000" d="M2343.541,1394.766c21.715-11.693,93.541-45.1,113.586-46.771c0,1.67-5.011,10.022-5.011,10.022
					c-73.497,36.748-148.664,68.485-223.831,103.563l-38.419,18.374c-78.508,33.407-162.027,71.826-240.534,108.575l-8.352-13.363
					c8.352-1.67,20.045-6.682,26.726-10.022c121.938-55.123,243.875-106.904,364.143-162.027L2343.541,1394.766z"/>
				<path fill="#F6260F" d="M1793.986,985.523c40.089-43.43,162.027-96.882,208.797-41.76l6.681,1.67
					c18.374,5.011,81.849,28.396,80.178,50.111c-11.692,10.022-43.43,18.374-58.463,25.056
					c-26.726,10.022-83.519,35.078-108.575,40.089c-8.352-8.352-20.044-16.704-33.408-15.033
					c-73.497,8.352-20.044,58.463-20.044,71.826c-16.704,10.022-38.419,61.804-53.452,78.508
					c-3.341,3.341-18.374,21.715-20.045,25.056c-15.033,15.033-51.782,40.089-73.496,36.748c0-8.352,6.681-48.441,6.681-58.463
					c5.011-51.782,3.341-130.289,35.078-173.719l-10.022-11.693c3.341-3.341,3.341-6.682,5.011-10.022
					c6.681-6.682,20.044-23.385,28.396-21.715L1793.986,985.523z"/>
				
					<linearGradient id="SVGID_00000158022536845819654010000006291792708914072466_" gradientUnits="userSpaceOnUse" x1="1693.0897" y1="1998.4885" x2="2015.3391" y2="1918.2473" gradientTransform="matrix(1 0 0 1 0 -878)">
					<stop  offset="0" style="stop-color:#C30000"/>
					<stop  offset="1" style="stop-color:#EF0900"/>
				</linearGradient>
				<path fill="url(#SVGID_00000158022536845819654010000006291792708914072466_)" d="M1793.986,985.523
					c40.089-43.43,162.027-96.882,208.797-41.76c-11.693,0-28.396-3.341-41.76-5.011c-53.452-6.682-95.211,3.341-136.971,38.419
					c-108.575,78.508-55.123,262.249-103.563,278.953c0-8.352,6.681-48.441,6.681-58.463c5.011-51.782,3.341-130.29,35.078-173.719
					l-10.022-11.693c3.341-3.341,3.341-6.682,5.011-10.022c6.681-6.682,20.045-23.385,28.396-21.715L1793.986,985.523z"/>
				<path fill="#9C0000" d="M1758.909,1003.898c6.681-6.682,20.044-23.385,28.396-21.715l6.681,3.341
					c-1.67,11.693-20.044,33.408-30.067,40.089l-10.022-11.693C1755.568,1010.579,1757.238,1007.238,1758.909,1003.898z"/>
				<path fill="#F12E12" d="M1824.053,978.842c41.76-35.078,85.189-45.1,136.971-38.419c13.363,1.67,28.396,5.011,41.76,5.011
					l6.681,1.67c-16.704,3.341-35.078,5.011-51.782,1.67c-46.771-6.682-83.519,6.682-125.278,33.407
					C1825.724,980.512,1829.064,982.183,1824.053,978.842L1824.053,978.842z"/>
				<path fill="#E26644" d="M2188.196,1478.285l38.419-18.374c21.715,20.045,61.804,70.156,31.737,98.552
					c-20.044,23.385-70.156,68.485-95.212,90.2c-43.43,40.089-86.86,80.178-130.29,121.938c-1.67-5.011-6.681-16.704-8.352-21.715
					c-28.396-81.849-33.407-90.2-78.508-163.697C2026.169,1551.782,2109.688,1511.693,2188.196,1478.285z"/>
				<path fill="#F18258" d="M2196.548,1583.519c20.044-5.011,43.43-25.056,61.804-23.385
					c-20.044,23.385-70.156,68.486-95.212,90.201c-43.43,40.089-86.86,80.178-130.29,121.938c-1.67-5.011-6.681-16.704-8.352-21.715
					c60.134-51.782,118.597-106.904,175.39-163.697L2196.548,1583.519z"/>
				<path fill="#FEAE7D" d="M2188.196,1478.285l38.419-18.374c21.715,20.045,61.804,70.156,31.737,98.552
					c-18.374-1.67-41.76,18.374-61.804,23.385C2221.604,1540.089,2226.615,1515.033,2188.196,1478.285z"/>
				<path fill="#FA956A" d="M262.249,2682.628c-6.682,26.726,5.011,53.452,11.693,80.178
					c23.385,88.53,56.793,152.004,101.893,230.512H48.441c5.011-8.352,11.693-18.374,16.704-25.056
					C135.301,2874.722,197.105,2777.84,262.249,2682.628z"/>
				<path fill="#FEAE7D" d="M1207.684,304.009c13.363,3.341,28.396,0,35.078,3.341c10.022,15.033,13.363,11.693,30.067,10.022
					l-26.726,3.341c-1.671,3.341-3.341,6.681-6.681,10.022l5.011,1.67c3.341,8.352,3.341,13.363,3.341,23.385
					c6.681,3.341,11.693,5.011,15.033,11.693c-3.341,10.022,0,10.022,0,18.374c0,15.033,1.671,20.044,6.681,35.078
					c-15.033,20.045-35.078,16.704-58.463,16.704c-1.67,10.022-5.011,25.056-3.341,33.408l-3.341,8.352l5.011,16.704l1.67,3.341
					c-1.67,8.352,0,6.682-6.681,11.693c-8.352,0-13.363,0-21.715-1.67l-16.704-18.374l-8.352-10.022
					c-8.352-11.693-45.1-41.759-56.793-53.452c3.341-11.693,3.341-13.363,3.341-25.056c15.033-5.011,23.385-16.704,28.396-30.067
					c-11.693-18.374-11.693-23.385,1.67-41.759h3.341c13.363-8.352,30.067-15.033,43.43-23.385
					C1189.309,305.679,1197.661,305.679,1207.684,304.009z"/>
				<path fill="#F18258" d="M1130.846,372.494c10.022,3.341,16.704,6.682,26.726,10.022c6.681,11.693,8.352,15.033,16.704,25.056
					c26.726,6.682,66.815,15.033,93.541,13.363c-15.033,20.045-35.078,16.704-58.463,16.704
					c-1.671,10.022-5.011,25.056-3.341,33.408l-3.341,8.352l5.011,16.704l1.671,3.341c-1.671,8.352,0,6.682-6.681,11.693
					c-8.352,0-13.363,0-21.715-1.67l-16.704-18.374l-8.352-10.022c-8.352-11.693-45.1-41.759-56.793-53.452
					c3.341-11.693,3.341-13.363,3.341-25.056C1115.813,397.55,1124.165,385.857,1130.846,372.494L1130.846,372.494z"/>
				<path fill="#FEAE7D" d="M1155.902,481.069l8.352,1.67c-18.374-28.397-21.715-51.782-11.693-83.519
					c10.022,20.045,48.441,73.497,50.111,80.178l5.011,16.704l1.671,3.341c-1.671,8.352,0,6.681-6.681,11.693
					c-8.352,0-13.363,0-21.715-1.67l-16.704-18.374L1155.902,481.069z"/>
				<path fill="#FEE4C2" d="M1164.254,491.091c21.715,5.011,20.045,20.045,45.1,6.682l1.67,3.341c-1.67,8.352,0,6.682-6.681,11.693
					c-8.352,0-13.363,0-21.715-1.67L1164.254,491.091z"/>
				<path fill="#C71202" d="M1134.187,330.735c13.363-8.352,30.067-15.033,43.43-23.385l-3.341,16.704
					c-1.671,10.022-1.671,28.396-6.682,35.078C1150.891,357.461,1155.902,334.076,1134.187,330.735L1134.187,330.735z"/>
				<path fill="#F18258" d="M1207.684,304.009c13.363,3.341,28.396,0,35.078,3.341c10.022,15.033,13.363,11.693,30.067,10.022
					l-26.726,3.341c-1.671,3.341-3.341,6.681-6.681,10.022c-6.681-6.681-3.341-8.352-10.022-13.363c-13.363,0-43.43,0-53.452,5.011
					l3.341-16.704C1189.309,305.679,1197.661,305.679,1207.684,304.009z"/>
				<path fill="#F18258" d="M1247.773,355.791c6.681,3.341,11.693,5.011,15.033,11.693c-3.341,10.022,0,10.022,0,18.374
					l-10.022,3.341l-3.341-1.67c1.671-13.363,1.671-16.704-1.67-28.396L1247.773,355.791z"/>
				<path fill="#F6260F" d="M1062.361,288.975c3.341-25.056,16.704-45.1,36.748-60.134c21.715-15.033,48.441-21.715,75.167-18.374
					c38.419,6.682,51.782,30.067,71.826,60.134l-15.033,8.352c-1.67,3.341-23.385,26.726-23.385,26.726
					c-10.022,0-18.374,0-28.396,3.341c-15.033,6.682-30.067,15.033-43.43,23.385h-3.341c-11.693,16.704-11.693,23.385-1.671,41.759
					c-6.681,13.363-13.363,25.056-28.396,30.067c-10.022-18.374-16.704-30.067-23.385-50.111
					C1067.372,325.724,1064.031,317.372,1062.361,288.975L1062.361,288.975z"/>
				<path fill="#DD0801" d="M1062.361,288.975c8.352,0,15.033,6.682,23.385,8.352c26.726,5.011,38.419,1.67,50.111-23.385
					c0-10.022-3.341-15.033-6.681-23.385c10.022,8.352,13.363,18.374,25.056,30.067l1.67,1.67c23.385,0,51.782,1.67,75.167-3.341
					c-1.67,3.341-23.385,26.726-23.385,26.726c-10.022,0-18.374,0-28.396,3.341c-15.033,6.682-30.067,15.033-43.43,23.385h-3.341
					c-11.693,16.704-11.693,23.385-1.671,41.759c-6.681,13.363-13.363,25.056-28.396,30.067
					c-10.022-18.374-16.704-30.067-23.385-50.111C1067.372,325.724,1064.031,317.372,1062.361,288.975L1062.361,288.975z"/>
				<path fill="#C71202" d="M1077.394,352.45c18.374-6.681,35.078-16.704,53.452-21.715c-11.693,16.704-11.693,23.385-1.671,41.759
					c-6.681,13.363-13.363,25.056-28.396,30.067C1090.757,382.517,1084.076,372.494,1077.394,352.45L1077.394,352.45z"/>
				<path fill="#F6260F" d="M1202.672,479.399l3.341-8.352c68.486,51.782,76.838,85.189,160.356,120.267v3.341
					c-8.352,5.011-10.022,11.693-15.033,20.045l-6.681,13.363h5.011l-1.671,6.681c-5.011,10.022-13.363,30.067-18.374,36.748
					c-16.704-5.011-21.715-8.352-36.748-16.704c0,13.363,0,33.407-1.67,45.1l-1.671-11.693
					c-11.693-11.693-16.704-6.681-33.408-8.352c-5.011-8.352,0-28.396-6.681-41.76c-3.341-50.111-13.363-95.212-40.089-138.641
					l-1.671-3.341L1202.672,479.399z"/>
				<path fill="#9C0000" d="M1289.532,629.733c0-1.67,1.671-5.011,1.671-6.682c8.352,1.67,15.033,3.341,23.385,1.67
					c10.022,6.682,10.022,5.011,21.715,0l6.681,6.682c1.67,0,3.341-1.67,3.341-3.341h5.011l-1.67,6.682
					c-5.011,10.022-13.363,30.067-18.374,36.748c-16.704-5.011-21.715-8.352-36.748-16.704
					C1289.532,649.777,1289.532,636.414,1289.532,629.733z"/>
				<path fill="#BC0200" d="M1266.147,546.214c5.011,5.011,8.352,11.693,11.693,16.704c11.693,21.715,23.385,35.078,36.748,60.134
					c-8.352,3.341-15.033,1.67-23.385-1.67c0,1.67-1.671,5.011-1.671,6.682c-5.011-16.704-13.363-30.067-23.385-45.1
					C1266.147,572.94,1266.147,557.906,1266.147,546.214z"/>
				<path fill="#DD0801" d="M1277.84,562.918l1.671,1.67c30.067,21.715,13.363,36.748,51.782,40.089
					c5.011,3.341,5.011,3.341,10.022,10.022h10.022l-6.681,13.363c0,1.67-3.341,1.67-3.341,3.341l-6.681-6.682
					c-11.693,5.011-11.693,6.682-21.715,0C1301.225,597.995,1289.532,584.633,1277.84,562.918z"/>
				<path fill="#C71202" d="M1560.134,741.648c38.419,28.396,152.005,125.278,180.401,160.356
					c11.693,6.682,23.385,6.682,31.737,13.363c31.737,30.067,38.419,28.396,15.033,65.145c-10.022-1.67-23.385,15.033-28.396,21.715
					c-1.671,3.341-1.671,6.682-5.011,10.022c-16.704,5.011-16.704,16.704-18.374,33.408c-10.022-10.022-13.363-66.815-21.715-90.2
					c-21.715-63.474-65.145-110.245-110.245-157.016c-10.022-10.022-28.396-30.067-40.089-36.748
					C1555.122,753.341,1553.452,753.341,1560.134,741.648z"/>
				<path fill="#E26644" d="M1740.534,902.004c11.693,6.682,23.385,6.682,31.737,13.363c31.737,30.067,38.419,28.396,15.033,65.145
					c-10.022-1.67-23.385,15.033-28.396,21.715c-1.671,0-3.341,0-5.011,0c-5.011-6.682-6.681-11.693-8.352-21.715
					c-5.011-13.363-6.681-23.385-10.022-36.748l-5.011-21.715c-1.671-5.011-1.671-5.011-1.671-8.352
					C1732.182,910.356,1735.523,907.016,1740.534,902.004L1740.534,902.004z"/>
				<path fill="#DD0801" d="M1772.271,917.038c31.737,30.067,38.419,28.396,15.033,65.145c-10.022-1.67-23.385,15.034-28.396,21.715
					c-1.671,0-3.341,0-5.011,0c-5.011-6.682-6.681-11.693-8.352-21.715c21.715-5.011,26.726-6.682,36.748-25.056
					c0-1.67,0-3.341,0-5.011c0-13.363-1.671-15.033-11.693-25.056L1772.271,917.038z"/>
				<path fill="#F12E12" d="M1733.853,945.434c15.033,25.056,20.044,20.044,46.771,11.693
					c-10.022,20.044-15.033,20.044-36.748,25.056C1740.534,968.82,1737.194,957.127,1733.853,945.434L1733.853,945.434z"/>
				<path fill="#F6260F" d="M1740.534,902.004c11.693,6.682,23.385,6.682,31.737,13.363l-1.671,8.352
					c-15.033-6.682-30.067-16.704-41.759-3.341c-1.67-5.011-1.67-5.011-1.67-8.352
					C1732.182,910.356,1735.523,907.016,1740.534,902.004z"/>
				<path fill="#F12E12" d="M1498.329,636.414c11.693-26.726,78.508-105.234,100.223-51.782c3.341,8.352,5.011,15.033,6.681,23.385
					l5.011,26.726c5.011,55.122-10.022,50.111-58.463,53.452v-5.011l-8.352,3.341l-3.341-1.67c3.341-3.341,3.341-3.341,10.022-3.341
					l1.671-1.67c-11.693,0-23.385,0-33.408,6.681c-5.011,3.341-30.067,15.033-35.078,16.704
					c-3.341-23.385-11.693-28.396-33.408-28.396c8.352-5.011,11.693-6.681,18.374-13.363l16.704-11.693
					C1486.637,643.096,1493.318,638.085,1498.329,636.414L1498.329,636.414z"/>
				<path fill="#DD0801" d="M1608.575,634.744c5.011,55.122-10.022,50.111-58.463,53.452v-5.011l-8.352,3.341l-3.341-1.67
					c3.341-3.341,3.341-3.341,10.022-3.341l1.67-1.67c-11.693,0-23.385,0-33.408,6.681l-8.352-10.022l-18.374-18.374
					c26.726,0,53.452-3.341,78.508-13.363C1585.189,641.425,1593.541,639.755,1608.575,634.744L1608.575,634.744z"/>
				<path fill="#F6260F" d="M1508.352,674.833c15.033-6.682,48.441-15.034,63.474-8.352c-1.671,10.022-11.693,10.022-20.044,11.693
					c-11.693,0-23.385,0-33.408,6.682L1508.352,674.833z"/>
				<path fill="#F6260F" d="M1603.563,608.018c-40.089,10.022-25.056-1.67-36.748-20.044c-3.341,0-5.011,0-8.352,0h-3.341l1.67-1.67
					c15.033-5.011,23.385-11.693,35.078-1.67l5.011-1.67C1600.223,592.984,1601.893,599.666,1603.563,608.018L1603.563,608.018z"/>
				<path fill="#F18258" d="M833.519,576.281c35.078-3.341,46.771,6.682,70.156,31.737c5.011,3.341,11.693,6.682,16.704,10.022
					c-15.033,0-18.374,0-33.408,3.341c-1.67,31.737,8.352,58.463,25.056,85.189l1.671,1.67
					c8.352,15.033,20.044,26.726,23.385,38.419c-1.671,5.011-1.671,3.341-8.352,8.352l-10.022-8.352c-8.352,0-26.726,0-35.078,0
					c-5.011-1.67-11.693-5.011-16.704-6.682v-10.022c3.341-8.352-1.67-21.715-5.011-30.067
					c-8.352-16.704-15.033-21.715-28.396-35.078v-13.363c-3.341-16.704-10.022-36.748-23.385-48.441
					C815.145,594.655,825.167,584.633,833.519,576.281L833.519,576.281z"/>
				<path fill="#F6260F" d="M833.519,576.281c35.078-3.341,46.771,6.682,70.156,31.737c-28.396-1.67-66.815,13.363-68.486,46.771
					c-3.341-16.704-10.022-36.748-23.385-48.441C815.145,594.655,825.167,584.633,833.519,576.281z"/>
				<path fill="#DD0801" d="M863.586,701.559c8.352,3.341,33.408,30.067,41.759,36.748l11.693,10.022c-8.352,0-26.726,0-35.078,0
					c-5.011-1.67-11.693-5.011-16.704-6.682v-10.022C870.267,723.274,865.256,709.911,863.586,701.559z"/>
				<path fill="#9C0000" d="M868.597,731.626l38.419,6.682l11.693,10.022c-8.352,0-26.726,0-35.078,0
					c-5.011-1.67-11.693-5.011-16.704-6.682L868.597,731.626z"/>
				<path fill="#FA956A" d="M912.026,706.57c-20.044-10.022-38.419-45.1-36.748-66.815c0-10.022,5.011-13.363,11.693-18.374
					C883.63,654.788,895.323,679.844,912.026,706.57z"/>
				<path fill="#F6260F" d="M866.926,741.648c5.011,3.341,10.022,5.011,16.704,6.682c8.352-1.67,25.056,0,35.078,0l10.022,8.352
					c15.033,13.363,38.419,35.078,38.419,58.463c-5.011,10.022-3.341,16.704-3.341,28.396c3.341,13.363,8.352,25.056,10.022,38.419
					c-31.737,6.682-45.1,0-75.167-10.022C886.971,828.508,875.278,783.408,866.926,741.648L866.926,741.648z"/>
				<path fill="#C71202" d="M918.708,748.33l10.022,8.352c15.033,13.363,38.419,35.078,38.419,58.463
					c-5.011,10.022-3.341,16.704-3.341,28.396c-20.044-35.078-45.1-70.156-78.508-93.541
					C891.982,748.33,908.686,748.33,918.708,748.33z"/>
				<path fill="#FFFFFF" d="M795.1,1252.784c11.693-3.341,26.726-8.352,38.419-8.352c13.363,30.067,21.715,3.341,31.737,38.419
					c-10.022,16.704-20.044,26.726-28.396,41.76c-3.341,6.681-11.693,20.044-16.704,25.056
					c-11.693-30.067-23.385-61.804-35.078-91.871L795.1,1252.784z"/>
				<path fill="#F12E12" d="M1246.102,270.601c13.363,1.67,66.815,6.682,75.167,11.693c-6.681,26.726-21.715,33.408-48.441,36.748
					c-16.704,0-20.044,3.341-30.067-10.022c-6.681-3.341-21.715,0-35.078-3.341c0,0,21.715-23.385,23.385-26.726L1246.102,270.601z"
					/>
				<path fill="#9C0000" d="M1321.269,282.294c-6.681,26.726-21.715,33.408-48.441,36.748c-16.704,0-20.044,3.341-30.067-10.022
					c11.693-5.011,28.396-3.341,40.089-6.681C1296.214,295.657,1304.566,288.975,1321.269,282.294z"/>
				<path fill="#F18258" d="M1378.062,651.448c1.671-10.022,5.011-15.033,8.352-23.385c3.341,13.363,1.671,11.693,13.363,18.374
					c10.022,6.681,41.759,13.363,46.771,21.715l-5.011,3.341c-11.693,13.363-11.693,15.034-28.396,15.034c-1.67,0-5.011,0-6.681,0
					c-8.352,0-20.044-1.67-28.396-1.67C1378.062,671.492,1378.062,663.14,1378.062,651.448z"/>
				<path fill="#F12E12" d="M1368.04,591.314c13.363,3.341,26.726,8.352,36.748,16.704l-5.011,6.682
					c-6.681,5.011-6.681,6.682-11.693,13.363c-3.341,8.352-6.681,15.033-8.352,23.385c-15.033-6.682-21.715-1.67-31.737-15.033
					l1.671-6.682h-5.011l6.681-13.363c5.011-8.352,6.681-15.033,15.033-20.045L1368.04,591.314z"/>
				<path fill="#C71202" d="M1351.336,614.699c5.011-8.352,6.681-15.033,15.033-20.045c-1.67,11.693-10.022,23.385-16.704,35.078
					h-5.011L1351.336,614.699z"/>
				<path fill="#FA956A" d="M1398.107,614.699c11.693,16.704,46.771,33.408,68.486,45.1c-6.681,6.682-10.022,8.352-18.374,13.363
					l-5.011-1.67l5.011-3.341c-5.011-6.682-36.748-15.033-46.771-21.715c-11.693-8.352-8.352-5.011-13.363-18.374
					C1391.425,621.381,1393.096,619.71,1398.107,614.699z"/>
				<path fill="#C71202" d="M760.022,1428.174c6.682,0,13.363,0,18.374,6.682c-5.011,15.033-6.682,33.408-13.363,46.771
					c-1.67,0-5.011,1.67-6.682,1.67c-10.022-5.011-13.363-20.044-18.374-31.737h-8.352c5.011-8.352,5.011-10.022,3.341-20.044
					L760.022,1428.174z"/>
				<path fill="#F18258" d="M760.022,1428.174c6.682,0,13.363,0,18.374,6.682c-8.352,10.022-25.056,13.363-36.748,16.704h-8.352
					c5.011-8.352,5.011-10.022,3.341-20.044L760.022,1428.174z"/>
				<path fill="#C71202" d="M763.363,1394.766c15.034-8.352,23.385-11.693,38.419-18.374c-6.681,21.715-16.704,38.419-25.056,58.463
					c-5.011-6.682-10.022-5.011-18.374-6.682C760.022,1413.14,760.022,1409.8,763.363,1394.766L763.363,1394.766z"/>
				<path fill="#FEAE7D" d="M1404.788,608.018c8.352,16.704,61.804,31.737,80.178,38.419l-16.704,11.693
					c-21.715-11.693-56.793-28.396-68.486-45.1L1404.788,608.018z"/>
				<path fill="#E26644" d="M773.385,1259.465l8.352-1.67c11.693,30.067,23.385,60.134,35.078,91.871l-3.341,3.341v3.341
					C805.122,1342.984,781.737,1277.84,773.385,1259.465z"/>
				<path fill="#DD0801" d="M810.134,604.677c13.363,11.693,20.044,31.737,23.385,48.441v13.363
					C811.804,644.766,801.782,636.414,810.134,604.677z"/>
				<path fill="#F6260F" d="M731.626,1451.559h8.352c5.011,11.693,8.352,25.056,18.374,31.737l1.67,1.67
					c-18.374,1.67-30.067,1.67-35.078-18.374C726.615,1459.911,726.615,1456.57,731.626,1451.559z"/>
				<path fill="#F12E12" d="M734.966,1431.514c-3.341-26.726,6.682-26.726,28.396-38.419c-3.341,15.034-5.011,20.045-5.011,35.078
					L734.966,1431.514z"/>
				<path fill="#FA956A" d="M1239.421,332.405c3.341-3.341,5.011-6.682,6.681-10.022c6.681,11.693,20.045,28.396,23.385,36.748
					c-1.67,6.681,0,5.011-6.681,8.352c-3.341-6.682-10.022-8.352-15.033-11.693c0-8.352,1.671-15.033-3.341-23.385H1239.421z"/>
			</g>
		</g>
	</g>
</g>
</svg>
